<svg width="520" height="394" viewBox="0 0 520 394" fill="none" xmlns="http://www.w3.org/2000/svg">
<path d="M223.004 253.006L222.049 258.312L221.03 264.014L211.679 316.012H196.395L205.736 264.014L206.764 258.312L207.72 253.006H223.004Z" fill="#EBEBEB"/>
<path d="M220.791 253.006C219.981 258.274 219.118 263.534 218.245 268.783L215.544 284.551L212.718 300.291L211.263 308.152L209.746 316.012L210.993 308.114L212.292 300.225L215.024 284.467L217.851 268.727C218.775 263.477 219.752 258.237 220.791 253.006Z" fill="#C7C7C7"/>
<path d="M222.047 258.312L221.029 264.015H205.734L206.763 258.312H222.047Z" fill="#C7C7C7"/>
<path d="M298.48 253.006L299.436 258.312L300.455 264.014L309.806 316.012H325.09L315.749 264.014L314.721 258.312L313.765 253.006H298.48Z" fill="#EBEBEB"/>
<path d="M300.746 253.006C301.546 258.274 302.419 263.534 303.292 268.783L305.983 284.551L308.809 300.291L310.274 308.152L311.791 316.012L310.544 308.114L309.245 300.225L306.544 284.467L303.718 268.727C302.751 263.477 301.775 258.237 300.746 253.006Z" fill="#C7C7C7"/>
<path d="M299.434 258.312H314.718L315.747 264.015H300.452L299.434 258.312Z" fill="#C7C7C7"/>
<path d="M222.443 238.377H210.328L211.835 228.123H220.937L222.443 238.377Z" fill="#C7C7C7"/>
<path d="M227.513 222.598C228.597 217.026 224.496 211.711 218.354 210.728C212.211 209.744 206.352 213.464 205.268 219.036C204.184 224.608 208.284 229.922 214.427 230.906C220.57 231.889 226.429 228.17 227.513 222.598Z" fill="#DBDBDB"/>
<path d="M224.747 222.6C225.841 218.411 222.985 214.21 218.367 213.218C213.749 212.225 209.118 214.817 208.024 219.005C206.93 223.194 209.786 227.394 214.404 228.387C219.022 229.379 223.653 226.788 224.747 222.6Z" fill="white"/>
<path d="M223.563 220.347C223.483 219.419 223.193 218.515 222.71 217.692C222.228 216.87 221.563 216.147 220.758 215.569C219.947 214.998 219.017 214.582 218.024 214.347C217.031 214.112 215.996 214.063 214.981 214.202C213.973 214.346 213.011 214.681 212.155 215.184C211.299 215.687 210.57 216.348 210.014 217.124C209.428 217.953 209.043 218.887 208.887 219.863C208.732 220.838 208.807 221.832 209.11 222.779C209.626 224.414 210.832 225.799 212.466 226.634C214.06 227.455 215.931 227.716 217.724 227.369C219.458 227.033 221.013 226.168 222.129 224.918C223.232 223.684 223.87 222.161 223.948 220.573C223.948 220.507 223.948 220.442 223.875 220.442C223.802 220.442 223.802 220.498 223.802 220.573C223.763 221.216 223.626 221.85 223.397 222.458C223.158 223.056 222.84 223.626 222.452 224.155C222.042 224.668 221.568 225.136 221.038 225.55C220.495 225.962 219.898 226.313 219.262 226.596C218.347 226.987 217.352 227.201 216.342 227.223C215.331 227.246 214.326 227.077 213.391 226.728C212.453 226.368 211.613 225.827 210.928 225.144C210.242 224.46 209.729 223.65 209.422 222.769C209.107 221.865 209.01 220.909 209.139 219.967C209.268 219.025 209.62 218.12 210.17 217.312C210.701 216.546 211.408 215.893 212.241 215.395C213.075 214.898 214.016 214.568 215.002 214.428C216.333 214.236 217.698 214.374 218.95 214.827C220.203 215.28 221.298 216.031 222.119 217.001C222.514 217.502 222.836 218.047 223.075 218.622C223.306 219.207 223.46 219.814 223.532 220.432C223.532 220.432 223.563 220.376 223.563 220.347Z" fill="#EBEBEB"/>
<path d="M222.555 220.357C222.481 219.562 222.227 218.789 221.808 218.086C221.39 217.384 220.816 216.768 220.124 216.276C219.429 215.791 218.635 215.437 217.787 215.233C216.94 215.029 216.057 214.98 215.188 215.088C214.32 215.206 213.489 215.488 212.75 215.917C212.01 216.346 211.379 216.911 210.897 217.576C210.384 218.287 210.045 219.088 209.902 219.927C209.758 220.765 209.814 221.622 210.066 222.44C210.28 223.148 210.648 223.81 211.148 224.387C211.647 224.965 212.268 225.447 212.975 225.804C214.363 226.525 215.998 226.746 217.557 226.427C219.062 226.132 220.408 225.377 221.371 224.287C222.324 223.214 222.873 221.893 222.939 220.517C222.939 220.461 222.939 220.404 222.877 220.404C222.815 220.404 222.794 220.451 222.794 220.517C222.709 221.622 222.3 222.686 221.61 223.599C220.919 224.512 219.972 225.241 218.866 225.71C218.08 226.057 217.221 226.249 216.347 226.272C215.473 226.294 214.603 226.148 213.796 225.842C212.984 225.531 212.257 225.062 211.664 224.47C211.072 223.877 210.63 223.175 210.367 222.412C210.097 221.628 210.019 220.801 210.138 219.987C210.256 219.173 210.568 218.392 211.053 217.699C211.51 217.045 212.119 216.489 212.837 216.069C213.554 215.649 214.364 215.376 215.209 215.267C216.34 215.115 217.495 215.237 218.558 215.621C219.62 216.005 220.551 216.637 221.256 217.454C221.595 217.879 221.875 218.342 222.087 218.83C222.282 219.331 222.418 219.849 222.493 220.376L222.555 220.357Z" fill="#EBEBEB"/>
<path d="M221.548 220.365C221.473 219.703 221.25 219.061 220.893 218.48C220.536 217.898 220.052 217.388 219.47 216.982C218.302 216.176 216.832 215.817 215.376 215.983C214.647 216.07 213.947 216.297 213.322 216.648C212.697 216.999 212.161 217.466 211.75 218.019C211.305 218.616 211.007 219.292 210.876 220.003C210.746 220.714 210.785 221.442 210.991 222.137C211.166 222.744 211.474 223.312 211.898 223.808C212.321 224.303 212.85 224.716 213.454 225.021C214.645 225.625 216.041 225.807 217.371 225.53C218.653 225.26 219.792 224.594 220.592 223.645C221.384 222.735 221.848 221.627 221.922 220.469C221.922 220.413 221.922 220.365 221.849 220.365C221.837 220.367 221.825 220.37 221.814 220.375C221.803 220.381 221.794 220.388 221.786 220.397C221.778 220.406 221.773 220.416 221.769 220.426C221.766 220.437 221.765 220.449 221.766 220.46C221.686 221.387 221.338 222.279 220.758 223.047C220.178 223.814 219.387 224.43 218.462 224.833C217.8 225.13 217.076 225.295 216.337 225.318C215.599 225.34 214.864 225.22 214.181 224.965C213.491 224.706 212.873 224.311 212.372 223.809C211.87 223.307 211.498 222.71 211.282 222.062C211.067 221.402 211.011 220.707 211.119 220.026C211.227 219.344 211.495 218.692 211.906 218.113C212.298 217.574 212.814 217.118 213.418 216.776C214.022 216.435 214.701 216.215 215.407 216.134C216.341 216.034 217.288 216.134 218.171 216.426C219.061 216.732 219.841 217.253 220.426 217.934C220.715 218.281 220.953 218.661 221.132 219.065C221.307 219.478 221.429 219.908 221.496 220.347C221.496 220.347 221.558 220.375 221.548 220.365Z" fill="#EBEBEB"/>
<path d="M220.552 220.376C220.399 219.313 219.79 218.348 218.858 217.69C217.926 217.057 216.764 216.767 215.606 216.879C215.017 216.941 214.449 217.115 213.938 217.39C213.428 217.664 212.987 218.033 212.645 218.472C212.272 218.956 212.019 219.507 211.9 220.087C211.782 220.667 211.802 221.264 211.959 221.837C212.096 222.341 212.348 222.814 212.696 223.225C213.045 223.637 213.484 223.98 213.985 224.231C214.972 224.726 216.128 224.871 217.227 224.636C218.271 224.407 219.198 223.861 219.855 223.09C220.481 222.337 220.843 221.431 220.895 220.489C220.896 220.479 220.895 220.469 220.892 220.459C220.889 220.449 220.885 220.44 220.878 220.433C220.871 220.425 220.863 220.418 220.853 220.413C220.843 220.408 220.833 220.405 220.822 220.404C220.822 220.404 220.749 220.404 220.739 220.479C220.676 221.226 220.405 221.946 219.951 222.571C219.496 223.196 218.873 223.706 218.141 224.051C217.606 224.305 217.017 224.45 216.414 224.476C215.811 224.502 215.209 224.409 214.65 224.202C214.083 223.99 213.577 223.665 213.168 223.25C212.76 222.836 212.46 222.343 212.291 221.808C212.125 221.272 212.089 220.71 212.186 220.159C212.283 219.609 212.51 219.085 212.852 218.623C213.174 218.197 213.593 217.839 214.08 217.574C214.568 217.309 215.113 217.143 215.679 217.086C216.418 217.026 217.162 217.112 217.861 217.341C218.562 217.576 219.182 217.976 219.658 218.5C219.886 218.777 220.078 219.078 220.23 219.395C220.377 219.726 220.485 220.071 220.552 220.423V220.376Z" fill="#EBEBEB"/>
<path d="M310.895 238.377H298.77L300.276 228.123H309.389L310.895 238.377Z" fill="#C7C7C7"/>
<path d="M316.186 221.702C317.122 216.101 312.874 210.872 306.699 210.023C300.523 209.174 294.759 213.027 293.823 218.629C292.887 224.231 297.135 229.46 303.31 230.308C309.486 231.157 315.25 227.304 316.186 221.702Z" fill="#DBDBDB"/>
<path d="M313.32 221.973C314.035 217.717 310.812 213.741 306.12 213.092C301.429 212.443 297.046 215.367 296.33 219.623C295.615 223.878 298.838 227.854 303.53 228.503C308.221 229.152 312.604 226.228 313.32 221.973Z" fill="white"/>
<path d="M312.019 220.347C311.937 219.418 311.646 218.515 311.163 217.693C310.681 216.871 310.017 216.148 309.213 215.568C308.403 214.998 307.472 214.583 306.479 214.348C305.486 214.113 304.451 214.063 303.436 214.202C302.429 214.346 301.466 214.68 300.611 215.183C299.755 215.687 299.026 216.348 298.47 217.123C297.879 217.951 297.492 218.885 297.336 219.861C297.18 220.837 297.258 221.832 297.566 222.778C298.078 224.416 299.285 225.802 300.922 226.633C302.516 227.455 304.387 227.717 306.179 227.368C307.913 227.032 309.468 226.167 310.585 224.918C311.688 223.683 312.325 222.16 312.403 220.573C312.403 220.507 312.403 220.441 312.331 220.441C312.258 220.441 312.258 220.498 312.248 220.573C312.206 221.214 312.074 221.848 311.853 222.458C311.614 223.058 311.293 223.628 310.897 224.154C310.084 225.205 308.985 226.046 307.707 226.596C306.795 226.989 305.802 227.204 304.792 227.227C303.783 227.25 302.779 227.08 301.847 226.727C300.907 226.368 300.065 225.828 299.378 225.144C298.691 224.461 298.176 223.65 297.867 222.769C297.553 221.863 297.459 220.907 297.59 219.965C297.72 219.024 298.074 218.118 298.626 217.312C299.157 216.546 299.863 215.892 300.697 215.395C301.53 214.897 302.471 214.568 303.457 214.428C304.789 214.236 306.153 214.374 307.406 214.827C308.659 215.279 309.753 216.031 310.575 217.001C310.966 217.503 311.287 218.048 311.531 218.622C311.759 219.207 311.909 219.814 311.977 220.432C311.977 220.432 312.019 220.375 312.019 220.347Z" fill="#EBEBEB"/>
<path d="M311.011 220.357C310.932 219.563 310.675 218.791 310.257 218.09C309.839 217.388 309.269 216.771 308.579 216.276C307.884 215.791 307.09 215.437 306.243 215.233C305.396 215.029 304.512 214.98 303.644 215.088C302.774 215.204 301.941 215.486 301.2 215.915C300.458 216.344 299.825 216.91 299.342 217.576C298.83 218.287 298.49 219.088 298.347 219.927C298.204 220.765 298.26 221.622 298.511 222.44C298.726 223.148 299.093 223.81 299.593 224.387C300.092 224.965 300.714 225.447 301.42 225.804C302.809 226.523 304.443 226.745 306.003 226.427C307.511 226.134 308.862 225.379 309.826 224.287C310.775 223.212 311.324 221.892 311.395 220.517C311.395 220.461 311.395 220.404 311.322 220.404C311.25 220.404 311.25 220.451 311.239 220.517C311.156 221.621 310.75 222.685 310.061 223.598C309.372 224.511 308.426 225.24 307.322 225.71C306.536 226.057 305.677 226.249 304.803 226.272C303.928 226.294 303.059 226.148 302.252 225.842C301.437 225.532 300.708 225.065 300.113 224.472C299.519 223.879 299.075 223.176 298.812 222.412C298.546 221.627 298.47 220.801 298.588 219.987C298.706 219.174 299.017 218.394 299.498 217.699C299.958 217.047 300.567 216.492 301.284 216.072C302.001 215.653 302.81 215.378 303.654 215.267C304.789 215.11 305.949 215.23 307.015 215.614C308.082 215.999 309.016 216.634 309.722 217.454C310.065 217.877 310.345 218.34 310.554 218.83C310.758 219.328 310.894 219.847 310.959 220.376C310.968 220.376 310.978 220.374 310.987 220.371C310.996 220.368 311.004 220.363 311.011 220.357Z" fill="#EBEBEB"/>
<path d="M310.004 220.367C309.924 219.705 309.7 219.065 309.343 218.484C308.986 217.903 308.504 217.392 307.926 216.983C306.757 216.179 305.288 215.821 303.832 215.984C303.107 216.074 302.411 216.302 301.789 216.652C301.168 217.003 300.635 217.469 300.227 218.02C299.783 218.617 299.484 219.294 299.352 220.004C299.219 220.714 299.255 221.442 299.458 222.139C299.637 222.744 299.949 223.312 300.373 223.807C300.798 224.302 301.327 224.715 301.931 225.023C303.118 225.626 304.511 225.807 305.837 225.532C307.122 225.261 308.264 224.595 309.069 223.647C309.863 222.738 310.324 221.628 310.388 220.47C310.388 220.414 310.388 220.367 310.326 220.367C310.314 220.368 310.302 220.371 310.291 220.377C310.28 220.382 310.27 220.389 310.263 220.398C310.255 220.407 310.249 220.417 310.246 220.428C310.242 220.438 310.241 220.45 310.243 220.461C310.16 221.388 309.812 222.279 309.232 223.046C308.653 223.813 307.862 224.43 306.939 224.834C306.277 225.131 305.552 225.296 304.814 225.319C304.076 225.342 303.341 225.221 302.658 224.966C301.968 224.707 301.35 224.313 300.848 223.81C300.347 223.308 299.975 222.712 299.759 222.063C299.544 221.403 299.488 220.708 299.596 220.027C299.703 219.345 299.972 218.693 300.382 218.114C300.771 217.574 301.285 217.118 301.888 216.776C302.491 216.434 303.168 216.215 303.874 216.135C304.811 216.034 305.761 216.134 306.648 216.427C307.537 216.733 308.317 217.255 308.903 217.935C309.192 218.282 309.43 218.662 309.609 219.066C309.774 219.482 309.896 219.911 309.973 220.348C309.981 220.357 309.992 220.363 310.004 220.367Z" fill="#EBEBEB"/>
<path d="M308.994 220.375C308.923 219.849 308.737 219.341 308.448 218.88C308.159 218.419 307.773 218.014 307.311 217.689C306.378 217.057 305.217 216.768 304.059 216.879C303.469 216.937 302.899 217.109 302.388 217.384C301.877 217.659 301.437 218.029 301.098 218.471C300.725 218.956 300.472 219.506 300.353 220.087C300.235 220.667 300.255 221.263 300.412 221.836C300.55 222.34 300.801 222.813 301.149 223.225C301.498 223.637 301.937 223.979 302.438 224.23C303.422 224.725 304.574 224.87 305.669 224.635C306.716 224.404 307.645 223.859 308.309 223.09C308.934 222.336 309.296 221.43 309.348 220.488C309.351 220.479 309.352 220.469 309.35 220.46C309.348 220.45 309.345 220.441 309.339 220.433C309.333 220.425 309.325 220.418 309.316 220.413C309.306 220.408 309.296 220.405 309.285 220.404C309.263 220.404 309.242 220.412 309.227 220.426C309.211 220.44 309.202 220.459 309.202 220.479C309.127 221.229 308.839 221.95 308.368 222.57C307.897 223.191 307.257 223.691 306.511 224.023C305.977 224.275 305.39 224.419 304.789 224.445C304.188 224.471 303.588 224.379 303.03 224.174C302.464 223.962 301.957 223.636 301.548 223.222C301.14 222.807 300.84 222.314 300.672 221.78C300.505 221.243 300.469 220.681 300.566 220.131C300.663 219.581 300.89 219.056 301.233 218.594C301.554 218.168 301.972 217.81 302.46 217.545C302.948 217.28 303.493 217.113 304.059 217.058C304.795 216.997 305.536 217.084 306.231 217.312C306.934 217.545 307.555 217.945 308.028 218.471C308.263 218.746 308.459 219.047 308.61 219.367C308.757 219.698 308.865 220.042 308.932 220.394C308.932 220.394 309.005 220.385 308.994 220.375Z" fill="#EBEBEB"/>
<path d="M336.904 233.156H184.57V259.584H336.904V233.156Z" fill="#DBDBDB"/>
<path d="M215.887 233.156L204.832 259.584H185.152L196.208 233.156H215.887Z" fill="#EBEBEB"/>
<path d="M256.211 233.156L245.156 259.584H225.477L236.532 233.156H256.211Z" fill="#EBEBEB"/>
<path d="M296.525 233.156L285.48 259.584H265.801L276.856 233.156H296.525Z" fill="#EBEBEB"/>
<path d="M336.86 233.156L325.804 259.584H306.125L317.18 233.156H336.86Z" fill="#EBEBEB"/>
<path d="M333.829 284.022H187.656V300.752H333.829V284.022Z" fill="#DBDBDB"/>
<path d="M217.693 284.022L207.094 300.742H188.215L198.823 284.022H217.693Z" fill="#EBEBEB"/>
<path d="M256.397 284.022L245.788 300.742H226.898L237.507 284.022H256.397Z" fill="#EBEBEB"/>
<path d="M295.082 284.022L284.473 300.742H265.594L276.202 284.022H295.082Z" fill="#EBEBEB"/>
<path d="M333.777 284.022L323.168 300.742H304.289L314.898 284.022H333.777Z" fill="#EBEBEB"/>
<path d="M487.044 107.284H369.445C369.445 107.284 381.103 78.3965 399.048 78.3965C416.992 78.3965 422.613 98.3304 422.613 98.3304C422.613 98.3304 434.718 87.501 444.672 87.501C454.626 87.501 463.261 101.818 463.261 101.818C463.261 101.818 477.319 94.1174 487.044 107.284Z" fill="#EBEBEB"/>
<path d="M171.873 39.5282H116.918C116.918 39.5282 129.189 23.3926 138.873 23.3926C148.557 23.3926 151.404 34.1465 151.404 34.1465C151.404 34.1465 158.23 29.1324 164.558 30.0278C170.886 30.9232 171.873 39.5282 171.873 39.5282Z" fill="#EBEBEB"/>
<path d="M468.322 155.729H413.367C413.367 155.729 425.649 139.594 435.322 139.594C444.996 139.594 447.853 150.348 447.853 150.348C447.853 150.348 454.68 145.324 461.007 146.229C467.335 147.134 468.322 155.729 468.322 155.729Z" fill="#EBEBEB"/>
<path d="M141.49 79.9706H34.4375C34.4375 79.9706 49.0984 50.2818 64.7776 48.4251C80.4567 46.5683 87.9586 70.4796 87.9586 70.4796C87.9586 70.4796 98.0789 61.9971 106.028 61.9971C113.976 61.9971 120.117 73.128 120.117 73.128C120.117 73.128 136.056 65.5315 141.49 79.9706Z" fill="#EBEBEB"/>
<path d="M38.293 316.248L93.3831 316.021L148.484 315.937L258.664 315.776L368.854 315.937L423.944 316.021L479.035 316.248L423.944 316.474L368.854 316.559L258.664 316.719L148.484 316.559L93.3831 316.474L38.293 316.248Z" fill="#263238"/>
<path d="M260.742 390.525C381.302 390.525 479.035 380.191 479.035 367.443C479.035 354.695 381.302 344.361 260.742 344.361C140.182 344.361 42.4492 354.695 42.4492 367.443C42.4492 380.191 140.182 390.525 260.742 390.525Z" fill="#EBEBEB"/>
<path d="M289.283 371.752C291.444 372.412 353.309 372.61 355.678 371.262C356.582 370.753 357.132 362.582 357.496 352.695C357.579 350.555 357.641 348.35 357.704 346.097L362.712 316.173L321.358 315.928L317.451 345.871L317.607 352.469C317.607 352.469 293.886 362.007 291.465 363.731C289.044 365.456 287.132 371.083 289.283 371.752Z" fill="#EB9481"/>
<path d="M289.283 371.751C291.444 372.41 353.309 372.608 355.678 371.26C356.769 370.638 357.371 358.706 357.704 346.105L317.451 345.879L317.607 352.476C317.607 352.476 293.886 362.015 291.465 363.739C289.044 365.464 287.132 371.081 289.283 371.751Z" fill="white"/>
<path d="M289.283 371.752C291.444 372.412 353.309 372.61 355.678 371.262C356.582 370.753 357.132 362.581 357.496 352.695L317.607 352.459C317.607 352.459 293.886 361.997 291.465 363.722C289.044 365.447 287.132 371.083 289.283 371.752Z" fill="#E11045"/>
<path d="M290.188 369.508C300.579 369.31 342.411 369.395 352.677 369.914C352.76 369.914 352.76 369.97 352.677 369.98C342.4 370.375 300.548 369.98 290.178 369.659C289.96 369.65 289.97 369.508 290.188 369.508Z" fill="#263238"/>
<path d="M295.457 361.714C296.617 361.684 297.771 361.875 298.845 362.275C299.919 362.674 300.888 363.273 301.692 364.032C303.143 365.38 303.969 367.182 303.998 369.065C303.998 369.122 303.874 369.122 303.863 369.065C303.524 367.208 302.531 365.5 301.033 364.197C299.534 362.894 297.611 362.066 295.551 361.836C295.533 361.848 295.511 361.852 295.489 361.849C295.468 361.845 295.449 361.834 295.436 361.818C295.424 361.801 295.419 361.781 295.423 361.762C295.427 361.742 295.439 361.725 295.457 361.714Z" fill="#263238"/>
<path d="M313.588 353.382C317.744 353.382 322.544 354.692 325.111 357.774C325.214 357.896 325.027 358.019 324.903 357.962C321.265 356.226 317.433 354.845 313.473 353.844C313.406 353.83 313.347 353.792 313.31 353.739C313.273 353.686 313.261 353.622 313.276 353.561C313.291 353.5 313.332 353.446 313.391 353.413C313.449 353.379 313.52 353.368 313.588 353.382Z" fill="#263238"/>
<path d="M310.375 354.503C314.531 354.503 319.331 355.813 321.898 358.905C322.002 359.018 321.815 359.15 321.69 359.084C318.054 357.345 314.222 355.967 310.261 354.974C310.202 354.952 310.154 354.912 310.124 354.861C310.095 354.81 310.086 354.752 310.1 354.695C310.114 354.639 310.149 354.589 310.199 354.554C310.249 354.519 310.311 354.501 310.375 354.503Z" fill="#263238"/>
<path d="M307.166 355.635C311.322 355.588 316.122 356.935 318.699 360.027C318.793 360.14 318.606 360.272 318.481 360.215C314.848 358.469 311.015 357.088 307.051 356.097C306.984 356.083 306.925 356.045 306.888 355.992C306.851 355.939 306.839 355.875 306.854 355.814C306.869 355.752 306.911 355.699 306.969 355.666C307.027 355.632 307.098 355.621 307.166 355.635Z" fill="#263238"/>
<path d="M303.955 356.756C308.111 356.756 312.922 358.056 315.488 361.148C315.582 361.261 315.395 361.393 315.27 361.336C311.637 359.59 307.804 358.209 303.84 357.218C303.773 357.204 303.714 357.166 303.677 357.113C303.64 357.06 303.628 356.996 303.643 356.935C303.658 356.874 303.7 356.82 303.758 356.787C303.816 356.753 303.887 356.742 303.955 356.756Z" fill="#263238"/>
<path d="M350.101 360.969C354.766 360.969 354.724 367.566 350.101 367.566C345.477 367.566 345.404 360.941 350.101 360.969Z" fill="#263238"/>
<path d="M309.451 348.839C311.675 351.468 315.083 353.136 318.034 354.993C318.103 355.029 318.181 355.049 318.26 355.053C318.34 355.056 318.419 355.043 318.492 355.013C318.564 354.984 318.629 354.94 318.679 354.884C318.729 354.828 318.765 354.762 318.782 354.691C318.798 354.695 318.815 354.694 318.831 354.69C318.847 354.686 318.861 354.679 318.874 354.669C318.886 354.659 318.895 354.646 318.901 354.632C318.907 354.618 318.909 354.603 318.907 354.588C318.618 351.133 317.331 347.807 315.176 344.946C313.888 343.297 311.249 341.751 309.14 343.325C307.03 344.899 308.142 347.312 309.451 348.839ZM309.264 345.719C309.701 341.628 313.763 344.776 314.657 346.03C315.22 346.847 315.723 347.697 316.163 348.575C317.038 350.401 317.812 352.267 318.481 354.164C317.099 353.165 315.623 352.279 314.2 351.336C312.506 350.215 309.036 347.981 309.264 345.719Z" fill="#263238"/>
<path d="M333.663 352.232C333.351 349.772 330.255 349.235 328.073 349.603C324.335 350.313 320.868 351.899 318.015 354.202C318 354.211 317.988 354.222 317.979 354.236C317.971 354.25 317.966 354.266 317.966 354.282C317.966 354.298 317.971 354.314 317.979 354.328C317.988 354.342 318 354.354 318.015 354.362C317.971 354.423 317.944 354.492 317.936 354.565C317.928 354.637 317.939 354.71 317.969 354.777C317.998 354.845 318.045 354.905 318.106 354.952C318.166 355 318.239 355.034 318.317 355.05C321.87 355.559 325.59 356.511 329.216 355.993C331.336 355.729 333.965 354.56 333.663 352.232ZM323.886 354.824C322.13 354.617 320.405 354.325 318.691 354.174C320.654 353.278 322.566 352.289 324.624 351.601C325.612 351.245 326.626 350.949 327.658 350.715C329.258 350.385 334.598 350.658 331.814 353.882C330.182 355.654 325.974 355.06 323.886 354.824Z" fill="#263238"/>
<path d="M423.496 177.812C423.496 177.812 375.461 251.931 374.173 257.134C372.199 265.135 361.705 344.098 361.705 344.098L311.727 343.288C311.727 343.288 320.34 273.656 328.497 250.724C334.378 234.202 376.76 179.405 376.76 179.405L423.496 177.812Z" fill="#E11045"/>
<path d="M316.289 336.332C323.468 336.285 348.904 336.031 358.453 336.832C358.472 336.832 358.491 336.839 358.505 336.851C358.518 336.864 358.526 336.88 358.526 336.898C358.526 336.915 358.518 336.932 358.505 336.945C358.491 336.957 358.472 336.964 358.453 336.964C355.17 337.388 323.468 336.719 316.289 336.511C316.273 336.516 316.257 336.517 316.24 336.515C316.224 336.513 316.209 336.507 316.195 336.498C316.182 336.49 316.171 336.478 316.164 336.465C316.156 336.452 316.152 336.437 316.152 336.422C316.152 336.407 316.156 336.392 316.164 336.379C316.171 336.366 316.182 336.354 316.195 336.346C316.209 336.337 316.224 336.331 316.24 336.329C316.257 336.326 316.273 336.328 316.289 336.332Z" fill="#263238"/>
<path d="M415.299 184.617C412.182 189.094 408.825 193.477 405.604 197.916C402.383 202.355 399.183 206.804 396.014 211.281C389.69 220.216 383.511 229.232 377.477 238.33C374.553 242.518 372.046 246.934 369.986 251.526C368.11 256.141 366.702 260.901 365.778 265.748C364.791 270.621 364.147 275.531 363.544 280.441C362.893 285.669 362.249 290.897 361.611 296.125C360.295 306.806 358.979 317.507 357.663 328.226C357.497 329.536 357.341 330.856 357.195 332.166C357.195 332.364 357.549 332.402 357.58 332.166C359.045 321.535 360.271 310.875 361.611 300.225L363.606 284.372C364.219 279.442 364.812 274.513 365.684 269.603C366.464 264.773 367.642 260.003 369.207 255.333C370.92 250.494 373.223 245.844 376.075 241.469C381.862 232.412 387.993 223.505 394.123 214.627C400.253 205.748 406.539 196.719 413.013 187.925C413.802 186.842 414.613 185.758 415.444 184.693C415.558 184.608 415.361 184.532 415.299 184.617Z" fill="#263238"/>
<path d="M381.03 377.981C383.306 378.113 444.692 363.438 446.604 361.591C446.688 361.479 446.738 361.349 446.75 361.214C446.989 359.385 443.851 352.552 441.648 343.796C441.513 343.24 440.36 340.582 438.739 336.991C434.281 327.142 426.332 310.215 426.332 310.215L386.257 319.546L401.011 346.454L403.006 352.778C403.006 352.778 382.734 367.491 380.885 369.743C379.035 371.996 378.765 377.83 381.03 377.981Z" fill="#EB9481"/>
<path d="M381.033 377.982C383.308 378.114 444.695 363.439 446.607 361.592C446.691 361.48 446.741 361.35 446.752 361.215C446.991 359.386 443.853 352.553 441.651 343.797C441.516 343.241 440.362 340.583 438.741 336.992L401.024 346.417L403.019 352.741C403.019 352.741 382.747 367.454 380.898 369.706C379.048 371.959 378.768 377.831 381.033 377.982Z" fill="white"/>
<path d="M381.033 377.971C383.308 378.122 444.695 363.438 446.607 361.59C447.334 360.893 445.744 353.362 441.651 343.796L403.019 352.787C403.019 352.787 382.747 367.481 380.898 369.752C379.048 372.024 378.768 377.83 381.033 377.971Z" fill="#E11045"/>
<path d="M381.27 375.596C391.245 373.014 431.747 363.438 441.826 361.562C441.909 361.562 441.919 361.563 441.826 361.628C432.007 364.381 391.422 373.664 381.302 375.766C381.104 375.794 381.063 375.653 381.27 375.596Z" fill="#263238"/>
<path d="M384.188 366.85C385.297 366.56 386.459 366.483 387.602 366.622C388.745 366.762 389.844 367.115 390.828 367.661C392.607 368.631 393.908 370.183 394.465 371.996C394.465 372.053 394.361 372.081 394.34 371.996C393.485 370.272 392.036 368.847 390.211 367.934C388.386 367.021 386.283 366.671 384.22 366.935C384.213 366.944 384.204 366.951 384.193 366.955C384.183 366.96 384.171 366.961 384.159 366.96C384.148 366.958 384.137 366.954 384.128 366.947C384.119 366.941 384.112 366.932 384.109 366.922C384.105 366.912 384.104 366.901 384.107 366.891C384.11 366.88 384.116 366.871 384.124 366.863C384.132 366.856 384.143 366.851 384.154 366.849C384.166 366.846 384.177 366.847 384.188 366.85Z" fill="#263238"/>
<path d="M399.382 354.607C403.382 353.608 408.411 353.796 411.757 356.19C411.892 356.285 411.757 356.454 411.612 356.426C407.622 355.576 403.542 355.118 399.444 355.059C399.388 355.053 399.335 355.029 399.294 354.992C399.254 354.955 399.228 354.907 399.221 354.855C399.214 354.803 399.226 354.751 399.255 354.706C399.284 354.661 399.329 354.626 399.382 354.607Z" fill="#263238"/>
<path d="M396.596 356.435C400.596 355.436 405.625 355.625 408.971 358.018C409.106 358.113 408.971 358.282 408.815 358.254C404.823 357.422 400.743 356.983 396.648 356.944C396.573 356.95 396.499 356.929 396.442 356.886C396.384 356.843 396.348 356.781 396.341 356.713C396.334 356.646 396.357 356.578 396.405 356.526C396.453 356.474 396.521 356.441 396.596 356.435Z" fill="#263238"/>
<path d="M393.801 358.264C397.812 357.265 402.83 357.454 406.186 359.848C406.311 359.942 406.186 360.102 406.03 360.083C402.04 359.235 397.961 358.78 393.863 358.726C393.802 358.724 393.743 358.702 393.697 358.664C393.652 358.626 393.623 358.575 393.615 358.519C393.608 358.464 393.622 358.407 393.656 358.361C393.69 358.314 393.742 358.28 393.801 358.264Z" fill="#263238"/>
<path d="M391.016 360.082C395.016 359.093 400.045 359.281 403.391 361.675C403.526 361.769 403.391 361.93 403.245 361.901C399.254 361.062 395.175 360.611 391.078 360.554C391.009 360.561 390.94 360.543 390.885 360.505C390.831 360.466 390.795 360.409 390.787 360.346C390.779 360.284 390.798 360.221 390.841 360.171C390.884 360.122 390.947 360.09 391.016 360.082Z" fill="#263238"/>
<path d="M436.798 353.523C441.307 352.467 443.115 358.829 438.595 359.875C434.075 360.922 432.278 354.569 436.798 353.523Z" fill="#263238"/>
<path d="M394.103 351.167C397.002 353.193 400.763 353.994 404.129 355.135C404.206 355.154 404.287 355.157 404.366 355.142C404.444 355.128 404.518 355.097 404.58 355.052C404.643 355.007 404.693 354.949 404.727 354.883C404.76 354.818 404.776 354.745 404.774 354.673C404.791 354.673 404.807 354.669 404.822 354.661C404.837 354.654 404.85 354.643 404.859 354.63C404.869 354.617 404.874 354.602 404.875 354.586C404.877 354.571 404.874 354.555 404.867 354.541C403.618 351.26 401.439 348.335 398.55 346.058C396.846 344.767 393.853 343.872 392.253 345.889C390.653 347.906 392.419 349.989 394.103 351.167ZM393.064 348.198C392.336 344.136 397.147 346.256 398.363 347.255C399.139 347.913 399.865 348.618 400.534 349.367C401.898 350.926 403.171 352.549 404.348 354.23C402.727 353.589 401.054 353.08 399.412 352.486C397.438 351.789 393.458 350.432 393.053 348.198H393.064Z" fill="#263238"/>
<path d="M418.469 348.858C417.482 346.549 414.313 346.747 412.328 347.614C408.909 349.158 405.999 351.492 403.891 354.381C403.88 354.393 403.872 354.408 403.869 354.423C403.866 354.439 403.867 354.455 403.872 354.47C403.877 354.484 403.886 354.498 403.899 354.509C403.911 354.52 403.926 354.528 403.943 354.532C403.92 354.601 403.916 354.674 403.93 354.745C403.943 354.816 403.975 354.883 404.023 354.94C404.07 354.998 404.132 355.045 404.203 355.077C404.274 355.109 404.352 355.126 404.431 355.126C408.016 354.796 411.881 354.853 415.237 353.543C417.201 352.779 419.414 351.035 418.469 348.858ZM409.741 353.627C407.995 353.825 406.239 353.948 404.546 354.202C406.146 352.841 407.821 351.555 409.564 350.347C410.419 349.777 411.315 349.257 412.245 348.792C413.7 348.095 418.947 347.133 417.118 350.894C416.069 352.977 411.84 353.392 409.741 353.627Z" fill="#263238"/>
<path d="M398.267 344.692L443.175 334.004C443.175 334.004 400.179 257.256 400.574 251.96C400.886 247.247 432.068 206.079 433.824 198.369C436.639 185.749 429.865 174.476 423.298 167.502L376.853 179.377C376.853 179.377 380.552 186.663 387.347 191.262C387.347 191.262 358.16 235.466 357.412 250.018C356.664 264.57 398.267 344.692 398.267 344.692Z" fill="#E11045"/>
<path d="M397.419 337.152C403.923 335.465 402.032 335.87 408.568 334.24C411.768 333.448 432.788 328.236 435.905 327.963C435.978 327.963 436.009 328.057 435.905 328.085C433.037 329.254 411.924 334.136 408.713 334.871C402.147 336.379 404.007 335.88 397.419 337.331C397.346 337.341 397.294 337.152 397.419 337.152Z" fill="#263238"/>
<path d="M380.147 189.594C384.597 191.092 388.897 192.933 393 195.098C393.033 195.113 393.058 195.139 393.07 195.171C393.081 195.203 393.079 195.238 393.062 195.268C393.046 195.298 393.017 195.32 392.982 195.331C392.947 195.342 392.908 195.339 392.875 195.324C388.542 193.609 384.116 191.969 379.897 190.046C379.84 190.012 379.798 189.96 379.779 189.9C379.761 189.839 379.768 189.775 379.799 189.719C379.83 189.663 379.883 189.619 379.947 189.596C380.011 189.573 380.082 189.572 380.147 189.594Z" fill="#263238"/>
<path d="M385.603 188.557C385.933 189.298 386.211 190.056 386.435 190.829C386.678 191.431 386.788 192.072 386.757 192.714C386.743 192.735 386.723 192.753 386.7 192.765C386.676 192.778 386.649 192.784 386.622 192.784C386.594 192.784 386.567 192.778 386.544 192.765C386.52 192.753 386.5 192.735 386.487 192.714C386.097 192.15 385.803 191.537 385.614 190.895C385.333 190.188 385.032 189.49 384.783 188.783C384.606 188.331 385.427 188.105 385.603 188.557Z" fill="#263238"/>
<path d="M385.603 184.739C385.416 184.089 385.229 183.448 385.031 182.798C384.834 182.147 384.564 181.478 384.418 180.8C384.418 180.696 384.21 180.743 384.241 180.8C384.418 181.45 384.501 182.129 384.626 182.788C384.751 183.448 384.896 184.108 385.042 184.758C385.316 185.993 385.662 187.214 386.081 188.415C385.349 188.367 384.639 188.17 384.003 187.84C383.383 187.375 382.939 186.745 382.735 186.04C382.444 185.305 382.184 184.56 381.883 183.834C381.509 183.039 381.21 182.216 380.989 181.375C380.989 181.261 380.781 181.309 380.802 181.375C381.16 183.151 381.714 184.891 382.454 186.568C382.776 187.227 383.015 187.906 383.732 188.227C384.521 188.529 385.37 188.68 386.226 188.67C386.32 188.67 386.465 188.67 386.444 188.547C386.226 187.341 385.956 186.012 385.603 184.739Z" fill="#263238"/>
<path d="M386.372 192.732C384.606 195.626 382.59 198.387 380.699 201.215C378.808 204.042 377.104 206.794 375.379 209.622C371.909 215.333 368.688 221.196 365.747 227.152C364.293 230.099 362.907 233.081 361.591 236.097C360.222 239.098 359.094 242.185 358.214 245.333C357.388 248.476 357.233 251.732 357.757 254.928C358.414 258.204 359.345 261.431 360.542 264.579C362.949 271.79 365.879 278.849 369.311 285.71C369.426 285.936 369.841 285.767 369.748 285.531C367.296 279.254 364.76 272.996 362.547 266.681C360.417 260.517 357.882 254.127 359.056 247.576C359.712 244.434 360.7 241.357 362.007 238.387C363.267 235.333 364.611 232.314 366.038 229.329C368.864 223.439 372.023 217.718 375.265 212.016C377.073 208.821 378.974 205.663 380.813 202.478C382.653 199.292 384.461 195.993 386.528 192.902C386.591 192.723 386.466 192.647 386.372 192.732Z" fill="#263238"/>
<path d="M420.192 186.55C419.35 186.427 418.114 186.691 414.487 186.465C413.479 186.384 412.479 186.236 411.495 186.022C410.496 185.88 409.547 185.532 408.721 185.004C407.403 183.874 406.329 182.532 405.551 181.046C404.58 179.514 403.835 177.872 403.338 176.164C403.338 176.06 403.141 176.107 403.162 176.211C403.359 177.153 403.463 178.096 403.744 179.095C404.011 179.992 404.358 180.869 404.783 181.715C405.45 183.389 406.568 184.886 408.035 186.069C409.676 187.191 411.973 187.398 413.957 187.53C415.111 187.606 419.631 187.53 420.192 186.908C420.358 186.804 420.347 186.578 420.192 186.55Z" fill="#263238"/>
<path d="M432.028 325.239C426.362 314.796 420.82 304.287 415.403 293.712C409.986 283.138 404.729 272.484 399.631 261.752C398.22 259.232 397.096 256.589 396.275 253.863C395.578 250.876 396.597 248.208 397.989 245.503C400.579 240.598 403.476 235.831 406.665 231.225C409.782 226.587 413.149 222.054 416.442 217.502C419.848 213.043 422.971 208.411 425.794 203.628C428.35 199 429.773 194.071 429.046 188.887C428.319 183.704 425.856 178.916 423.227 174.363C422.531 173.166 421.814 171.979 421.149 170.772C421.097 170.688 420.941 170.772 421.004 170.857C423.934 175.626 426.75 180.631 428.121 185.937C428.828 188.582 429.045 191.315 428.765 194.024C428.4 196.759 427.551 199.423 426.251 201.913C423.809 206.776 420.401 211.262 417.19 215.72C413.98 220.178 410.561 224.816 407.361 229.434C404.11 234.057 401.124 238.829 398.415 243.732C397.23 245.928 395.932 248.218 395.641 250.678C395.329 253.383 396.399 255.965 397.553 258.406C402.54 269.019 407.798 279.547 413.138 290.018C418.479 300.489 424.017 310.998 429.638 321.403L431.716 325.333C431.851 325.55 432.111 325.399 432.028 325.239Z" fill="#263238"/>
<path d="M375.824 88.8964C376.863 84.5892 382.142 74.8437 392.563 76.7475C407.442 79.4714 409.593 105.475 417.002 113.581C430.416 128.265 430.852 142.798 419.859 145.126C407.536 147.727 395.545 135.701 395.961 109.782C396.241 93.5524 391.202 86.3611 387.649 86.8417C384.095 87.3224 382.131 91.4223 382.131 91.4223L375.824 88.8964Z" fill="#263238"/>
<path d="M376.324 87.2856C377.06 85.2765 378.061 83.3555 379.306 81.5647C380.555 79.7297 382.211 78.1505 384.169 76.9275C386.196 75.6852 388.602 75.0522 391.047 75.1179C393.472 75.1843 395.843 75.7826 397.957 76.8616C400.018 77.9801 401.79 79.4876 403.152 81.2819C404.499 83.0449 405.618 84.9423 406.488 86.9369C408.138 90.8915 409.295 95.0013 409.937 99.1895C408.805 95.1402 407.339 91.1737 405.553 87.3233C404.626 85.4407 403.487 83.6499 402.155 81.9794C400.861 80.3305 399.197 78.9492 397.271 77.9266C395.344 76.9294 393.181 76.3639 390.964 76.2772C388.77 76.184 386.596 76.6967 384.73 77.7475C382.816 78.8424 381.154 80.2636 379.836 81.9322C379.148 82.7654 378.513 83.6339 377.935 84.5335C377.353 85.4006 376.823 86.3337 376.324 87.2856Z" fill="#263238"/>
<path d="M395.911 100.838C396.067 103.411 395.911 105.993 395.848 108.566C395.786 111.139 395.672 113.703 395.661 116.267C395.651 118.83 395.744 121.384 396.035 123.92C396.272 126.444 396.781 128.941 397.552 131.375C398.283 133.794 399.513 136.065 401.179 138.067C402.925 140.016 405.035 141.671 407.413 142.958C409.793 144.269 412.481 145.05 415.258 145.239C416.647 145.337 418.044 145.27 419.414 145.041C420.118 144.922 420.813 144.758 421.492 144.551C422.169 144.37 422.813 144.1 423.404 143.75C422.245 144.515 420.926 145.057 419.528 145.343C418.134 145.672 416.698 145.834 415.258 145.824C413.804 145.799 412.359 145.613 410.956 145.267C409.556 144.91 408.207 144.408 406.935 143.769C405.66 143.135 404.456 142.39 403.34 141.545L402.519 140.904L401.729 140.235C401.193 139.777 400.693 139.285 400.233 138.764C398.447 136.662 397.121 134.269 396.326 131.714C394.887 126.669 394.333 121.45 394.685 116.248C394.768 113.665 394.986 111.092 395.235 108.529C395.485 105.965 395.817 103.411 395.911 100.838Z" fill="#263238"/>
<path d="M374.975 88.9725C374.809 87.7755 375.609 86.145 376.44 85.8528C377.272 85.5607 383.901 87.4928 384.597 88.9348C385.293 90.3769 382.612 91.9131 382.612 91.9131L374.975 88.9725Z" fill="#E11045"/>
<path d="M382.911 131.422C378.827 136.709 349.298 158.585 333.193 159.395C325.919 159.753 297.47 156.945 291.132 154.579C283.35 151.676 298.738 134.193 303.601 134.937C309.689 135.88 331.281 137.944 335.582 138.048C342.482 138.208 363.637 127.68 377.882 124.937C385.249 123.533 386.069 127.35 382.911 131.422Z" fill="#EB9481"/>
<path d="M382.589 132.421C378.08 139.556 362.162 151.789 362.162 151.789L359.45 147.246L350.473 132.251C350.473 132.251 365.56 126.804 375.566 124.155C376.74 123.828 377.943 123.588 379.161 123.439C385.624 122.685 386.465 126.295 382.589 132.421Z" fill="#DBDBDB"/>
<path d="M382.588 132.421C378.079 139.556 362.161 151.789 362.161 151.789L359.449 147.247L357.599 144.155L350.461 132.261C350.461 132.261 365.558 126.794 375.564 124.146C376.741 123.828 377.943 123.591 379.159 123.439C379.287 123.43 379.416 123.43 379.544 123.439C385.653 122.836 386.401 126.417 382.588 132.421Z" fill="#384259"/>
<path d="M363.774 128.567C364.12 129.868 364.12 131.225 363.774 132.526C363.428 131.225 363.428 129.868 363.774 128.567ZM359.504 136.333C358.771 136.323 358.041 136.402 357.332 136.569C358.042 136.731 358.772 136.811 359.504 136.805C360.239 136.81 360.972 136.731 361.686 136.569C360.973 136.403 360.239 136.323 359.504 136.333ZM381.573 125.268C380.837 125.258 380.103 125.338 379.391 125.504C380.103 125.671 380.837 125.75 381.573 125.74C382.305 125.745 383.035 125.665 383.745 125.504C383.035 125.343 382.305 125.264 381.573 125.268ZM373.074 135.108C373.588 135.583 374.167 135.994 374.798 136.333C374.425 135.761 373.971 135.235 373.448 134.769C372.931 134.297 372.352 133.885 371.723 133.544C372.099 134.114 372.553 134.64 373.074 135.108ZM364.688 144.533C365.202 145.011 365.782 145.426 366.413 145.768C366.043 145.193 365.589 144.667 365.063 144.203C364.549 143.726 363.969 143.311 363.338 142.969C363.696 143.54 364.136 144.066 364.647 144.533H364.688Z" fill="white"/>
<path d="M364.936 148.445C363.429 145.683 356.779 134.562 355.169 132.243C355.054 132.083 354.919 132.102 355.002 132.243C357.948 137.8 361.222 143.208 364.811 148.445C364.852 148.558 364.977 148.52 364.936 148.445Z" fill="#263238"/>
<path d="M382.591 132.421C378.081 139.556 362.163 151.79 362.163 151.79L359.451 147.247L357.602 144.156C366.236 136.427 376.637 126.917 379.546 123.42C385.656 122.836 386.404 126.418 382.591 132.421Z" fill="#A6A6A6"/>
<path d="M367.865 165.287L370.224 188.849C373.401 188.716 376.567 188.427 379.71 187.982C387.998 186.854 396.209 185.303 404.304 183.336C412.336 181.451 421.75 178.849 432.514 175.381C432.514 175.381 408.169 135.551 391.368 124.561C390.984 124.307 390.61 124.071 390.225 123.854C390.152 123.798 390.08 123.769 390.007 123.722C382.37 119.34 375.46 122.78 371.637 127.662C370.67 128.887 361.319 148.171 361.786 154.636C362.212 160.32 367.865 165.287 367.865 165.287Z" fill="#384259"/>
<path d="M381.376 140.065C381.56 140.708 381.648 141.37 381.636 142.035C381.647 142.702 381.56 143.367 381.376 144.014C381.193 143.367 381.105 142.702 381.116 142.035C381.11 141.371 381.197 140.709 381.376 140.065ZM387.039 164.739C387.033 165.406 387.12 166.072 387.299 166.719C387.487 166.073 387.575 165.407 387.558 164.739C387.569 164.072 387.482 163.406 387.299 162.76C387.12 163.407 387.033 164.072 387.039 164.739ZM405.17 150.696C405.159 151.363 405.246 152.029 405.43 152.675C405.776 151.375 405.776 150.018 405.43 148.717C405.246 149.363 405.159 150.029 405.17 150.696ZM371.921 161.733C371.91 162.4 371.997 163.066 372.181 163.712C372.527 162.411 372.527 161.054 372.181 159.754C371.997 160.4 371.91 161.066 371.921 161.733ZM392.868 144.363C392.132 144.357 391.399 144.436 390.686 144.598C392.12 144.912 393.616 144.912 395.05 144.598C394.34 144.437 393.61 144.358 392.878 144.363H392.868ZM408.329 161.94C407.593 161.925 406.858 162.005 406.147 162.176C407.581 162.49 409.077 162.49 410.511 162.176C409.802 162.01 409.071 161.931 408.339 161.94H408.329ZM384.826 175.87C384.093 175.86 383.363 175.939 382.654 176.106C383.363 176.273 384.093 176.352 384.826 176.342C385.561 176.352 386.295 176.272 387.008 176.106C386.298 175.945 385.568 175.866 384.836 175.87H384.826ZM412.204 173.156C411.473 173.151 410.743 173.23 410.033 173.392C411.463 173.706 412.956 173.706 414.386 173.392C413.673 173.23 412.94 173.15 412.204 173.156ZM381.573 125.239C380.838 125.229 380.104 125.308 379.391 125.475C380.104 125.641 380.838 125.72 381.573 125.71C382.305 125.715 383.035 125.636 383.745 125.475C383.034 125.323 382.304 125.253 381.573 125.267V125.239ZM392.691 129.603C393.205 130.08 393.785 130.495 394.416 130.838C394.048 130.262 393.594 129.735 393.065 129.273C392.552 128.796 391.972 128.381 391.34 128.038C391.715 128.621 392.173 129.157 392.702 129.631L392.691 129.603ZM415.394 151.648C415.908 152.125 416.488 152.54 417.119 152.883C416.748 152.309 416.294 151.783 415.768 151.318C415.253 150.843 414.673 150.428 414.044 150.083C414.415 150.666 414.869 151.201 415.394 151.676V151.648ZM379.09 154.004C379.604 154.482 380.184 154.897 380.815 155.239C380.039 154.085 378.97 153.115 377.698 152.411C378.08 153.006 378.549 153.551 379.09 154.033V154.004ZM399.975 169.961C400.489 170.438 401.068 170.853 401.7 171.196C400.924 170.041 399.855 169.072 398.583 168.368C398.967 168.952 399.436 169.488 399.975 169.961ZM373.126 135.088C373.64 135.563 374.22 135.975 374.851 136.314C374.477 135.741 374.023 135.215 373.5 134.749C372.984 134.277 372.404 133.865 371.775 133.524C372.134 134.098 372.57 134.63 373.074 135.107L373.126 135.088ZM371.651 147.473C372.175 147.005 372.632 146.479 373.012 145.908C372.378 146.244 371.798 146.656 371.287 147.133C370.761 147.6 370.303 148.125 369.926 148.698C370.535 148.359 371.097 147.954 371.599 147.492L371.651 147.473ZM420.953 164.306C421.479 163.842 421.934 163.316 422.304 162.741C421.028 163.442 419.959 164.412 419.187 165.569C419.815 165.223 420.391 164.805 420.901 164.325L420.953 164.306ZM374.342 171.054C374.865 170.588 375.319 170.062 375.692 169.49C374.417 170.19 373.347 171.16 372.575 172.317C373.204 171.971 373.78 171.553 374.29 171.073L374.342 171.054ZM402.167 138.566C402.694 138.1 403.151 137.574 403.528 137.002C402.895 137.341 402.315 137.757 401.804 138.236C401.277 138.702 400.82 139.228 400.443 139.801C401.054 139.461 401.616 139.053 402.115 138.585L402.167 138.566ZM395.268 180.884C395.797 180.42 396.255 179.894 396.629 179.32C395.996 179.66 395.416 180.075 394.904 180.555C394.378 181.021 393.921 181.547 393.543 182.119C394.155 181.779 394.717 181.371 395.216 180.903L395.268 180.884ZM395.268 155.437C395.8 154.975 396.258 154.449 396.629 153.872C395.357 154.576 394.288 155.545 393.512 156.7C394.148 156.348 394.728 155.92 395.237 155.427L395.268 155.437Z" fill="white"/>
<path d="M385.24 123.317C385.095 124.26 380.959 130.386 376.45 130.546C374.974 130.593 374.32 123.336 374.32 123.336L374.133 122.808L371.566 115.447L380.752 109.067L382.092 108.209C382.092 108.209 382.643 110.273 383.308 112.837L383.401 113.204C383.401 113.346 383.484 113.478 383.515 113.619L383.827 114.778C383.9 115.08 383.973 115.372 384.035 115.721L384.253 116.663C384.749 118.858 385.079 121.081 385.24 123.317Z" fill="#EB9481"/>
<path d="M383.347 112.837C382.713 115.011 381.563 117.034 379.979 118.765C378.394 120.495 376.412 121.891 374.172 122.855L371.605 115.495L380.749 109.067L382.089 108.209C382.089 108.209 382.64 110.226 383.347 112.837Z" fill="#263238"/>
<path d="M360.176 104.354C360.103 117.907 369.05 119.481 372.271 119.49C375.19 119.49 385.155 119.198 386.817 105.72C388.48 92.2424 381.508 87.9352 374.827 87.5864C368.146 87.2377 360.249 90.7721 360.176 104.354Z" fill="#EB9481"/>
<path d="M385.955 106.634C383.513 106.861 382.838 102.214 382.838 102.214C382.838 102.214 377.861 102.346 376.043 95.8805C376.235 97.8255 377.052 99.6767 378.391 101.206C378.391 101.206 369.569 100.584 365.683 93.9861C365.683 93.9861 367.252 97.3509 368.665 98.529C366.422 97.9549 364.457 96.7134 363.086 95.004C363.086 95.004 361.652 98.8871 360.499 99.971C360.499 99.971 358.794 93.1473 361.922 89.6035C368.51 82.0635 379.326 88.661 379.326 88.661C379.326 88.661 385.373 89.4904 387.534 93.5997C390.87 99.8862 385.955 106.634 385.955 106.634Z" fill="#263238"/>
<path d="M384.388 106.719C384.388 106.719 387.256 102.261 389.469 103.156C391.682 104.051 389.781 110.347 387.391 111.365C387.096 111.516 386.77 111.611 386.433 111.646C386.096 111.68 385.755 111.652 385.43 111.564C385.105 111.476 384.803 111.33 384.542 111.134C384.281 110.937 384.066 110.696 383.91 110.423L384.388 106.719Z" fill="#EB9481"/>
<path d="M362.049 101.611C362.4 101.555 362.747 101.48 363.088 101.384C363.454 101.347 363.798 101.201 364.064 100.97C364.138 100.885 364.177 100.78 364.177 100.673C364.177 100.565 364.138 100.461 364.064 100.376C363.887 100.235 363.671 100.138 363.439 100.097C363.208 100.056 362.968 100.071 362.745 100.14C362.269 100.222 361.844 100.46 361.55 100.809C361.493 100.889 361.461 100.981 361.457 101.076C361.454 101.171 361.479 101.265 361.531 101.347C361.582 101.43 361.658 101.498 361.749 101.545C361.84 101.591 361.944 101.614 362.049 101.611Z" fill="#263238"/>
<path d="M371.796 102.666C371.446 102.635 371.099 102.584 370.757 102.515C370.377 102.509 370.011 102.386 369.718 102.167C369.643 102.083 369.602 101.978 369.602 101.87C369.602 101.762 369.643 101.657 369.718 101.573C369.88 101.419 370.086 101.307 370.313 101.251C370.54 101.194 370.779 101.195 371.006 101.252C371.488 101.301 371.934 101.505 372.263 101.827C372.331 101.905 372.372 101.998 372.383 102.097C372.394 102.195 372.373 102.294 372.324 102.382C372.275 102.47 372.199 102.544 372.106 102.594C372.012 102.644 371.905 102.669 371.796 102.666Z" fill="#263238"/>
<path d="M369.841 105.438C369.841 105.438 369.914 105.438 369.914 105.522C369.914 106.465 370.049 107.52 370.953 107.813V107.869C369.841 107.737 369.623 106.323 369.841 105.438Z" fill="#263238"/>
<path d="M370.705 104.457C372.347 104.316 372.534 107.285 371.006 107.445C369.479 107.605 369.323 104.57 370.705 104.457Z" fill="#263238"/>
<path d="M371.358 104.58C371.66 104.74 371.961 105.023 372.314 105.042C372.668 105.06 373 104.721 373.25 104.41H373.301C373.301 104.985 373.135 105.588 372.47 105.711C371.805 105.833 371.431 105.334 371.182 104.768C371.151 104.683 371.244 104.523 371.358 104.58Z" fill="#263238"/>
<path d="M364.117 105.484C364.117 105.484 364.034 105.531 364.045 105.569C364.138 106.512 364.045 107.577 363.172 107.935C363.172 107.935 363.172 107.991 363.172 107.935C364.304 107.775 364.367 106.351 364.117 105.484Z" fill="#263238"/>
<path d="M363.13 104.57C361.478 104.57 361.561 107.549 363.13 107.567C364.699 107.586 364.522 104.589 363.13 104.57Z" fill="#263238"/>
<path d="M362.455 104.777C362.195 104.947 361.946 105.239 361.634 105.267C361.323 105.296 360.99 104.975 360.751 104.664H360.699C360.699 105.239 360.928 105.833 361.541 105.927C362.154 106.021 362.486 105.512 362.58 104.937C362.653 104.871 362.569 104.711 362.455 104.777Z" fill="#263238"/>
<path d="M365.831 109.594C365.831 109.594 365.686 110.951 365.686 111.639C367.085 111.6 368.483 111.733 369.842 112.035C370.164 112.119 370.143 111.874 369.78 111.695C368.696 111.166 367.463 110.94 366.237 111.045C366.185 110.866 366.507 108.906 366.393 108.906C365.835 108.969 365.289 109.102 364.772 109.301C364.979 106.389 365.707 103.524 365.863 100.621C365.863 100.598 365.853 100.577 365.835 100.561C365.818 100.545 365.794 100.536 365.769 100.536C365.744 100.536 365.721 100.545 365.703 100.561C365.685 100.577 365.676 100.598 365.676 100.621C364.797 103.662 364.254 106.775 364.055 109.914C364.086 110.263 365.551 109.716 365.831 109.594Z" fill="#263238"/>
<path d="M367.379 111.639C367.9 112.26 368.629 112.71 369.457 112.921C370.714 113.034 370.797 111.978 369.395 111.498C368.721 111.376 368.024 111.425 367.379 111.639Z" fill="#263238"/>
<path d="M369.477 112.92C369.004 112.848 368.562 112.659 368.199 112.374C368.428 112.006 369.01 111.591 370.381 112.185C370.599 112.619 370.277 112.996 369.477 112.92Z" fill="#FF99BA"/>
<path d="M383.045 121.695C384.874 121.695 387.95 122.11 392.106 124.975C392.106 124.975 383.44 131.299 375.377 131.299C372.499 131.299 371.637 127.652 371.637 127.652C371.637 127.652 375.512 121.752 383.045 121.695Z" fill="#EB9481"/>
<path d="M519.941 393.061H485.995C461.328 393.061 446.241 377.594 443.529 349.517C442.189 335.672 441.368 318.914 440.506 301.176C437.846 246.671 434.199 172.053 410.81 172.053H383.93V166.398H410.81C440.152 166.398 443.498 234.796 446.729 300.941C447.592 318.622 448.413 335.323 449.743 349.008C451.436 366.52 459.094 387.396 485.995 387.396H519.941V393.061Z" fill="#E11045"/>
<path opacity="0.2" d="M403.672 166.38L402.342 172.035H383.93V166.38H403.672Z" fill="black"/>
<path d="M333.267 135.362H322.398V204.25H333.267V135.362Z" fill="#E11045"/>
<path d="M322.409 140.451H281.086V198.453H322.409V140.451Z" fill="#E11045"/>
<path opacity="0.2" d="M322.4 140.461V198.463H312.134L307.531 140.461H322.4Z" fill="black"/>
<path d="M249.375 150.867H281.076V159.538H249.375C248.289 159.538 247.248 159.147 246.48 158.451C245.713 157.754 245.281 156.81 245.281 155.825V154.59C245.28 154.102 245.385 153.618 245.59 153.166C245.795 152.714 246.096 152.304 246.477 151.958C246.857 151.612 247.309 151.338 247.806 151.151C248.303 150.964 248.837 150.867 249.375 150.867Z" fill="#DBDBDB"/>
<path d="M281.073 150.867H269.945V159.529H281.073V150.867Z" fill="#A6A6A6"/>
<path d="M249.375 179.377H281.076V188.048H249.375C248.289 188.048 247.248 187.657 246.48 186.96C245.713 186.264 245.281 185.319 245.281 184.335V183.1C245.28 182.611 245.385 182.127 245.59 181.676C245.795 181.224 246.096 180.814 246.477 180.468C246.857 180.122 247.309 179.848 247.806 179.661C248.303 179.473 248.837 179.377 249.375 179.377Z" fill="#DBDBDB"/>
<path d="M281.073 179.377H269.945V188.039H281.073V179.377Z" fill="#A6A6A6"/>
<path d="M397.49 163.92H365.207V175.484H397.49V163.92Z" fill="#E11045"/>
<path d="M397.49 163.93H365.207V175.494H397.49V163.93Z" fill="#E11045"/>
<path opacity="0.2" d="M376.543 163.93L375.483 175.494H365.207V163.93H376.543Z" fill="black"/>
<path d="M333.266 142.639H358.816C360.511 142.639 362.136 143.249 363.334 144.336C364.533 145.423 365.206 146.898 365.206 148.435V190.48C365.206 192.017 364.533 193.492 363.334 194.579C362.136 195.666 360.511 196.276 358.816 196.276H333.266V142.639Z" fill="#E11045"/>
<path opacity="0.2" d="M346.858 142.639L342.255 196.276H333.277V142.639H346.858Z" fill="black"/>
<g opacity="0.2">
<path opacity="0.2" d="M344.478 153.477H342.441V185.427H344.478V153.477Z" fill="black"/>
<path opacity="0.2" d="M350.255 153.477H348.219V185.427H350.255V153.477Z" fill="black"/>
<path opacity="0.2" d="M356.033 153.477H353.996V185.427H356.033V153.477Z" fill="black"/>
</g>
<path d="M394.498 131.564C398.072 140.659 392.95 173.977 386.892 181.036C377.894 191.498 360.116 201.121 353.321 204.127C350.349 205.437 337.039 186.135 339.938 184.335C346.172 180.461 366.028 171.215 367.711 169.377C369.395 167.539 378.455 149.886 382.081 139.962C386.954 126.635 392.7 126.974 394.498 131.564Z" fill="#EB9481"/>
<path d="M353.3 204.184C343.876 209.066 325.121 208.35 322.565 207.643L319.261 206.7C315.323 205.692 314.263 203.722 314.263 203.722C314.263 203.722 309.338 203.778 308.798 201.083C308.195 198.058 315.23 198.566 319.292 196.7C328.644 192.431 340.51 183.986 343.055 182.516L353.3 204.184Z" fill="#EB9481"/>
<path d="M332.519 198.454C329.813 199.74 327.011 200.851 324.134 201.781C320.923 202.626 317.648 203.256 314.335 203.666C314.32 203.671 314.306 203.681 314.296 203.694C314.286 203.706 314.281 203.721 314.281 203.737C314.281 203.752 314.286 203.767 314.296 203.78C314.306 203.792 314.32 203.802 314.335 203.807C320.837 203.647 327.165 201.874 332.633 198.68C332.768 198.605 332.654 198.397 332.519 198.454Z" fill="#263238"/>
<path d="M336.176 203.175C333.412 204.212 328.539 206.002 319.25 206.624C319.25 206.624 319.25 206.671 319.25 206.681C325.149 207.051 331.046 205.925 336.28 203.429C336.446 203.316 336.363 203.109 336.176 203.175Z" fill="#263238"/>
<path d="M330.151 190.922C331.117 189.98 330.545 189.471 327.989 189.886C325.433 190.3 315.718 193.938 314.606 190.762C313.495 187.586 327.293 182.628 331.605 182.223C335.501 182.04 339.407 182.144 343.284 182.534C340.811 183.986 334.951 188.02 330.151 190.922Z" fill="#EB9481"/>
<path d="M384.471 133.854C390.757 121.855 396.493 125.032 397.044 136.898C397.229 145.138 396.819 153.381 395.817 161.573L373.031 155.654C373.031 155.654 380.45 141.535 384.471 133.854Z" fill="#384259"/>
<path d="M390.143 126.86C391.416 127.564 392.484 128.533 393.26 129.688C391.988 128.984 390.919 128.015 390.143 126.86ZM381.114 142.053C381.103 142.721 381.19 143.386 381.374 144.033C381.557 143.386 381.644 142.721 381.633 142.053C381.645 141.389 381.558 140.727 381.374 140.084C381.194 140.727 381.107 141.39 381.114 142.053ZM392.876 144.381C392.14 144.376 391.407 144.455 390.694 144.617C392.128 144.931 393.624 144.931 395.058 144.617C394.345 144.449 393.612 144.363 392.876 144.363V144.381ZM379.088 154.033C379.601 154.51 380.181 154.925 380.812 155.267C380.037 154.113 378.968 153.144 377.695 152.44C378.08 153.024 378.548 153.56 379.088 154.033ZM395.234 155.428C395.766 154.966 396.224 154.439 396.596 153.863C395.323 154.567 394.254 155.536 393.478 156.691C394.124 156.344 394.715 155.919 395.234 155.428Z" fill="white"/>
<path d="M382.311 137.511C381.459 139.085 380.565 140.63 379.671 142.223C379.824 141.488 379.948 140.744 380.045 139.99H379.983C379.858 140.574 379.703 141.158 379.578 141.743C379.526 142.025 379.464 142.308 379.401 142.591C379.401 142.647 379.401 142.704 379.401 142.77C378.705 143.976 378.019 145.192 377.323 146.417C376.533 147.888 375.796 149.367 375.048 150.847C374.3 152.327 373.603 154.137 372.762 155.635C373.478 155.906 374.223 156.108 374.985 156.238C375.183 156.304 375.287 156.125 375.079 156.097C374.871 156.069 373.167 155.456 373.146 155.447C373.894 153.948 374.819 152.534 375.609 151.064C376.398 149.594 377.209 148.142 377.967 146.662C379.505 143.665 380.856 140.583 382.383 137.577C382.383 137.501 382.311 137.473 382.311 137.511Z" fill="#263238"/>
<path d="M397.988 144.655C397.781 145.268 397.542 145.88 397.365 146.54C397.303 146.804 397.23 147.058 397.157 147.322C397.24 145.173 397.316 143.031 397.386 140.895C397.064 144.401 396.731 147.897 396.482 151.403C396.12 154.761 395.95 158.133 395.973 161.507C395.289 161.36 394.595 161.263 393.895 161.215C394.65 161.506 395.442 161.712 396.253 161.828C396.825 158.434 396.866 154.683 397.053 151.271C397.105 150.329 397.136 149.386 397.178 148.378C397.303 147.784 397.49 147.2 397.666 146.616C397.843 146.031 397.978 145.353 398.123 144.731C398.071 144.636 397.999 144.617 397.988 144.655Z" fill="#263238"/>
<path d="M394.894 158.444C391.683 157.407 378.384 153.6 375.453 152.949C375.246 152.902 375.163 153.006 375.37 153.072C381.745 155.221 388.245 157.049 394.842 158.548C394.925 158.576 394.977 158.463 394.894 158.444Z" fill="#263238"/>
<path d="M283.186 155.249C286.303 156.116 285.669 152.252 285.669 152.252C285.669 152.252 288.111 157.605 291.737 157.369C295.363 157.134 294.241 152.487 294.179 152.148C294.303 152.431 296.693 157.294 300.309 156.719C303.925 156.144 302.19 151.601 302.065 151.318C302.283 151.545 305.182 154.551 307.842 153.543C312.372 151.809 305.141 143.929 305.671 140.348L312.04 140.517C312.249 140.499 312.457 140.471 312.663 140.433L312.902 137.483C310.867 136.733 308.9 135.838 307.021 134.806C304.621 133.581 302.304 132.468 300.579 132.431C299.805 132.393 299.039 132.583 298.393 132.972C297.747 133.36 297.257 133.928 296.995 134.589C296.995 134.589 295.124 131.912 292.256 132.289C290.791 132.487 289.836 134.796 289.836 134.796C289.375 134.205 288.743 133.742 288.009 133.457C287.275 133.172 286.469 133.078 285.679 133.185C283.664 133.562 283.019 135.824 283.019 135.824C283.019 135.824 280.463 134.457 278.541 135.456C274.686 137.398 276.453 153.364 283.186 155.249Z" fill="#EB9481"/>
<path d="M306.461 140.008L312.009 140.47C312.219 140.452 312.427 140.424 312.633 140.385C319.636 139.236 324 131.96 318.867 131.441C315.012 131.036 310.835 135.682 306.939 134.749L306.461 140.008Z" fill="#EB9481"/>
<path d="M282.885 136.115H282.792C281.908 141.69 282.916 147.377 285.68 152.421C285.774 152.581 286.096 152.505 286.033 152.317C284.121 147.084 283.061 141.626 282.885 136.115Z" fill="#263238"/>
<path d="M289.836 134.674C289.836 134.609 289.721 134.609 289.711 134.674C288.775 140.822 290.293 147.069 293.992 152.29C294.127 152.469 294.449 152.507 294.304 152.29C291.997 148.652 289.836 139.849 289.836 134.674Z" fill="#263238"/>
<path d="M302.481 151.545C298.896 146.418 297.473 140.763 296.943 134.768C296.943 134.693 296.818 134.712 296.797 134.768C296.184 137.766 296.963 141.554 297.836 144.457C298.599 147.164 300.128 149.643 302.273 151.649C302.377 151.734 302.564 151.658 302.481 151.545Z" fill="#263238"/>
<path d="M214.713 366.369C212.562 367.02 150.978 366.86 148.63 365.512C147.747 365.003 147.248 356.86 146.957 347.01C146.884 344.89 146.843 342.694 146.801 340.46C146.801 337.821 146.718 335.144 146.697 332.543C146.625 320.875 146.801 310.602 146.801 310.602H186.898V332.543V340.46L186.69 347.01C186.69 347.01 210.235 356.643 212.666 358.377C215.097 360.111 216.864 365.766 214.713 366.369Z" fill="#AD6359"/>
<path d="M214.711 366.369C212.56 367.02 150.976 366.859 148.628 365.512C147.745 365.003 147.246 356.86 146.955 347.01C146.882 344.89 146.841 342.694 146.799 340.46C146.799 337.821 146.716 335.144 146.695 332.543H186.875V340.46L186.667 347.01C186.667 347.01 210.212 356.643 212.643 358.377C215.075 360.111 216.862 365.766 214.711 366.369Z" fill="white"/>
<path d="M214.898 366.492C213.495 366.916 187.27 367.001 168.141 366.643C163.715 366.548 159.673 366.445 156.42 366.313C151.921 366.124 148.908 365.907 148.42 365.625C147.329 364.993 146.82 353.042 146.57 340.432H186.854L186.646 347.029C186.646 347.029 210.326 356.718 212.737 358.462C215.147 360.205 217.101 365.832 214.898 366.492Z" fill="#E11045"/>
<path d="M213.984 364.248C203.593 363.984 161.72 363.833 151.433 364.295C151.35 364.295 151.35 364.342 151.433 364.352C161.72 364.813 203.604 364.653 213.984 364.399C214.233 364.389 214.244 364.248 213.984 364.248Z" fill="#263238"/>
<path d="M188.154 344.937C184.07 344.239 179.072 344.795 175.945 347.425C175.82 347.528 175.945 347.679 176.122 347.642C180.028 346.506 184.059 345.757 188.143 345.408C188.212 345.409 188.279 345.385 188.329 345.342C188.378 345.299 188.407 345.239 188.408 345.177C188.41 345.114 188.384 345.054 188.336 345.009C188.288 344.964 188.223 344.938 188.154 344.937Z" fill="#263238"/>
<path d="M191.124 346.577C187.041 345.87 182.043 346.426 178.905 349.065C178.791 349.159 178.905 349.319 179.082 349.282C182.995 348.14 187.033 347.384 191.124 347.029C191.178 347.015 191.226 346.985 191.259 346.944C191.293 346.904 191.311 346.854 191.311 346.803C191.311 346.752 191.293 346.702 191.259 346.662C191.226 346.621 191.178 346.591 191.124 346.577Z" fill="#263238"/>
<path d="M194.045 348.179C189.961 347.473 184.963 348.029 181.836 350.658C181.711 350.762 181.836 350.922 182.002 350.884C185.91 349.752 189.94 349 194.024 348.641C194.083 348.633 194.137 348.606 194.177 348.565C194.217 348.525 194.241 348.473 194.243 348.418C194.246 348.364 194.227 348.31 194.191 348.267C194.155 348.223 194.103 348.192 194.045 348.179Z" fill="#263238"/>
<path d="M196.986 349.801C192.902 349.094 187.905 349.65 184.777 352.279C184.652 352.383 184.777 352.543 184.954 352.506C188.857 351.368 192.884 350.616 196.965 350.262C197.024 350.254 197.079 350.227 197.119 350.186C197.159 350.146 197.182 350.094 197.184 350.039C197.187 349.985 197.168 349.931 197.132 349.888C197.096 349.844 197.044 349.813 196.986 349.801Z" fill="#263238"/>
<path d="M195.728 336.388C194.128 334.381 191.136 335.276 189.432 336.567C186.542 338.843 184.363 341.769 183.114 345.05C183.107 345.064 183.104 345.079 183.106 345.095C183.107 345.11 183.113 345.125 183.122 345.138C183.131 345.151 183.144 345.162 183.159 345.17C183.174 345.177 183.191 345.181 183.208 345.182C183.208 345.464 183.499 345.766 183.841 345.643C187.218 344.522 190.99 343.702 193.879 341.666C195.572 340.479 197.245 338.292 195.728 336.388ZM188.58 342.986C186.938 343.57 185.265 344.088 183.644 344.729C184.823 343.047 186.095 341.421 187.457 339.856C188.124 339.106 188.85 338.4 189.629 337.745C190.845 336.737 195.666 334.616 194.928 338.688C194.523 340.921 190.543 342.279 188.58 342.986Z" fill="#263238"/>
<path d="M172.736 344.042C176.092 345.352 180.009 345.296 183.542 345.626C183.621 345.625 183.7 345.608 183.771 345.576C183.842 345.544 183.904 345.497 183.952 345.44C184 345.383 184.033 345.316 184.049 345.245C184.064 345.174 184.061 345.101 184.04 345.032C184.053 345.023 184.064 345.012 184.071 344.999C184.078 344.986 184.082 344.971 184.082 344.956C184.082 344.942 184.078 344.927 184.071 344.914C184.064 344.901 184.053 344.89 184.04 344.881C181.944 341.993 179.049 339.653 175.645 338.095C173.629 337.228 170.45 337.039 169.494 339.349C168.538 341.658 170.772 343.279 172.736 344.042ZM170.897 341.403C169.068 337.633 174.315 338.576 175.77 339.283C176.702 339.752 177.601 340.274 178.461 340.847C180.21 342.052 181.888 343.339 183.49 344.702C181.744 344.448 179.988 344.325 178.232 344.127C176.133 343.891 171.904 343.477 170.897 341.403Z" fill="#263238"/>
<path d="M192.592 337.868L142.905 338.678C142.905 338.678 136.141 298.801 131.694 274.004C130.011 264.682 128.681 257.482 128.14 255.314C126.852 250.14 101.676 168.01 101.676 168.01L137.793 167.963H150.137C150.137 167.963 149.347 181.695 149.815 183.137C156.257 203.015 169.421 238.264 173.536 250.545C179.843 269.423 192.592 337.868 192.592 337.868Z" fill="#E11045"/>
<path d="M188.07 330.958C180.942 330.911 155.652 330.657 146.155 331.458C146.142 331.463 146.13 331.471 146.122 331.482C146.114 331.493 146.109 331.506 146.109 331.519C146.109 331.532 146.114 331.545 146.122 331.556C146.13 331.567 146.142 331.576 146.155 331.58C149.428 332.005 180.942 331.345 188.081 331.137C188.096 331.141 188.113 331.142 188.129 331.139C188.145 331.135 188.16 331.129 188.173 331.12C188.185 331.11 188.196 331.098 188.202 331.085C188.209 331.071 188.212 331.056 188.211 331.041C188.21 331.027 188.205 331.012 188.197 330.999C188.189 330.986 188.178 330.975 188.164 330.967C188.15 330.959 188.135 330.954 188.118 330.953C188.102 330.951 188.085 330.953 188.07 330.958Z" fill="#263238"/>
<path d="M143.716 296.974C141.998 286.663 140.083 276.377 137.97 266.116C136.931 261.074 135.798 256.041 134.344 251.036C132.889 246.031 131.039 241.083 129.148 236.173C125.429 226.408 121.875 216.597 118.54 206.72C115.204 196.842 112.098 186.927 109.188 176.927C108.814 175.664 108.451 174.401 108.045 173.157C108.045 173.053 107.848 173.1 107.869 173.157C109.001 178.19 110.466 183.176 111.869 188.152C113.272 193.129 114.778 198.086 116.347 203.025C119.506 212.94 122.931 222.786 126.623 232.563C128.463 237.426 130.374 242.28 132.006 247.209C133.637 252.139 134.905 257.134 136.037 262.167C138.333 272.384 140.287 282.666 142.095 292.949C143.903 303.232 145.451 313.684 146.968 324.052C147.165 325.362 147.352 326.681 147.539 328.001C147.591 328.368 148.236 328.368 148.194 328.001C147.02 317.662 145.409 307.303 143.716 296.974Z" fill="#263238"/>
<path d="M137.793 167.944L131.694 274.004C130.01 264.683 128.681 257.482 128.14 255.314C126.852 250.14 101.676 168.01 101.676 168.01L137.793 167.944Z" fill="#263238"/>
<path d="M153.088 375.305C150.937 375.955 89.3531 375.795 87.0049 374.438C86.1217 373.938 85.6229 365.795 85.332 355.946C85.2593 353.816 85.2177 351.629 85.1762 349.396C85.1762 346.747 85.093 344.08 85.0723 341.479C84.9995 329.81 85.1762 319.537 85.1762 319.537H125.262V349.405L125.055 355.955C125.055 355.955 148.599 365.588 151.031 367.322C153.462 369.056 155.239 374.664 153.088 375.305Z" fill="#AD6359"/>
<path d="M153.086 375.305C150.935 375.955 89.3512 375.795 87.0029 374.438C86.1197 373.938 85.621 365.795 85.3301 355.946C85.2573 353.816 85.2158 351.629 85.1742 349.396C85.1742 346.747 85.0911 344.08 85.0703 341.479H125.25V349.405L125.042 355.955C125.042 355.955 148.587 365.588 151.018 367.322C153.45 369.056 155.237 374.664 153.086 375.305Z" fill="white"/>
<path d="M153.274 375.388C151.871 375.803 125.636 375.888 106.517 375.53C102.101 375.445 98.0594 375.332 94.7968 375.209C90.3081 375.021 87.2949 374.795 86.7961 374.512C85.7571 373.88 85.196 361.939 84.957 349.328H125.241L125.033 355.926C125.033 355.926 148.734 365.605 151.144 367.311C153.555 369.017 155.435 374.729 153.274 375.388Z" fill="#E11045"/>
<path d="M152.39 373.137C142 372.883 100.116 372.723 89.8397 373.184C89.7566 373.184 89.7566 373.241 89.8397 373.25C100.116 373.703 142.01 373.552 152.39 373.298C152.608 373.288 152.608 373.147 152.39 373.137Z" fill="#263238"/>
<path d="M126.529 353.834C122.446 353.127 117.448 353.683 114.32 356.312C114.195 356.416 114.32 356.576 114.486 356.539C118.395 355.407 122.425 354.655 126.508 354.296C126.568 354.287 126.622 354.26 126.662 354.22C126.702 354.179 126.725 354.127 126.728 354.072C126.73 354.018 126.712 353.964 126.675 353.921C126.639 353.877 126.587 353.847 126.529 353.834Z" fill="#263238"/>
<path d="M129.47 355.455C125.387 354.748 120.389 355.304 117.261 357.934C117.137 358.037 117.261 358.198 117.438 358.16C121.344 357.021 125.375 356.269 129.46 355.917C129.519 355.907 129.572 355.879 129.611 355.838C129.65 355.796 129.672 355.744 129.673 355.69C129.674 355.635 129.655 355.582 129.618 355.539C129.581 355.497 129.529 355.467 129.47 355.455Z" fill="#263238"/>
<path d="M132.421 357.066C128.338 356.369 123.34 356.925 120.202 359.555C120.088 359.658 120.202 359.809 120.379 359.771C124.287 358.641 128.317 357.893 132.401 357.538C132.469 357.54 132.537 357.518 132.587 357.475C132.638 357.433 132.668 357.374 132.671 357.312C132.673 357.249 132.649 357.188 132.602 357.142C132.555 357.096 132.49 357.069 132.421 357.066Z" fill="#263238"/>
<path d="M135.361 358.688C131.278 357.99 126.28 358.546 123.152 361.176C123.028 361.279 123.152 361.43 123.318 361.393C127.227 360.263 131.257 359.515 135.34 359.159C135.409 359.161 135.476 359.139 135.527 359.096C135.578 359.054 135.608 358.995 135.61 358.933C135.613 358.87 135.588 358.809 135.542 358.763C135.495 358.717 135.43 358.69 135.361 358.688Z" fill="#263238"/>
<path d="M134.101 345.286C132.501 343.269 129.509 344.164 127.794 345.465C124.905 347.741 122.726 350.666 121.477 353.947C121.472 353.962 121.471 353.978 121.474 353.993C121.477 354.009 121.484 354.023 121.494 354.036C121.504 354.049 121.517 354.059 121.532 354.066C121.547 354.074 121.564 354.078 121.581 354.079C121.576 354.151 121.591 354.223 121.623 354.289C121.655 354.355 121.704 354.413 121.766 354.458C121.829 354.504 121.902 354.535 121.98 354.549C122.058 354.563 122.138 354.561 122.215 354.541C125.592 353.419 129.353 352.599 132.252 350.564C133.977 349.404 135.608 347.18 134.101 345.286ZM126.953 351.883C125.301 352.477 123.638 352.986 122.017 353.636C123.254 351.987 124.407 350.3 125.82 348.763C126.492 348.014 127.218 347.306 127.992 346.643C129.218 345.644 134.029 343.523 133.301 347.585C132.938 349.819 128.917 351.176 126.953 351.874V351.883Z" fill="#263238"/>
<path d="M111.118 352.939C114.485 354.249 118.391 354.193 121.934 354.522C122.015 354.523 122.095 354.506 122.167 354.473C122.238 354.441 122.301 354.393 122.349 354.334C122.396 354.275 122.428 354.207 122.441 354.135C122.454 354.063 122.447 353.989 122.423 353.919C122.439 353.914 122.454 353.906 122.466 353.896C122.478 353.885 122.488 353.872 122.494 353.857C122.5 353.843 122.502 353.827 122.5 353.812C122.499 353.797 122.494 353.782 122.485 353.768C120.368 350.883 117.456 348.55 114.038 347.001C112.022 346.134 108.843 345.946 107.887 348.255C106.931 350.564 109.133 352.176 111.118 352.939ZM109.289 350.291C107.461 346.521 112.708 347.463 114.162 348.179C115.097 348.642 115.996 349.162 116.854 349.735C118.6 350.945 120.279 352.235 121.883 353.599C120.127 353.335 118.371 353.222 116.615 353.024C114.505 352.788 110.276 352.374 109.269 350.291H109.289Z" fill="#263238"/>
<path d="M130.859 346.228H82.2422C82.2422 346.228 92.8093 209.49 91.1052 201.828C88.3102 189.283 90.1701 174.872 96.7161 167.897H139.971C139.971 167.897 140.834 178.906 136.366 185.485C136.366 185.485 132.303 187.813 130.34 188.84L130.859 346.228Z" fill="#E11045"/>
<path d="M126.33 339.093C119.597 338.942 121.54 338.895 114.796 338.81C111.502 338.763 89.8592 338.49 86.742 338.933C86.6693 338.933 86.6693 339.046 86.742 339.055C89.8592 339.536 111.492 339.47 114.796 339.451C121.529 339.451 119.597 339.366 126.33 339.272C126.35 339.266 126.368 339.254 126.381 339.238C126.394 339.222 126.401 339.202 126.401 339.182C126.401 339.163 126.394 339.143 126.381 339.127C126.368 339.111 126.35 339.099 126.33 339.093Z" fill="#263238"/>
<path d="M139.07 183.76C134.817 185.62 130.747 187.805 126.903 190.291C126.871 190.309 126.849 190.337 126.84 190.37C126.831 190.402 126.837 190.437 126.856 190.466C126.876 190.495 126.907 190.515 126.943 190.523C126.979 190.531 127.017 190.526 127.049 190.508C131.205 188.444 135.361 186.446 139.351 184.184C139.413 184.15 139.458 184.096 139.475 184.032C139.493 183.968 139.482 183.901 139.444 183.845C139.407 183.788 139.347 183.748 139.277 183.732C139.207 183.716 139.132 183.726 139.07 183.76Z" fill="#263238"/>
<path d="M133.553 183.194C133.306 183.955 133.112 184.73 132.971 185.513C132.795 186.128 132.749 186.767 132.836 187.398C132.836 187.52 133.054 187.511 133.117 187.398C133.443 186.804 133.667 186.168 133.782 185.513C133.989 184.787 134.218 184.071 134.395 183.345C134.519 182.883 133.719 182.723 133.553 183.194Z" fill="#263238"/>
<path d="M133.169 179.414C133.283 178.755 133.397 178.104 133.532 177.454C133.667 176.804 133.854 176.097 133.927 175.418C133.927 175.305 134.135 175.343 134.114 175.418C134 176.078 133.989 176.756 133.927 177.416C133.865 178.076 133.802 178.745 133.73 179.405C133.583 180.649 133.368 181.885 133.086 183.109C133.803 182.998 134.485 182.744 135.08 182.364C135.633 181.848 135.996 181.19 136.12 180.479C136.327 179.725 136.514 178.971 136.733 178.217C137.027 177.401 137.239 176.562 137.366 175.71C137.366 175.597 137.574 175.635 137.553 175.71C137.384 177.502 137.015 179.274 136.452 180.998C136.331 181.681 135.944 182.303 135.361 182.751C134.611 183.114 133.787 183.335 132.94 183.401C132.847 183.401 132.701 183.401 132.711 183.297C132.793 181.997 132.945 180.701 133.169 179.414Z" fill="#263238"/>
<path d="M98.1328 201.328C97.8211 198.444 97.3016 195.579 96.9587 192.695C96.309 186.921 96.695 181.09 98.1016 175.428C98.1016 175.325 97.9458 175.277 97.925 175.428C96.6948 180.401 96.1227 185.488 96.221 190.584C96.5015 195.673 97.499 200.687 97.5821 205.786C97.6652 210.885 97.2288 216.107 96.8652 221.253C96.5015 226.399 96.1275 231.62 95.7638 236.795C94.2884 257.614 92.9272 278.434 91.5245 299.264C91.1366 305.069 90.7625 310.882 90.4023 316.7C90.0283 322.609 89.5711 328.528 89.3633 334.457C89.3633 334.966 90.1737 334.928 90.2257 334.457C91.2024 324.004 91.7635 313.514 92.5012 303.062C93.2389 292.61 93.8935 282.327 94.5793 271.959C95.2651 261.592 95.9612 251.224 96.6574 240.857C96.9899 235.679 97.3362 230.502 97.6964 225.324C98.0289 220.169 98.4445 215.004 98.5276 209.839C98.5734 206.998 98.4415 204.156 98.1328 201.328Z" fill="#263238"/>
<path d="M113.448 175.043C113.439 175.029 113.426 175.018 113.41 175.01C113.395 175.002 113.377 174.998 113.36 174.998C113.342 174.998 113.325 175.002 113.309 175.01C113.294 175.018 113.281 175.029 113.271 175.043C113.013 175.726 112.877 176.441 112.866 177.163C112.732 177.936 112.534 178.698 112.274 179.444C111.797 180.944 110.902 182.307 109.676 183.403C106.954 185.712 103.307 186.569 99.7951 187.342C99.7718 187.349 99.7515 187.362 99.7371 187.38C99.7226 187.398 99.7148 187.419 99.7148 187.441C99.7148 187.463 99.7226 187.485 99.7371 187.503C99.7515 187.52 99.7718 187.534 99.7951 187.54C101.882 187.625 103.966 187.331 105.925 186.673C107.673 186.189 109.285 185.369 110.653 184.27C111.959 183.143 112.851 181.678 113.209 180.076C113.395 179.238 113.492 178.386 113.5 177.531C113.5 177.126 113.5 176.72 113.5 176.306C113.575 175.886 113.557 175.456 113.448 175.043Z" fill="#263238"/>
<path d="M133.812 122.148C134.706 128.557 148.546 152.383 163.279 162.939C168.682 166.813 197.329 169.103 204.498 168.594C212.883 168.01 214.141 149.904 209.444 148.491C203.574 146.728 176.413 144.551 171.083 142.836C164.599 140.706 152.795 127.03 141.574 118.566C135.807 114.184 133.126 117.218 133.812 122.148Z" fill="#AD6359"/>
<path d="M204.5 168.605C207.149 168.539 219.275 167.276 222.569 166.239C225.862 165.202 235.037 161.602 234.455 159.236C233.873 156.87 231.047 157.728 231.047 157.728C231.047 157.728 234.673 155.645 233.811 153.317C232.949 150.989 228.616 152.46 228.616 152.46C228.616 152.46 232.169 150.075 231.12 147.804C230.07 145.532 226.029 147.672 226.029 147.672C226.029 147.672 229.395 145.626 227.67 144.081C225.592 142.196 219.857 146.635 216.137 147.53C215.285 147.738 198.66 150.556 198.66 150.556L204.5 168.605Z" fill="#AD6359"/>
<path d="M226.453 147.491C222.224 150.715 219.761 151.469 214.379 152.138C214.361 152.144 214.345 152.154 214.334 152.169C214.322 152.183 214.316 152.2 214.316 152.218C214.316 152.235 214.322 152.253 214.334 152.267C214.345 152.281 214.361 152.292 214.379 152.298C219.709 152.072 222.951 151.535 226.63 147.67C226.785 147.482 226.619 147.34 226.453 147.491Z" fill="#263238"/>
<path d="M228.978 152.195C224.271 155.249 221.611 156.031 216.063 157.134C215.99 157.134 216.011 157.275 216.063 157.266C221.632 156.615 224.853 156.012 229.123 152.449C229.3 152.27 229.196 152.054 228.978 152.195Z" fill="#263238"/>
<path d="M230.755 157.775C225.965 160.386 223.087 161.413 217.518 161.837C217.49 161.837 217.464 161.847 217.444 161.865C217.425 161.882 217.414 161.906 217.414 161.931C217.414 161.956 217.425 161.98 217.444 161.998C217.464 162.016 217.49 162.026 217.518 162.026C222.374 162.291 227.15 160.815 230.818 157.916C231.098 157.718 231.057 157.615 230.755 157.775Z" fill="#263238"/>
<path d="M194.812 148.576C197.611 146.935 200.539 145.483 203.572 144.231C206.502 143.288 218.866 143.288 219.001 145.72C219.188 148.849 212.05 150.103 208.466 150.31C208.466 150.31 208.912 157.539 203.998 159.452C199.083 161.366 194.812 148.576 194.812 148.576Z" fill="#AD6359"/>
<path d="M218.754 146.596C216.676 149.556 211.927 149.546 208.467 149.98C208.415 149.982 208.364 149.997 208.32 150.021C208.275 150.046 208.238 150.081 208.212 150.123C208.186 150.164 208.172 150.21 208.171 150.258C208.171 150.306 208.183 150.352 208.208 150.394C208.208 153.439 207.169 157.718 204.207 159.518C204.114 159.574 204.207 159.697 204.28 159.65C207.719 158.104 209.112 153.995 208.914 150.63C212.468 150.244 217.226 150.065 218.785 146.606C218.795 146.587 218.764 146.577 218.754 146.596Z" fill="#263238"/>
<path d="M179.747 168.255C179.747 168.255 165.076 164.617 163.289 163.344C161.339 161.954 159.479 160.462 157.72 158.877C144.368 146.973 136.305 130.743 134.123 125.088C131.816 119.065 133.936 113.297 140.118 117.18C140.616 117.5 141.094 117.843 141.552 118.208C148.825 123.957 168.276 141.44 170.645 142.336C173.014 143.231 184.433 144.588 184.433 144.588L179.747 168.255Z" fill="#384259"/>
<path d="M157.72 158.877C144.368 146.973 136.305 130.743 134.123 125.088C131.816 119.065 133.936 113.297 140.118 117.18L157.72 158.877Z" fill="#263238"/>
<path d="M179.698 144.174C179.015 145.993 178.449 147.847 178.004 149.725C177.495 151.611 176.965 153.496 176.539 155.381C175.614 159.077 174.92 162.819 174.461 166.587C174.461 166.609 174.471 166.631 174.488 166.647C174.506 166.663 174.53 166.672 174.554 166.672C174.579 166.672 174.603 166.663 174.621 166.647C174.638 166.631 174.648 166.609 174.648 166.587C175.77 162.892 176.601 159.113 177.453 155.362C177.879 153.477 178.264 151.648 178.69 149.801C179.116 147.954 179.625 146.031 179.854 144.202C179.858 144.184 179.853 144.164 179.842 144.148C179.83 144.132 179.812 144.121 179.791 144.118C179.771 144.114 179.749 144.118 179.732 144.128C179.714 144.139 179.702 144.155 179.698 144.174Z" fill="#263238"/>
<path d="M148.047 135.202C148.39 136.597 148.66 138.03 148.868 139.5C148.863 139.444 148.863 139.387 148.868 139.331C148.951 138.529 149.013 137.709 149.169 136.918C149.169 136.918 149.252 136.871 149.252 136.918C149.306 137.733 149.271 138.55 149.148 139.359C149.096 139.745 149.044 140.132 148.982 140.509C149.055 141.159 149.117 141.809 149.159 142.45C149.242 143.675 149.502 148.906 149.47 149.802C149.47 149.99 149.232 150.009 149.18 149.802C148.982 148.859 148.463 143.496 148.317 142.262C148.045 139.907 147.913 137.541 147.922 135.174C147.943 135.146 148.026 135.155 148.047 135.202Z" fill="#263238"/>
<path d="M149.7 174.354C147.622 176.05 145.087 178.529 130.499 179.453C129.584 179.453 128.649 179.519 127.714 179.453C113.666 179.095 93.9554 169.085 92.7812 168.293C92.7812 168.293 107.92 131.14 127.942 116.88C130.8 114.835 136.93 115.843 140.764 117.945C142.136 118.699 146.666 125.57 147.58 131.828C148.495 138.086 151.768 172.657 149.7 174.354Z" fill="#384259"/>
<path d="M138.32 127.257C134.787 127.521 129.727 121.979 128.064 117.832C127.95 117.549 128.864 114.844 129.8 111.507C130.361 109.481 130.932 107.219 131.285 105.117C131.358 104.684 132.844 105.702 132.844 105.702L135.733 106.776L145.292 110.339C144.015 112.852 143.083 115.498 142.517 118.218C142.487 118.513 142.487 118.809 142.517 119.104C142.522 119.151 142.522 119.198 142.517 119.245C142.486 120.914 141.728 126.974 138.32 127.257Z" fill="#AD6359"/>
<path d="M142.479 119.094C142.483 119.141 142.483 119.188 142.479 119.235C141.974 119.23 141.47 119.185 140.972 119.104C131.205 117.548 131.901 106.078 131.901 106.078L135.746 106.766L145.305 110.329C144.028 112.842 143.096 115.488 142.531 118.208C142.483 118.501 142.465 118.798 142.479 119.094Z" fill="#263238"/>
<path d="M130.301 91.3102C128.441 95.9661 130.426 109.746 133.959 112.988C139.081 117.7 147.861 118.483 152.319 112.809C156.651 107.323 153.711 89.3969 149.731 86.4186C143.861 82.0548 133.044 84.4393 130.301 91.3102Z" fill="#AD6359"/>
<path d="M144.139 100.848C144.139 100.848 144.066 100.904 144.076 100.942C144.232 101.884 144.253 102.949 143.359 103.364C143.359 103.364 143.359 103.421 143.359 103.411C144.492 103.138 144.461 101.696 144.139 100.848Z" fill="#263238"/>
<path d="M143.092 99.9796C141.429 100.055 141.72 103.062 143.258 102.996C144.796 102.93 144.484 99.9136 143.092 99.9796Z" fill="#263238"/>
<path d="M150.438 100.226C150.438 100.226 150.521 100.226 150.521 100.301C150.583 101.243 150.822 102.299 151.778 102.544C150.604 102.535 150.323 101.121 150.438 100.226Z" fill="#263238"/>
<path d="M151.269 99.1792C152.911 98.9436 153.347 101.941 151.799 102.167C150.251 102.393 149.887 99.3866 151.269 99.1792Z" fill="#263238"/>
<path d="M141.801 97.7563C142.238 97.6149 142.622 97.417 143.048 97.2379C143.512 97.1154 143.917 96.8568 144.201 96.5028C144.271 96.376 144.291 96.2318 144.259 96.0934C144.227 95.9549 144.144 95.8303 144.025 95.7394C143.755 95.5979 143.448 95.5234 143.136 95.5234C142.825 95.5234 142.518 95.5979 142.248 95.7394C141.652 95.9435 141.162 96.344 140.877 96.8609C140.824 96.9805 140.811 97.111 140.837 97.2373C140.864 97.3636 140.929 97.4804 141.026 97.5742C141.123 97.668 141.248 97.735 141.385 97.7672C141.522 97.7994 141.666 97.7957 141.801 97.7563Z" fill="#263238"/>
<path d="M152.308 98.1623C151.854 98.1169 151.403 98.0477 150.957 97.9549C150.471 97.9408 150.004 97.7818 149.627 97.5025C149.535 97.3912 149.484 97.2556 149.484 97.1161C149.484 96.9766 149.535 96.8409 149.627 96.7297C149.841 96.5237 150.113 96.3744 150.413 96.298C150.713 96.2216 151.031 96.221 151.331 96.2961C151.967 96.3558 152.556 96.6279 152.983 97.0595C153.073 97.1659 153.127 97.2938 153.137 97.4274C153.148 97.561 153.116 97.6945 153.044 97.8116C152.972 97.9286 152.864 98.0242 152.734 98.0865C152.603 98.1488 152.455 98.1751 152.308 98.1623Z" fill="#263238"/>
<path d="M148.993 105.297C149.098 105.975 149.163 106.658 149.191 107.342C147.785 107.347 146.387 107.525 145.035 107.87C144.723 107.964 144.723 107.719 145.035 107.531C146.093 106.959 147.318 106.693 148.547 106.767C148.547 106.588 148.193 104.637 148.308 104.628C148.866 104.679 149.414 104.797 149.939 104.977C149.617 102.074 148.786 99.2368 148.505 96.3433C148.505 96.2396 148.661 96.2019 148.692 96.2962C149.696 99.3095 150.361 102.407 150.677 105.542C150.77 105.91 149.284 105.401 148.993 105.297Z" fill="#263238"/>
<path d="M131.403 102.799C134.021 102.629 133.689 96.8232 133.689 96.8232C133.689 96.8232 137.679 96.1258 139.56 91.1682C139.56 91.1682 144.755 93.9957 149.046 93.2794C155.779 92.0919 155.488 84.1277 152.942 82.5349C149.327 80.2729 142.988 83.6942 142.988 83.6942C142.988 83.6942 133.305 81.3662 130.52 87.3228C129.27 87.4157 128.105 87.9353 127.26 88.7766C126.416 89.6179 125.954 90.7184 125.969 91.8562C125.72 96.1446 129.46 102.921 131.403 102.799Z" fill="#263238"/>
<path d="M132.764 97.5202C134.702 97.195 136.464 96.2928 137.772 94.9566C138.475 94.2342 138.976 93.3686 139.231 92.4333C139.486 91.4979 139.488 90.5206 139.237 89.5843C139.244 89.5677 139.256 89.5532 139.272 89.543C139.287 89.5328 139.306 89.5273 139.326 89.5273C139.345 89.5273 139.364 89.5328 139.38 89.543C139.396 89.5532 139.408 89.5677 139.414 89.5843C139.725 90.5646 139.793 91.5952 139.613 92.6022C139.434 93.6091 139.011 94.5676 138.375 95.409C137.74 96.2064 136.886 96.8397 135.899 97.2463C134.911 97.653 133.823 97.8188 132.743 97.7275C132.681 97.6804 132.65 97.539 132.764 97.5202Z" fill="#263238"/>
<path d="M142.725 83.9584C143.56 82.7086 144.867 81.7773 146.404 81.3382C148.272 80.8573 150.269 81.0184 152.014 81.7906C152.709 82.1207 153.295 82.6105 153.714 83.211C154.134 83.8116 154.372 84.5016 154.404 85.2119C154.425 86.8599 153.82 88.4641 152.69 89.7548C152.69 89.7548 152.596 89.7548 152.628 89.7548C153.529 88.5363 153.99 87.0935 153.947 85.6266C153.919 84.9286 153.674 84.2521 153.24 83.6751C152.806 83.0981 152.201 82.6441 151.495 82.3655C148.71 81.2817 144.658 81.5079 142.871 84.0809C142.819 84.1374 142.663 84.0432 142.725 83.9584Z" fill="#263238"/>
<path d="M132.94 102.581C132.94 102.581 129.688 98.0662 127.433 99.1124C125.178 100.159 127.537 106.652 130.103 107.595C130.423 107.736 130.77 107.818 131.125 107.835C131.481 107.851 131.836 107.803 132.169 107.692C132.503 107.581 132.809 107.41 133.068 107.189C133.327 106.968 133.535 106.703 133.678 106.407L132.94 102.581Z" fill="#AD6359"/>
<path d="M128.109 100.951C128.109 100.951 128.109 100.998 128.109 101.017C128.931 101.418 129.65 101.971 130.221 102.639C130.792 103.308 131.202 104.079 131.424 104.9C131.324 104.731 131.185 104.583 131.017 104.468C130.848 104.352 130.653 104.272 130.447 104.231C130.24 104.191 130.026 104.192 129.82 104.234C129.613 104.276 129.42 104.359 129.252 104.476C129.252 104.476 129.252 104.57 129.252 104.561C129.575 104.478 129.918 104.488 130.235 104.589C130.551 104.69 130.825 104.878 131.019 105.126C131.341 105.545 131.613 105.994 131.829 106.465C131.912 106.616 132.203 106.54 132.151 106.371C132.297 104.231 130.593 101.234 128.109 100.951Z" fill="#263238"/>
<path d="M34.926 393.061H0.980469V387.406H34.926C61.8165 387.406 69.4846 366.53 71.1783 349.018C72.5082 335.305 73.3187 318.604 74.1811 300.95C77.4125 234.806 80.7582 166.408 110.101 166.408H136.991V172.063H110.08C86.7016 172.063 83.0649 246.7 80.3946 301.186C79.5218 318.933 78.7009 335.691 77.371 349.536C74.6694 377.595 59.5929 393.061 34.926 393.061Z" fill="#E11045"/>
<path opacity="0.2" d="M136.991 166.381V172.036H115.545L114.215 166.381H136.991Z" fill="black"/>
<path d="M230.276 205.738H241.727V133.184H230.276V205.738Z" fill="#E11045"/>
<path d="M230.277 136.625H186.762V201.545H230.277V136.625Z" fill="#E11045"/>
<path opacity="0.2" d="M230.276 136.625V201.545H219.47L214.617 136.625H230.276Z" fill="black"/>
<path d="M120.846 174.984H153.129V163.42H120.846V174.984Z" fill="#E11045"/>
<path d="M153.127 163.43H120.844V174.994H153.127V163.43Z" fill="#E11045"/>
<path opacity="0.2" d="M141.793 174.985L142.853 163.43H153.129V174.985H141.793Z" fill="black"/>
<path d="M186.762 197.699H159.518C157.823 197.699 156.198 197.089 154.999 196.001C153.801 194.914 153.128 193.44 153.128 191.903V147.002C153.128 145.465 153.801 143.99 154.999 142.903C156.198 141.816 157.823 141.206 159.518 141.206H186.762V197.699Z" fill="#E11045"/>
<path opacity="0.2" d="M172.445 197.699L177.298 141.215H186.763V197.699H172.445Z" fill="black"/>
<g opacity="0.2">
<path opacity="0.2" d="M174.947 186.276H177.098V152.629H174.947V186.276Z" fill="black"/>
<path opacity="0.2" d="M168.869 186.276H171.02V152.629H168.869V186.276Z" fill="black"/>
<path opacity="0.2" d="M162.783 186.276H164.934V152.629H162.783V186.276Z" fill="black"/>
</g>
<path d="M118.862 129.943C117.823 143.553 116.638 171.272 123.267 179.406C131.964 190.075 156.517 196.55 163.79 198.491C166.907 199.33 174.378 180.584 172.528 177.888C170.679 175.193 145.336 169.406 143.341 167.822C141.346 166.239 135.029 144.147 132.026 132.893C128.14 118.699 119.288 124.571 118.862 129.943Z" fill="#AD6359"/>
<path d="M191.249 185.089C195.249 185.957 201.317 184.09 201.515 186.871C201.691 189.34 197.358 190.254 197.358 190.254C197.358 190.254 202.616 190.66 201.972 193.365C201.327 196.07 196.34 196.192 196.34 196.192C196.34 196.192 201.161 196.786 200.299 199.444C199.436 202.102 194.813 202.469 194.813 202.469C194.813 202.469 196.028 203.289 194.491 204.92C192.298 207.257 184.983 206.984 181.212 206.022C177.44 205.061 164.379 198.991 162.395 198.021L169.013 175.966C169.013 175.966 176.609 174.873 180.536 174.741C184.464 174.609 197.525 177.436 196.974 180.396C196.423 183.355 187.228 181.244 184.848 181.169C182.469 181.093 182.053 181.574 183.092 182.366C183.768 182.922 189.472 184.703 191.249 185.089Z" fill="#AD6359"/>
<path d="M197.122 190.207C190.981 191.149 188.113 190.527 182.481 188.322C182.367 188.275 182.274 188.416 182.388 188.473C187.687 191.065 191.168 192.243 197.184 190.461C197.485 190.386 197.423 190.169 197.122 190.207Z" fill="#263238"/>
<path d="M196.579 196.097C190.106 196.521 186.999 195.927 180.91 194.023C180.827 194.023 180.765 194.127 180.848 194.165C186.656 196.474 190.147 197.596 196.558 196.399C196.849 196.351 196.88 196.078 196.579 196.097Z" fill="#263238"/>
<path d="M194.732 202.431C188.425 202.431 184.985 201.903 179.333 199.377C179.307 199.365 179.277 199.363 179.249 199.371C179.221 199.378 179.198 199.395 179.183 199.418C179.169 199.441 179.164 199.468 179.171 199.493C179.178 199.519 179.195 199.541 179.219 199.556C184.705 202.647 188.996 203.326 194.711 202.61C195.095 202.553 195.127 202.431 194.732 202.431Z" fill="#263238"/>
<path d="M144.619 194.071C144.619 194.071 124.804 185.042 121.76 178.124C118.019 169.49 116.492 144.316 117.946 131.404C119.401 118.492 129.313 120.094 132.493 131.508C135.61 142.648 142.644 164.9 143.372 165.947C144.296 167.294 155.601 169.83 155.601 169.83" fill="#384259"/>
<path d="M142.633 163.063C142.29 161.998 141.687 159.594 141.344 158.558C140.648 156.484 139.952 154.401 139.266 152.328C138.58 150.254 137.843 148.171 137.084 146.107C136.949 145.758 136.824 145.4 136.7 145.052C136.762 144.825 136.482 142.092 136.502 141.423C136.502 141.319 136.315 141.31 136.326 141.423C136.353 142.093 136.329 142.764 136.253 143.43C136.253 143.553 136.253 143.685 136.253 143.807C135.775 142.45 135.297 141.102 134.809 139.783C134.809 139.689 134.601 139.726 134.632 139.783C135.567 142.611 136.024 144.392 136.71 146.682C137.396 148.972 138.102 151.102 138.788 153.28C139.474 155.457 140.274 157.672 141.033 159.877C141.459 161.184 141.959 162.471 142.529 163.732C142.965 164.58 142.986 164.184 142.633 163.063Z" fill="#263238"/>
<path d="M120.282 170.668C119.877 168.34 119.472 165.956 119.16 163.656C118.526 158.943 118.121 154.306 117.893 149.594C117.757 146.898 117.539 144.221 117.373 141.535C117.373 141.508 117.361 141.481 117.34 141.462C117.318 141.443 117.289 141.432 117.259 141.432C117.228 141.432 117.199 141.443 117.178 141.462C117.156 141.481 117.144 141.508 117.144 141.535C117.144 143.929 117.051 146.314 117.144 148.708C117.144 149.056 117.144 149.405 117.144 149.754L117.02 149.264C116.635 147.897 116.095 146.559 115.762 145.173C115.753 145.157 115.738 145.145 115.72 145.138C115.702 145.131 115.681 145.131 115.662 145.136C115.643 145.142 115.628 145.154 115.617 145.169C115.607 145.185 115.603 145.203 115.607 145.221C115.981 146.597 116.178 148.048 116.531 149.396C116.718 150.084 116.905 150.772 117.113 151.46L117.217 151.752C117.28 153.128 117.352 154.504 117.456 155.88C117.738 160.603 118.338 165.305 119.254 169.961C119.881 173.006 120.789 175.998 121.966 178.906C121.971 178.92 121.982 178.932 121.996 178.941C122.01 178.95 122.027 178.955 122.044 178.955C122.06 178.955 122.077 178.95 122.091 178.941C122.105 178.932 122.116 178.92 122.121 178.906C121.508 176.578 120.698 172.996 120.282 170.668Z" fill="#263238"/>
<path d="M151.924 169.821C150.839 171.513 149.867 173.263 149.015 175.061C148.1 176.833 147.176 178.605 146.313 180.396C144.565 183.922 143.035 187.534 141.731 191.215C141.729 191.236 141.734 191.257 141.746 191.275C141.757 191.292 141.775 191.306 141.797 191.313C141.818 191.321 141.841 191.322 141.863 191.316C141.885 191.31 141.905 191.298 141.918 191.281C143.851 187.794 145.503 184.166 147.186 180.575C148.017 178.803 148.817 177.012 149.638 175.24C150.459 173.468 151.394 171.687 152.028 169.858C152.049 169.802 151.955 169.774 151.924 169.821Z" fill="#263238"/>
<path d="M223.335 44.9008C223.336 45.5393 223.195 46.1713 222.923 46.7601C222.651 47.3489 222.252 47.8826 221.75 48.3301C221.248 48.7775 220.653 49.1298 219.999 49.3663C219.346 49.6028 218.646 49.7188 217.943 49.7076H216.987V56.3051C216.987 57.5799 216.429 58.8026 215.435 59.704C214.441 60.6054 213.093 61.1119 211.688 61.1119C210.282 61.1119 208.934 60.6054 207.941 59.704C206.947 58.8026 206.389 57.5799 206.389 56.3051V49.7076H176.017C174.818 49.7471 173.647 49.3695 172.744 48.652C172.185 48.273 171.717 47.7944 171.368 47.2457C171.02 46.6969 170.799 46.0894 170.718 45.4604C170.637 44.8314 170.699 44.194 170.899 43.5873C171.099 42.9806 171.434 42.4174 171.882 41.9319L207.511 1.75306C207.604 1.75306 207.604 1.65881 207.698 1.57398C207.819 1.47635 207.918 1.35782 207.989 1.22526C208.175 1.18476 208.342 1.09246 208.467 0.961353C208.571 0.876528 208.758 0.791704 208.851 0.697453C209.022 0.589268 209.225 0.53016 209.433 0.527803C209.527 0.348727 209.62 0.263903 209.817 0.263903C210.015 0.263903 210.108 0.179078 210.399 0.0942524C210.536 0.106533 210.673 0.0730001 210.784 0H212.415C212.563 0.0760679 212.734 0.108971 212.903 0.0942524C212.997 0.179078 213.288 0.179078 213.475 0.263903C213.662 0.348728 213.766 0.348729 213.859 0.348729C214.014 0.473587 214.177 0.590031 214.348 0.697453C214.535 0.791704 214.628 0.876528 214.826 0.961353C214.839 0.961279 214.852 0.963744 214.864 0.968583C214.876 0.973423 214.887 0.980529 214.896 0.989433C214.905 0.998337 214.911 1.00884 214.915 1.02024C214.919 1.03165 214.921 1.0437 214.919 1.05561C215.013 1.05561 215.21 1.14043 215.21 1.22526L215.595 1.57398C215.688 1.65881 215.792 1.83788 215.885 1.92271C216.03 2.05777 216.159 2.20624 216.27 2.36568C216.295 2.49758 216.364 2.61935 216.467 2.71441C216.545 2.88228 216.608 3.05565 216.654 3.23278C216.654 3.31761 216.748 3.49669 216.748 3.58151C216.838 3.74461 216.874 3.92796 216.852 4.10931C216.852 4.27896 216.945 4.37321 216.945 4.54286V40.0941H217.901C218.606 40.0853 219.306 40.2028 219.961 40.4398C220.616 40.6768 221.213 41.0286 221.717 41.475C222.222 41.9215 222.625 42.4539 222.903 43.0418C223.18 43.6296 223.327 44.2613 223.335 44.9008ZM206.389 18.5107L187.187 40.0941H206.347L206.389 18.5107Z" fill="#E11045"/>
<path d="M236 30.5748C236.094 22.5352 238.307 15.2874 242.546 9.69835C246.588 4.10931 252.853 0 260.459 0C267.867 0 274.226 4.10931 278.268 9.69835C282.31 15.2874 284.721 22.5352 284.721 30.5748C284.721 38.6143 282.414 45.8622 278.268 51.4512C274.123 57.0403 267.878 61.1496 260.459 61.1496C252.853 61.1496 246.588 56.9554 242.546 51.4512C238.307 45.8622 236.094 38.5201 236 30.5748ZM274.029 30.5748C274.137 25.1003 272.538 19.7095 269.416 15.0235C266.621 11.3572 263.441 9.61353 260.459 9.69835C257.467 9.61353 254.225 11.3572 251.305 15.0235C248.179 19.7085 246.576 25.0994 246.681 30.5748C246.574 36.0208 248.178 41.3821 251.305 46.0318C254.194 49.8018 257.467 51.4512 260.459 51.4512C263.452 51.4512 266.621 49.7924 269.416 46.0318C272.211 42.2712 274.029 36.7765 274.029 30.5748Z" fill="#E11045"/>
<path d="M343.522 44.9008C343.52 45.5397 343.379 46.172 343.106 46.7608C342.832 47.3496 342.433 47.8833 341.93 48.3306C341.427 48.778 340.831 49.1301 340.177 49.3665C339.522 49.6029 338.823 49.7188 338.119 49.7076H337.163V56.3051C337.163 57.5799 336.604 58.8026 335.611 59.704C334.617 60.6054 333.269 61.1119 331.864 61.1119C330.458 61.1119 329.11 60.6054 328.117 59.704C327.123 58.8026 326.564 57.5799 326.564 56.3051V49.7076H296.235C295.032 49.7495 293.857 49.3718 292.951 48.652C292.392 48.273 291.924 47.7944 291.576 47.2457C291.227 46.6969 291.006 46.0894 290.925 45.4604C290.844 44.8314 290.906 44.194 291.106 43.5873C291.306 42.9806 291.641 42.4174 292.089 41.9319L327.718 1.75306C327.811 1.75306 327.811 1.65881 327.905 1.57398C328.026 1.47635 328.125 1.35782 328.196 1.22526C328.382 1.18476 328.549 1.09246 328.674 0.961353C328.778 0.876528 328.965 0.791704 329.058 0.697453C329.229 0.589268 329.432 0.53016 329.64 0.527803C329.734 0.348727 329.827 0.263903 330.024 0.263903C330.222 0.263903 330.315 0.179078 330.606 0.0942524C330.743 0.106533 330.88 0.0730001 330.991 0H332.622C332.77 0.0760679 332.941 0.108971 333.11 0.0942524C333.204 0.179078 333.495 0.179078 333.682 0.263903C333.869 0.348728 333.973 0.348729 334.066 0.348729C334.264 0.527804 334.451 0.612628 334.544 0.697453C334.638 0.782279 334.835 0.876528 335.033 0.961353C335.046 0.961279 335.059 0.963744 335.071 0.968583C335.083 0.973423 335.094 0.980529 335.103 0.989433C335.112 0.998337 335.118 1.00884 335.122 1.02024C335.126 1.03165 335.128 1.0437 335.126 1.05561C335.22 1.05561 335.417 1.14043 335.417 1.22526L335.802 1.57398C335.895 1.65881 335.999 1.83788 336.092 1.92271C336.237 2.05777 336.366 2.20624 336.477 2.36568C336.502 2.49758 336.571 2.61935 336.674 2.71441C336.752 2.88228 336.815 3.05565 336.861 3.23278C336.861 3.31761 336.955 3.49669 336.955 3.58151C337.042 3.74557 337.074 3.92888 337.048 4.10931C337.048 4.27896 337.152 4.37321 337.152 4.54286V40.0941H338.108C339.528 40.084 340.894 40.5839 341.908 41.4845C342.922 42.3852 343.502 43.6134 343.522 44.9008ZM326.564 18.5107L307.404 40.0941H326.564V18.5107Z" fill="#E11045"/>
<path d="M260.906 121.045C260.768 121.045 260.636 120.996 260.539 120.907C260.441 120.819 260.387 120.699 260.387 120.574V107.313C260.387 107.188 260.441 107.068 260.539 106.98C260.636 106.891 260.768 106.842 260.906 106.842C261.044 106.842 261.176 106.891 261.274 106.98C261.371 107.068 261.426 107.188 261.426 107.313V120.574C261.426 120.699 261.371 120.819 261.274 120.907C261.176 120.996 261.044 121.045 260.906 121.045Z" fill="#263238"/>
<path d="M234.455 127.398C234.363 127.398 234.272 127.377 234.192 127.335C234.112 127.294 234.045 127.234 233.998 127.162L226.724 115.673C226.682 115.62 226.652 115.559 226.636 115.495C226.621 115.43 226.621 115.363 226.636 115.299C226.651 115.234 226.681 115.173 226.723 115.12C226.766 115.067 226.821 115.022 226.883 114.989C226.946 114.956 227.016 114.935 227.088 114.928C227.161 114.92 227.234 114.927 227.303 114.947C227.372 114.967 227.436 115 227.49 115.044C227.545 115.088 227.588 115.142 227.618 115.202L234.891 126.691C234.926 126.744 234.949 126.803 234.959 126.864C234.969 126.925 234.965 126.988 234.947 127.047C234.93 127.107 234.899 127.163 234.858 127.212C234.816 127.261 234.764 127.302 234.704 127.332C234.629 127.374 234.543 127.397 234.455 127.398Z" fill="#263238"/>
<path d="M226.848 221.949C226.756 221.95 226.666 221.927 226.588 221.884C226.53 221.849 226.48 221.805 226.442 221.753C226.403 221.701 226.377 221.642 226.364 221.58C226.351 221.518 226.353 221.455 226.368 221.394C226.383 221.332 226.412 221.275 226.453 221.224L233.726 209.744C233.761 209.69 233.806 209.643 233.86 209.605C233.914 209.567 233.976 209.539 234.042 209.523C234.109 209.507 234.177 209.503 234.245 209.511C234.313 209.519 234.379 209.539 234.438 209.57C234.497 209.601 234.55 209.642 234.591 209.691C234.633 209.74 234.664 209.796 234.682 209.856C234.7 209.916 234.704 209.979 234.695 210.04C234.687 210.102 234.664 210.161 234.63 210.215L227.357 221.695C227.31 221.779 227.236 221.848 227.145 221.893C227.055 221.938 226.951 221.958 226.848 221.949Z" fill="#263238"/>
<path d="M260.574 230.226C260.436 230.226 260.304 230.176 260.207 230.088C260.109 229.999 260.055 229.879 260.055 229.754V216.512C260.055 216.387 260.109 216.267 260.207 216.179C260.304 216.091 260.436 216.041 260.574 216.041C260.711 216.043 260.842 216.094 260.939 216.182C261.035 216.27 261.091 216.388 261.094 216.512V229.773C261.088 229.895 261.031 230.01 260.934 230.094C260.838 230.179 260.708 230.226 260.574 230.226Z" fill="#263238"/>
<path d="M294.344 222.101C294.253 222.1 294.165 222.078 294.086 222.037C294.008 221.995 293.943 221.936 293.897 221.865L286.624 210.385C286.59 210.331 286.568 210.272 286.559 210.21C286.55 210.149 286.555 210.086 286.573 210.026C286.591 209.966 286.621 209.91 286.663 209.861C286.705 209.812 286.757 209.771 286.816 209.74C286.876 209.709 286.941 209.689 287.009 209.681C287.077 209.673 287.146 209.677 287.212 209.693C287.278 209.709 287.34 209.737 287.394 209.775C287.448 209.813 287.494 209.86 287.528 209.914L294.801 221.394C294.836 221.447 294.859 221.506 294.869 221.567C294.879 221.628 294.875 221.69 294.857 221.75C294.84 221.81 294.809 221.866 294.768 221.915C294.726 221.964 294.674 222.004 294.614 222.035C294.533 222.08 294.439 222.103 294.344 222.101Z" fill="#263238"/>
<path d="M287.32 127.548C287.229 127.549 287.139 127.526 287.061 127.482C287.001 127.452 286.949 127.411 286.907 127.362C286.866 127.313 286.835 127.258 286.818 127.198C286.8 127.138 286.796 127.076 286.806 127.014C286.815 126.953 286.839 126.894 286.874 126.841L294.147 115.352C294.223 115.258 294.334 115.192 294.46 115.168C294.586 115.144 294.717 115.163 294.828 115.222C294.939 115.281 295.023 115.375 295.062 115.486C295.101 115.597 295.094 115.717 295.041 115.824L287.767 127.313C287.72 127.383 287.655 127.441 287.577 127.482C287.499 127.523 287.411 127.546 287.32 127.548Z" fill="#263238"/>
</svg>
