<svg width="2781" height="760" viewBox="0 0 2781 760" fill="none" xmlns="http://www.w3.org/2000/svg">
<path d="M2592.06 251.936C2524.22 251.936 2513.98 299.827 2513.98 358.485C2513.98 417.671 2524.22 463.953 2592.06 463.953C2661.52 463.953 2670.67 417.671 2670.67 359.025C2670.67 299.827 2661.52 251.936 2592.06 251.936ZM2592.06 535.526C2454.76 535.526 2425.69 449.958 2425.69 358.485C2425.69 267 2455.31 181.444 2592.06 181.444C2729.89 181.444 2759.51 267 2759.51 359.025C2759.51 449.958 2729.89 535.526 2592.06 535.526ZM2235.1 257.316H2191.48V344.492H2235.1C2283.02 344.492 2293.25 321.351 2293.25 301.438C2293.25 279.917 2283.02 257.316 2235.1 257.316ZM2290.02 530.679L2191.48 400.461V530.679H2104.25V186.284H2236.17C2368.62 186.284 2381.54 256.236 2381.54 301.438C2381.54 339.655 2368.09 399.381 2285.71 404.218L2396.61 530.679H2290.02ZM2010.05 530.679L1987.43 481.168C1967.51 516.156 1929.28 535.528 1886.22 535.528C1761.3 535.528 1730.61 449.96 1730.61 358.487C1730.61 267.002 1759.15 181.447 1892.13 181.447C2007.9 181.447 2049.36 237.404 2049.36 302.519H1960.51C1956.21 271.311 1942.21 253.007 1892.13 253.007C1828.61 253.007 1818.9 299.83 1818.9 358.487C1818.9 417.673 1828.61 463.956 1892.13 463.956C1934.66 463.956 1961.05 439.734 1962.13 398.841H1880.83V331.577H2049.9V530.679H2010.05ZM1449.02 530.679V186.284H1698.31V257.316H1535.7V321.351H1682.16V388.614H1535.7V459.647H1698.31V530.679H1449.02ZM1204.58 530.679V186.284H1292.35L1291.27 459.647H1405.95V530.679H1204.58ZM959.067 530.679V186.284H1046.83L1045.75 459.647H1160.44V530.679H959.067ZM749.629 262.162L702.792 407.455H797.547L749.629 262.162ZM835.233 530.675L816.39 471.49H683.937L665.094 530.675H573.569L695.25 186.28H805.089L926.77 530.675H835.233Z" fill="#003058"/>
<path d="M362.427 576.41V611.117C381.066 605.368 398.852 597.62 415.485 588.102V576.41H362.427ZM155.333 576.428V588.824C171.954 598.234 189.722 605.882 208.373 611.487V576.428H155.333ZM224.523 576.428V615.812C241.636 619.821 259.374 622.166 277.581 622.634V576.428H224.523ZM293.202 576.428V622.581C311.433 622.041 329.171 619.618 346.26 615.513V576.428H293.202Z" fill="#A5152B"/>
<path d="M155.333 506.908V559.935H208.374V506.908H155.333ZM224.541 506.908V559.935H277.598V506.908H224.541ZM293.203 506.908V559.935H346.26V506.908H293.203ZM362.428 506.908V559.935H415.485V506.908H362.428ZM431.635 506.908V559.935H455.507C465.968 551.041 475.74 541.326 484.675 530.907V506.908H431.635ZM86.126 506.926V532.385C94.7248 542.263 104.047 551.492 114.027 559.954H139.184V506.926H86.126Z" fill="#C70D2C"/>
<path d="M33.0859 437.44C38.8385 456.069 46.6368 473.827 56.1843 490.451H69.959V437.44H33.0859ZM86.1261 437.44V490.451H139.184V437.44H86.1261ZM155.333 437.44V490.451H208.374V437.44H155.333ZM224.541 437.44V490.451H277.599V437.44H224.541ZM293.203 437.44V490.451H346.261V437.44H293.203ZM362.428 437.44V490.451H415.486V437.44H362.428ZM431.635 437.44V490.451H484.675V437.44H431.635ZM500.842 437.44V490.433H513.333C522.88 473.821 530.679 456.081 536.431 437.44H500.842Z" fill="#E57204"/>
<path d="M21.4927 367.938C22.0448 386.135 24.4575 403.869 28.5647 420.949H69.9589V367.938H21.4927ZM86.1261 367.938V420.949H139.184V367.938H86.1261ZM155.333 367.938V420.949H208.374V367.938H155.333ZM224.541 367.938V420.949H277.599V367.938H224.541ZM293.203 367.938V420.949H346.261V367.938H293.203ZM362.428 367.938V420.949H415.486V367.938H362.428ZM431.635 367.938V420.949H484.675V367.938H431.635ZM500.842 367.938V420.949H540.952C545.06 403.869 547.472 386.135 548.024 367.938H500.842Z" fill="#F1C403"/>
<path d="M28.5647 298.014C24.4575 315.094 22.0451 332.816 21.4927 351.024H69.9589V298.014H28.5647ZM86.1261 298.014V351.024H139.184V298.014H86.1261ZM155.333 298.014V351.024H208.374V298.014H155.333ZM224.541 298.014V351.024H277.599V298.014H224.541ZM293.203 298.014V351.024H346.261V298.014H293.203ZM362.428 298.014V351.024H415.486V298.014H362.428ZM431.635 298.014V351.024H484.675V298.014H431.635ZM500.842 298.014V351.024H548.024C547.472 332.816 545.06 315.094 540.952 298.014H500.842Z" fill="#008262"/>
<path d="M86.1261 228.494V281.522H139.184V228.494H86.1261ZM155.333 228.494V281.522H208.374V228.494H155.333ZM224.541 228.494V281.522H277.599V228.494H224.541ZM293.203 228.494V281.522H346.261V228.494H293.203ZM362.428 228.494V281.522H415.486V228.494H362.428ZM431.635 228.494V281.522H484.675V228.494H431.635ZM56.1843 228.512C46.6608 245.124 38.8625 262.87 33.0859 281.522H69.959V228.512H56.1843ZM500.842 228.512V281.522H536.431C530.679 262.87 522.88 245.124 513.333 228.512H500.842Z" fill="#0185AD"/>
<path d="M114.045 158.992C104.065 167.454 94.7248 176.688 86.126 186.578V212.02H139.184V158.992H114.045ZM431.635 158.992V212.02H484.675V188.073C475.716 177.618 465.957 167.874 455.472 158.992H431.635ZM155.333 159.01V212.038H208.374V159.01H155.333ZM224.541 159.01V212.038H277.598V159.01H224.541ZM293.203 159.01V212.038H346.26V159.01H293.203ZM362.428 159.01V212.038H415.485V159.01H362.428Z" fill="#003058"/>
<path d="M277.581 96.3115C259.374 96.7796 241.636 99.1245 224.523 103.133V142.517H277.581V96.3115ZM293.202 96.3655V142.519H346.26V103.434C329.171 99.3287 311.433 96.8937 293.202 96.3655ZM208.373 107.46C189.722 113.065 171.954 120.713 155.333 130.123V142.519H208.373V107.46ZM362.427 107.829V142.519H415.485V130.844C398.852 121.338 381.066 113.578 362.427 107.829Z" fill="#5F376E"/>
<path d="M1748.95 559.672C1743.63 559.672 1739.52 562.812 1739.52 568.129C1739.52 573.686 1743.63 577.078 1748.95 577.078C1754.27 577.078 1758.38 573.692 1758.38 568.375C1758.38 562.818 1754.27 559.672 1748.95 559.672ZM2367.66 573.931L2353.15 577.307V599.056H2337.67L2334.29 611.381H2353.15V661.895C2353.15 689.921 2362.34 701.027 2384.34 701.507C2387.73 701.507 2391.59 701.507 2395.46 701.282L2398.59 688.707C2376.11 690.64 2367.66 687.262 2367.66 662.14V611.381H2396.92V599.056H2367.66V573.931ZM1616.69 597.122C1607.76 597.122 1594.94 600.028 1587.93 613.807V599.056H1573.66V700.065H1587.93V639.178C1587.93 615.497 1602.68 609.939 1613.07 609.939C1628.07 609.939 1636.76 618.875 1636.76 638.44V700.065H1651.26V640.128C1651.26 616.927 1665.77 609.939 1676.89 609.939C1691.64 609.939 1700.36 620.082 1700.36 638.686V700.065H1714.86V638.194C1714.86 610.9 1700.11 597.122 1678.35 597.122C1666.99 597.122 1652.48 602.444 1646.44 617.183C1640.88 604.136 1630.72 597.122 1616.69 597.122ZM2101.71 597.122C2083.09 597.122 2065.92 605.588 2065.92 623.952C2065.92 660.189 2123.7 645.94 2123.7 672.514C2123.7 683.389 2114.28 689.182 2099.77 689.182C2091.32 689.182 2079.21 686.539 2068.81 679.53C2068.33 680.007 2063.75 686.541 2061.09 690.167C2075.83 699.829 2089.86 702 2100.26 702C2122.27 702 2138.7 691.604 2138.7 672.268C2138.7 635.54 2080.19 648.594 2080.19 623.952C2080.19 613.558 2091.8 609.939 2101.71 609.939C2110.65 609.939 2121.77 612.84 2130.72 619.117C2131.44 614.772 2132.16 610.416 2132.88 606.071C2126.12 601.234 2113.8 597.122 2101.71 597.122ZM2288.85 597.122C2270.22 597.122 2253.05 605.588 2253.05 623.952C2253.05 660.189 2310.84 645.94 2310.84 672.514C2310.84 683.389 2301.41 689.182 2286.9 689.182C2278.44 689.182 2266.35 686.539 2255.95 679.53C2255.47 680.007 2250.88 686.541 2248.21 690.167C2262.96 699.829 2276.99 702 2287.39 702C2309.38 702 2325.83 691.604 2325.83 672.268C2325.83 635.54 2267.32 648.594 2267.32 623.952C2267.32 613.558 2278.93 609.939 2288.85 609.939C2297.79 609.939 2308.9 612.84 2317.84 619.117C2318.56 614.772 2319.3 610.416 2320.02 606.071C2313.26 601.234 2300.93 597.122 2288.85 597.122ZM2561.09 597.122C2552.14 597.122 2539.32 600.028 2532.31 613.807V599.056H2518.04V700.065H2532.31V639.178C2532.31 615.497 2547.07 609.939 2557.47 609.939C2572.45 609.939 2581.16 618.875 2581.16 638.44V700.065H2595.66V640.128C2595.66 616.927 2610.16 609.939 2621.29 609.939C2636.03 609.939 2644.74 620.082 2644.74 638.686V700.065H2659.24V638.194C2659.24 610.9 2644.49 597.122 2622.73 597.122C2611.37 597.122 2596.86 602.444 2590.82 617.183C2585.26 604.136 2575.1 597.122 2561.09 597.122ZM2716.78 597.122C2698.16 597.122 2681 605.588 2681 623.952C2681 660.189 2738.79 645.94 2738.79 672.514C2738.79 683.389 2729.35 689.182 2714.84 689.182C2706.39 689.182 2694.3 686.539 2683.9 679.53C2683.42 680.007 2678.83 686.541 2676.16 690.167C2690.91 699.829 2704.94 702 2715.34 702C2737.34 702 2753.78 691.604 2753.78 672.268C2753.78 635.54 2695.26 648.594 2695.26 623.952C2695.26 613.558 2706.87 609.939 2716.78 609.939C2725.73 609.939 2736.84 612.84 2745.79 619.117C2746.51 614.772 2747.25 610.416 2747.97 606.071C2741.21 601.234 2728.87 597.122 2716.78 597.122ZM1832.85 597.14C1802.38 597.14 1779.89 616.226 1779.89 649.57C1779.89 682.433 1802.38 701.982 1832.85 701.982C1845.17 701.982 1857.26 698.851 1870.32 690.15L1863.54 678.562C1857.74 682.428 1846.86 689.182 1832.85 689.182C1810.59 689.182 1794.16 674.698 1794.16 649.324C1794.16 623.95 1810.85 610.186 1832.85 610.186C1848.07 610.186 1859.44 618.147 1863.54 620.559L1866.45 607.513C1861.37 604.129 1849.29 597.14 1832.85 597.14ZM1995.33 597.368C1966.56 597.368 1943.34 616.215 1943.34 649.798C1943.34 683.394 1966.56 702 1995.33 702C2024.34 702 2047.29 683.4 2047.29 650.045C2047.29 616.221 2024.34 597.368 1995.33 597.368ZM2450.82 597.368C2423.5 597.368 2402.73 617.901 2402.73 649.552C2402.73 681.936 2422.54 702 2455.66 702C2469.19 702 2479.6 699.097 2492.41 689.675L2484.92 678.791C2477.67 684.601 2468.95 689.2 2455.66 689.2C2432.69 689.2 2417.22 675.911 2417.22 651.75H2495.81C2496.05 649.818 2496.05 644.239 2495.81 639.654C2494.11 614.04 2476.45 597.368 2450.82 597.368ZM1935.06 597.579C1920.04 598.034 1907.62 605.927 1902.97 620.084V599.056H1888.46V700.065H1902.97V654.633C1902.97 631.432 1910.94 607.024 1939 610.889L1941.64 597.843C1939.4 597.602 1937.2 597.514 1935.06 597.579ZM1741.7 599.056V700.065H1756.2V599.056H1741.7ZM2141.36 599.074L2186.32 689.921L2162.4 735.353L2177.62 738.009L2246.77 599.074H2230.82L2194.07 675.17L2157.79 599.074H2141.36ZM2451.07 609.448C2468.23 609.448 2481.77 619.592 2482.73 640.129H2417.94C2421.09 620.312 2434.63 609.448 2451.07 609.448ZM1995.08 610.415C2016.11 610.415 2032.55 624.443 2032.55 650.045C2032.55 675.418 2016.11 689.2 1995.08 689.2C1974.53 689.2 1957.86 675.413 1957.86 649.799C1957.86 624.437 1974.53 610.415 1995.08 610.415Z" fill="#A5152B"/>
<path d="M1627.12 21.9917C1609.71 21.9917 1595.16 34.0924 1595.16 53.921C1595.16 73.7614 1609.71 85.8677 1627.12 85.8677C1644.54 85.8677 1659.09 73.7614 1659.09 53.921C1659.09 34.0924 1644.54 21.9917 1627.12 21.9917ZM1907.42 21.9917C1890.01 21.9917 1875.44 34.0924 1875.44 53.921C1875.44 73.7614 1890.01 85.8677 1907.42 85.8677C1924.83 85.8677 1939.37 73.7614 1939.37 53.921C1939.37 34.0924 1924.83 21.9917 1907.42 21.9917ZM2606.41 21.9917C2588.99 21.9917 2574.44 34.0924 2574.44 53.921C2574.44 73.7614 2588.99 85.8677 2606.41 85.8677C2623.82 85.8677 2638.37 73.7614 2638.37 53.921C2638.37 34.0924 2623.82 21.9917 2606.41 21.9917ZM2676.44 22.0817C2670.42 22.0817 2665.57 23.7844 2662.16 26.6531C2658.84 29.4377 2656.49 33.5621 2656.49 38.5913C2656.49 43.6085 2658.31 47.0231 2660.55 49.3516C2662.8 51.7762 2665.39 53.123 2666.75 53.7471C2669.08 54.9114 2673.39 56.6307 2676.62 57.879C2679.76 59.1393 2686.66 61.6543 2686.66 68.1118C2686.66 74.6653 2681.3 78.5205 2674.56 78.5205C2667.82 78.5205 2661.98 73.8544 2658.85 69.6414L2653.71 75.4787C2656.68 78.8875 2662.88 85.8874 2673.75 85.8874C2679.95 85.8874 2685.06 84.1794 2688.91 81.0346C2692.96 77.7099 2695.39 72.9616 2695.39 67.5843C2695.39 62.9153 2693.59 59.5826 2691.6 57.1581C2689.54 54.7336 2685.78 52.6753 2684.6 52.1472L2673.2 47.3824C2669.43 45.8581 2665.2 43.7077 2665.2 37.9584C2665.2 32.221 2669.88 29.3431 2675.98 29.3431C2682.1 29.3431 2686.58 32.7604 2689.63 35.9892L2694.21 30.0639C2692.5 28.2756 2686.59 22.0817 2676.44 22.0817ZM1752.91 22.7146L1727.66 84.7971H1736.83L1743.21 68.6567H1769.78L1776.16 84.7971H1785.86L1760.54 22.7146H1752.91ZM1416.51 22.873V84.7973H1425.22V22.873H1416.51ZM1447.84 22.873V84.7973H1456.46V51.866C1456.46 43.7881 1456.27 35.4442 1456.27 35.4442L1492.02 84.7973H1500.55V22.873H1492.02V55.7341C1492.02 63.8959 1492.11 71.5228 1492.11 71.5228L1456.99 22.873H1447.84ZM1523.26 22.873V84.7973H1531.86V51.866C1531.86 43.7881 1531.69 35.4442 1531.69 35.4442L1567.43 84.7973H1575.95V22.873H1567.43V55.7341C1567.43 63.8959 1567.51 71.5228 1567.51 71.5228L1532.41 22.873H1523.26ZM1787.48 22.873V30.152H1804.96V84.7973H1813.69V30.152H1831.1V22.873H1787.48ZM1847.62 22.873V84.7973H1856.33V22.873H1847.62ZM1958.49 22.873V84.7973H1967.11V51.866C1967.11 43.7881 1966.93 35.4442 1966.93 35.4442L2002.66 84.7973H2011.2V22.873H2002.66V55.7341C2002.66 63.8959 2002.75 71.5228 2002.75 71.5228L1967.66 22.873H1958.49ZM2153.13 22.873V84.7973H2161.84V22.873H2153.13ZM2178.27 22.873V30.152H2195.77V84.7973H2204.48V30.152H2221.9V22.873H2178.27ZM2238.41 22.873V84.7973H2247.12V55.9099H2280.07V84.7973H2288.78V22.873H2280.07V48.455H2247.12V22.873H2238.41ZM2714.4 22.873V84.7973H2751.4V77.448H2723.11V55.9099H2749.15V48.6308H2723.11V30.152H2750.68V22.873H2714.4ZM1669.22 22.891L1692.04 84.8857H1699.76L1722.56 22.891H1713.41L1695.98 72.2441L1678.56 22.891H1669.22ZM2054.37 22.891L2072.24 84.8857H2080.77L2095.58 34.8117L2110.49 84.8857H2119.02L2136.89 22.891H2127.73L2114.34 71.699L2100.07 22.891H2091.17L2076.9 71.699L2063.53 22.891H2054.37ZM2338.34 22.891V84.7978H2347.05V58.2311H2355.75C2361.77 58.2311 2366.97 57.0819 2370.74 53.8532C2374.6 50.6245 2376.76 46.4905 2376.76 40.5611C2376.76 34.6437 2374.6 30.5993 2370.74 27.2865C2366.97 24.0578 2361.77 22.891 2355.75 22.891H2338.34ZM2394.53 22.891V59.4971C2394.53 67.2148 2395.25 73.316 2399.56 78.3452C2403.69 83.1942 2409.9 85.8879 2418.15 85.8879C2426.33 85.8879 2432.5 83.1942 2436.73 78.3452C2440.95 73.316 2441.67 67.2148 2441.67 59.4971V22.891H2432.97V58.6883C2432.97 63.8014 2432.87 68.9285 2430.08 72.6134C2427.49 76.0221 2423.55 78.0639 2418.15 78.0639C2412.77 78.0639 2408.72 76.0221 2406.21 72.6134C2403.42 68.9285 2403.34 63.8855 2403.34 58.6883V22.891H2394.53ZM2463.84 22.891V84.7978H2472.55V58.1608H2479.2L2495.37 84.7978H2505.85L2488.17 57.244C2494.73 55.9837 2502.26 51.1453 2502.26 40.2947C2502.26 34.6414 2499.94 30.1432 2496.26 27.1784C2492.58 24.3098 2487.54 22.8884 2481.34 22.8884L2463.84 22.891ZM2521.3 22.891V84.7978H2530V58.2311H2538.71C2544.73 58.2311 2549.95 57.0819 2553.72 53.8532C2557.57 50.6245 2559.73 46.4905 2559.73 40.5611C2559.73 34.6437 2557.57 30.5993 2553.72 27.2865C2549.95 24.0578 2544.73 22.891 2538.71 22.891H2521.3ZM1627.12 29.5195C1639.78 29.5195 1650.21 38.5938 1650.21 53.7653C1650.21 68.8407 1639.78 77.9759 1627.12 77.9759C1614.55 77.9759 1604.04 68.8407 1604.04 53.7653C1604.04 38.5938 1614.47 29.5195 1627.12 29.5195ZM1907.42 29.5195C1920.08 29.5195 1930.48 38.5938 1930.48 53.7653C1930.48 68.8407 1920.08 77.9759 1907.42 77.9759C1894.85 77.9759 1884.32 68.8407 1884.32 53.7653C1884.32 38.5938 1894.76 29.5195 1907.42 29.5195ZM2606.41 29.5195C2619.06 29.5195 2629.47 38.5938 2629.47 53.7653C2629.47 68.8407 2619.06 77.9759 2606.41 77.9759C2593.83 77.9759 2583.34 68.8407 2583.34 53.7653C2583.34 38.5938 2593.75 29.5195 2606.41 29.5195ZM2347.05 29.9768H2355.03C2358.98 29.9768 2361.76 30.7825 2364 32.4031C2366.15 33.9275 2367.79 36.7924 2367.79 40.5613C2367.79 44.4261 2366.15 47.2165 2364 48.8249C2361.76 50.3492 2358.98 51.1457 2355.03 51.1457H2347.05V29.9768ZM2472.55 29.9768H2478.93C2483.25 29.9768 2486.56 30.1451 2489.35 32.2098C2492.13 34.1782 2493.29 36.7885 2493.29 40.4733C2493.29 44.2422 2492.13 46.7604 2489.35 48.8249C2486.56 50.8053 2483.25 50.9699 2478.93 50.9699H2472.55V29.9768ZM2530 29.9768H2537.99C2541.95 29.9768 2544.73 30.7825 2546.98 32.4031C2549.14 33.9275 2550.74 36.7924 2550.74 40.5613C2550.74 44.4261 2549.14 47.2165 2546.98 48.8249C2544.73 50.3492 2541.95 51.1457 2537.99 51.1457H2530V29.9768ZM1756.5 33.5636L1767.37 61.3785H1745.64L1756.5 33.5636Z" fill="#888B8E"/>
</svg>
