<svg width="2640" height="762" viewBox="0 0 2640 762" fill="none" xmlns="http://www.w3.org/2000/svg">
<g clip-path="url(#clip0_2355_19100)">
<path d="M953.832 4.36475H1026.19L1145.41 340.606H1073.03L1047.51 268.258H928.248L902.734 340.606H830.31L953.832 4.36475Z" fill="black"/>
<path d="M945.315 212.897H1030.48L987.862 89.48L945.315 212.897Z" fill="white"/>
<path d="M1149.67 4.36475H1222.1L1354.03 229.92V4.36475H1422.23V340.606H1349.81L1217.8 115.015V340.606H1149.67V4.36475ZM1554.2 4.36475H1626.62L1745.82 340.606H1673.39L1652.21 268.258H1528.62L1503.1 340.606H1434.97L1554.2 4.36475Z" fill="black"/>
<path d="M1549.98 212.897H1630.85L1592.52 89.48H1588.3L1549.98 212.897Z" fill="white"/>
<path d="M1762.89 4.3649H1831.02V276.734H1988.53V340.606H1762.89V4.3649ZM2133.31 0.109133C2232.35 -1.59317 2290.83 75.6844 2290.9 174.596C2290.83 271.343 2232.35 348.585 2133.31 349.082C2033.53 348.585 1975.01 271.343 1975.79 174.596C1975.01 75.6844 2033.53 -1.55771 2133.31 0.109133Z" fill="black"/>
<path d="M2133.31 285.281C2196.37 286.841 2220.21 230.665 2218.48 174.631C2220.21 116.433 2196.37 60.2571 2133.31 59.7251C2069.48 60.2571 2045.63 116.433 2043.89 174.631C2045.63 230.63 2069.48 286.806 2133.31 285.281Z" fill="white"/>
<path d="M2563.35 302.268C2538.27 335.96 2505.9 348.585 2474 349.082C2375.46 348.585 2316.88 271.343 2316.41 174.595C2316.91 75.684 2375.46 -1.5936 2474 0.108709C2540.54 -1.5936 2602.63 40.574 2610.26 114.979H2542.13C2534.72 79.4433 2508.17 60.2214 2474 59.6894C2411.41 60.2214 2387.56 116.398 2388.77 174.595C2387.6 230.629 2411.44 286.806 2474 285.245C2520.7 286.806 2547.24 261.058 2550.58 212.897H2478.26V161.828H2614.52V340.57H2571.94L2563.35 302.268ZM830.31 421.43H966.571C1050.53 421.323 1113.09 475.62 1111.35 587.404C1113.09 683.478 1065.4 755.578 966.571 757.671H830.31V421.43Z" fill="black"/>
<path d="M898.44 693.835H962.313C1003.3 693.764 1042.44 667.591 1043.22 591.696C1042.44 526.193 1019.94 483.103 949.574 481.011H898.44V693.835Z" fill="white"/>
<path d="M1128.38 421.43H1366.88V481.01H1196.55V553.394H1354.03V612.904H1196.55V693.834H1371.17V757.635H1128.38V421.43ZM1575.46 757.635H1494.59L1388.13 421.43H1460.48L1532.91 655.497L1605.26 421.43H1681.91L1575.46 757.635ZM1694.76 757.635H1762.89V421.43H1694.76V757.635ZM2009.9 532.079C2007.41 500.445 1976.75 475.194 1941.77 476.754C1878.28 475.159 1854.44 531.335 1856.53 591.66C1854.44 645.531 1878.28 701.707 1941.77 702.275C1984.88 701.672 2009.19 670.817 2014.12 625.671H2082.25C2075.72 710.112 2020.44 763.522 1941.77 761.855C1842.3 763.522 1783.82 686.28 1784.18 591.66C1783.82 490.586 1842.34 413.344 1941.77 412.883C2012.38 413.344 2071.71 456.433 2082.25 532.044H2009.9V532.079ZM2107.73 421.43H2350.44V481.01H2180.15V553.394H2337.78V612.904H2180.15V693.834H2354.74V757.635H2107.73V421.43ZM2435.71 642.694C2436.07 689.082 2469.39 706.424 2508.07 706.566C2531.91 706.424 2569.74 698.941 2567.68 664.008C2569.78 628.721 2521.59 622.621 2474.04 608.648C2426.63 596.377 2378.48 577.226 2380.32 515.056C2378.44 446.113 2440.54 413.344 2499.52 412.883C2565.62 413.344 2627.26 443.772 2627.26 519.277H2559.13C2556.65 480.762 2529.18 470.442 2495.22 472.499C2472.97 470.442 2446.86 480.301 2448.45 506.509C2446.86 534.101 2462.19 537.435 2542.17 557.579C2566.09 565.062 2638.08 580.489 2640.04 655.497C2638.08 717.666 2591.81 763.522 2503.84 761.855C2433.37 763.522 2366.84 727.029 2367.58 642.694H2435.71ZM0 757.635H715.374V12.876H0V757.635Z" fill="black"/>
<path d="M157.553 642.694L596.11 383.128L157.553 127.817V642.694Z" fill="white"/>
</g>
<defs>
<clipPath id="clip0_2355_19100">
<rect width="2640" height="762" fill="white"/>
</clipPath>
</defs>
</svg>
