<svg width="12" height="7" viewBox="0 0 12 7" fill="none" xmlns="http://www.w3.org/2000/svg">
<path fill-rule="evenodd" clip-rule="evenodd" d="M6.01307 4.52655L4.95732 3.46027L1.79007 0.317832C1.3824 -0.0871476 0.718641 -0.0871476 0.305749 0.317832C-0.101916 0.722812 -0.101916 1.38411 0.305749 1.78909L5.20819 6.70011C5.23432 6.72574 5.26045 6.75137 5.28658 6.76675C5.30226 6.777 5.31272 6.78213 5.3284 6.79238C5.34408 6.80264 5.35453 6.80776 5.37021 6.82827C5.38589 6.83852 5.40679 6.84365 5.42247 6.8539C5.43815 6.86415 5.44861 6.86928 5.46429 6.87953C5.47996 6.88978 5.50087 6.89491 5.51655 6.90516C5.53223 6.91542 5.54268 6.92054 5.55836 6.92054C5.57404 6.93079 5.59495 6.93079 5.61063 6.93592C5.62631 6.94617 5.64721 6.94617 5.65244 6.9513C5.66812 6.96155 5.68902 6.96155 5.7047 6.96155C5.72038 6.96155 5.74129 6.97181 5.75697 6.97181C5.77265 6.97181 5.79355 6.98206 5.81969 6.98206C5.83537 6.98206 5.84582 6.99231 5.8615 6.99231C5.92944 7.00256 6.00261 7.00256 6.07056 6.99231C6.08624 6.99231 6.09669 6.99231 6.11237 6.98206C6.12805 6.98206 6.14895 6.97181 6.17509 6.97181C6.19077 6.97181 6.21167 6.96155 6.22735 6.96155C6.24303 6.96155 6.26394 6.9513 6.27962 6.9513C6.2953 6.94105 6.3162 6.94105 6.32143 6.93592C6.33711 6.92567 6.35801 6.92567 6.37369 6.92054C6.38937 6.91029 6.39983 6.90516 6.4155 6.90516C6.43118 6.89491 6.45209 6.88978 6.46777 6.87953C6.48345 6.86928 6.4939 6.86415 6.50958 6.8539C6.52526 6.84365 6.54617 6.83852 6.56185 6.82827C6.57753 6.81802 6.58798 6.81289 6.60366 6.79238C6.61934 6.78213 6.62979 6.777 6.64547 6.76675C6.6716 6.75137 6.69773 6.72574 6.71341 6.70524C6.71341 6.70524 6.71341 6.70524 6.72387 6.69498L11.6943 1.76346C12.1019 1.35848 12.1019 0.697181 11.6943 0.292201C11.5165 0.102527 11.2448 0 10.973 0C10.7012 0 10.4399 0.102527 10.2308 0.302453L7.04791 3.46027L6.01307 4.52655Z" />
</svg>
