<svg width="32" height="18" viewBox="0 0 32 18" fill="none" xmlns="http://www.w3.org/2000/svg">
<path d="M0.613304 14.4388C0.216461 14.8443 0 15.3379 0 15.9021C0 17.0833 0.937994 18 2.12852 18C2.72379 18 3.26494 17.7708 3.67982 17.3653L16.018 5.02449L28.3202 17.3653C28.7351 17.7708 29.2943 18 29.8715 18C31.062 18 32 17.0833 32 15.9021C32 15.3379 31.7835 14.8443 31.3867 14.4564L17.6776 0.740451C17.2086 0.246817 16.6313 0 16 0C15.3687 0 14.8275 0.246817 14.3405 0.722821L0.613304 14.4388Z" fill="#E11045"/>
</svg>
