<svg width="7" height="11" viewBox="0 0 7 11" fill="none" xmlns="http://www.w3.org/2000/svg">
<path fill-rule="evenodd" clip-rule="evenodd" d="M4.0079 5.95033L3.0638 6.83693L0.281416 9.49673C-0.0771624 9.83908 -0.0771624 10.3965 0.281416 10.7432C0.639994 11.0856 1.22552 11.0856 1.5841 10.7432L5.93242 6.62625C5.95512 6.6043 5.97781 6.58236 5.99143 6.56041C6.00051 6.54725 6.00505 6.53847 6.01412 6.5253C6.0232 6.51213 6.02774 6.50336 6.0459 6.49019C6.05497 6.47702 6.05951 6.45946 6.06859 6.4463C6.07767 6.43313 6.08221 6.42435 6.09129 6.41118C6.10036 6.39802 6.1049 6.38046 6.11398 6.36729C6.12306 6.35413 6.1276 6.34535 6.1276 6.33218C6.13668 6.31901 6.13668 6.30146 6.14121 6.28829C6.15029 6.27512 6.15029 6.25757 6.15483 6.25318C6.16391 6.24001 6.16391 6.22245 6.16391 6.20928C6.16391 6.19612 6.17299 6.17856 6.17299 6.16539C6.17299 6.15223 6.18207 6.13467 6.18207 6.11272C6.18207 6.09956 6.19114 6.09078 6.19114 6.07761C6.20022 6.02055 6.20022 5.95911 6.19114 5.90205C6.19114 5.88888 6.19114 5.8801 6.18207 5.86693C6.18207 5.85377 6.17299 5.83621 6.17299 5.81426C6.17299 5.8011 6.16391 5.78354 6.16391 5.77037C6.16391 5.75721 6.15483 5.73965 6.15483 5.72648C6.14575 5.71332 6.14575 5.69576 6.14121 5.69137C6.13214 5.6782 6.13214 5.66065 6.1276 5.64748C6.11852 5.63431 6.11398 5.62553 6.11398 5.61237C6.1049 5.5992 6.10036 5.58164 6.09129 5.56847C6.08221 5.55531 6.07767 5.54653 6.06859 5.53336C6.05951 5.52019 6.05497 5.50264 6.0459 5.48947C6.03682 5.4763 6.03228 5.46753 6.01412 5.45436C6.00505 5.44119 6.00051 5.43241 5.99143 5.41924C5.97781 5.3973 5.95512 5.37535 5.93696 5.36219C5.93696 5.36219 5.93696 5.36219 5.92788 5.35341L1.5614 1.17936C1.20282 0.837012 0.617299 0.837012 0.258721 1.17936C0.0907792 1.32859 0 1.55683 0 1.78506C0 2.0133 0.0907792 2.23275 0.267799 2.40831L3.0638 5.08128L4.0079 5.95033Z" />
</svg>
