<svg width="85" height="87" viewBox="0 0 85 87" fill="none" xmlns="http://www.w3.org/2000/svg">
<path d="M0 8C0 3.58172 3.58172 0 8 0H87V87H8C3.58172 87 0 83.4183 0 79V8Z" fill="#F2FFF8"/>
<path d="M0.5 8C0.5 3.85787 3.85786 0.5 8 0.5H86.5V86.5H8C3.85787 86.5 0.5 83.1421 0.5 79V8Z" stroke="black" stroke-opacity="0.2"/>
<path d="M24.8229 43.558C25.1709 43.078 25.6449 42.688 26.2449 42.388C26.8569 42.076 27.5349 41.92 28.2789 41.92C29.1549 41.92 29.9469 42.13 30.6549 42.55C31.3629 42.97 31.9209 43.57 32.3289 44.35C32.7369 45.118 32.9409 46 32.9409 46.996C32.9409 47.992 32.7369 48.886 32.3289 49.678C31.9209 50.458 31.3569 51.07 30.6369 51.514C29.9289 51.946 29.1429 52.162 28.2789 52.162C27.5109 52.162 26.8269 52.012 26.2269 51.712C25.6389 51.412 25.1709 51.028 24.8229 50.56V52H22.7709V38.68H24.8229V43.558ZM30.8529 46.996C30.8529 46.312 30.7089 45.724 30.4209 45.232C30.1449 44.728 29.7729 44.35 29.3049 44.098C28.8489 43.834 28.3569 43.702 27.8289 43.702C27.3129 43.702 26.8209 43.834 26.3529 44.098C25.8969 44.362 25.5249 44.746 25.2369 45.25C24.9609 45.754 24.8229 46.348 24.8229 47.032C24.8229 47.716 24.9609 48.316 25.2369 48.832C25.5249 49.336 25.8969 49.72 26.3529 49.984C26.8209 50.248 27.3129 50.38 27.8289 50.38C28.3569 50.38 28.8489 50.248 29.3049 49.984C29.7729 49.708 30.1449 49.312 30.4209 48.796C30.7089 48.28 30.8529 47.68 30.8529 46.996ZM34.2861 46.996C34.2861 46 34.4901 45.118 34.8981 44.35C35.3181 43.582 35.8821 42.988 36.5901 42.568C37.3101 42.136 38.1021 41.92 38.9661 41.92C39.7461 41.92 40.4241 42.076 41.0001 42.388C41.5881 42.688 42.0561 43.066 42.4041 43.522V42.082H44.4741V52H42.4041V50.524C42.0561 50.992 41.5821 51.382 40.9821 51.694C40.3821 52.006 39.6981 52.162 38.9301 52.162C38.0781 52.162 37.2981 51.946 36.5901 51.514C35.8821 51.07 35.3181 50.458 34.8981 49.678C34.4901 48.886 34.2861 47.992 34.2861 46.996ZM42.4041 47.032C42.4041 46.348 42.2601 45.754 41.9721 45.25C41.6961 44.746 41.3301 44.362 40.8741 44.098C40.4181 43.834 39.9261 43.702 39.3981 43.702C38.8701 43.702 38.3781 43.834 37.9221 44.098C37.4661 44.35 37.0941 44.728 36.8061 45.232C36.5301 45.724 36.3921 46.312 36.3921 46.996C36.3921 47.68 36.5301 48.28 36.8061 48.796C37.0941 49.312 37.4661 49.708 37.9221 49.984C38.3901 50.248 38.8821 50.38 39.3981 50.38C39.9261 50.38 40.4181 50.248 40.8741 49.984C41.3301 49.72 41.6961 49.336 41.9721 48.832C42.2601 48.316 42.4041 47.716 42.4041 47.032ZM46.4853 47.032C46.4853 46.012 46.6893 45.118 47.0973 44.35C47.5173 43.57 48.0933 42.97 48.8253 42.55C49.5573 42.13 50.3973 41.92 51.3453 41.92C52.5453 41.92 53.5353 42.208 54.3153 42.784C55.1073 43.348 55.6413 44.158 55.9173 45.214H53.7033C53.5233 44.722 53.2353 44.338 52.8393 44.062C52.4433 43.786 51.9453 43.648 51.3453 43.648C50.5053 43.648 49.8333 43.948 49.3293 44.548C48.8373 45.136 48.5913 45.964 48.5913 47.032C48.5913 48.1 48.8373 48.934 49.3293 49.534C49.8333 50.134 50.5053 50.434 51.3453 50.434C52.5333 50.434 53.3193 49.912 53.7033 48.868H55.9173C55.6293 49.876 55.0893 50.68 54.2973 51.28C53.5053 51.868 52.5213 52.162 51.3453 52.162C50.3973 52.162 49.5573 51.952 48.8253 51.532C48.0933 51.1 47.5173 50.5 47.0973 49.732C46.6893 48.952 46.4853 48.052 46.4853 47.032ZM61.8863 47.05L66.4583 52H63.6863L60.0143 47.734V52H57.9623V38.68H60.0143V46.42L63.6143 42.082H66.4583L61.8863 47.05ZM21.1307 64.756V70.246C21.1307 70.618 21.2147 70.888 21.3827 71.056C21.5627 71.212 21.8627 71.29 22.2827 71.29H23.5427V73H21.9227C20.9987 73 20.2907 72.784 19.7987 72.352C19.3067 71.92 19.0607 71.218 19.0607 70.246V64.756H17.8907V63.082H19.0607V60.616H21.1307V63.082H23.5427V64.756H21.1307ZM29.736 73.162C28.8 73.162 27.954 72.952 27.198 72.532C26.442 72.1 25.848 71.5 25.416 70.732C24.984 69.952 24.768 69.052 24.768 68.032C24.768 67.024 24.99 66.13 25.434 65.35C25.878 64.57 26.484 63.97 27.252 63.55C28.02 63.13 28.878 62.92 29.826 62.92C30.774 62.92 31.632 63.13 32.4 63.55C33.168 63.97 33.774 64.57 34.218 65.35C34.662 66.13 34.884 67.024 34.884 68.032C34.884 69.04 34.656 69.934 34.2 70.714C33.744 71.494 33.12 72.1 32.328 72.532C31.548 72.952 30.684 73.162 29.736 73.162ZM29.736 71.38C30.264 71.38 30.756 71.254 31.212 71.002C31.68 70.75 32.058 70.372 32.346 69.868C32.634 69.364 32.778 68.752 32.778 68.032C32.778 67.312 32.64 66.706 32.364 66.214C32.088 65.71 31.722 65.332 31.266 65.08C30.81 64.828 30.318 64.702 29.79 64.702C29.262 64.702 28.77 64.828 28.314 65.08C27.87 65.332 27.516 65.71 27.252 66.214C26.988 66.706 26.856 67.312 26.856 68.032C26.856 69.1 27.126 69.928 27.666 70.516C28.218 71.092 28.908 71.38 29.736 71.38ZM43.9823 64.756V70.246C43.9823 70.618 44.0663 70.888 44.2343 71.056C44.4143 71.212 44.7143 71.29 45.1343 71.29H46.3943V73H44.7743C43.8503 73 43.1423 72.784 42.6503 72.352C42.1583 71.92 41.9123 71.218 41.9123 70.246V64.756H40.7423V63.082H41.9123V60.616H43.9823V63.082H46.3943V64.756H43.9823ZM52.5875 73.162C51.6515 73.162 50.8055 72.952 50.0495 72.532C49.2935 72.1 48.6995 71.5 48.2675 70.732C47.8355 69.952 47.6195 69.052 47.6195 68.032C47.6195 67.024 47.8415 66.13 48.2855 65.35C48.7295 64.57 49.3355 63.97 50.1035 63.55C50.8715 63.13 51.7295 62.92 52.6775 62.92C53.6255 62.92 54.4835 63.13 55.2515 63.55C56.0195 63.97 56.6255 64.57 57.0695 65.35C57.5135 66.13 57.7355 67.024 57.7355 68.032C57.7355 69.04 57.5075 69.934 57.0515 70.714C56.5955 71.494 55.9715 72.1 55.1795 72.532C54.3995 72.952 53.5355 73.162 52.5875 73.162ZM52.5875 71.38C53.1155 71.38 53.6075 71.254 54.0635 71.002C54.5315 70.75 54.9095 70.372 55.1975 69.868C55.4855 69.364 55.6295 68.752 55.6295 68.032C55.6295 67.312 55.4915 66.706 55.2155 66.214C54.9395 65.71 54.5735 65.332 54.1175 65.08C53.6615 64.828 53.1695 64.702 52.6415 64.702C52.1135 64.702 51.6215 64.828 51.1655 65.08C50.7215 65.332 50.3675 65.71 50.1035 66.214C49.8395 66.706 49.7075 67.312 49.7075 68.032C49.7075 69.1 49.9775 69.928 50.5175 70.516C51.0695 71.092 51.7595 71.38 52.5875 71.38ZM61.8161 64.54C62.1641 64.084 62.6381 63.7 63.2381 63.388C63.8381 63.076 64.5161 62.92 65.2721 62.92C66.1361 62.92 66.9221 63.136 67.6301 63.568C68.3501 63.988 68.9141 64.582 69.3221 65.35C69.7301 66.118 69.9341 67 69.9341 67.996C69.9341 68.992 69.7301 69.886 69.3221 70.678C68.9141 71.458 68.3501 72.07 67.6301 72.514C66.9221 72.946 66.1361 73.162 65.2721 73.162C64.5161 73.162 63.8441 73.012 63.2561 72.712C62.6681 72.4 62.1881 72.016 61.8161 71.56V77.716H59.7641V63.082H61.8161V64.54ZM67.8461 67.996C67.8461 67.312 67.7021 66.724 67.4141 66.232C67.1381 65.728 66.7661 65.35 66.2981 65.098C65.8421 64.834 65.3501 64.702 64.8221 64.702C64.3061 64.702 63.8141 64.834 63.3461 65.098C62.8901 65.362 62.5181 65.746 62.2301 66.25C61.9541 66.754 61.8161 67.348 61.8161 68.032C61.8161 68.716 61.9541 69.316 62.2301 69.832C62.5181 70.336 62.8901 70.72 63.3461 70.984C63.8141 71.248 64.3061 71.38 64.8221 71.38C65.3501 71.38 65.8421 71.248 66.2981 70.984C66.7661 70.708 67.1381 70.312 67.4141 69.796C67.7021 69.28 67.8461 68.68 67.8461 67.996Z" fill="#E11045"/>
<path d="M28.6133 23.4388C28.2165 23.8443 28 24.3379 28 24.9021C28 26.0833 28.938 27 30.1285 27C30.7238 27 31.2649 26.7708 31.6798 26.3653L44.018 14.0245L56.3202 26.3653C56.7351 26.7708 57.2943 27 57.8715 27C59.062 27 60 26.0833 60 24.9021C60 24.3379 59.7835 23.8443 59.3867 23.4564L45.6776 9.74045C45.2086 9.24682 44.6313 9 44 9C43.3687 9 42.8275 9.24682 42.3405 9.72282L28.6133 23.4388Z" fill="#E11045"/>
</svg>
