<svg width="17" height="20" viewBox="0 0 17 20" fill="none" xmlns="http://www.w3.org/2000/svg">
<g clip-path="url(#clip0_2067_3266)">
<path d="M2.50656 7.04829H2.69858V17.0083C2.69858 18.3283 3.77854 19.4083 5.09858 19.4083H12.3946C13.7146 19.4083 14.7946 18.3283 14.7946 17.0083L14.7948 7.04829H14.9868C15.6588 7.04829 16.1868 6.52029 16.1868 5.84829V3.88021C16.1868 3.20821 15.6588 2.68021 14.9868 2.68021H12.0107V1.93625C12.0107 1.21621 11.4107 0.616211 10.6907 0.616211H6.80273C6.08269 0.616211 5.48269 1.21621 5.48269 1.93625V2.68021H2.50664C1.83464 2.68021 1.30664 3.20821 1.30664 3.88021V5.84829C1.30664 6.49616 1.85877 7.04829 2.50664 7.04829H2.50656ZM13.8346 17.0083C13.8346 17.8003 13.1865 18.4484 12.3945 18.4484H5.09847C4.30647 18.4484 3.65839 17.8003 3.65839 17.0083L3.65856 7.04829H13.8346L13.8346 17.0083ZM6.44256 1.9363C6.44256 1.74427 6.61064 1.57636 6.80249 1.57636H10.6665C10.8585 1.57636 11.0264 1.74445 11.0264 1.9363V2.68025H6.44242L6.44256 1.9363ZM2.26665 3.88025C2.26665 3.73628 2.36257 3.64018 2.50671 3.64018L14.9867 3.64035C15.1307 3.64035 15.2268 3.73628 15.2268 3.88042V5.8485C15.2268 5.99248 15.1309 6.08857 14.9867 6.08857L2.50671 6.08824C2.36274 6.08824 2.26665 5.99231 2.26665 5.84817V3.88025Z" />
<path d="M10.7402 9.1123H11.7001V16.1203H10.7402V9.1123Z"/>
<path d="M8.26758 9.1123H9.22749V16.1203H8.26758V9.1123Z"/>
<path d="M5.79492 9.1123H6.75484V16.1203H5.79492V9.1123Z" />
</g>
<defs>
<clipPath id="clip0_2067_3266">
<rect width="16" height="20" fill="white" transform="translate(0.748047)"/>
</clipPath>
</defs>
</svg>
