<svg width="49" height="50" viewBox="0 0 49 50" fill="none" xmlns="http://www.w3.org/2000/svg">
<path d="M38.1755 23.2361C37.257 14.4836 28.9924 8.549 20.9352 10.9231C15.5337 12.5141 12.0965 16.3148 11.0076 22.1346C9.94211 27.8408 11.6545 32.6817 15.9325 36.3818C17.7301 37.9376 18.5907 39.8497 18.5894 42.259C18.5882 43.5276 18.5499 44.8002 18.6067 46.0662C18.6795 47.7173 19.2895 49.0524 20.8192 49.7533C21.0266 49.8486 21.271 49.8355 21.4525 50H27.4577C27.4787 49.9778 27.496 49.9439 27.5207 49.9374C29.3912 49.4975 30.411 48.1558 30.4134 46.121C30.4147 44.6723 30.4159 43.2235 30.4122 41.7748C30.411 41.3167 30.4579 40.8664 30.5554 40.4213C30.9369 38.6737 31.9493 37.3986 33.2185 36.2683C37.0421 32.8592 38.7274 28.4894 38.1755 23.2361ZM21.3982 40.3117C20.9648 37.6048 19.6142 35.5491 17.6178 33.7924C14.1559 30.7461 12.9447 26.7262 14.0201 22.145C15.0658 17.6852 17.8857 14.8491 22.1328 13.8193C28.2072 12.3471 34.1766 16.5902 35.1754 23.0965C35.8285 27.3487 34.5494 30.9719 31.4271 33.7715C29.8443 35.1902 28.5356 36.7734 27.8973 38.893C27.7615 39.3393 27.6306 39.7975 27.58 40.2608C27.5429 40.6041 27.4046 40.6328 27.1417 40.6289C26.249 40.6171 25.3564 40.6249 24.4638 40.6249C23.5711 40.6249 22.6785 40.6158 21.7871 40.6302C21.5488 40.6354 21.4414 40.5832 21.3982 40.3117ZM26.8515 46.8754C25.2996 46.8728 23.7477 46.8676 22.1958 46.8806C21.8488 46.8832 21.6883 46.7057 21.6241 46.3834C21.4587 45.5637 21.576 44.7336 21.5488 43.9075C21.5402 43.6569 21.7427 43.7547 21.8562 43.7534C22.7476 43.7456 23.639 43.7495 24.5292 43.7495C25.4046 43.7495 26.2811 43.7587 27.1565 43.743C27.3985 43.7391 27.4676 43.8135 27.4614 44.068C27.4466 44.7819 27.4516 45.4972 27.4577 46.2124C27.4614 46.6522 27.2762 46.8767 26.8515 46.8754ZM7.66916 24.9981C7.6704 25.8935 6.99506 26.5565 6.06662 26.5604C4.9604 26.5656 3.8517 26.5239 2.74795 26.5734C1.84297 26.6139 1.21207 26.272 0.851562 25.3897V24.6079C1.2096 23.7243 1.83679 23.381 2.74548 23.4241C3.84923 23.4763 4.95793 23.4332 6.06415 23.4371C6.99382 23.441 7.66916 24.1028 7.66916 24.9981ZM25.9762 5.60453C25.9688 6.50771 25.3194 7.20206 24.5057 7.20598C23.6946 7.20989 23.039 6.51293 23.0254 5.61367C23.0156 4.94803 23.023 4.28109 23.023 3.61545C23.023 2.94981 23.0168 2.28417 23.0242 1.61853C23.0353 0.678807 23.6761 -0.0103243 24.5181 0.000117068C25.3366 0.00925328 25.97 0.69708 25.9762 1.6094C25.9861 2.94067 25.9873 4.27195 25.9762 5.60453ZM48.1488 25.0112C48.1426 25.8582 47.5056 26.5473 46.6771 26.5565C45.3882 26.5721 44.0968 26.5721 42.8066 26.5565C41.9843 26.5473 41.3386 25.8504 41.3325 25.0085C41.325 24.1445 41.9757 23.4619 42.8313 23.4371C42.8622 23.4358 42.893 23.4371 42.9239 23.4371H44.7659C45.3968 23.4371 46.0265 23.428 46.6562 23.4397C47.5068 23.4554 48.155 24.1458 48.1488 25.0112ZM13.0361 11.3303C12.9904 11.9451 12.7373 12.4332 12.183 12.7125C11.6286 12.9918 11.0693 12.95 10.636 12.5154C9.62111 11.5 8.62847 10.4559 7.67287 9.37909C7.15679 8.7996 7.25556 7.86118 7.79633 7.30648C8.33833 6.74917 9.20874 6.67869 9.76062 7.23339C10.7631 8.23968 11.7274 9.28773 12.6966 10.3306C12.9422 10.5942 13.0188 10.9505 13.0361 11.3303ZM41.3287 9.38301C40.3719 10.4598 39.3669 11.4869 38.3694 12.5233C38.12 12.7804 37.7817 12.8587 37.4397 12.8822C36.8434 12.8234 36.3791 12.5572 36.1211 11.9686C35.8643 11.3825 35.9026 10.7926 36.3162 10.3319C37.2668 9.27207 38.2447 8.23707 39.2459 7.23078C39.7941 6.67999 40.6732 6.75308 41.2115 7.30909C41.751 7.8677 41.8473 8.7996 41.3287 9.38301ZM41.23 42.6662C40.6583 43.2797 39.7645 43.3097 39.162 42.6923C38.2249 41.7317 37.3014 40.7542 36.3915 39.7648C35.9433 39.2767 35.8482 38.6828 36.1088 38.0551C36.3619 37.4429 36.8397 37.1675 37.4138 37.1179C37.8508 37.1427 38.2039 37.2772 38.4903 37.58C39.4027 38.5432 40.3238 39.4999 41.2238 40.4775C41.8115 41.1157 41.7991 42.0567 41.23 42.6662ZM12.6966 39.6539C11.7385 40.7281 10.7323 41.7565 9.73592 42.7915C9.49764 43.0382 9.17294 43.1113 8.83959 43.1426C8.2482 43.1087 7.77657 42.8437 7.50866 42.2655C7.23457 41.673 7.26544 41.0635 7.69509 40.5858C8.64699 39.5273 9.62357 38.491 10.6273 37.486C11.1767 36.9365 12.0546 37.0161 12.5928 37.5774C13.1274 38.136 13.2163 39.0705 12.6966 39.6539ZM33.3642 24.4016C33.3704 25.3361 32.7172 26.0514 31.8839 26.0449C31.0715 26.0409 30.4443 25.3492 30.4122 24.4343C30.3369 22.2455 29.4072 20.5866 27.6244 19.4759C26.8836 19.0152 26.0675 18.7881 25.2095 18.7542C24.1576 18.7137 23.4736 18.0663 23.5119 17.1344C23.5514 16.1934 24.2304 15.6074 25.2589 15.627C29.2887 15.7053 32.8098 19.0818 33.2889 23.3327C33.3284 23.6877 33.3629 24.0453 33.3642 24.4016Z" fill="#FBBC05"/>
</svg>
