<svg width="149" height="148" viewBox="0 0 149 148" fill="none" xmlns="http://www.w3.org/2000/svg">
<circle cx="74.2852" cy="74" r="69" fill="#FAFAFA"/>
<circle cx="74.2852" cy="74" r="71.5" stroke="#22621A" stroke-opacity="0.2" stroke-width="5"/>
<circle cx="74.2856" cy="74.0004" r="62.1" fill="#22621A"/>
<path d="M102.495 50.024L102.496 50.0243C103.496 50.4957 104.355 51.1196 105.036 51.8466C105.715 52.5728 106.201 53.3857 106.486 54.2318L108.381 53.594L106.486 54.2318C106.77 55.0765 106.853 55.9515 106.736 56.8129C106.619 57.6751 106.3 58.5263 105.781 59.3175L105.781 59.3182L79.3311 99.6828C79.331 99.6829 79.3309 99.6831 79.3308 99.6832C78.7184 100.617 77.8381 101.448 76.7354 102.089C75.6468 102.723 74.3831 103.146 73.0405 103.312L71.6983 103.394C69.3675 103.381 67.1643 102.591 65.572 101.238L65.57 101.236L44.41 83.2963L44.397 83.2852L44.3838 83.2744C43.5743 82.6116 42.9505 81.8367 42.5297 81.0062C42.1098 80.1774 41.896 79.3017 41.887 78.4272C41.8781 77.5528 42.0738 76.6753 42.4758 75.8423C42.8786 75.0077 43.4849 74.2257 44.2789 73.5525C45.0734 72.8789 46.0355 72.332 47.1159 71.9573C48.1961 71.5826 49.3623 71.3913 50.5439 71.4C51.7255 71.4087 52.8869 71.6171 53.9581 72.0073L54.6426 70.128L53.9581 72.0073C55.0294 72.3974 55.9785 72.9575 56.7574 73.6412L56.7703 73.6526L56.7834 73.6637L68.0247 83.1943L69.7505 84.6575L70.9908 82.7652L90.6325 52.7964L90.6333 52.7952C91.1522 52.0023 91.8649 51.2819 92.7467 50.6881C93.6288 50.0941 94.656 49.6431 95.7729 49.3726C96.8897 49.1021 98.0633 49.0201 99.2232 49.1335C100.383 49.2468 101.495 49.5522 102.495 50.024Z" fill="#FAFAFA" stroke="#22621A" stroke-width="4"/>
</svg>
