<svg width="28" height="24" viewBox="0 0 28 24" fill="none" xmlns="http://www.w3.org/2000/svg">
<mask id="path-1-outside-1_2067_3064" maskUnits="userSpaceOnUse" x="4" y="2" width="20" height="20" fill="black">
<rect fill="white" x="4" y="2" width="20" height="20"/>
<path d="M13.2941 14.7886C13.288 13.6479 12.3515 12.7119 11.2112 12.7063C9.8346 12.6993 8.45851 12.7007 7.08242 12.7063C6.16377 12.7101 5.34309 13.3395 5.08437 14.2201C5.05718 14.3125 5.05812 14.4142 5 14.4971V19.2073C5.04125 19.3338 5.02672 19.4712 5.0764 19.5972C5.38761 20.3846 5.93692 20.8795 6.79276 21H11.468C11.4774 20.9733 11.5003 20.9728 11.5238 20.9686C12.5502 20.7942 13.2908 19.9347 13.2945 18.8994C13.2992 17.529 13.3011 16.1586 13.2941 14.7886ZM11.1268 19.5935C10.465 19.5949 9.80367 19.594 9.14187 19.594C8.48569 19.594 7.82999 19.5949 7.17381 19.5935C6.69668 19.593 6.40656 19.3053 6.40656 18.831C6.40562 17.5135 6.40562 16.1961 6.40656 14.8782C6.40656 14.4001 6.69387 14.1109 7.16866 14.1109C8.48616 14.11 9.80414 14.11 11.1216 14.1109C11.5992 14.1109 11.8889 14.3982 11.8894 14.873C11.8903 16.1904 11.8903 17.5084 11.8894 18.8258C11.8894 19.3029 11.6007 19.593 11.1268 19.5935ZM13.2941 5.08614C13.288 3.94586 12.3515 3.01038 11.2107 3.00476C9.8346 2.99773 8.45804 2.99914 7.08195 3.00476C6.16377 3.00851 5.34309 3.63794 5.08437 4.51858C5.05718 4.61091 5.05812 4.71261 5 4.79556V9.50574C5.04218 9.52308 5.03047 9.56339 5.03796 9.59573C5.27841 10.6381 6.10331 11.2975 7.17006 11.298C8.5171 11.2989 9.86413 11.3036 11.2107 11.2965C12.3524 11.29 13.288 10.355 13.2941 9.21469C13.3011 7.8382 13.3011 6.46217 13.2941 5.08614ZM11.8894 9.12705C11.8894 9.60229 11.5997 9.89193 11.1245 9.89193C9.80648 9.89287 8.48898 9.89287 7.17147 9.89193C6.69527 9.89193 6.40703 9.60276 6.40656 9.12705C6.40515 8.46528 6.40609 7.80352 6.40609 7.14175C6.40609 6.48607 6.40515 5.82993 6.40656 5.17425C6.40703 4.69761 6.69481 4.40938 7.17147 4.40938C8.48898 4.40844 9.80648 4.40844 11.1245 4.40938C11.6007 4.40938 11.8894 4.69761 11.8894 5.17425C11.8903 6.4917 11.8903 7.80914 11.8894 9.12705ZM22.997 14.8243C22.9933 13.6409 22.0615 12.7087 20.8785 12.7054C19.5258 12.7016 18.1732 12.7016 16.8205 12.7054C15.6389 12.7087 14.7062 13.6423 14.703 14.8247C14.6992 16.1773 14.6917 17.5304 14.7058 18.883C14.7147 19.7561 15.1327 20.3912 15.9084 20.7942C16.0954 20.8912 16.3054 20.9142 16.4948 21H21.17C21.1827 20.9901 21.1944 20.9742 21.2085 20.9719C22.2977 20.7699 22.9965 19.9347 22.9975 18.8295C22.9989 17.4943 23.0008 16.159 22.997 14.8243ZM20.8344 19.5935C20.167 19.5949 19.4996 19.594 18.8317 19.594C18.176 19.594 17.5198 19.5949 16.8641 19.5935C16.4006 19.5926 16.109 19.301 16.1086 18.8366C16.1076 17.5135 16.1072 16.19 16.1086 14.8664C16.109 14.402 16.4001 14.1114 16.865 14.1109C18.1886 14.11 19.5122 14.11 20.8354 14.1109C21.2994 14.1114 21.5909 14.4025 21.5914 14.8674C21.5928 16.1909 21.5928 17.5144 21.5914 18.8375C21.5909 19.301 21.2984 19.5926 20.8344 19.5935ZM22.997 5.11942C22.9933 3.93648 22.0596 3.00663 20.8743 3.00382C19.5268 3.00054 18.1797 3.00054 16.8322 3.00335C15.6375 3.00617 14.7072 3.93695 14.7025 5.13067C14.7001 5.79853 14.702 6.46639 14.702 7.13378C14.702 7.81336 14.6997 8.49294 14.7025 9.17251C14.7072 10.3573 15.6357 11.2937 16.8168 11.2975C18.1699 11.3017 19.5235 11.3012 20.8766 11.2975C22.061 11.2942 22.9933 10.3625 22.997 9.17907C23.0008 7.82601 23.0012 6.47295 22.997 5.11942ZM21.5914 9.13596C21.5904 9.59948 21.2984 9.89146 20.8349 9.89193C19.5113 9.89333 18.1877 9.89333 16.8641 9.89193C16.4006 9.89146 16.109 9.59948 16.1086 9.13549C16.1076 7.81195 16.1072 6.48842 16.1086 5.16488C16.109 4.70042 16.4001 4.40985 16.865 4.40938C18.1882 4.40844 19.5118 4.40844 20.8354 4.40938C21.2994 4.40985 21.5904 4.70089 21.5914 5.16582C21.5928 5.83321 21.5918 6.5006 21.5918 7.16846C21.5918 7.82414 21.5928 8.48028 21.5914 9.13596Z"/>
</mask>
<path d="M13.2941 14.7886C13.288 13.6479 12.3515 12.7119 11.2112 12.7063C9.8346 12.6993 8.45851 12.7007 7.08242 12.7063C6.16377 12.7101 5.34309 13.3395 5.08437 14.2201C5.05718 14.3125 5.05812 14.4142 5 14.4971V19.2073C5.04125 19.3338 5.02672 19.4712 5.0764 19.5972C5.38761 20.3846 5.93692 20.8795 6.79276 21H11.468C11.4774 20.9733 11.5003 20.9728 11.5238 20.9686C12.5502 20.7942 13.2908 19.9347 13.2945 18.8994C13.2992 17.529 13.3011 16.1586 13.2941 14.7886ZM11.1268 19.5935C10.465 19.5949 9.80367 19.594 9.14187 19.594C8.48569 19.594 7.82999 19.5949 7.17381 19.5935C6.69668 19.593 6.40656 19.3053 6.40656 18.831C6.40562 17.5135 6.40562 16.1961 6.40656 14.8782C6.40656 14.4001 6.69387 14.1109 7.16866 14.1109C8.48616 14.11 9.80414 14.11 11.1216 14.1109C11.5992 14.1109 11.8889 14.3982 11.8894 14.873C11.8903 16.1904 11.8903 17.5084 11.8894 18.8258C11.8894 19.3029 11.6007 19.593 11.1268 19.5935ZM13.2941 5.08614C13.288 3.94586 12.3515 3.01038 11.2107 3.00476C9.8346 2.99773 8.45804 2.99914 7.08195 3.00476C6.16377 3.00851 5.34309 3.63794 5.08437 4.51858C5.05718 4.61091 5.05812 4.71261 5 4.79556V9.50574C5.04218 9.52308 5.03047 9.56339 5.03796 9.59573C5.27841 10.6381 6.10331 11.2975 7.17006 11.298C8.5171 11.2989 9.86413 11.3036 11.2107 11.2965C12.3524 11.29 13.288 10.355 13.2941 9.21469C13.3011 7.8382 13.3011 6.46217 13.2941 5.08614ZM11.8894 9.12705C11.8894 9.60229 11.5997 9.89193 11.1245 9.89193C9.80648 9.89287 8.48898 9.89287 7.17147 9.89193C6.69527 9.89193 6.40703 9.60276 6.40656 9.12705C6.40515 8.46528 6.40609 7.80352 6.40609 7.14175C6.40609 6.48607 6.40515 5.82993 6.40656 5.17425C6.40703 4.69761 6.69481 4.40938 7.17147 4.40938C8.48898 4.40844 9.80648 4.40844 11.1245 4.40938C11.6007 4.40938 11.8894 4.69761 11.8894 5.17425C11.8903 6.4917 11.8903 7.80914 11.8894 9.12705ZM22.997 14.8243C22.9933 13.6409 22.0615 12.7087 20.8785 12.7054C19.5258 12.7016 18.1732 12.7016 16.8205 12.7054C15.6389 12.7087 14.7062 13.6423 14.703 14.8247C14.6992 16.1773 14.6917 17.5304 14.7058 18.883C14.7147 19.7561 15.1327 20.3912 15.9084 20.7942C16.0954 20.8912 16.3054 20.9142 16.4948 21H21.17C21.1827 20.9901 21.1944 20.9742 21.2085 20.9719C22.2977 20.7699 22.9965 19.9347 22.9975 18.8295C22.9989 17.4943 23.0008 16.159 22.997 14.8243ZM20.8344 19.5935C20.167 19.5949 19.4996 19.594 18.8317 19.594C18.176 19.594 17.5198 19.5949 16.8641 19.5935C16.4006 19.5926 16.109 19.301 16.1086 18.8366C16.1076 17.5135 16.1072 16.19 16.1086 14.8664C16.109 14.402 16.4001 14.1114 16.865 14.1109C18.1886 14.11 19.5122 14.11 20.8354 14.1109C21.2994 14.1114 21.5909 14.4025 21.5914 14.8674C21.5928 16.1909 21.5928 17.5144 21.5914 18.8375C21.5909 19.301 21.2984 19.5926 20.8344 19.5935ZM22.997 5.11942C22.9933 3.93648 22.0596 3.00663 20.8743 3.00382C19.5268 3.00054 18.1797 3.00054 16.8322 3.00335C15.6375 3.00617 14.7072 3.93695 14.7025 5.13067C14.7001 5.79853 14.702 6.46639 14.702 7.13378C14.702 7.81336 14.6997 8.49294 14.7025 9.17251C14.7072 10.3573 15.6357 11.2937 16.8168 11.2975C18.1699 11.3017 19.5235 11.3012 20.8766 11.2975C22.061 11.2942 22.9933 10.3625 22.997 9.17907C23.0008 7.82601 23.0012 6.47295 22.997 5.11942ZM21.5914 9.13596C21.5904 9.59948 21.2984 9.89146 20.8349 9.89193C19.5113 9.89333 18.1877 9.89333 16.8641 9.89193C16.4006 9.89146 16.109 9.59948 16.1086 9.13549C16.1076 7.81195 16.1072 6.48842 16.1086 5.16488C16.109 4.70042 16.4001 4.40985 16.865 4.40938C18.1882 4.40844 19.5118 4.40844 20.8354 4.40938C21.2994 4.40985 21.5904 4.70089 21.5914 5.16582C21.5928 5.83321 21.5918 6.5006 21.5918 7.16846C21.5918 7.82414 21.5928 8.48028 21.5914 9.13596Z"/>
<path d="M13.2941 14.7886C13.288 13.6479 12.3515 12.7119 11.2112 12.7063C9.8346 12.6993 8.45851 12.7007 7.08242 12.7063C6.16377 12.7101 5.34309 13.3395 5.08437 14.2201C5.05718 14.3125 5.05812 14.4142 5 14.4971V19.2073C5.04125 19.3338 5.02672 19.4712 5.0764 19.5972C5.38761 20.3846 5.93692 20.8795 6.79276 21H11.468C11.4774 20.9733 11.5003 20.9728 11.5238 20.9686C12.5502 20.7942 13.2908 19.9347 13.2945 18.8994C13.2992 17.529 13.3011 16.1586 13.2941 14.7886ZM11.1268 19.5935C10.465 19.5949 9.80367 19.594 9.14187 19.594C8.48569 19.594 7.82999 19.5949 7.17381 19.5935C6.69668 19.593 6.40656 19.3053 6.40656 18.831C6.40562 17.5135 6.40562 16.1961 6.40656 14.8782C6.40656 14.4001 6.69387 14.1109 7.16866 14.1109C8.48616 14.11 9.80414 14.11 11.1216 14.1109C11.5992 14.1109 11.8889 14.3982 11.8894 14.873C11.8903 16.1904 11.8903 17.5084 11.8894 18.8258C11.8894 19.3029 11.6007 19.593 11.1268 19.5935ZM13.2941 5.08614C13.288 3.94586 12.3515 3.01038 11.2107 3.00476C9.8346 2.99773 8.45804 2.99914 7.08195 3.00476C6.16377 3.00851 5.34309 3.63794 5.08437 4.51858C5.05718 4.61091 5.05812 4.71261 5 4.79556V9.50574C5.04218 9.52308 5.03047 9.56339 5.03796 9.59573C5.27841 10.6381 6.10331 11.2975 7.17006 11.298C8.5171 11.2989 9.86413 11.3036 11.2107 11.2965C12.3524 11.29 13.288 10.355 13.2941 9.21469C13.3011 7.8382 13.3011 6.46217 13.2941 5.08614ZM11.8894 9.12705C11.8894 9.60229 11.5997 9.89193 11.1245 9.89193C9.80648 9.89287 8.48898 9.89287 7.17147 9.89193C6.69527 9.89193 6.40703 9.60276 6.40656 9.12705C6.40515 8.46528 6.40609 7.80352 6.40609 7.14175C6.40609 6.48607 6.40515 5.82993 6.40656 5.17425C6.40703 4.69761 6.69481 4.40938 7.17147 4.40938C8.48898 4.40844 9.80648 4.40844 11.1245 4.40938C11.6007 4.40938 11.8894 4.69761 11.8894 5.17425C11.8903 6.4917 11.8903 7.80914 11.8894 9.12705ZM22.997 14.8243C22.9933 13.6409 22.0615 12.7087 20.8785 12.7054C19.5258 12.7016 18.1732 12.7016 16.8205 12.7054C15.6389 12.7087 14.7062 13.6423 14.703 14.8247C14.6992 16.1773 14.6917 17.5304 14.7058 18.883C14.7147 19.7561 15.1327 20.3912 15.9084 20.7942C16.0954 20.8912 16.3054 20.9142 16.4948 21H21.17C21.1827 20.9901 21.1944 20.9742 21.2085 20.9719C22.2977 20.7699 22.9965 19.9347 22.9975 18.8295C22.9989 17.4943 23.0008 16.159 22.997 14.8243ZM20.8344 19.5935C20.167 19.5949 19.4996 19.594 18.8317 19.594C18.176 19.594 17.5198 19.5949 16.8641 19.5935C16.4006 19.5926 16.109 19.301 16.1086 18.8366C16.1076 17.5135 16.1072 16.19 16.1086 14.8664C16.109 14.402 16.4001 14.1114 16.865 14.1109C18.1886 14.11 19.5122 14.11 20.8354 14.1109C21.2994 14.1114 21.5909 14.4025 21.5914 14.8674C21.5928 16.1909 21.5928 17.5144 21.5914 18.8375C21.5909 19.301 21.2984 19.5926 20.8344 19.5935ZM22.997 5.11942C22.9933 3.93648 22.0596 3.00663 20.8743 3.00382C19.5268 3.00054 18.1797 3.00054 16.8322 3.00335C15.6375 3.00617 14.7072 3.93695 14.7025 5.13067C14.7001 5.79853 14.702 6.46639 14.702 7.13378C14.702 7.81336 14.6997 8.49294 14.7025 9.17251C14.7072 10.3573 15.6357 11.2937 16.8168 11.2975C18.1699 11.3017 19.5235 11.3012 20.8766 11.2975C22.061 11.2942 22.9933 10.3625 22.997 9.17907C23.0008 7.82601 23.0012 6.47295 22.997 5.11942ZM21.5914 9.13596C21.5904 9.59948 21.2984 9.89146 20.8349 9.89193C19.5113 9.89333 18.1877 9.89333 16.8641 9.89193C16.4006 9.89146 16.109 9.59948 16.1086 9.13549C16.1076 7.81195 16.1072 6.48842 16.1086 5.16488C16.109 4.70042 16.4001 4.40985 16.865 4.40938C18.1882 4.40844 19.5118 4.40844 20.8354 4.40938C21.2994 4.40985 21.5904 4.70089 21.5914 5.16582C21.5928 5.83321 21.5918 6.5006 21.5918 7.16846C21.5918 7.82414 21.5928 8.48028 21.5914 9.13596Z" stroke="#343A40" stroke-width="0.5" mask="url(#path-1-outside-1_2067_3064)"/>
</svg>
