<svg width="2039" height="900" viewBox="0 0 2039 900" fill="none" xmlns="http://www.w3.org/2000/svg">
<path d="M761.962 154.432C761.962 154.432 721.052 161.119 677.34 172.412C644.287 180.905 621.439 188.042 612.859 190.753V190.482C600.305 194.367 588.114 198.523 576.103 202.68C588.679 215.075 596.018 231.828 596.604 249.481C606.448 245.183 616.352 241.027 626.315 237.013V236.923C637.605 232.856 668.129 221.743 694.409 212.888C727.192 201.775 771.715 188.133 771.715 188.133C901.311 152.354 1044.81 131.574 1178.47 132.568C1024.31 123.351 884.153 132.296 761.962 154.432ZM1988.92 642.232C1850.2 768.269 1534.21 841.815 1173.24 841.815C682.849 841.815 366.04 697.887 343.914 507.521C335.697 435.962 392.05 366.755 485.702 307.576C469.175 295.106 458.428 275.502 457.977 253.366C322.782 324.291 246.288 417.623 246.288 512.399C246.288 722.192 621.349 900 1178.47 892.23C1557.51 886.991 1845.42 778.841 1991.09 646.478L1988.92 642.232Z" fill="#EC1840"/>
<path d="M476.22 252.1C476.22 223.821 499.068 200.871 527.335 200.871C555.602 200.871 578.541 223.821 578.541 252.1C578.541 280.38 555.602 303.238 527.335 303.238C499.068 303.238 476.22 280.38 476.22 252.1Z" fill="#0066B3"/>
<path d="M504.757 637.081V343.535L552.981 337.12V637.081H504.757ZM715.091 637.081V469.121C715.091 449.967 713.375 442.107 709.582 436.685C706.15 431.805 700.189 430.36 693.777 430.36C684.475 430.36 670.478 438.222 658.917 452.406V637.083H610.962V453.94C610.962 423.944 607.079 407.229 604.55 393.496L649.616 381.751C650.879 386.178 655.125 398.376 655.576 411.204C667.858 395.936 690.436 383.196 712.472 383.196C729.539 383.196 743.088 390.063 751.576 400.906C761.418 413.192 763.044 429.817 763.044 446.532V637.08H715.091V637.081ZM919.824 326.729C914.315 322.302 905.374 319.411 896.885 319.411C884.965 319.411 877.74 330.705 877.74 349.858V388.078H922.805L913.864 430.36H877.742V637.083H828.428V430.36H811.902V388.078H828.428C828.428 388.078 827.615 370.911 827.615 355.19C827.615 317.876 839.897 298.269 851.367 288.421C862.927 279.115 876.023 276.135 888.395 276.135C906.186 276.135 920.726 280.108 933.46 289.414L919.823 326.729H919.824ZM959.831 637.081V389.613L1008.69 383.198V637.081H959.831ZM983.222 353.292C965.792 353.292 951.793 339.107 951.793 321.399C951.793 303.781 966.243 289.596 984.035 289.596C1001.47 289.596 1015.55 303.781 1015.55 321.399C1015.55 339.107 1001.1 353.292 983.222 353.292ZM1174.32 637.081V469.121C1174.32 449.967 1172.69 442.107 1168.81 436.685C1165.47 431.805 1159.51 430.36 1153.1 430.36C1143.7 430.36 1129.71 438.222 1118.24 452.406V637.083H1070.19V453.94C1070.19 423.944 1066.4 407.229 1063.87 393.496L1108.93 381.751C1110.2 386.178 1114.44 398.376 1114.9 411.204C1127.18 395.936 1149.66 383.196 1171.79 383.196C1188.77 383.196 1202.41 390.063 1210.9 400.906C1220.65 413.192 1222.36 429.817 1222.36 446.532V637.08H1174.32V637.081ZM1375.62 440.118C1370.93 428.825 1363.25 421.959 1350.97 421.959C1329.29 421.959 1319.9 442.107 1319.09 486.288H1381.13C1381.13 466.681 1379.41 449.967 1375.62 440.118ZM1319.09 526.042V531.01C1319.09 547.183 1320.35 561.911 1326.31 574.739C1333.54 589.919 1345.82 598.322 1360.72 598.322C1378.15 598.322 1393.05 589.467 1407.95 573.746L1427.01 609.525C1405.78 632.655 1382.85 642.955 1356.48 642.955C1299.94 642.955 1267.61 594.345 1267.61 511.857C1267.61 469.121 1274.93 437.678 1290.64 414.097C1305.45 392.051 1325.86 381.211 1350.51 381.211C1373.91 381.211 1392.6 390.608 1405.78 407.774C1423.21 430.36 1429.99 460.808 1429.99 515.289V526.042H1319.09ZM1546.4 425.392C1514.07 425.392 1514.07 484.299 1514.07 509.869C1514.07 536.883 1513.25 599.225 1547.66 599.225C1579.54 599.225 1579.54 536.883 1579.54 510.862C1579.54 483.849 1580.81 425.392 1546.4 425.392ZM1546.4 643.406C1480.11 643.406 1462.68 572.751 1462.23 511.855C1461.78 450.418 1483.9 381.211 1546.85 381.211C1596.52 381.211 1632.19 425.934 1632.19 510.862C1632.19 574.198 1611.42 643.406 1546.4 643.406ZM1776.87 637.081V469.121C1776.87 449.967 1775.15 442.107 1771.27 436.685C1767.93 431.805 1761.97 430.36 1755.56 430.36C1746.26 430.36 1732.17 438.222 1720.7 452.406V637.083H1672.74V453.94C1672.74 423.944 1668.86 407.229 1666.33 393.496L1711.4 381.751C1712.66 386.178 1716.9 398.376 1717.36 411.204C1729.64 395.936 1752.13 383.196 1774.25 383.196C1791.23 383.196 1804.87 390.063 1813.36 400.906C1823.11 413.192 1824.83 429.817 1824.83 446.532V637.08H1776.87" fill="#0066B3"/>
</svg>
