<svg width="2514" height="764" viewBox="0 0 2514 764" fill="none" xmlns="http://www.w3.org/2000/svg">
<g clip-path="url(#clip0_2355_19091)">
<path d="M354.769 736.686C158.826 736.686 0 577.877 0 381.964C0 186.087 158.826 27.3145 354.769 27.3145C550.711 27.3145 709.555 186.087 709.555 381.964C709.573 577.877 550.711 736.686 354.769 736.686Z" fill="#00B2A9"/>
<path d="M297.752 364.45L336.89 293.606L301.331 230.508C295.372 219.792 283.077 212.94 270.389 212.94H170.924C161.27 212.94 152.011 216.774 145.185 223.598C138.358 230.422 134.523 239.678 134.523 249.328V555.568H209.364V280.779H251.097L297.752 364.45ZM538.667 212.922H439.183C426.513 212.922 414.201 219.792 408.277 230.49L227.761 555.55H306.664L354.786 468.498L402.926 555.55H481.829L393.996 396.902L458.493 280.761H500.244V555.55H575.067V249.31C575.067 239.66 571.232 230.404 564.406 223.58C557.579 216.756 548.321 212.922 538.667 212.922Z" fill="white"/>
<path d="M886.974 445.456H919.795V621.618H886.974V445.456ZM903.546 409.98C892.093 409.98 882.482 400.713 882.482 389.299C882.538 383.73 884.775 378.405 888.713 374.465C892.65 370.526 897.975 368.285 903.546 368.225C915.035 368.225 924.251 377.832 924.251 389.299C924.256 392.018 923.724 394.711 922.685 397.223C921.646 399.735 920.12 402.018 918.196 403.939C916.273 405.861 913.988 407.384 911.474 408.42C908.96 409.457 906.266 409.987 903.546 409.98ZM1081.23 621.618V501.594C1081.23 483.525 1073.47 471.324 1054.27 471.324C1036.91 471.324 1019.19 482.756 1003.28 499.769V621.636H970.387V445.456H996.64L1000.7 470.967C1017.33 455.814 1038 441.77 1063.12 441.77C1096.37 441.77 1114.13 461.718 1114.13 493.49V621.636H1081.23V621.618ZM1224.51 624.569C1193.51 624.569 1173.2 613.496 1173.2 578.056V473.167H1143.3V445.456H1173.2V390.212H1205.34V445.456H1248.29L1248.27 473.167H1205.34V572.116C1205.34 586.518 1211.23 595.391 1229.72 595.391C1235.62 595.391 1244.09 595.015 1248.13 594.282L1252.57 622.333C1247.02 623.46 1235.98 624.569 1224.51 624.569ZM2002.84 624.569C1971.84 624.569 1951.53 613.496 1951.53 578.056V473.167H1921.64V445.456H1951.53V390.212H1983.69V445.456H2026.64L2026.6 473.167H1983.69V572.116C1983.69 586.518 1989.58 595.391 2008.03 595.391C2013.95 595.391 2022.42 595.015 2026.46 594.282L2030.9 622.333C2025.37 623.46 2014.31 624.569 2002.84 624.569ZM1347.97 467.603C1327.64 467.603 1310.32 482.023 1305.11 512.292H1390.06C1386 483.883 1373.47 467.603 1347.97 467.603ZM1423.31 537.034H1303.63C1304.74 578.056 1324.31 597.234 1354.97 597.234C1380.45 597.234 1398.92 587.269 1418.12 572.116L1422.92 601.67C1404.11 616.447 1381.56 625.285 1352.39 625.285C1306.58 625.285 1270.75 597.609 1270.75 532.973C1270.75 476.477 1304 441.734 1348.35 441.734C1399.69 441.734 1423.31 481.289 1423.31 530.021V537.034ZM1522.85 465.779C1500.71 465.779 1487.04 482.738 1487.04 504.188C1487.04 524.511 1501.09 540.362 1522.85 540.362C1545.4 540.362 1559.43 523.742 1559.43 502.685C1559.43 481.665 1544.65 465.779 1522.85 465.779ZM1474.84 640.814C1474.84 654.839 1492.95 665.197 1527.27 665.197C1561.65 665.197 1580.85 653.354 1580.85 638.577C1580.85 627.879 1572.73 620.508 1547.6 616.072L1526.57 612.386C1516.95 610.544 1511.76 609.417 1504.76 607.968C1484.07 618.272 1474.84 628.613 1474.84 640.814ZM1613.01 442.862L1617.77 472.416L1584.18 475.761C1588.98 483.883 1591.2 493.114 1591.2 503.043C1591.2 540.719 1559.45 563.619 1523.6 563.619C1519.18 563.619 1514.75 563.261 1510.32 562.509C1505.13 565.855 1501.45 569.916 1501.45 573.243C1501.45 579.523 1507.73 581.008 1538.76 586.518L1551.34 588.754C1588.62 595.391 1611.92 607.216 1611.92 634.534C1611.92 671.459 1571.65 688.83 1525.82 688.83C1480.03 688.83 1443.45 674.411 1443.45 643.408C1443.45 625.303 1456.01 611.295 1480.76 597.985C1473.01 592.457 1469.68 586.178 1469.68 579.523C1469.68 571.025 1476.32 562.527 1488.17 555.532C1468.56 545.925 1455.28 527.087 1455.28 503.061C1455.28 465.027 1487.04 441.752 1522.85 441.752C1540.57 441.752 1556.1 446.923 1568.31 456.529L1613.01 442.862ZM1676.74 517.462V621.6H1643.85V445.42H1670.08L1675.61 481.289C1688.19 461.342 1708.5 443.219 1737.3 441.734L1742.47 473.149C1713.28 474.634 1688.55 494.224 1676.74 517.462ZM1859.6 532.24C1794.62 538.501 1780.95 556.248 1780.95 574.352C1780.95 588.754 1790.52 597.967 1807.15 597.967C1826.35 597.967 1844.82 588.396 1859.6 573.225V532.24ZM1865.9 621.618L1862.23 597.985C1848.18 612.404 1828.98 625.303 1800.15 625.303C1768.38 625.303 1748.41 606.107 1748.41 576.195C1748.41 532.257 1786.1 514.904 1859.6 507.176V499.769C1859.6 477.622 1846.32 469.857 1825.99 469.857C1804.59 469.857 1784.28 476.513 1765.06 484.992L1760.62 456.547C1781.7 448.05 1801.63 441.77 1828.96 441.77C1871.8 441.77 1892.49 459.124 1892.49 498.302V621.636H1865.9V621.618ZM2126.32 467.603C2106.01 467.603 2088.67 482.023 2083.48 512.292H2168.45C2164.38 483.883 2151.82 467.603 2126.32 467.603ZM2201.72 537.034H2082.03C2083.14 578.056 2102.7 597.234 2133.37 597.234C2158.87 597.234 2177.32 587.269 2196.54 572.116L2201.32 601.67C2182.5 616.447 2159.95 625.285 2130.78 625.285C2084.98 625.285 2049.15 597.609 2049.15 532.973C2049.15 476.477 2082.39 441.734 2126.75 441.734C2178.08 441.734 2201.72 481.289 2201.72 530.021V537.034ZM2353.88 480.931C2340.23 473.883 2329.51 470.931 2310.67 470.931C2282.98 470.931 2263.03 493.454 2263.03 537.052C2263.03 575.802 2280.4 596.124 2304.01 596.124C2324.34 596.124 2339.84 583.906 2353.88 565.121V480.931ZM2360.51 621.618L2356.44 596.142C2343.16 612.011 2325.05 625.303 2299.19 625.303C2261.17 625.303 2229.76 597.627 2229.76 538.501C2229.76 474.276 2266.68 443.237 2309.54 443.237C2326.92 443.237 2342.77 446.565 2353.88 451.001V362.375H2386.76V621.618H2360.51ZM1104.16 321.389V201.383C1104.16 183.279 1097.52 171.114 1078.34 171.114C1060.94 171.114 1044.33 182.563 1028.46 199.559V321.407H995.585V201.401C995.585 183.297 988.909 171.132 969.707 171.132C952.384 171.132 935.741 182.581 919.867 199.577V321.425H887.01V145.245H913.228L917.29 170.756C933.897 155.603 953.851 141.577 978.601 141.577C1004.46 141.577 1018.49 152.651 1025.13 170.756C1041.04 155.603 1062.46 141.577 1087.21 141.577C1120.84 141.577 1137.09 161.507 1137.09 193.279V321.389H1104.16ZM1286.45 232.029C1221.45 238.326 1207.79 256.037 1207.79 274.142C1207.79 288.579 1217.39 297.774 1233.98 297.774C1253.2 297.774 1271.66 288.185 1286.45 273.015V232.029ZM1292.73 321.407L1289.04 297.774C1275.01 312.176 1255.79 325.092 1226.98 325.092C1195.21 325.092 1175.24 305.896 1175.24 275.984C1175.24 232.029 1212.91 214.694 1286.43 206.947V199.559C1286.43 177.411 1273.15 169.629 1252.8 169.629C1231.42 169.629 1211.11 176.302 1191.88 184.782L1187.45 156.354C1208.49 147.857 1228.48 141.595 1255.77 141.595C1298.63 141.595 1319.32 158.949 1319.32 198.074V321.425H1292.73V321.407ZM1533.29 145.245H1566.16V321.389H1533.29V145.245ZM1549.91 109.805C1538.44 109.805 1528.85 100.592 1528.85 89.1421C1528.85 77.6925 1538.44 68.1035 1549.91 68.1035C1561.36 68.1035 1570.58 77.7104 1570.58 89.1421C1570.58 100.592 1561.35 109.805 1549.91 109.805ZM1833.95 321.389V201.383C1833.95 183.279 1827.32 171.114 1808.13 171.114C1790.74 171.114 1774.11 182.563 1758.25 199.559V321.407H1725.36V201.401C1725.36 183.297 1718.72 171.132 1699.52 171.132C1682.16 171.132 1665.54 182.581 1649.66 199.577V321.425H1616.75V145.245H1643.01L1647.07 170.756C1663.67 155.603 1683.63 141.577 1708.38 141.577C1734.24 141.577 1748.27 152.651 1754.93 170.756C1770.82 155.603 1792.24 141.577 1816.99 141.577C1850.62 141.577 1866.85 161.507 1866.85 193.279V321.389H1833.95ZM1442.45 230.222L1501.05 145.245H1464.94L1424.62 205.444L1384.03 145.245H1346.56L1406.76 231.313L1344.25 321.407H1380.74L1424.21 255.661L1469.02 321.407H1506.66L1442.45 230.222ZM2489.59 609.9L2501.99 577.483H2514V621.564H2506.18V585.73H2505.96L2492.13 621.564H2486.78L2472.96 585.73H2472.77V621.564H2464.93V577.501H2476.95L2489.59 609.9ZM2460.31 583.888H2446.71V621.564H2438.87V583.888H2425.29V577.501H2460.29V583.888H2460.31Z" fill="#6C6F70"/>
</g>
<defs>
<clipPath id="clip0_2355_19091">
<rect width="2514" height="764" fill="white"/>
</clipPath>
</defs>
</svg>
