<svg width="22" height="22" viewBox="0 0 22 22" fill="none" xmlns="http://www.w3.org/2000/svg">
<g clip-path="url(#clip0_2355_16617)">
<path d="M11.0053 0.455115C8.83256 0.449354 6.71291 1.12572 4.94578 2.38868L3.45987 1.12946C3.39741 1.07653 3.32179 1.04145 3.24102 1.02793C3.16024 1.0144 3.07731 1.02293 3.00099 1.05261C2.92466 1.08229 2.85778 1.13202 2.80742 1.19655C2.75706 1.26107 2.72508 1.33799 2.71487 1.41917L2.08169 6.44472C2.06664 6.56419 2.0997 6.68474 2.1736 6.77986C2.24751 6.87498 2.3562 6.93688 2.47578 6.95195C2.53576 6.95964 2.59667 6.95516 2.65487 6.93878L7.59623 5.56376C7.6758 5.54166 7.74783 5.49832 7.80459 5.4384C7.86136 5.37847 7.90071 5.30424 7.91842 5.22365C7.93613 5.14307 7.93153 5.05919 7.90512 4.98102C7.87871 4.90286 7.83148 4.83335 7.76851 4.77998L6.39033 3.61339C8.00927 2.59162 9.92236 2.13671 11.8285 2.32026C13.7346 2.50382 15.5255 3.31542 16.9193 4.62731C18.313 5.9392 19.2305 7.67689 19.5274 9.56685C19.8242 11.4568 19.4835 13.3917 18.5588 15.067C17.6342 16.7423 16.1782 18.0628 14.4199 18.8208C12.6616 19.5787 10.701 19.731 8.84664 19.2536C6.99226 18.7763 5.34942 17.6964 4.17673 16.184C3.00404 14.6716 2.36808 12.8125 2.36896 10.8995C2.36896 10.6586 2.27318 10.4276 2.1027 10.2573C1.93221 10.0869 1.70098 9.99126 1.45987 9.99126C1.21877 9.99126 0.987535 10.0869 0.817048 10.2573C0.64656 10.4276 0.550781 10.6586 0.550781 10.8995C0.550781 12.9652 1.16393 14.9845 2.31269 16.702C3.46145 18.4196 5.09423 19.7583 7.00454 20.5488C8.91486 21.3393 11.0169 21.5461 13.0449 21.1431C15.0729 20.7401 16.9357 19.7454 18.3978 18.2847C19.8599 16.8241 20.8556 14.9631 21.259 12.9371C21.6624 10.911 21.4553 8.81104 20.6641 6.90258C19.8728 4.99413 18.5328 3.36294 16.8136 2.2153C15.0943 1.06766 13.073 0.455115 11.0053 0.455115Z" />
<path d="M15.3488 14.2775L11.8942 10.5289L11.6847 5.67725C11.6847 5.49659 11.6128 5.32334 11.485 5.1956C11.3571 5.06786 11.1837 4.99609 11.0028 4.99609C10.822 4.99609 10.6486 5.06786 10.5207 5.1956C10.3929 5.32334 10.321 5.49659 10.321 5.67725L10.0938 10.8994C10.0935 11.0187 10.1169 11.1369 10.1626 11.2471C10.2084 11.3573 10.2755 11.4574 10.3601 11.5415L14.3842 15.2411C14.5121 15.3689 14.6856 15.4407 14.8665 15.4407C15.0474 15.4407 15.2208 15.3689 15.3488 15.2411C15.4767 15.1133 15.5485 14.94 15.5485 14.7593C15.5485 14.5786 15.4767 14.4053 15.3488 14.2775Z" />
</g>
<defs>
<clipPath id="clip0_2355_16617">
<rect width="21.8182" height="21.7969" fill="white" transform="translate(0.0976562)"/>
</clipPath>
</defs>
</svg>
