<svg width="24" height="25" viewBox="0 0 24 25" fill="none" xmlns="http://www.w3.org/2000/svg">
<path d="M22 2.64062H2C1.73478 2.64063 1.48043 2.74598 1.29289 2.93352C1.10536 3.12105 1 3.37541 1 3.64062V7.64062C1.00174 8.25957 1.19488 8.86283 1.55294 9.36769C1.911 9.87255 2.41645 10.2543 3 10.4606V21.6406C3 21.9058 3.10536 22.1602 3.29289 22.3477C3.48043 22.5353 3.73478 22.6406 4 22.6406H20C20.2652 22.6406 20.5196 22.5353 20.7071 22.3477C20.8946 22.1602 21 21.9058 21 21.6406V10.4606C21.5835 10.2543 22.089 9.87255 22.4471 9.36769C22.8051 8.86283 22.9983 8.25957 23 7.64062V3.64062C23 3.37541 22.8946 3.12105 22.7071 2.93352C22.5196 2.74598 22.2652 2.64063 22 2.64062ZM15 4.64062H17V7.64062C17 7.90584 16.8946 8.1602 16.7071 8.34773C16.5196 8.53527 16.2652 8.64062 16 8.64062C15.7348 8.64062 15.4804 8.53527 15.2929 8.34773C15.1054 8.1602 15 7.90584 15 7.64062V4.64062ZM11 4.64062H13V7.64062C13 7.90584 12.8946 8.1602 12.7071 8.34773C12.5196 8.53527 12.2652 8.64062 12 8.64062C11.7348 8.64062 11.4804 8.53527 11.2929 8.34773C11.1054 8.1602 11 7.90584 11 7.64062V4.64062ZM7 4.64062H9V7.64062C9 7.90584 8.89464 8.1602 8.70711 8.34773C8.51957 8.53527 8.26522 8.64062 8 8.64062C7.73478 8.64062 7.48043 8.53527 7.29289 8.34773C7.10536 8.1602 7 7.90584 7 7.64062V4.64062ZM4 8.64062C3.73478 8.64062 3.48043 8.53527 3.29289 8.34773C3.10536 8.1602 3 7.90584 3 7.64062V4.64062H5V7.64062C5 7.90584 4.89464 8.1602 4.70711 8.34773C4.51957 8.53527 4.26522 8.64062 4 8.64062ZM14 20.6406H10V16.6406C10 16.1102 10.2107 15.6015 10.5858 15.2264C10.9609 14.8513 11.4696 14.6406 12 14.6406C12.5304 14.6406 13.0391 14.8513 13.4142 15.2264C13.7893 15.6015 14 16.1102 14 16.6406V20.6406ZM19 20.6406H16V16.6406C16 15.5798 15.5786 14.5623 14.8284 13.8122C14.0783 13.0621 13.0609 12.6406 12 12.6406C10.9391 12.6406 9.92172 13.0621 9.17157 13.8122C8.42143 14.5623 8 15.5798 8 16.6406V20.6406H5V10.4606C5.36757 10.3242 5.70664 10.1207 6 9.86063C6.55002 10.3526 7.26207 10.6246 8 10.6246C8.73793 10.6246 9.44998 10.3526 10 9.86063C10.55 10.3526 11.2621 10.6246 12 10.6246C12.7379 10.6246 13.45 10.3526 14 9.86063C14.55 10.3526 15.2621 10.6246 16 10.6246C16.7379 10.6246 17.45 10.3526 18 9.86063C18.2934 10.1207 18.6324 10.3242 19 10.4606V20.6406ZM21 7.64062C21 7.90584 20.8946 8.1602 20.7071 8.34773C20.5196 8.53527 20.2652 8.64062 20 8.64062C19.7348 8.64062 19.4804 8.53527 19.2929 8.34773C19.1054 8.1602 19 7.90584 19 7.64062V4.64062H21V7.64062Z" />
</svg>
