<svg width="22" height="29" viewBox="0 0 22 29" fill="none" xmlns="http://www.w3.org/2000/svg">
<mask id="path-1-outside-1_2067_3031" maskUnits="userSpaceOnUse" x="1" y="1" width="20" height="23" fill="black">
<rect fill="white" x="1" y="1" width="20" height="23"/>
<path d="M19.1582 7.99441C18.0178 7.99317 16.8767 7.98817 15.7357 7.99878C15.5381 8.00066 15.4981 7.94946 15.4968 7.75778C15.4912 7.04228 15.5512 6.32427 15.4143 5.61063C15.0167 3.54028 13.1416 2.00062 11.0026 2C8.86433 1.99938 6.98424 3.54028 6.58722 5.60689C6.45154 6.31241 6.51031 7.0223 6.50468 7.73031C6.50281 7.93073 6.47092 8.00253 6.24646 8.00003C5.1054 7.9863 3.96497 7.99254 2.82392 7.99441C2.26308 7.99504 1.94233 8.36091 2.00861 8.91658C2.03674 9.15696 2.06488 9.39671 2.09176 9.63709C2.25432 11.1018 2.41626 12.5659 2.57945 14.0307C2.74451 15.5185 2.90957 17.0063 3.07714 18.4935C3.15717 19.1984 3.19781 19.9114 3.33598 20.6051C3.61609 22.008 4.82967 22.9683 6.2746 22.9764C6.36926 22.9769 6.46379 22.9773 6.55833 22.9776C6.90621 22.9788 7.19982 22.7175 7.23559 22.3719C7.25209 22.2124 7.23777 22.037 7.17882 21.8465C7.11135 21.6285 6.90896 21.4798 6.6805 21.4798H6.38708C5.44047 21.4792 4.86025 20.9447 4.75709 20.0051C4.51762 17.8274 4.26878 15.6502 4.02493 13.4731C3.88238 12.2026 3.74358 10.9314 3.5979 9.66081C3.58289 9.5297 3.60727 9.48787 3.74858 9.48911C4.60828 9.49536 5.46735 9.49411 6.32705 9.48974C6.44898 9.48911 6.5065 9.50472 6.50275 9.64895C6.49212 10.0467 6.49587 10.445 6.50087 10.8427C6.50212 10.9432 6.48461 10.9801 6.37082 11.005C5.94879 11.0974 5.70057 11.4471 5.75309 11.8386C5.80436 12.2188 6.12635 12.486 6.54526 12.4885C7.01419 12.491 7.48312 12.491 7.95142 12.4885C8.38158 12.486 8.70608 12.2088 8.74672 11.8173C8.78611 11.4334 8.53977 11.0956 8.12836 11.0057C8.01519 10.9807 7.99581 10.9445 7.99769 10.8433C8.00269 10.4456 8.00331 10.0473 7.99706 9.64957C7.99581 9.53532 8.01582 9.48849 8.14774 9.48911C10.0466 9.49349 11.9454 9.49286 13.8443 9.49036C13.9581 9.48974 14.0087 9.50785 14.0056 9.64021C13.9956 10.0379 13.9981 10.4356 14.0043 10.834C14.0062 10.9464 13.9775 10.9819 13.8593 11.0082C13.4523 11.0974 13.209 11.4433 13.2553 11.8298C13.3016 12.2107 13.6242 12.4854 14.0387 12.4885C14.5158 12.4916 14.9922 12.4916 15.4686 12.4885C15.8832 12.4848 16.2039 12.2094 16.2489 11.8261C16.2933 11.4421 16.047 11.0993 15.6406 11.0057C15.5412 10.9826 15.4968 10.9676 15.4993 10.8521C15.5074 10.4469 15.5062 10.0404 15.4999 9.63521C15.4987 9.52533 15.5255 9.48911 15.6412 9.48974C16.5165 9.49411 17.3919 9.49536 18.2672 9.48849C18.4054 9.48787 18.416 9.53906 18.4029 9.65145C18.2209 11.2473 18.0402 12.8431 17.862 14.4396C17.7438 15.5009 17.627 16.5622 17.5104 17.6235C17.464 18.0457 17.7806 18.432 18.2057 18.4455C18.2117 18.4457 18.2176 18.4458 18.2237 18.446C18.6227 18.4528 18.9593 18.1487 19.004 17.7527C19.1493 16.4673 19.294 15.1817 19.4376 13.8957C19.6221 12.2449 19.8022 10.5942 19.991 8.94462C20.0579 8.36091 19.7472 7.99441 19.1582 7.99441ZM14.0044 7.87079C14.0107 8.035 13.9037 7.99254 13.82 7.99316C12.9528 7.99441 12.0855 7.99379 11.2183 7.99379H10.9839C10.0623 7.99379 9.14006 7.98755 8.21846 7.99878C8.02651 8.00128 7.98837 7.94134 7.9965 7.76652C8.02401 7.18338 7.95523 6.59711 8.04152 6.01459C8.25285 4.58545 9.53646 3.4972 11.0058 3.49845C12.4732 3.50032 13.7537 4.59356 13.96 6.0252C14.0488 6.63832 13.9794 7.2558 14.0044 7.87079Z"/>
</mask>
<path d="M19.1582 7.99441C18.0178 7.99317 16.8767 7.98817 15.7357 7.99878C15.5381 8.00066 15.4981 7.94946 15.4968 7.75778C15.4912 7.04228 15.5512 6.32427 15.4143 5.61063C15.0167 3.54028 13.1416 2.00062 11.0026 2C8.86433 1.99938 6.98424 3.54028 6.58722 5.60689C6.45154 6.31241 6.51031 7.0223 6.50468 7.73031C6.50281 7.93073 6.47092 8.00253 6.24646 8.00003C5.1054 7.9863 3.96497 7.99254 2.82392 7.99441C2.26308 7.99504 1.94233 8.36091 2.00861 8.91658C2.03674 9.15696 2.06488 9.39671 2.09176 9.63709C2.25432 11.1018 2.41626 12.5659 2.57945 14.0307C2.74451 15.5185 2.90957 17.0063 3.07714 18.4935C3.15717 19.1984 3.19781 19.9114 3.33598 20.6051C3.61609 22.008 4.82967 22.9683 6.2746 22.9764C6.36926 22.9769 6.46379 22.9773 6.55833 22.9776C6.90621 22.9788 7.19982 22.7175 7.23559 22.3719C7.25209 22.2124 7.23777 22.037 7.17882 21.8465C7.11135 21.6285 6.90896 21.4798 6.6805 21.4798H6.38708C5.44047 21.4792 4.86025 20.9447 4.75709 20.0051C4.51762 17.8274 4.26878 15.6502 4.02493 13.4731C3.88238 12.2026 3.74358 10.9314 3.5979 9.66081C3.58289 9.5297 3.60727 9.48787 3.74858 9.48911C4.60828 9.49536 5.46735 9.49411 6.32705 9.48974C6.44898 9.48911 6.5065 9.50472 6.50275 9.64895C6.49212 10.0467 6.49587 10.445 6.50087 10.8427C6.50212 10.9432 6.48461 10.9801 6.37082 11.005C5.94879 11.0974 5.70057 11.4471 5.75309 11.8386C5.80436 12.2188 6.12635 12.486 6.54526 12.4885C7.01419 12.491 7.48312 12.491 7.95142 12.4885C8.38158 12.486 8.70608 12.2088 8.74672 11.8173C8.78611 11.4334 8.53977 11.0956 8.12836 11.0057C8.01519 10.9807 7.99581 10.9445 7.99769 10.8433C8.00269 10.4456 8.00331 10.0473 7.99706 9.64957C7.99581 9.53532 8.01582 9.48849 8.14774 9.48911C10.0466 9.49349 11.9454 9.49286 13.8443 9.49036C13.9581 9.48974 14.0087 9.50785 14.0056 9.64021C13.9956 10.0379 13.9981 10.4356 14.0043 10.834C14.0062 10.9464 13.9775 10.9819 13.8593 11.0082C13.4523 11.0974 13.209 11.4433 13.2553 11.8298C13.3016 12.2107 13.6242 12.4854 14.0387 12.4885C14.5158 12.4916 14.9922 12.4916 15.4686 12.4885C15.8832 12.4848 16.2039 12.2094 16.2489 11.8261C16.2933 11.4421 16.047 11.0993 15.6406 11.0057C15.5412 10.9826 15.4968 10.9676 15.4993 10.8521C15.5074 10.4469 15.5062 10.0404 15.4999 9.63521C15.4987 9.52533 15.5255 9.48911 15.6412 9.48974C16.5165 9.49411 17.3919 9.49536 18.2672 9.48849C18.4054 9.48787 18.416 9.53906 18.4029 9.65145C18.2209 11.2473 18.0402 12.8431 17.862 14.4396C17.7438 15.5009 17.627 16.5622 17.5104 17.6235C17.464 18.0457 17.7806 18.432 18.2057 18.4455C18.2117 18.4457 18.2176 18.4458 18.2237 18.446C18.6227 18.4528 18.9593 18.1487 19.004 17.7527C19.1493 16.4673 19.294 15.1817 19.4376 13.8957C19.6221 12.2449 19.8022 10.5942 19.991 8.94462C20.0579 8.36091 19.7472 7.99441 19.1582 7.99441ZM14.0044 7.87079C14.0107 8.035 13.9037 7.99254 13.82 7.99316C12.9528 7.99441 12.0855 7.99379 11.2183 7.99379H10.9839C10.0623 7.99379 9.14006 7.98755 8.21846 7.99878C8.02651 8.00128 7.98837 7.94134 7.9965 7.76652C8.02401 7.18338 7.95523 6.59711 8.04152 6.01459C8.25285 4.58545 9.53646 3.4972 11.0058 3.49845C12.4732 3.50032 13.7537 4.59356 13.96 6.0252C14.0488 6.63832 13.9794 7.2558 14.0044 7.87079Z" />
<path d="M19.1582 7.99441C18.0178 7.99317 16.8767 7.98817 15.7357 7.99878C15.5381 8.00066 15.4981 7.94946 15.4968 7.75778C15.4912 7.04228 15.5512 6.32427 15.4143 5.61063C15.0167 3.54028 13.1416 2.00062 11.0026 2C8.86433 1.99938 6.98424 3.54028 6.58722 5.60689C6.45154 6.31241 6.51031 7.0223 6.50468 7.73031C6.50281 7.93073 6.47092 8.00253 6.24646 8.00003C5.1054 7.9863 3.96497 7.99254 2.82392 7.99441C2.26308 7.99504 1.94233 8.36091 2.00861 8.91658C2.03674 9.15696 2.06488 9.39671 2.09176 9.63709C2.25432 11.1018 2.41626 12.5659 2.57945 14.0307C2.74451 15.5185 2.90957 17.0063 3.07714 18.4935C3.15717 19.1984 3.19781 19.9114 3.33598 20.6051C3.61609 22.008 4.82967 22.9683 6.2746 22.9764C6.36926 22.9769 6.46379 22.9773 6.55833 22.9776C6.90621 22.9788 7.19982 22.7175 7.23559 22.3719C7.25209 22.2124 7.23777 22.037 7.17882 21.8465C7.11135 21.6285 6.90896 21.4798 6.6805 21.4798H6.38708C5.44047 21.4792 4.86025 20.9447 4.75709 20.0051C4.51762 17.8274 4.26878 15.6502 4.02493 13.4731C3.88238 12.2026 3.74358 10.9314 3.5979 9.66081C3.58289 9.5297 3.60727 9.48787 3.74858 9.48911C4.60828 9.49536 5.46735 9.49411 6.32705 9.48974C6.44898 9.48911 6.5065 9.50472 6.50275 9.64895C6.49212 10.0467 6.49587 10.445 6.50087 10.8427C6.50212 10.9432 6.48461 10.9801 6.37082 11.005C5.94879 11.0974 5.70057 11.4471 5.75309 11.8386C5.80436 12.2188 6.12635 12.486 6.54526 12.4885C7.01419 12.491 7.48312 12.491 7.95142 12.4885C8.38158 12.486 8.70608 12.2088 8.74672 11.8173C8.78611 11.4334 8.53977 11.0956 8.12836 11.0057C8.01519 10.9807 7.99581 10.9445 7.99769 10.8433C8.00269 10.4456 8.00331 10.0473 7.99706 9.64957C7.99581 9.53532 8.01582 9.48849 8.14774 9.48911C10.0466 9.49349 11.9454 9.49286 13.8443 9.49036C13.9581 9.48974 14.0087 9.50785 14.0056 9.64021C13.9956 10.0379 13.9981 10.4356 14.0043 10.834C14.0062 10.9464 13.9775 10.9819 13.8593 11.0082C13.4523 11.0974 13.209 11.4433 13.2553 11.8298C13.3016 12.2107 13.6242 12.4854 14.0387 12.4885C14.5158 12.4916 14.9922 12.4916 15.4686 12.4885C15.8832 12.4848 16.2039 12.2094 16.2489 11.8261C16.2933 11.4421 16.047 11.0993 15.6406 11.0057C15.5412 10.9826 15.4968 10.9676 15.4993 10.8521C15.5074 10.4469 15.5062 10.0404 15.4999 9.63521C15.4987 9.52533 15.5255 9.48911 15.6412 9.48974C16.5165 9.49411 17.3919 9.49536 18.2672 9.48849C18.4054 9.48787 18.416 9.53906 18.4029 9.65145C18.2209 11.2473 18.0402 12.8431 17.862 14.4396C17.7438 15.5009 17.627 16.5622 17.5104 17.6235C17.464 18.0457 17.7806 18.432 18.2057 18.4455C18.2117 18.4457 18.2176 18.4458 18.2237 18.446C18.6227 18.4528 18.9593 18.1487 19.004 17.7527C19.1493 16.4673 19.294 15.1817 19.4376 13.8957C19.6221 12.2449 19.8022 10.5942 19.991 8.94462C20.0579 8.36091 19.7472 7.99441 19.1582 7.99441ZM14.0044 7.87079C14.0107 8.035 13.9037 7.99254 13.82 7.99316C12.9528 7.99441 12.0855 7.99379 11.2183 7.99379H10.9839C10.0623 7.99379 9.14006 7.98755 8.21846 7.99878C8.02651 8.00128 7.98837 7.94134 7.9965 7.76652C8.02401 7.18338 7.95523 6.59711 8.04152 6.01459C8.25285 4.58545 9.53646 3.4972 11.0058 3.49845C12.4732 3.50032 13.7537 4.59356 13.96 6.0252C14.0488 6.63832 13.9794 7.2558 14.0044 7.87079Z" stroke-width="0.5" mask="url(#path-1-outside-1_2067_3031)"/>
<mask id="path-2-outside-2_2067_3031" maskUnits="userSpaceOnUse" x="6.99609" y="11.4297" width="12" height="17" fill="black">
<rect fill="white" x="6.99609" y="11.4297" width="12" height="17"/>
<path d="M18.5701 20.6672C18.5608 19.5502 17.4666 18.9109 16.485 19.4403C16.3924 19.4903 16.3456 19.5059 16.2799 19.4097C15.9041 18.854 15.097 18.6461 14.4517 19.0557C14.3948 19.0919 14.3567 19.1181 14.301 19.0426C13.8527 18.4426 13.2706 18.309 12.5629 18.5731C12.5622 18.5737 12.5622 18.5737 12.5616 18.5737V18.3102C12.5616 16.828 12.5679 15.3458 12.5591 13.8636C12.5535 12.8727 11.6575 12.2028 10.7584 12.5012C10.1964 12.6879 9.8062 13.2349 9.80433 13.8642C9.79995 15.3776 9.79932 16.8911 9.80745 18.4045C9.80808 18.5931 9.75243 18.721 9.61801 18.8484C9.28913 19.1587 8.96651 19.4778 8.65702 19.808C8.08993 20.4137 7.8786 21.1329 8.05867 21.9433C8.32252 23.1284 8.60387 24.3096 8.88648 25.4903C9.15221 26.5985 9.81496 27.3746 10.8785 27.7954C11.1061 27.8853 11.3505 27.9328 11.5869 27.9996H15.6197C15.6878 27.9465 15.7741 27.9971 15.846 27.9646C15.851 27.9627 15.8554 27.9609 15.8597 27.9577C17.3347 27.7898 18.552 26.4299 18.5689 24.9028C18.5839 23.4911 18.5808 22.0788 18.5701 20.6672ZM15.2639 27.2485C14.201 27.2491 13.1387 27.2497 12.0758 27.2485C10.8328 27.2472 9.89874 26.5049 9.61488 25.298C9.34665 24.1535 9.07655 23.0097 8.80833 21.8653C8.66515 21.2559 8.80707 20.7246 9.24724 20.2757C9.41606 20.1027 9.58362 19.9279 9.80245 19.7019C9.80245 20.1652 9.8012 20.5529 9.80308 20.94C9.80433 21.2185 9.94188 21.3864 10.167 21.3927C10.3983 21.3995 10.5534 21.221 10.5534 20.9356C10.5546 18.6187 10.5546 16.3011 10.5527 13.9841C10.5527 13.8099 10.5665 13.6419 10.659 13.489C10.7972 13.2617 11.0323 13.1506 11.298 13.2018C11.5506 13.2498 11.7176 13.4041 11.7769 13.6544C11.8038 13.7668 11.8082 13.8861 11.8082 14.0022C11.8101 16.07 11.8095 18.1373 11.8095 20.2051C11.8095 20.2751 11.807 20.3456 11.812 20.4155C11.8257 20.6309 11.9601 20.7752 12.1558 20.7883C12.359 20.802 12.5335 20.6622 12.5541 20.4443C12.5716 20.2663 12.5597 20.0853 12.5616 19.9061C12.5666 19.4753 12.7986 19.2031 13.1675 19.1943C13.5289 19.1868 13.7915 19.4628 13.8052 19.883C13.8152 20.1708 13.804 20.4599 13.8096 20.7489C13.8146 21.023 13.9634 21.1935 14.1872 21.1929C14.4117 21.1922 14.5542 21.0249 14.5605 20.7471C14.5643 20.5754 14.5542 20.4037 14.5643 20.2326C14.5861 19.8474 14.8512 19.5839 15.1995 19.592C15.5302 19.5989 15.7953 19.8742 15.8085 20.2407C15.8185 20.5211 15.8116 20.802 15.8128 21.083C15.8141 21.4208 15.9429 21.5906 16.1955 21.5881C16.4406 21.5856 16.5625 21.4239 16.5638 21.0973C16.5644 20.9494 16.56 20.8008 16.565 20.6528C16.5781 20.2694 16.8345 19.9991 17.184 19.9941C17.5147 19.9891 17.7848 20.2538 17.818 20.6197C17.8255 20.7046 17.8217 20.7908 17.8217 20.8769C17.8224 22.1488 17.823 23.4206 17.8217 24.6917C17.8205 26.2083 16.7795 27.2478 15.2639 27.2485Z"/>
</mask>
<path d="M18.5701 20.6672C18.5608 19.5502 17.4666 18.9109 16.485 19.4403C16.3924 19.4903 16.3456 19.5059 16.2799 19.4097C15.9041 18.854 15.097 18.6461 14.4517 19.0557C14.3948 19.0919 14.3567 19.1181 14.301 19.0426C13.8527 18.4426 13.2706 18.309 12.5629 18.5731C12.5622 18.5737 12.5622 18.5737 12.5616 18.5737V18.3102C12.5616 16.828 12.5679 15.3458 12.5591 13.8636C12.5535 12.8727 11.6575 12.2028 10.7584 12.5012C10.1964 12.6879 9.8062 13.2349 9.80433 13.8642C9.79995 15.3776 9.79932 16.8911 9.80745 18.4045C9.80808 18.5931 9.75243 18.721 9.61801 18.8484C9.28913 19.1587 8.96651 19.4778 8.65702 19.808C8.08993 20.4137 7.8786 21.1329 8.05867 21.9433C8.32252 23.1284 8.60387 24.3096 8.88648 25.4903C9.15221 26.5985 9.81496 27.3746 10.8785 27.7954C11.1061 27.8853 11.3505 27.9328 11.5869 27.9996H15.6197C15.6878 27.9465 15.7741 27.9971 15.846 27.9646C15.851 27.9627 15.8554 27.9609 15.8597 27.9577C17.3347 27.7898 18.552 26.4299 18.5689 24.9028C18.5839 23.4911 18.5808 22.0788 18.5701 20.6672ZM15.2639 27.2485C14.201 27.2491 13.1387 27.2497 12.0758 27.2485C10.8328 27.2472 9.89874 26.5049 9.61488 25.298C9.34665 24.1535 9.07655 23.0097 8.80833 21.8653C8.66515 21.2559 8.80707 20.7246 9.24724 20.2757C9.41606 20.1027 9.58362 19.9279 9.80245 19.7019C9.80245 20.1652 9.8012 20.5529 9.80308 20.94C9.80433 21.2185 9.94188 21.3864 10.167 21.3927C10.3983 21.3995 10.5534 21.221 10.5534 20.9356C10.5546 18.6187 10.5546 16.3011 10.5527 13.9841C10.5527 13.8099 10.5665 13.6419 10.659 13.489C10.7972 13.2617 11.0323 13.1506 11.298 13.2018C11.5506 13.2498 11.7176 13.4041 11.7769 13.6544C11.8038 13.7668 11.8082 13.8861 11.8082 14.0022C11.8101 16.07 11.8095 18.1373 11.8095 20.2051C11.8095 20.2751 11.807 20.3456 11.812 20.4155C11.8257 20.6309 11.9601 20.7752 12.1558 20.7883C12.359 20.802 12.5335 20.6622 12.5541 20.4443C12.5716 20.2663 12.5597 20.0853 12.5616 19.9061C12.5666 19.4753 12.7986 19.2031 13.1675 19.1943C13.5289 19.1868 13.7915 19.4628 13.8052 19.883C13.8152 20.1708 13.804 20.4599 13.8096 20.7489C13.8146 21.023 13.9634 21.1935 14.1872 21.1929C14.4117 21.1922 14.5542 21.0249 14.5605 20.7471C14.5643 20.5754 14.5542 20.4037 14.5643 20.2326C14.5861 19.8474 14.8512 19.5839 15.1995 19.592C15.5302 19.5989 15.7953 19.8742 15.8085 20.2407C15.8185 20.5211 15.8116 20.802 15.8128 21.083C15.8141 21.4208 15.9429 21.5906 16.1955 21.5881C16.4406 21.5856 16.5625 21.4239 16.5638 21.0973C16.5644 20.9494 16.56 20.8008 16.565 20.6528C16.5781 20.2694 16.8345 19.9991 17.184 19.9941C17.5147 19.9891 17.7848 20.2538 17.818 20.6197C17.8255 20.7046 17.8217 20.7908 17.8217 20.8769C17.8224 22.1488 17.823 23.4206 17.8217 24.6917C17.8205 26.2083 16.7795 27.2478 15.2639 27.2485Z" />
<path d="M18.5701 20.6672C18.5608 19.5502 17.4666 18.9109 16.485 19.4403C16.3924 19.4903 16.3456 19.5059 16.2799 19.4097C15.9041 18.854 15.097 18.6461 14.4517 19.0557C14.3948 19.0919 14.3567 19.1181 14.301 19.0426C13.8527 18.4426 13.2706 18.309 12.5629 18.5731C12.5622 18.5737 12.5622 18.5737 12.5616 18.5737V18.3102C12.5616 16.828 12.5679 15.3458 12.5591 13.8636C12.5535 12.8727 11.6575 12.2028 10.7584 12.5012C10.1964 12.6879 9.8062 13.2349 9.80433 13.8642C9.79995 15.3776 9.79932 16.8911 9.80745 18.4045C9.80808 18.5931 9.75243 18.721 9.61801 18.8484C9.28913 19.1587 8.96651 19.4778 8.65702 19.808C8.08993 20.4137 7.8786 21.1329 8.05867 21.9433C8.32252 23.1284 8.60387 24.3096 8.88648 25.4903C9.15221 26.5985 9.81496 27.3746 10.8785 27.7954C11.1061 27.8853 11.3505 27.9328 11.5869 27.9996H15.6197C15.6878 27.9465 15.7741 27.9971 15.846 27.9646C15.851 27.9627 15.8554 27.9609 15.8597 27.9577C17.3347 27.7898 18.552 26.4299 18.5689 24.9028C18.5839 23.4911 18.5808 22.0788 18.5701 20.6672ZM15.2639 27.2485C14.201 27.2491 13.1387 27.2497 12.0758 27.2485C10.8328 27.2472 9.89874 26.5049 9.61488 25.298C9.34665 24.1535 9.07655 23.0097 8.80833 21.8653C8.66515 21.2559 8.80707 20.7246 9.24724 20.2757C9.41606 20.1027 9.58362 19.9279 9.80245 19.7019C9.80245 20.1652 9.8012 20.5529 9.80308 20.94C9.80433 21.2185 9.94188 21.3864 10.167 21.3927C10.3983 21.3995 10.5534 21.221 10.5534 20.9356C10.5546 18.6187 10.5546 16.3011 10.5527 13.9841C10.5527 13.8099 10.5665 13.6419 10.659 13.489C10.7972 13.2617 11.0323 13.1506 11.298 13.2018C11.5506 13.2498 11.7176 13.4041 11.7769 13.6544C11.8038 13.7668 11.8082 13.8861 11.8082 14.0022C11.8101 16.07 11.8095 18.1373 11.8095 20.2051C11.8095 20.2751 11.807 20.3456 11.812 20.4155C11.8257 20.6309 11.9601 20.7752 12.1558 20.7883C12.359 20.802 12.5335 20.6622 12.5541 20.4443C12.5716 20.2663 12.5597 20.0853 12.5616 19.9061C12.5666 19.4753 12.7986 19.2031 13.1675 19.1943C13.5289 19.1868 13.7915 19.4628 13.8052 19.883C13.8152 20.1708 13.804 20.4599 13.8096 20.7489C13.8146 21.023 13.9634 21.1935 14.1872 21.1929C14.4117 21.1922 14.5542 21.0249 14.5605 20.7471C14.5643 20.5754 14.5542 20.4037 14.5643 20.2326C14.5861 19.8474 14.8512 19.5839 15.1995 19.592C15.5302 19.5989 15.7953 19.8742 15.8085 20.2407C15.8185 20.5211 15.8116 20.802 15.8128 21.083C15.8141 21.4208 15.9429 21.5906 16.1955 21.5881C16.4406 21.5856 16.5625 21.4239 16.5638 21.0973C16.5644 20.9494 16.56 20.8008 16.565 20.6528C16.5781 20.2694 16.8345 19.9991 17.184 19.9941C17.5147 19.9891 17.7848 20.2538 17.818 20.6197C17.8255 20.7046 17.8217 20.7908 17.8217 20.8769C17.8224 22.1488 17.823 23.4206 17.8217 24.6917C17.8205 26.2083 16.7795 27.2478 15.2639 27.2485Z" stroke-width="0.5" mask="url(#path-2-outside-2_2067_3031)"/>
</svg>
