<svg width="34" height="25" viewBox="0 0 34 25" fill="none" xmlns="http://www.w3.org/2000/svg">
<path d="M0.106411 23.1816C0.0104979 22.8123 0 22.4273 0 22.0458C0 15.4685 0 8.89127 0 2.31401C0.0833355 1.71759 0.268624 1.17581 0.74204 0.763874C1.25358 0.318805 1.83161 0.0501516 2.50804 0.00806252C2.61797 0.000898432 2.72879 0.00358497 2.83961 0.00358497C12.2698 0.00358497 21.7 0.0062715 31.1302 2.9195e-06C31.8811 -0.000892592 32.5452 0.20418 33.1276 0.677905C33.7562 1.18835 34 1.87073 34 2.66505C33.9991 9.22019 34.0035 15.7753 33.9964 22.3305C33.9947 23.8439 32.8696 24.9687 31.3625 24.991C30.2348 25.0072 29.1071 24.9955 27.9794 24.9955C19.5998 24.9955 11.2201 24.9937 2.83961 24.9991C1.96282 25 1.22432 24.7197 0.599306 24.0937C0.33281 23.8269 0.19302 23.5151 0.106411 23.1816Z" fill="#E11045"/>
<path d="M24.2761 5.39051C24.9242 4.80574 25.668 4.45738 26.5519 4.46096C27.9385 4.46634 29.1867 5.40394 29.5812 6.73646C29.9899 8.11465 29.4589 9.58956 28.2718 10.3704C27.0927 11.146 25.5528 11.0483 24.48 10.1296C24.4136 10.0722 24.3444 10.0176 24.2761 9.96209C24.0563 9.96836 23.9401 9.81164 23.8284 9.6612C22.9765 8.51942 22.9765 6.83317 23.8284 5.69229C23.9401 5.54095 24.0563 5.38424 24.2761 5.39051Z" fill="#FED000"/>
<path d="M24.2772 5.39041C23.6787 6.06473 23.3321 6.83935 23.3552 7.75904C23.3764 8.61515 23.7213 9.33335 24.2772 9.9611C23.3161 10.8557 22.2053 11.1378 20.9721 10.6918C19.7815 10.2611 19.0838 9.37544 18.8941 8.10739C18.7017 6.81517 19.3214 5.55877 20.4588 4.88624C21.5528 4.24058 22.9713 4.33729 23.9775 5.12713C24.0821 5.20952 24.1779 5.30265 24.2772 5.39041Z" fill="#FE4F19"/>
<path d="M12.7263 8.2093C12.7263 8.56661 12.7263 8.92482 12.7263 9.28213C12.5863 9.47735 12.3744 9.44242 12.1811 9.44332C11.0126 9.45138 9.84506 9.44601 8.67659 9.4469C8.53297 9.4469 8.39024 9.44511 8.24662 9.4478C7.71735 9.45586 7.60476 9.5678 7.59412 10.0944C7.59146 10.2394 7.59323 10.3836 7.58525 10.5287C7.57727 10.6657 7.55422 10.7946 7.43011 10.8788C7.07637 10.8788 6.72176 10.8788 6.36802 10.8788C6.21997 10.7767 6.21199 10.6173 6.2111 10.4615C6.20047 8.60333 6.20047 6.74425 6.2111 4.88606C6.21199 4.72934 6.21997 4.57084 6.36802 4.46875C6.72176 4.46875 7.07637 4.46875 7.43011 4.46875C7.63313 4.62099 7.58614 4.84755 7.59057 5.05262C7.6083 5.85232 7.65263 5.89888 8.44521 5.89978C9.69081 5.90067 10.9355 5.8962 12.1811 5.90336C12.3744 5.90426 12.5863 5.86933 12.7263 6.06455C12.7263 6.42186 12.7263 6.78007 12.7263 7.13738C12.5863 7.3326 12.3744 7.29767 12.1811 7.29857C10.8912 7.30573 9.60126 7.30036 8.31134 7.30305C8.1686 7.30305 8.02321 7.29499 7.88491 7.34066C7.72001 7.39528 7.62692 7.50991 7.63401 7.68901C7.64022 7.85289 7.73419 7.95498 7.88491 8.00423C8.02409 8.0499 8.1686 8.04184 8.31134 8.04184C9.60126 8.04363 10.8912 8.03826 12.1811 8.04632C12.3744 8.04901 12.5854 8.01498 12.7263 8.2093Z" fill="#FE9400"/>
<path d="M6.3678 4.46851C6.3678 6.6052 6.3678 8.74278 6.3678 10.8795C6.00432 10.8831 5.63994 10.8983 5.27646 10.8857C4.69843 10.866 4.25427 10.4174 4.24984 9.82994C4.24009 8.39174 4.2392 6.95445 4.24984 5.51626C4.25427 4.92522 4.69577 4.48104 5.27646 4.46134C5.63994 4.4497 6.00432 4.46493 6.3678 4.46851Z" fill="#FED000"/>
<path d="M10.1202 20.004C11.7887 20.004 13.4572 20.004 15.1257 20.0049C15.2471 20.0049 15.3712 19.9987 15.4891 20.0229C15.7622 20.0793 15.9147 20.2611 15.9138 20.5423C15.9129 20.8243 15.7587 21.0025 15.4856 21.0581C15.3677 21.0822 15.2436 21.076 15.1221 21.076C11.763 21.0769 8.40385 21.0769 5.04472 21.0769C5.01191 21.0769 4.97823 21.0769 4.94542 21.0769C4.4924 21.0715 4.25214 20.8843 4.25392 20.5387C4.2548 20.1921 4.49151 20.0058 4.94897 20.0058C6.67242 20.0032 8.39587 20.004 10.1202 20.004Z" fill="#C8C6D3"/>
<path d="M6.62756 17.8614C6.1967 17.8614 5.76584 17.8686 5.33586 17.8596C4.694 17.8462 4.26314 17.4065 4.24629 16.759C4.24186 16.5808 4.2392 16.4017 4.24807 16.2235C4.27732 15.645 4.69223 15.1999 5.26228 15.1892C6.17808 15.1713 7.09566 15.1838 8.01146 15.1856C8.06643 15.1856 8.12139 15.1946 8.17547 15.2071C8.82176 15.3504 9.10369 15.9083 9.01592 16.8701C8.9645 17.4342 8.53098 17.8453 7.95206 17.8596C7.51145 17.8695 7.06995 17.8605 6.62756 17.8614Z" fill="#E9EBF1"/>
<path d="M13.5333 17.8599C13.1024 17.8599 12.6715 17.8662 12.2416 17.8581C11.5979 17.8456 11.1644 17.4086 11.1467 16.762C11.1423 16.5838 11.1396 16.4047 11.1485 16.2265C11.1759 15.6462 11.5891 15.1993 12.1582 15.1877C13.074 15.1689 13.9916 15.1823 14.9074 15.1832C14.9402 15.1832 14.9739 15.1868 15.0067 15.1913C15.6716 15.2916 15.966 15.8083 15.9207 16.796C15.8933 17.3915 15.4757 17.8241 14.8924 17.8581C14.8702 17.859 14.848 17.8599 14.8259 17.8599C14.395 17.8599 13.9641 17.8599 13.5333 17.8599Z" fill="#E9EBF1"/>
<path d="M20.4355 15.1804C20.8663 15.1804 21.2972 15.1733 21.7272 15.1822C22.369 15.1948 22.8008 15.6336 22.8185 16.281C22.8229 16.4592 22.8256 16.6383 22.8167 16.8165C22.7875 17.3941 22.3708 17.841 21.8025 17.8526C20.8867 17.8715 19.9691 17.8571 19.0533 17.8571C19.0205 17.8571 18.986 17.8553 18.9549 17.8482C18.3716 17.7049 17.962 17.3861 18.0436 16.2398C18.0852 15.6443 18.4913 15.2154 19.0782 15.1831C19.1003 15.1822 19.1225 15.1813 19.1446 15.1813C19.5746 15.1804 20.0055 15.1804 20.4355 15.1804Z" fill="#E9EBF1"/>
<path d="M27.3348 17.8599C26.9039 17.8599 26.473 17.8662 26.0431 17.8581C25.3976 17.8456 24.9641 17.4103 24.9464 16.7638C24.9411 16.5739 24.9375 16.3841 24.9491 16.1951C24.9845 15.6354 25.3994 15.1993 25.9553 15.1877C26.8711 15.1689 27.7887 15.1823 28.7045 15.1832C28.7373 15.1832 28.771 15.1868 28.8038 15.1913C29.4696 15.2898 29.7639 15.8056 29.7196 16.7942C29.693 17.3906 29.2763 17.8339 28.6929 17.8554C28.2408 17.8724 27.7878 17.859 27.3348 17.859C27.3348 17.859 27.3348 17.859 27.3348 17.8599Z" fill="#E9EBF1"/>
<path d="M12.7267 6.06683C11.1052 6.06683 9.48456 6.05967 7.86306 6.07399C7.53593 6.07668 7.40206 5.98444 7.42422 5.63967C7.44905 5.25102 7.43043 4.86058 7.43043 4.47014C8.85068 4.46655 10.2709 4.45581 11.6912 4.46387C12.271 4.46745 12.708 4.91789 12.7338 5.50087C12.7426 5.68893 12.7293 5.87788 12.7267 6.06683Z" fill="#FED000"/>
<path d="M7.42926 10.8805C7.42926 10.4685 7.44345 10.0557 7.42483 9.64378C7.40976 9.32856 7.56579 9.27841 7.82909 9.27931C9.46123 9.28647 11.0934 9.28289 12.7255 9.28289C12.729 9.47184 12.7415 9.6608 12.7335 9.84975C12.7078 10.4327 12.2716 10.8832 11.6909 10.8859C10.2698 10.8948 8.84951 10.8841 7.42926 10.8805Z" fill="#FED000"/>
<path d="M19.8962 20.0053C20.6471 20.0053 21.398 20.0026 22.1489 20.0062C22.5762 20.0079 22.8103 20.1996 22.8138 20.5354C22.8174 20.873 22.5824 21.0745 22.1595 21.0754C20.6577 21.079 19.1559 21.0781 17.6541 21.0754C17.2277 21.0745 16.9919 20.8811 16.9883 20.5462C16.9848 20.2085 17.2197 20.0088 17.6426 20.0062C18.3944 20.0017 19.1453 20.0053 19.8962 20.0053Z" fill="#C8C6D3"/>
<path d="M12.7257 8.20864C11.1025 8.20864 9.47918 8.20058 7.85503 8.21581C7.51725 8.21939 7.41353 8.10835 7.42239 7.77343C7.44012 7.13761 7.42416 7.13672 8.05361 7.13672C9.61039 7.13672 11.1681 7.13672 12.7248 7.13761C12.7257 7.49492 12.7257 7.85223 12.7257 8.20864Z" fill="#FED000"/>
</svg>
