<svg width="64" height="64" viewBox="0 0 64 64" fill="none" xmlns="http://www.w3.org/2000/svg">
<path d="M8 32C8 18.7452 18.7452 8 32 8C45.2548 8 56 18.7452 56 32C56 45.2548 45.2548 56 32 56C18.7452 56 8 45.2548 8 32Z" fill="#E11045" fill-opacity="0.08"/>
<path d="M31.9988 28.0002V32.0002M31.9988 36.0002H32.0088M30.2888 22.8602L21.8188 37.0002C21.6442 37.3026 21.5518 37.6455 21.5508 37.9947C21.5498 38.3439 21.6403 38.6873 21.8132 38.9907C21.9862 39.2941 22.2355 39.547 22.5365 39.7241C22.8375 39.9012 23.1796 39.9964 23.5288 40.0002H40.4688C40.818 39.9964 41.1601 39.9012 41.4611 39.7241C41.7621 39.547 42.0114 39.2941 42.1844 38.9907C42.3573 38.6873 42.4478 38.3439 42.4468 37.9947C42.4458 37.6455 42.3534 37.3026 42.1788 37.0002L33.7088 22.8602C33.5305 22.5663 33.2795 22.3233 32.98 22.1547C32.6805 21.9861 32.3425 21.8975 31.9988 21.8975C31.6551 21.8975 31.3171 21.9861 31.0176 22.1547C30.7181 22.3233 30.4671 22.5663 30.2888 22.8602Z" stroke="#E11045" stroke-width="2" stroke-linecap="round" stroke-linejoin="round"/>
<path d="M32 48C23.1634 48 16 40.8366 16 32H0C0 49.6731 14.3269 64 32 64V48ZM48 32C48 40.8366 40.8366 48 32 48V64C49.6731 64 64 49.6731 64 32H48ZM32 16C40.8366 16 48 23.1634 48 32H64C64 14.3269 49.6731 0 32 0V16ZM32 0C14.3269 0 0 14.3269 0 32H16C16 23.1634 23.1634 16 32 16V0Z" fill="#E11045" fill-opacity="0.05"/>
</svg>
