<svg width="23" height="18" viewBox="0 0 23 18" fill="none" xmlns="http://www.w3.org/2000/svg">
<path d="M22.9405 2.44425C22.6342 0.992478 21.3743 0.00317477 19.8244 0.00129991C17.0485 -0.00119991 14.2726 0.000674951 11.4968 0.000674951C8.74572 0.000674951 5.99401 4.99963e-05 3.24297 0.000674951C1.36321 0.00129991 0.00205855 1.30121 0.0014054 3.10295C-0.00120718 7.03204 0.000752255 10.9618 9.9109e-05 14.8908C9.9109e-05 15.1183 0.0138152 15.3446 0.0621479 15.5664C0.377617 17.0182 1.63296 17.9981 3.1881 17.9987C8.70718 18.0006 14.2263 18 19.7453 17.9994C21.6368 17.9987 22.998 16.6976 22.9987 14.8846C23.0006 10.963 22.9993 7.04141 23 3.11982C23 2.89297 22.9869 2.66611 22.9405 2.44425ZM20.9145 14.8352C20.9177 15.4714 20.5023 16.0114 19.6905 16.0045C16.9558 15.9814 14.221 15.9958 11.4863 15.9958C8.76009 15.9958 6.03386 15.9814 3.30763 16.0045C2.50883 16.0114 2.08233 15.4814 2.08559 14.8333C2.10453 10.9436 2.10388 7.05391 2.08559 3.1642C2.08233 2.52362 2.50361 1.99303 3.30959 1.99553C8.77054 2.0124 14.2315 2.0124 19.6924 1.99553C20.4971 1.99303 20.9177 2.52299 20.9145 3.16607C20.8962 7.05579 20.8962 10.9455 20.9145 14.8352ZM16.7278 12.931C16.7245 13.6466 16.1295 14.1196 15.4378 13.9697C14.9663 13.8684 14.6377 13.4684 14.6364 12.9779C14.6325 11.8842 14.6351 10.7905 14.6351 9.69685C14.6351 8.13446 14.6325 6.57207 14.6371 5.00969C14.6384 4.49347 14.9957 4.10163 15.5221 4.01538C16.0113 3.93539 16.4901 4.20974 16.6625 4.66659C16.7213 4.82345 16.7298 4.98594 16.7298 5.15093C16.7291 6.43208 16.7291 7.71261 16.7291 8.99377C16.7291 10.3062 16.733 11.6186 16.7278 12.931ZM12.534 13.0466C12.5313 13.5841 12.0585 13.9997 11.5026 14.0022C10.9403 14.004 10.47 13.5791 10.4641 13.0285C10.453 12.0223 10.4609 11.0155 10.4609 10.0087C10.4609 8.99377 10.4557 7.97947 10.4641 6.96454C10.4674 6.53833 10.7613 6.17835 11.1728 6.05024C11.5908 5.92024 12.0408 6.04774 12.3158 6.37834C12.4569 6.54707 12.5379 6.74019 12.5379 6.95954C12.5385 8.98877 12.5438 11.0174 12.534 13.0466ZM8.36493 11.0018C8.36493 11.6498 8.36689 12.2979 8.36428 12.946C8.36167 13.5478 7.9221 13.994 7.33035 14.0022C6.74775 14.0103 6.27683 13.5609 6.27356 12.9654C6.26572 11.6536 6.26507 10.3418 6.27356 9.03064C6.27748 8.42694 6.73338 7.99947 7.33362 8.00509C7.92929 8.01072 8.36167 8.45006 8.36428 9.05814C8.36689 9.70622 8.36493 10.3537 8.36493 11.0018Z" />
</svg>
