<svg width="2333" height="564" viewBox="0 0 2333 564" fill="none" xmlns="http://www.w3.org/2000/svg">
<g clip-path="url(#clip0_2355_19062)">
<path d="M1918.24 342.542C1953.29 358.475 1988.34 364.847 2044.1 364.847C2087.12 364.847 2126.95 356.881 2126.95 321.831C2126.95 240.576 1887.96 291.559 1887.96 133.831C1887.96 28.678 2007.46 0 2107.83 0C2155.63 0 2212.98 7.9661 2248.03 17.5254L2212.98 100.373C2176.34 89.2203 2157.22 86.0339 2118.98 86.0339C2085.52 86.0339 2028.17 89.2203 2028.17 125.864C2028.17 195.966 2267.15 149.763 2267.15 305.898C2267.15 419.017 2157.22 449.288 2044.1 449.288C1996.3 449.288 1938.95 442.915 1892.74 430.169" fill="#005A9C"/>
<path d="M1677.66 361.661V262.882H1886.37V180.034H1677.66V89.2205H1886.37V7.96631H1542.24V148.17C1508.78 39.8307 1400.44 7.96631 1253.86 7.96631H1069.05V87.6273L1204.47 226.237V94.0002H1257.05C1355.83 94.0002 1414.78 138.61 1414.78 226.237C1414.78 312.271 1359.02 358.475 1257.05 358.475H1204.47V226.237L1070.64 363.254V444.509H1253.86C1397.25 444.509 1508.78 404.678 1542.24 297.932V444.509H1886.37V361.661" fill="#005A9C"/>
<path fill-rule="evenodd" clip-rule="evenodd" d="M736.068 238.983C739.254 305.898 772.712 364.847 850.78 364.847C927.254 364.847 960.712 305.898 965.491 238.983H1104.1C1097.73 369.627 1010.1 450.881 850.78 450.881C718.542 450.881 630.915 390.339 608.61 294.746V442.915H473.186V294.746C439.729 403.085 328.203 442.915 184.814 442.915H0V238.983H135.424V356.881H188C283.593 356.881 339.356 317.051 344.136 238.983" fill="#005A9C"/>
<path fill-rule="evenodd" clip-rule="evenodd" d="M736.068 211.898C739.254 143.39 772.712 87.6271 850.78 87.6271C927.254 87.6271 960.712 143.39 965.491 211.898H1104.1C1097.73 79.661 1011.69 0 850.78 0C716.949 0 635.695 55.7627 607.017 148.17V7.9661H471.593V149.763C439.729 41.4237 329.797 7.9661 183.22 7.9661H0V211.898H135.424V94H188C280.407 94 337.763 133.831 344.136 211.898" fill="#005A9C"/>
<path d="M25.4915 506.644H0V562.407H25.4915V506.644Z" fill="#5A5844"/>
<path d="M164.102 506.644H200.746L213.491 546.475V506.644H234.203V562.407H197.559L184.813 522.576V562.407H164.102" fill="#5A5844"/>
<path d="M426.981 560.813C422.202 562.407 415.829 562.407 409.456 562.407C387.151 562.407 371.219 552.847 371.219 532.136C371.219 513.017 388.744 503.458 409.456 503.458C415.829 503.458 420.609 503.458 426.981 505.051V519.39C422.202 517.796 419.015 517.796 414.236 517.796C403.083 517.796 395.117 522.576 395.117 532.136C395.117 541.695 403.083 546.474 412.642 546.474C417.422 546.474 422.202 544.881 425.388 544.881" fill="#5A5844"/>
<path d="M595.863 564C573.558 564 559.219 554.441 559.219 535.322C559.219 516.203 571.965 506.644 595.863 506.644C618.168 506.644 632.507 516.203 632.507 535.322C630.914 554.441 618.168 564 595.863 564ZM595.863 549.661C605.422 549.661 605.422 540.102 605.422 533.729C605.422 528.949 605.422 517.797 595.863 517.797C586.304 517.797 586.304 527.356 586.304 533.729C584.71 540.102 586.304 549.661 595.863 549.661Z" fill="#5A5844"/>
<path d="M766.34 506.644H806.17C822.103 506.644 831.662 511.424 831.662 520.983C831.662 528.949 825.289 533.729 815.73 535.322C820.509 535.322 823.696 538.508 826.882 541.695C830.069 548.068 830.069 556.034 833.255 562.407H807.764C806.17 557.627 806.17 549.661 804.577 546.475C802.984 543.288 799.797 543.288 798.204 543.288H791.831V562.407H766.34V506.644ZM790.238 530.542H796.611C801.391 530.542 806.17 530.542 806.17 524.17C806.17 519.39 801.391 517.797 796.611 517.797H790.238V530.542Z" fill="#5A5844"/>
<path d="M968.68 506.644H1011.7C1021.26 506.644 1035.59 511.424 1035.59 525.763C1035.59 540.102 1024.44 546.475 1011.7 546.475H994.171V562.407H968.68V506.644ZM992.578 533.729H997.358C1003.73 533.729 1010.1 532.136 1010.1 525.763C1010.1 519.39 1003.73 519.39 997.358 519.39H992.578V533.729Z" fill="#5A5844"/>
<path d="M1204.48 564C1182.17 564 1167.83 554.441 1167.83 535.322C1167.83 516.203 1180.58 506.644 1204.48 506.644C1226.78 506.644 1241.12 516.203 1241.12 535.322C1241.12 554.441 1228.37 564 1204.48 564ZM1204.48 549.661C1214.04 549.661 1214.04 540.102 1214.04 533.729C1214.04 528.949 1214.04 517.797 1204.48 517.797C1194.92 517.797 1194.92 527.356 1194.92 533.729C1194.92 540.102 1196.51 549.661 1204.48 549.661Z" fill="#5A5844"/>
<path d="M1376.54 506.644H1416.37C1432.31 506.644 1441.86 511.424 1441.86 520.983C1441.86 528.949 1435.49 533.729 1425.93 535.322C1430.71 535.322 1433.9 538.508 1437.09 541.695C1440.27 548.068 1440.27 556.034 1443.46 562.407H1417.97C1416.37 557.627 1416.37 549.661 1414.78 546.475C1413.19 543.288 1411.59 543.288 1408.41 543.288H1402.03V562.407H1376.54V506.644ZM1400.44 530.542H1406.81C1411.59 530.542 1416.37 530.542 1416.37 524.17C1416.37 519.39 1411.59 517.797 1406.81 517.797H1400.44V530.542Z" fill="#5A5844"/>
<path d="M1594.81 506.644H1628.27L1652.17 562.407H1626.68L1621.9 549.661H1601.19L1598 562.407H1572.51L1594.81 506.644ZM1604.37 536.915H1618.71L1612.34 517.797L1604.37 536.915Z" fill="#5A5844"/>
<path d="M1844.95 522.576H1822.64V562.407H1797.15V522.576H1774.85V506.644H1844.95" fill="#5A5844"/>
<path d="M1978.78 506.644H2034.54V519.39H2002.68V527.356H2032.95V541.695H2002.68V549.661H2034.54V562.407H1978.78" fill="#5A5844"/>
<path d="M2171.56 506.644H2208.2C2227.32 506.644 2240.07 511.424 2240.07 535.322C2240.07 556.034 2225.73 564 2206.61 564H2171.56V506.644ZM2197.05 548.068H2203.42C2212.98 548.068 2214.58 543.288 2214.58 533.729C2214.58 524.169 2212.98 519.39 2203.42 519.39H2197.05V548.068Z" fill="#5A5844"/>
<path d="M2332.48 431.763C2332.48 449.288 2318.14 462.034 2302.2 462.034C2284.68 462.034 2270.34 449.288 2270.34 431.763C2270.34 414.237 2284.68 401.492 2302.2 401.492C2319.73 401.492 2332.48 414.237 2332.48 431.763ZM2278.31 431.763C2278.31 444.509 2287.87 455.661 2302.2 455.661C2314.95 455.661 2324.51 444.509 2324.51 431.763C2324.51 419.017 2314.95 407.865 2300.61 407.865C2289.46 407.865 2278.31 417.424 2278.31 431.763ZM2297.42 446.102H2291.05V415.831C2294.24 415.831 2297.42 414.237 2302.2 414.237C2308.58 414.237 2310.17 415.831 2311.76 417.424C2313.36 419.017 2314.95 420.61 2314.95 423.797C2314.95 426.983 2311.76 430.17 2308.58 430.17C2311.76 431.763 2313.36 433.356 2313.36 438.136C2314.95 442.915 2314.95 444.509 2314.95 446.102H2310.17C2308.58 444.509 2308.58 442.915 2308.58 438.136C2308.58 434.949 2305.39 433.356 2302.2 433.356H2299.02V446.102H2297.42ZM2297.42 430.17H2300.61C2303.8 430.17 2306.98 428.576 2306.98 425.39C2306.98 422.204 2305.39 420.61 2300.61 420.61C2299.02 420.61 2297.42 420.61 2297.42 420.61V430.17Z" fill="#005A9C"/>
</g>
<defs>
<clipPath id="clip0_2355_19062">
<rect width="2332.47" height="564" fill="white"/>
</clipPath>
</defs>
</svg>
