<svg width="25" height="24" viewBox="0 0 25 24" fill="none" xmlns="http://www.w3.org/2000/svg">
<path d="M21.2015 0.0027119C20.736 0.00773423 20.2729 0.166357 19.9095 0.527756L9.48781 10.8858L9.4596 10.9138C9.1697 11.1884 9.11517 11.3878 8.99749 11.6638C8.87496 11.951 8.76191 12.2977 8.66738 12.6857C8.47833 13.4616 8.36612 14.4131 8.53539 15.3854C8.59917 15.747 8.90717 16.0532 9.27094 16.1166C10.249 16.2848 11.2065 16.1733 11.9871 15.9853C12.3775 15.8914 12.7168 15.779 13.0056 15.6572C13.2831 15.5402 13.4842 15.4762 13.7602 15.1885C13.7715 15.1765 13.7768 15.1732 13.7884 15.1602L24.2192 4.80217C25.0501 3.97642 24.8337 2.66643 24.0495 1.88691L22.8424 0.687018C22.4502 0.297162 21.9304 0.0489817 21.3995 0.0027495C21.3331 -0.00311015 21.2679 0.0021217 21.2013 0.0027495L21.2015 0.0027119ZM21.192 1.80261C21.1857 1.80889 21.3396 1.74318 21.5598 1.96207C21.9619 2.36553 22.3693 2.76355 22.7764 3.16196C22.9966 3.38085 22.9303 3.53382 22.9368 3.52755L22.3333 4.12749L20.5979 2.39333L21.192 1.80261ZM19.3152 3.66797L21.0505 5.40213L12.5249 13.8761C12.5441 13.8472 12.4333 13.9412 12.2986 13.9979C12.119 14.0736 11.863 14.16 11.563 14.2322C11.1733 14.326 10.7237 14.3691 10.2805 14.3729C10.2849 13.9345 10.3281 13.4927 10.422 13.1074C10.4946 12.8092 10.591 12.5456 10.6672 12.3669C10.7106 12.2656 10.7487 12.2039 10.7521 12.1888L19.3152 3.66797ZM3.0179 4.20222C1.36171 4.20222 0 5.55576 0 7.20201V21.0004C0 22.6467 1.36171 24 3.0179 24H16.9007C18.5569 24 19.9186 22.6465 19.9186 21.0004V12.3015C19.9253 11.826 19.4916 11.3887 19.0131 11.3887C18.5348 11.3887 18.1009 11.826 18.1076 12.3015V21.0004C18.1076 21.6807 17.5849 22.2003 16.9005 22.2003H3.01768C2.33327 22.2003 1.81055 21.6807 1.81055 21.0004V7.20201C1.81055 6.52171 2.33328 6.00212 3.01768 6.00212H12.9769C13.4552 6.00881 13.8952 5.57773 13.8952 5.10228C13.8952 4.62682 13.4552 4.19574 12.9769 4.20243L3.0179 4.20222Z" />
</svg>
