<svg width="18" height="20" viewBox="0 0 18 20" fill="none" xmlns="http://www.w3.org/2000/svg">
<g clip-path="url(#clip0_2067_3055)">
<mask id="path-1-outside-1_2067_3055" maskUnits="userSpaceOnUse" x="-1" y="-1" width="20" height="22" fill="black">
<rect fill="white" x="-1" y="-1" width="20" height="22"/>
<path d="M17.1582 5.7141C16.0178 5.71291 14.8767 5.70815 13.7357 5.71826C13.5381 5.72005 13.4981 5.67125 13.4968 5.48853C13.4912 4.80648 13.5512 4.12205 13.4143 3.44179C13.0167 1.46825 11.1416 0.000595337 9.00264 1.80797e-07C6.86433 -0.000594976 4.98424 1.46825 4.58721 3.43822C4.45154 4.11075 4.51031 4.78744 4.50468 5.46235C4.50281 5.65339 4.47092 5.72183 4.24646 5.71945C3.1054 5.70636 1.96497 5.71231 0.823915 5.7141C0.263078 5.71469 -0.0576686 6.06345 0.00860646 6.59314C0.0367421 6.82228 0.0648778 7.05082 0.0917629 7.27995C0.254324 8.67619 0.416261 10.0718 0.579448 11.4681C0.74451 12.8863 0.909573 14.3046 1.07714 15.7222C1.15717 16.3942 1.19781 17.0738 1.33598 17.7351C1.61609 19.0724 2.82967 19.9877 4.2746 19.9955C5.84519 20.0032 7.41579 19.9973 8.98701 19.9973V19.9955C10.5964 19.9955 12.2063 20.008 13.8157 19.9913C15.1675 19.9776 16.3279 19.0771 16.6455 17.8261C16.7668 17.3482 16.7862 16.8554 16.8437 16.3686C17.0426 14.692 17.2408 13.0161 17.4377 11.3395C17.6222 9.76592 17.8022 8.19233 17.991 6.61993C18.0579 6.06345 17.7472 5.7141 17.1582 5.7141ZM6.04152 3.82686C6.25285 2.46454 7.53646 1.42719 9.00576 1.42838C10.4732 1.43016 11.7537 2.47228 11.96 3.83697C12.0488 4.42142 11.9794 5.01003 12.0044 5.59626C12.0107 5.75278 11.9037 5.71231 11.82 5.71291C10.9527 5.7141 10.0855 5.7135 9.21834 5.7135H8.98388C8.06228 5.7135 7.14006 5.70755 6.21846 5.71826C6.02651 5.72064 5.98837 5.66351 5.9965 5.49687C6.02401 4.94099 5.95523 4.38214 6.04152 3.82686ZM16.4029 7.29364C16.221 8.81486 16.0403 10.3361 15.8621 11.8579C15.6827 13.394 15.5063 14.9307 15.3288 16.4674C15.2963 16.7483 15.2694 17.0298 15.2294 17.3095C15.1243 18.0481 14.5066 18.5653 13.7175 18.5677C12.1388 18.5719 10.5601 18.5689 8.982 18.5689C7.45017 18.5689 5.91834 18.5695 4.38714 18.5689C3.44053 18.5683 2.86031 18.0588 2.75715 17.1631C2.51768 15.0872 2.26884 13.0119 2.02499 10.9366C1.88244 9.72545 1.74364 8.51371 1.59796 7.30257C1.58295 7.17759 1.60734 7.13771 1.74864 7.1389C2.60834 7.14485 3.46742 7.14366 4.32712 7.1395C4.44904 7.1389 4.50656 7.15378 4.50281 7.29126C4.49218 7.67038 4.49593 8.05009 4.50093 8.4292C4.50218 8.52502 4.48468 8.56014 4.37088 8.58394C3.94885 8.67202 3.70063 9.00531 3.75315 9.37848C3.80442 9.74093 4.12642 9.99565 4.54532 9.99803C5.01425 10.0004 5.48318 10.0004 5.95148 9.99803C6.38164 9.99565 6.70614 9.7314 6.74678 9.35824C6.78617 8.99222 6.53983 8.67024 6.12842 8.58454C6.01526 8.56073 5.99587 8.52621 5.99775 8.4298C6.00275 8.05068 6.00338 7.67097 5.99712 7.29186C5.99587 7.18294 6.01588 7.13831 6.14781 7.1389C8.04665 7.14307 9.94549 7.14247 11.8443 7.14009C11.9581 7.1395 12.0088 7.15676 12.0056 7.28293C11.9956 7.66204 11.9981 8.04116 12.0044 8.42087C12.0063 8.528 11.9775 8.56192 11.8593 8.58692C11.4523 8.67202 11.2091 9.00174 11.2554 9.37014C11.3016 9.73319 11.6243 9.99506 12.0388 9.99803C12.5158 10.001 12.9923 10.001 13.4687 9.99803C13.8832 9.99446 14.204 9.732 14.249 9.36657C14.2934 9.00055 14.047 8.67381 13.6406 8.58454C13.5412 8.56252 13.4968 8.54823 13.4993 8.43813C13.5075 8.05187 13.5062 7.66443 13.5 7.27817C13.4987 7.17342 13.5256 7.1389 13.6413 7.1395C14.5166 7.14366 15.3919 7.14485 16.2673 7.13831C16.4054 7.13771 16.4161 7.18651 16.4029 7.29364ZM12.1551 11.4437C11.8343 11.3806 11.5786 11.4984 11.376 11.7412C10.5839 12.6881 9.78543 13.6303 8.99763 14.5807C8.88509 14.717 8.81131 14.745 8.65125 14.6379C8.17357 14.3177 7.68401 14.013 7.19508 13.7088C6.80931 13.469 6.36226 13.5499 6.12592 13.8915C5.88958 14.2326 5.98774 14.6551 6.36976 14.9003C7.08754 15.3598 7.80781 15.8163 8.52933 16.2704C8.93511 16.5251 9.32151 16.471 9.62475 16.1121C10.607 14.948 11.5849 13.7808 12.5646 12.6155C12.6803 12.4781 12.7503 12.3251 12.7516 12.1144C12.7478 12.087 12.7447 12.0269 12.729 11.9704C12.6478 11.6871 12.4539 11.5026 12.1551 11.4437Z"/>
</mask>
<path d="M17.1582 5.7141C16.0178 5.71291 14.8767 5.70815 13.7357 5.71826C13.5381 5.72005 13.4981 5.67125 13.4968 5.48853C13.4912 4.80648 13.5512 4.12205 13.4143 3.44179C13.0167 1.46825 11.1416 0.000595337 9.00264 1.80797e-07C6.86433 -0.000594976 4.98424 1.46825 4.58721 3.43822C4.45154 4.11075 4.51031 4.78744 4.50468 5.46235C4.50281 5.65339 4.47092 5.72183 4.24646 5.71945C3.1054 5.70636 1.96497 5.71231 0.823915 5.7141C0.263078 5.71469 -0.0576686 6.06345 0.00860646 6.59314C0.0367421 6.82228 0.0648778 7.05082 0.0917629 7.27995C0.254324 8.67619 0.416261 10.0718 0.579448 11.4681C0.74451 12.8863 0.909573 14.3046 1.07714 15.7222C1.15717 16.3942 1.19781 17.0738 1.33598 17.7351C1.61609 19.0724 2.82967 19.9877 4.2746 19.9955C5.84519 20.0032 7.41579 19.9973 8.98701 19.9973V19.9955C10.5964 19.9955 12.2063 20.008 13.8157 19.9913C15.1675 19.9776 16.3279 19.0771 16.6455 17.8261C16.7668 17.3482 16.7862 16.8554 16.8437 16.3686C17.0426 14.692 17.2408 13.0161 17.4377 11.3395C17.6222 9.76592 17.8022 8.19233 17.991 6.61993C18.0579 6.06345 17.7472 5.7141 17.1582 5.7141ZM6.04152 3.82686C6.25285 2.46454 7.53646 1.42719 9.00576 1.42838C10.4732 1.43016 11.7537 2.47228 11.96 3.83697C12.0488 4.42142 11.9794 5.01003 12.0044 5.59626C12.0107 5.75278 11.9037 5.71231 11.82 5.71291C10.9527 5.7141 10.0855 5.7135 9.21834 5.7135H8.98388C8.06228 5.7135 7.14006 5.70755 6.21846 5.71826C6.02651 5.72064 5.98837 5.66351 5.9965 5.49687C6.02401 4.94099 5.95523 4.38214 6.04152 3.82686ZM16.4029 7.29364C16.221 8.81486 16.0403 10.3361 15.8621 11.8579C15.6827 13.394 15.5063 14.9307 15.3288 16.4674C15.2963 16.7483 15.2694 17.0298 15.2294 17.3095C15.1243 18.0481 14.5066 18.5653 13.7175 18.5677C12.1388 18.5719 10.5601 18.5689 8.982 18.5689C7.45017 18.5689 5.91834 18.5695 4.38714 18.5689C3.44053 18.5683 2.86031 18.0588 2.75715 17.1631C2.51768 15.0872 2.26884 13.0119 2.02499 10.9366C1.88244 9.72545 1.74364 8.51371 1.59796 7.30257C1.58295 7.17759 1.60734 7.13771 1.74864 7.1389C2.60834 7.14485 3.46742 7.14366 4.32712 7.1395C4.44904 7.1389 4.50656 7.15378 4.50281 7.29126C4.49218 7.67038 4.49593 8.05009 4.50093 8.4292C4.50218 8.52502 4.48468 8.56014 4.37088 8.58394C3.94885 8.67202 3.70063 9.00531 3.75315 9.37848C3.80442 9.74093 4.12642 9.99565 4.54532 9.99803C5.01425 10.0004 5.48318 10.0004 5.95148 9.99803C6.38164 9.99565 6.70614 9.7314 6.74678 9.35824C6.78617 8.99222 6.53983 8.67024 6.12842 8.58454C6.01526 8.56073 5.99587 8.52621 5.99775 8.4298C6.00275 8.05068 6.00338 7.67097 5.99712 7.29186C5.99587 7.18294 6.01588 7.13831 6.14781 7.1389C8.04665 7.14307 9.94549 7.14247 11.8443 7.14009C11.9581 7.1395 12.0088 7.15676 12.0056 7.28293C11.9956 7.66204 11.9981 8.04116 12.0044 8.42087C12.0063 8.528 11.9775 8.56192 11.8593 8.58692C11.4523 8.67202 11.2091 9.00174 11.2554 9.37014C11.3016 9.73319 11.6243 9.99506 12.0388 9.99803C12.5158 10.001 12.9923 10.001 13.4687 9.99803C13.8832 9.99446 14.204 9.732 14.249 9.36657C14.2934 9.00055 14.047 8.67381 13.6406 8.58454C13.5412 8.56252 13.4968 8.54823 13.4993 8.43813C13.5075 8.05187 13.5062 7.66443 13.5 7.27817C13.4987 7.17342 13.5256 7.1389 13.6413 7.1395C14.5166 7.14366 15.3919 7.14485 16.2673 7.13831C16.4054 7.13771 16.4161 7.18651 16.4029 7.29364ZM12.1551 11.4437C11.8343 11.3806 11.5786 11.4984 11.376 11.7412C10.5839 12.6881 9.78543 13.6303 8.99763 14.5807C8.88509 14.717 8.81131 14.745 8.65125 14.6379C8.17357 14.3177 7.68401 14.013 7.19508 13.7088C6.80931 13.469 6.36226 13.5499 6.12592 13.8915C5.88958 14.2326 5.98774 14.6551 6.36976 14.9003C7.08754 15.3598 7.80781 15.8163 8.52933 16.2704C8.93511 16.5251 9.32151 16.471 9.62475 16.1121C10.607 14.948 11.5849 13.7808 12.5646 12.6155C12.6803 12.4781 12.7503 12.3251 12.7516 12.1144C12.7478 12.087 12.7447 12.0269 12.729 11.9704C12.6478 11.6871 12.4539 11.5026 12.1551 11.4437Z" />
<path d="M17.1582 5.7141C16.0178 5.71291 14.8767 5.70815 13.7357 5.71826C13.5381 5.72005 13.4981 5.67125 13.4968 5.48853C13.4912 4.80648 13.5512 4.12205 13.4143 3.44179C13.0167 1.46825 11.1416 0.000595337 9.00264 1.80797e-07C6.86433 -0.000594976 4.98424 1.46825 4.58721 3.43822C4.45154 4.11075 4.51031 4.78744 4.50468 5.46235C4.50281 5.65339 4.47092 5.72183 4.24646 5.71945C3.1054 5.70636 1.96497 5.71231 0.823915 5.7141C0.263078 5.71469 -0.0576686 6.06345 0.00860646 6.59314C0.0367421 6.82228 0.0648778 7.05082 0.0917629 7.27995C0.254324 8.67619 0.416261 10.0718 0.579448 11.4681C0.74451 12.8863 0.909573 14.3046 1.07714 15.7222C1.15717 16.3942 1.19781 17.0738 1.33598 17.7351C1.61609 19.0724 2.82967 19.9877 4.2746 19.9955C5.84519 20.0032 7.41579 19.9973 8.98701 19.9973V19.9955C10.5964 19.9955 12.2063 20.008 13.8157 19.9913C15.1675 19.9776 16.3279 19.0771 16.6455 17.8261C16.7668 17.3482 16.7862 16.8554 16.8437 16.3686C17.0426 14.692 17.2408 13.0161 17.4377 11.3395C17.6222 9.76592 17.8022 8.19233 17.991 6.61993C18.0579 6.06345 17.7472 5.7141 17.1582 5.7141ZM6.04152 3.82686C6.25285 2.46454 7.53646 1.42719 9.00576 1.42838C10.4732 1.43016 11.7537 2.47228 11.96 3.83697C12.0488 4.42142 11.9794 5.01003 12.0044 5.59626C12.0107 5.75278 11.9037 5.71231 11.82 5.71291C10.9527 5.7141 10.0855 5.7135 9.21834 5.7135H8.98388C8.06228 5.7135 7.14006 5.70755 6.21846 5.71826C6.02651 5.72064 5.98837 5.66351 5.9965 5.49687C6.02401 4.94099 5.95523 4.38214 6.04152 3.82686ZM16.4029 7.29364C16.221 8.81486 16.0403 10.3361 15.8621 11.8579C15.6827 13.394 15.5063 14.9307 15.3288 16.4674C15.2963 16.7483 15.2694 17.0298 15.2294 17.3095C15.1243 18.0481 14.5066 18.5653 13.7175 18.5677C12.1388 18.5719 10.5601 18.5689 8.982 18.5689C7.45017 18.5689 5.91834 18.5695 4.38714 18.5689C3.44053 18.5683 2.86031 18.0588 2.75715 17.1631C2.51768 15.0872 2.26884 13.0119 2.02499 10.9366C1.88244 9.72545 1.74364 8.51371 1.59796 7.30257C1.58295 7.17759 1.60734 7.13771 1.74864 7.1389C2.60834 7.14485 3.46742 7.14366 4.32712 7.1395C4.44904 7.1389 4.50656 7.15378 4.50281 7.29126C4.49218 7.67038 4.49593 8.05009 4.50093 8.4292C4.50218 8.52502 4.48468 8.56014 4.37088 8.58394C3.94885 8.67202 3.70063 9.00531 3.75315 9.37848C3.80442 9.74093 4.12642 9.99565 4.54532 9.99803C5.01425 10.0004 5.48318 10.0004 5.95148 9.99803C6.38164 9.99565 6.70614 9.7314 6.74678 9.35824C6.78617 8.99222 6.53983 8.67024 6.12842 8.58454C6.01526 8.56073 5.99587 8.52621 5.99775 8.4298C6.00275 8.05068 6.00338 7.67097 5.99712 7.29186C5.99587 7.18294 6.01588 7.13831 6.14781 7.1389C8.04665 7.14307 9.94549 7.14247 11.8443 7.14009C11.9581 7.1395 12.0088 7.15676 12.0056 7.28293C11.9956 7.66204 11.9981 8.04116 12.0044 8.42087C12.0063 8.528 11.9775 8.56192 11.8593 8.58692C11.4523 8.67202 11.2091 9.00174 11.2554 9.37014C11.3016 9.73319 11.6243 9.99506 12.0388 9.99803C12.5158 10.001 12.9923 10.001 13.4687 9.99803C13.8832 9.99446 14.204 9.732 14.249 9.36657C14.2934 9.00055 14.047 8.67381 13.6406 8.58454C13.5412 8.56252 13.4968 8.54823 13.4993 8.43813C13.5075 8.05187 13.5062 7.66443 13.5 7.27817C13.4987 7.17342 13.5256 7.1389 13.6413 7.1395C14.5166 7.14366 15.3919 7.14485 16.2673 7.13831C16.4054 7.13771 16.4161 7.18651 16.4029 7.29364ZM12.1551 11.4437C11.8343 11.3806 11.5786 11.4984 11.376 11.7412C10.5839 12.6881 9.78543 13.6303 8.99763 14.5807C8.88509 14.717 8.81131 14.745 8.65125 14.6379C8.17357 14.3177 7.68401 14.013 7.19508 13.7088C6.80931 13.469 6.36226 13.5499 6.12592 13.8915C5.88958 14.2326 5.98774 14.6551 6.36976 14.9003C7.08754 15.3598 7.80781 15.8163 8.52933 16.2704C8.93511 16.5251 9.32151 16.471 9.62475 16.1121C10.607 14.948 11.5849 13.7808 12.5646 12.6155C12.6803 12.4781 12.7503 12.3251 12.7516 12.1144C12.7478 12.087 12.7447 12.0269 12.729 11.9704C12.6478 11.6871 12.4539 11.5026 12.1551 11.4437Z" stroke-width="0.5" mask="url(#path-1-outside-1_2067_3055)"/>
</g>
<defs>
<clipPath id="clip0_2067_3055">
<rect width="18" height="20" fill="white"/>
</clipPath>
</defs>
</svg>
