<svg width="24" height="18" viewBox="0 0 24 18" fill="none" xmlns="http://www.w3.org/2000/svg">
<rect width="24" height="18" fill="#E5E5E5"/>
<g clip-path="url(#clip0_0_1)">
<rect width="1512" height="1169" transform="translate(-1296 -467)" fill="#FAFAFA"/>
<g filter="url(#filter0_f_0_1)">
<ellipse cx="-954.153" cy="262.691" rx="243.577" ry="306.516" transform="rotate(10.1649 -954.153 262.691)" fill="#C33D5F" fill-opacity="0.2"/>
</g>
<g filter="url(#filter1_f_0_1)">
<ellipse cx="-115.002" cy="-189" rx="284" ry="350" fill="#34B66F" fill-opacity="0.2"/>
</g>
<rect x="-409.5" y="-16.5" width="448" height="49" rx="7.5" stroke="#979797"/>
<path d="M12 1.5C9.78923 1.50203 7.62196 2.11475 5.73736 3.27057C3.85276 4.42639 2.32409 6.08036 1.32002 8.05C1.16751 8.34344 1.08789 8.66929 1.08789 9C1.08789 9.33071 1.16751 9.65656 1.32002 9.95C2.32704 11.9156 3.85698 13.5652 5.74136 14.7171C7.62574 15.869 9.79146 16.4785 12 16.4785C14.2086 16.4785 16.3743 15.869 18.2587 14.7171C20.1431 13.5652 21.673 11.9156 22.68 9.95C22.8325 9.65656 22.9122 9.33071 22.9122 9C22.9122 8.66929 22.8325 8.34344 22.68 8.05C21.676 6.08036 20.1473 4.42639 18.2627 3.27057C16.3781 2.11475 14.2108 1.50203 12 1.5V1.5Z" stroke="#979797" stroke-width="2" stroke-linecap="round" stroke-linejoin="round"/>
<path d="M12 12.5C13.933 12.5 15.5 10.933 15.5 9C15.5 7.067 13.933 5.5 12 5.5C10.067 5.5 8.5 7.067 8.5 9C8.5 10.933 10.067 12.5 12 12.5Z" stroke="#979797" stroke-width="2" stroke-linecap="round" stroke-linejoin="round"/>
</g>
<defs>
<filter id="filter0_f_0_1" x="-1918.99" y="-761.099" width="1929.67" height="2047.58" filterUnits="userSpaceOnUse" color-interpolation-filters="sRGB">
<feFlood flood-opacity="0" result="BackgroundImageFix"/>
<feBlend mode="normal" in="SourceGraphic" in2="BackgroundImageFix" result="shape"/>
<feGaussianBlur stdDeviation="359.5" result="effect1_foregroundBlur_0_1"/>
</filter>
<filter id="filter1_f_0_1" x="-1021" y="-1161" width="1812" height="1944" filterUnits="userSpaceOnUse" color-interpolation-filters="sRGB">
<feFlood flood-opacity="0" result="BackgroundImageFix"/>
<feBlend mode="normal" in="SourceGraphic" in2="BackgroundImageFix" result="shape"/>
<feGaussianBlur stdDeviation="311" result="effect1_foregroundBlur_0_1"/>
</filter>
<clipPath id="clip0_0_1">
<rect width="1512" height="1169" fill="white" transform="translate(-1296 -467)"/>
</clipPath>
</defs>
</svg>
