<svg width="16" height="10" viewBox="0 0 16 10" fill="none" xmlns="http://www.w3.org/2000/svg">
<path fill-rule="evenodd" clip-rule="evenodd" d="M9.68677 4.99983C9.68677 5.97702 8.93143 6.76899 8.00001 6.76899C7.06832 6.76899 6.31299 5.97702 6.31299 4.99983C6.31299 4.02264 7.06832 3.23068 8.00001 3.23068C8.93143 3.23068 9.68677 4.02264 9.68677 4.99983ZM7.99975 8.34981C6.23575 8.34981 4.80578 6.8499 4.80578 4.99983C4.80578 3.14977 6.23572 1.64985 7.99975 1.64985C9.76401 1.64985 11.194 3.14977 11.194 4.99983C11.194 6.8499 9.7641 8.34981 7.99975 8.34981ZM8 0C3.58159 0 0 4.97553 0 4.97553C0 4.97553 3.58159 10 8 10C12.4184 10 16 4.97553 16 4.97553C16 4.97553 12.4184 0 8 0Z"/>
</svg>
