<svg width="30" height="30" viewBox="0 0 30 30" fill="none" xmlns="http://www.w3.org/2000/svg">
<g clip-path="url(#clip0_2059_9630)">
<path d="M27.4344 29.4577C28.3083 29.4577 29.0171 28.7298 29.0171 27.8319V1.62581C29.0171 0.72781 28.3083 0 27.4344 0H1.92258C1.04826 0 0.339844 0.72781 0.339844 1.62581V27.8319C0.339844 28.7298 1.04826 29.4577 1.92258 29.4577H27.4344Z" fill="#979797"/>
<path d="M20.1264 29.4578V18.0502H23.8541L24.4122 13.6045H20.1264V10.766C20.1264 9.47887 20.4745 8.6017 22.2714 8.6017L24.5632 8.60067V4.62447C24.1667 4.57027 22.8063 4.44922 21.2237 4.44922C17.9193 4.44922 15.6572 6.52103 15.6572 10.3259V13.6045H11.9199V18.0502H15.6572V29.4578H20.1264Z" fill="white"/>
</g>
<defs>
<clipPath id="clip0_2059_9630">
<rect width="28.6772" height="29.4576" fill="white" transform="translate(0.339844)"/>
</clipPath>
</defs>
</svg>
