<svg width="24" height="25" viewBox="0 0 24 25" fill="none" xmlns="http://www.w3.org/2000/svg">
<path d="M4.45067 14.3145L11.4033 20.8457C11.6428 21.0707 11.7625 21.1832 11.9037 21.2109C11.9673 21.2234 12.0327 21.2234 12.0963 21.2109C12.2375 21.1832 12.3572 21.0707 12.5967 20.8457L19.5493 14.3145C21.5055 12.4768 21.743 9.45285 20.0978 7.33232L19.7885 6.93359C17.8203 4.39683 13.8696 4.82226 12.4867 7.7199C12.2913 8.12921 11.7087 8.12921 11.5133 7.7199C10.1304 4.82226 6.17972 4.39683 4.21154 6.9336L3.90219 7.33232C2.25695 9.45285 2.4945 12.4768 4.45067 14.3145Z"  stroke-width="2"/>
</svg>
