<svg width="25" height="24" viewBox="0 0 25 24" fill="none" xmlns="http://www.w3.org/2000/svg">
<path d="M13.859 7V3H9.86719C7.98157 3 7.03876 3 6.45297 3.58579C5.86719 4.17157 5.86719 5.11438 5.86719 7V17C5.86719 18.8856 5.86719 19.8284 6.45297 20.4142C7.03876 21 7.98157 21 9.86718 21H15.8528C17.7384 21 18.6812 21 19.267 20.4142C19.8528 19.8284 19.8528 18.8856 19.8528 17V9H15.8569C14.9151 9 14.4441 9 14.1516 8.70711C13.859 8.41421 13.859 7.94281 13.859 7Z" fill="white" fill-opacity="0.25"/>
<path d="M14.0304 3H9.86308C7.9794 3 7.03756 3 6.45237 3.58579C5.86719 4.17157 5.86719 5.11438 5.86719 7V17C5.86719 18.8856 5.86719 19.8284 6.45237 20.4142C7.03756 21 7.9794 21 9.86308 21H15.8569C17.7406 21 18.6824 21 19.2676 20.4142C19.8528 19.8284 19.8528 18.8856 19.8528 17V8.82843C19.8528 8.41968 19.8528 8.2153 19.7768 8.03153C19.7007 7.84776 19.5563 7.70324 19.2676 7.41421L15.4431 3.58579C15.1544 3.29676 15.01 3.15224 14.8264 3.07612C14.6429 3 14.4387 3 14.0304 3Z" stroke="#E11045" stroke-width="1.2"/>
<path d="M9.86328 13L15.8571 13" stroke="#E11045" stroke-width="1.2" stroke-linecap="round"/>
<path d="M9.86328 17L13.8592 17" stroke="#E11045" stroke-width="1.2" stroke-linecap="round"/>
<path d="M13.8594 3V7C13.8594 7.94281 13.8594 8.41421 14.152 8.70711C14.4446 9 14.9155 9 15.8573 9H19.8532" stroke="#E11045" stroke-width="1.2"/>
</svg>
