<svg width="23" height="23" viewBox="0 0 23 23" fill="none" xmlns="http://www.w3.org/2000/svg">
<path fill-rule="evenodd" clip-rule="evenodd" d="M22.54 11.7615C22.54 10.946 22.4668 10.1619 22.3309 9.40918H11.5V13.8576H17.6891C17.4225 15.2951 16.6123 16.513 15.3943 17.3285V20.214H19.1109C21.2855 18.2119 22.54 15.2637 22.54 11.7615Z" fill="#4285F4"/>
<path fill-rule="evenodd" clip-rule="evenodd" d="M11.4995 22.9996C14.6045 22.9996 17.2077 21.9698 19.1104 20.2134L15.3938 17.328C14.364 18.018 13.0467 18.4257 11.4995 18.4257C8.50425 18.4257 5.96902 16.4028 5.0647 13.6846H1.22266V16.6641C3.11493 20.4225 7.00402 22.9996 11.4995 22.9996Z" fill="#22621A"/>
<path fill-rule="evenodd" clip-rule="evenodd" d="M5.06523 13.6855C4.83523 12.9955 4.70455 12.2584 4.70455 11.5005C4.70455 10.7425 4.83523 10.0055 5.06523 9.31548V6.33594H1.22318C0.444318 7.88844 0 9.6448 0 11.5005C0 13.3562 0.444318 15.1125 1.22318 16.665L5.06523 13.6855Z" fill="#FBBC05"/>
<path fill-rule="evenodd" clip-rule="evenodd" d="M11.4995 4.57386C13.1879 4.57386 14.7038 5.15409 15.8956 6.29364L19.194 2.99523C17.2024 1.13955 14.5992 0 11.4995 0C7.00402 0 3.11493 2.57705 1.22266 6.33545L5.0647 9.315C5.96902 6.59682 8.50425 4.57386 11.4995 4.57386Z" fill="#EA4335"/>
</svg>
