<svg width="30" height="30" viewBox="0 0 30 30" fill="none" xmlns="http://www.w3.org/2000/svg">
<path d="M15 0C6.72867 0 0 6.72867 0 15C0 23.2713 6.72867 30 15 30C23.2713 30 30 23.2713 30 15C30 6.72867 23.2713 0 15 0Z" fill="#22621A"/>
<path d="M22.6028 11.8216L14.4778 19.9464C14.234 20.1902 13.914 20.3129 13.5941 20.3129C13.2741 20.3129 12.9541 20.1902 12.7103 19.9464L8.64792 15.884C8.15903 15.3954 8.15903 14.6053 8.64792 14.1166C9.13658 13.6277 9.92645 13.6277 10.4153 14.1166L13.5941 17.2953L20.8354 10.0542C21.3241 9.56528 22.114 9.56528 22.6028 10.0542C23.0915 10.5428 23.0915 11.3327 22.6028 11.8216Z" fill="#FAFAFA"/>
</svg>
