<svg width="92" height="85" viewBox="0 0 92 85" fill="none" xmlns="http://www.w3.org/2000/svg">
<path d="M79.6019 67.6116C78.9958 69.5533 78.4064 71.4346 77.8194 73.316C77.2373 75.1828 76.6814 77.0569 76.0681 78.9117C74.9589 82.2711 72.6733 84.2756 69.1851 84.8479C69.1156 84.86 69.0605 84.947 68.9982 85.0001H66.4826C62.326 84.2707 58.3155 82.9521 54.245 81.8774C47.8795 80.1941 41.5283 78.4528 35.1723 76.7357C25.6659 74.1661 16.1595 71.6037 6.65306 69.0317C3.7374 68.2419 1.59798 66.5031 0.424051 63.6436C0.167704 63.0181 0.112601 62.3637 0.0934351 61.6995C0.0910393 61.6778 0.0886435 61.6609 0.0886435 61.6391V61.6367C0.0862478 61.6174 0.083852 61.5981 0.083852 61.5788C0.0790604 61.2938 0.165308 60.9991 0 60.7286V59.823C0.198849 59.5573 0.0191662 59.2265 0.12458 58.9463C0.134163 58.9246 0.143746 58.9029 0.155725 58.8811C0.565402 56.6544 1.34882 54.534 1.9837 52.3749C4.41541 44.1275 6.87826 35.8897 9.33153 27.647C9.35549 27.5673 9.38423 27.4901 9.42496 27.3766C9.67173 27.6833 9.56152 28.0093 9.56152 28.3015C9.56871 36.4524 9.52319 44.6008 9.58308 52.7493C9.62381 58.0914 11.8183 62.3612 16.2841 65.3318C18.7206 66.9499 21.4445 67.6213 24.3578 67.6164C35.915 67.6043 47.4722 67.6116 59.0294 67.6116H79.6019ZM34.535 11.6038C30.2801 11.5844 26.7895 15.0863 26.8207 19.344C26.8542 23.5825 30.3113 27.0409 34.5111 27.036C38.7085 27.0312 42.1632 23.5559 42.1751 19.3247C42.1871 15.0911 38.754 11.6207 34.535 11.6038ZM92 10.005C91.9952 23.9496 92.0048 37.8942 91.9952 51.8388C91.9904 57.6301 87.8337 61.8106 82.0815 61.813C63.1262 61.8203 44.1732 61.8203 25.2203 61.813C19.5279 61.8106 15.3377 57.6422 15.3281 51.8943C15.2994 37.9207 15.3042 23.9447 15.3257 9.96875C15.3353 4.15085 19.4704 0.0186687 25.2538 0.00900845C34.7435 -0.00789702 44.2355 0.00417832 53.7276 0.00417832C63.1597 0.00417832 72.5919 -0.00306689 82.024 0.00900845C86.8802 0.0138386 90.5841 2.85396 91.7221 7.40395C91.9353 8.25647 92 9.12589 92 10.005ZM84.3168 10.273C84.3144 8.29994 83.713 7.70342 81.7221 7.70342H25.594C23.6415 7.70342 22.9994 8.34341 22.9994 10.2827V46.1392C26.5835 42.5239 29.9974 39.0534 33.4426 35.6119C36.3055 32.7501 40.3232 32.7525 43.2173 35.5926C44.5254 36.8774 45.8383 38.1574 47.0841 39.5026C47.6112 40.0774 47.8459 40.0194 48.3203 39.4422C52.7597 34.0228 57.2254 28.6276 61.6935 23.2323C64.7577 19.5348 69.4031 19.5228 72.5272 23.1961C76.1496 27.4563 79.7696 31.7189 83.392 35.979C83.6459 36.2785 83.9143 36.5707 84.3168 37.0223V10.273V10.273ZM34.535 11.6038C30.2801 11.5844 26.7895 15.0863 26.8207 19.344C26.8542 23.5825 30.3113 27.0409 34.5111 27.036C38.7085 27.0312 42.1632 23.5559 42.1751 19.3247C42.1871 15.0911 38.754 11.6207 34.535 11.6038Z" fill="#979797"/>
</svg>
