<svg width="20" height="24" viewBox="0 0 20 24" fill="none" xmlns="http://www.w3.org/2000/svg">
<path d="M17 11H3C1.89543 11 1 11.8954 1 13V21C1 22.1046 1.89543 23 3 23H17C18.1046 23 19 22.1046 19 21V13C19 11.8954 18.1046 11 17 11Z" stroke="#343A40" stroke-width="1.5" stroke-linecap="round" stroke-linejoin="round"/>
<path d="M10 19C11.1046 19 12 18.1046 12 17C12 15.8954 11.1046 15 10 15C8.89543 15 8 15.8954 8 17C8 18.1046 8.89543 19 10 19Z" stroke="#343A40" stroke-width="2" stroke-linecap="round" stroke-linejoin="round"/>
<path d="M15 7.00025V6.00025C15.0131 4.68748 14.5042 3.42328 13.5853 2.48564C12.6664 1.548 11.4128 1.0137 10.1 1.00025H10C8.68724 0.987183 7.42303 1.49605 6.48539 2.41493C5.54776 3.33382 5.01346 4.58749 5 5.90025V7.00025" stroke="#343A40" stroke-width="1.5" stroke-linecap="round" stroke-linejoin="round"/>
</svg>
