<svg width="14" height="14" viewBox="0 0 14 14" fill="none" xmlns="http://www.w3.org/2000/svg">
<path d="M7.43501 0.205078C5.12242 0.205078 2.73047 1.97215 2.73047 4.92906C2.73047 8.0269 7.10426 12.4363 7.2904 12.6224C7.32865 12.6609 7.38081 12.6824 7.43501 12.6824C7.48922 12.6824 7.54138 12.6609 7.57963 12.6224C7.76576 12.4363 12.1396 8.0269 12.1396 4.92906C12.1396 1.97215 9.7476 0.205078 7.43501 0.205078ZM7.43501 6.54599C6.53133 6.54599 5.79865 5.81331 5.79865 4.90962C5.79865 4.00594 6.53133 3.27326 7.43501 3.27326C8.3387 3.27326 9.07138 4.00594 9.07138 4.90962C9.07138 5.81331 8.3387 6.54599 7.43501 6.54599Z" />
</svg>
