<svg width="1541" height="940" viewBox="0 0 1541 940" fill="none" xmlns="http://www.w3.org/2000/svg">
<path fill-rule="evenodd" clip-rule="evenodd" d="M0 938.758L21.6849 788.245C27.1144 762.853 61.4873 759.216 79.58 782.806L135.662 873.474L188.128 782.806C202.604 766.481 229.743 759.216 247.836 788.245L271.35 938.758H222.501L209.838 837.212L162.802 918.804C151.976 935.129 121.187 936.948 106.711 918.804L59.6747 835.385L47.0114 938.758H0ZM334.674 938.758V811.819H293.068V938.758H334.674ZM524.64 844.461V826.334C524.64 815.456 517.406 810.009 504.734 810.009H399.811C379.906 810.009 360.001 828.136 360.001 840.833V911.563C360.001 920.639 374.477 938.766 394.374 938.766H504.734C517.398 940.593 526.444 931.517 526.444 918.812V904.314H416.116C405.233 906.124 399.811 897.065 399.811 886.187V864.423C399.811 855.347 407.045 844.47 416.116 844.47H524.64V844.461ZM631.383 873.474V906.116H658.523C665.756 906.116 671.194 909.745 672.998 918.804V938.758H710.988V907.934C710.988 891.609 694.708 887.981 694.708 887.981C694.708 887.981 710.988 880.732 712.801 868.027V837.204C710.988 822.689 698.358 811.811 687.474 810.001H631.383V842.643H665.756C669.373 842.643 674.803 848.082 674.803 853.521V864.398C674.803 869.837 671.186 873.458 663.944 873.458H631.383V873.474ZM631.383 842.651V810.009H548.162V938.758H586.152L587.964 906.116H631.383V873.474H586.152L587.964 842.651H631.383ZM823.153 904.306V938.758H873.806C890.095 938.758 910 926.07 910 907.934V842.651C910 826.326 891.899 808.183 870.189 808.183H823.153V842.651H852.105C861.151 842.651 866.572 849.9 866.572 857.149V893.428C866.572 902.504 861.151 904.306 853.909 904.306H823.153Z" fill="black"/>
<path fill-rule="evenodd" clip-rule="evenodd" d="M822.653 842.581V808H771.994C753.924 808 734 822.562 734 838.932V908.076C734 924.438 748.469 939 768.377 939H822.653V904.436H790.081C782.854 904.436 777.416 902.62 777.416 893.523V857.126C777.416 848.037 786.48 842.581 795.519 842.581H822.653ZM1237.01 891.707H1159.2V889.874V939H1117.58V809.833H1159.2V855.31H1237.01V809.833H1280.44V939H1237.01V889.874V891.707ZM1455.96 875.328V906.252H1512.04C1524.71 906.252 1541 889.874 1541 875.328V844.397C1541 828.019 1526.51 811.649 1508.43 811.649H1455.96V842.581H1492.15C1497.57 842.581 1501.19 848.037 1501.19 853.494V864.407C1501.19 869.864 1497.58 875.32 1490.35 875.32H1455.96V875.328Z" fill="black"/>
<path fill-rule="evenodd" clip-rule="evenodd" d="M1457 842.847V812H1373V939H1413.16V906.342H1457V875.504H1413.16L1411.34 842.847H1457Z" fill="black"/>
<path fill-rule="evenodd" clip-rule="evenodd" d="M734.083 542.375C734.083 542.375 763.023 592.995 795.587 542.375L858.903 450.174L672.579 151.844C672.579 151.844 643.631 112.101 609.263 151.844L544.143 242.272L734.083 542.375ZM759.406 687C857.082 687 945.722 650.85 1010.85 592.995L788.346 244.077L857.082 150.064C886.047 112.101 916.79 150.064 916.79 150.064L1106.73 450.166C1115.78 424.852 1121.2 395.929 1123 368.81L907.737 28.9234C862.528 10.8442 811.873 0 759.406 0C570.348 0 394 145.235 394 343.496C394 374.232 399.429 404.96 406.662 432.079L513.391 285.657L587.556 399.554C605.647 426.673 587.556 450.174 587.556 450.174L493.497 580.346C564.655 651.468 660.132 687 759.406 687Z" fill="#CC2229"/>
<path fill-rule="evenodd" clip-rule="evenodd" d="M1094 845.034V827.127C1094 816.381 1086.74 811 1074.09 811H968.896C948.948 811 929 827.127 929 841.45V911.322C930.825 922.068 943.515 938.195 963.463 938.195L1074.09 940C1086.74 940 1095.81 931.034 1095.81 918.484V905.95H985.211C974.329 905.95 968.888 898.788 968.888 888.042V864.754C968.888 855.788 976.145 845.042 985.211 845.042H1094V845.034ZM1346 938.187V812.788H1304.3V938.187H1346Z" fill="black"/>
</svg>
