<svg width="15" height="16" viewBox="0 0 15 16" fill="none" xmlns="http://www.w3.org/2000/svg">
<g clip-path="url(#clip0_2355_11652)">
<path d="M9.76628 7.5546L0.902048 0.911621C0.735843 0.785405 0.509806 0.765476 0.322549 0.859584C0.134184 0.953693 0.015625 1.14523 0.015625 1.35449V14.6404C0.015625 14.8497 0.134184 15.0412 0.321441 15.1353C0.400111 15.1741 0.485429 15.194 0.569639 15.194C0.68709 15.194 0.804541 15.1564 0.902048 15.0833L9.76628 8.44033C9.90589 8.33626 9.98788 8.17129 9.98788 7.99746C9.98788 7.82364 9.90589 7.65867 9.76628 7.5546Z" fill="black"/>
<path d="M13.8652 0.800781H12.7571C12.4513 0.800781 12.2031 1.04879 12.2031 1.35436V14.6403C12.2031 14.9459 12.4513 15.1939 12.7571 15.1939H13.8652C14.171 15.1939 14.4192 14.9459 14.4192 14.6403V1.35436C14.4192 1.04879 14.171 0.800781 13.8652 0.800781Z" fill="black"/>
</g>
<defs>
<clipPath id="clip0_2355_11652">
<rect width="14.4045" height="14.3933" fill="white" transform="translate(0.0136719 0.800781)"/>
</clipPath>
</defs>
</svg>
