<svg width="24" height="25" viewBox="0 0 24 25" fill="none" xmlns="http://www.w3.org/2000/svg">
<path d="M21.9499 1.6543H3.04994C2.7715 1.6543 2.50431 1.76486 2.30744 1.96174C2.11056 2.15861 2 2.42578 2 2.70424V17.4044C2 17.6828 2.11056 17.9498 2.30744 18.1467C2.50431 18.3438 2.77148 18.4543 3.04994 18.4543H8.01659L15.1248 22.5179C15.2849 22.6086 15.466 22.6557 15.6498 22.6543C15.8337 22.6557 16.0148 22.6086 16.1749 22.5179C16.335 22.4254 16.4681 22.2922 16.5602 22.1317C16.6523 21.9714 16.7007 21.7894 16.6998 21.6043V18.4543H21.9499C22.2284 18.4543 22.4956 18.3438 22.6924 18.1467C22.8893 17.9498 22.9999 17.6828 22.9999 17.4044V2.70424C22.9999 2.4258 22.8893 2.15861 22.6924 1.96174C22.4956 1.76486 22.2284 1.6543 21.9499 1.6543H21.9499ZM20.9 16.354H15.6498C15.3714 16.354 15.1042 16.4647 14.9073 16.6616C14.7105 16.8585 14.5999 17.1255 14.5999 17.4041V19.7981L8.82461 16.4906C8.66307 16.4036 8.48307 16.3568 8.29973 16.354H4.09961V3.75398H20.8999L20.9 16.354ZM9.20315 7.8283C9.20315 7.02622 9.52166 6.25717 10.0887 5.6899C10.656 5.12281 11.425 4.8043 12.2271 4.8043H12.7731C13.5752 4.8043 14.3443 5.12281 14.9115 5.6899C15.4786 6.25712 15.7971 7.02617 15.7971 7.8283V8.02781C15.7966 8.66784 15.593 9.29132 15.2156 9.80828C14.8384 10.3252 14.3067 10.7092 13.6972 10.9048C13.5136 10.9647 13.3536 11.0815 13.2404 11.2379C13.1272 11.3945 13.0666 11.583 13.0673 11.7763V12.1542C13.0673 12.5294 12.867 12.876 12.5422 13.0636C12.2174 13.2511 11.8171 13.2511 11.4923 13.0636C11.1672 12.876 10.9672 12.5294 10.9672 12.1542V11.7763C10.9683 11.1375 11.1723 10.5158 11.5497 10.0006C11.9271 9.48537 12.4585 9.10337 13.0673 8.90969C13.2517 8.84781 13.412 8.72916 13.5252 8.57078C13.6382 8.4124 13.6985 8.22238 13.6973 8.02781V7.8283C13.7001 7.58238 13.6036 7.34559 13.4297 7.17175C13.2559 6.9979 13.0191 6.9014 12.7732 6.90421H12.2272C11.9813 6.9014 11.7445 6.9979 11.5707 7.17175C11.3968 7.3456 11.3003 7.58238 11.3031 7.8283C11.3031 8.20342 11.1031 8.55006 10.7782 8.73762C10.4534 8.92518 10.0531 8.92518 9.72811 8.73762C9.40327 8.55006 9.20323 8.20342 9.20323 7.8283L9.20315 7.8283ZM13.0252 15.3041C13.0252 15.5826 12.9144 15.8498 12.7176 16.0466C12.5207 16.2435 12.2537 16.3541 11.9751 16.3541C11.6966 16.3541 11.4296 16.2435 11.2327 16.0466C11.0357 15.8498 10.9251 15.5826 10.9251 15.3041C10.9251 15.0257 11.0357 14.7585 11.2327 14.5616C11.4296 14.3648 11.6966 14.2542 11.9751 14.2542C12.2537 14.2542 12.5207 14.3648 12.7176 14.5616C12.9144 14.7585 13.0252 15.0257 13.0252 15.3041Z" />
</svg>
