<svg width="1338" height="484" viewBox="0 0 1338 484" fill="none" xmlns="http://www.w3.org/2000/svg">
<g clip-path="url(#clip0_2355_19053)">
<path d="M802.556 0H775.406L675.302 160.782L575.199 0H547.977L548.049 483.641H575.199L675.302 322.93L775.406 483.641H802.772L802.556 483.209V0Z" fill="#7BB1DB"/>
<path d="M547.976 0H399.621L547.832 241.82L399.621 483.641H548.048L547.976 0Z" fill="#958437"/>
<path d="M951.053 0H802.555V483.209L802.771 483.641H950.981L802.771 241.82L951.053 0Z" fill="#739833"/>
<path d="M1162.5 -9.0301e-05H950.91L802.699 241.964L950.91 483.712V376.716H1201.38C1306.53 376.716 1338.22 294.024 1338.22 221.974V165.24C1338.22 70.6116 1304.08 -0.144043 1163 -0.144043L1162.5 -9.0301e-05ZM1199.3 195.081C1199.3 223.844 1185.83 256.705 1151.04 256.705H951.126V119.724H1138.37C1183.24 119.724 1199.01 138.347 1199.01 171.065L1199.3 195.081Z" fill="#C9D200"/>
<path d="M547.832 241.82L399.621 0H399.549V292.226L148.427 0H0V483.641H148.571L148.499 191.414L399.621 483.641L547.832 241.82Z" fill="#FFB500"/>
</g>
<defs>
<clipPath id="clip0_2355_19053">
<rect width="1338" height="484" fill="white"/>
</clipPath>
</defs>
</svg>
