<svg width="13" height="16" viewBox="0 0 13 16" fill="none" xmlns="http://www.w3.org/2000/svg">
<g clip-path="url(#clip0_2355_11648)">
<path d="M4.53532 13.1893C4.53532 14.2964 3.78671 15.194 2.86336 15.194C1.94002 15.194 1.19141 14.2964 1.19141 13.1893V2.80556C1.19141 1.69841 1.94002 0.800781 2.86336 0.800781C3.78671 0.800781 4.53532 1.69841 4.53532 2.80556V13.1893Z" fill="black"/>
<path d="M10.8088 13.1893C10.8088 14.2964 10.0601 15.194 9.1368 15.194C8.21346 15.194 7.46484 14.2964 7.46484 13.1893V2.80556C7.4651 1.69841 8.21371 0.800781 9.1368 0.800781C10.0601 0.800781 10.8088 1.69841 10.8088 2.80556V13.1893Z" fill="black"/>
</g>
<defs>
<clipPath id="clip0_2355_11648">
<rect width="12.0038" height="14.3933" fill="white" transform="translate(0 0.800781)"/>
</clipPath>
</defs>
</svg>
