<svg width="34" height="33" viewBox="0 0 34 33" fill="none" xmlns="http://www.w3.org/2000/svg">
<path d="M4.52511 0.51235C4.15595 1.00623 3.96954 1.63938 4.00409 2.28206V30.1411C3.96944 30.7838 4.15586 31.417 4.52511 31.9108L4.60842 32.0016L18.5559 16.3957V16.0275L4.60842 0.420898L4.52511 0.51235Z" fill="#979797"/>
<path d="M4.52511 0.51235C4.15595 1.00623 3.96954 1.63938 4.00409 2.28206V30.1411C3.96944 30.7838 4.15586 31.417 4.52511 31.9108L4.60842 32.0016L18.5559 16.3957V16.0275L4.60842 0.420898L4.52511 0.51235Z" stroke="#979797"/>
<path d="M23.2075 21.5996L18.5586 16.3954V16.0272L23.2086 10.8242L23.3134 10.8911L28.8217 14.3931C30.3951 15.3933 30.3951 17.0299 28.8217 18.0307L23.3134 21.5327L23.2075 21.5996Z" fill="#979797"/>
<path d="M23.2075 21.5996L18.5586 16.3954V16.0272L23.2086 10.8242L23.3134 10.8911L28.8217 14.3931C30.3951 15.3933 30.3951 17.0299 28.8217 18.0307L23.3134 21.5327L23.2075 21.5996Z" stroke="#979797"/>
<path d="M23.309 21.5317L18.5542 16.2109L4.52344 31.9101C4.84403 32.2265 5.25343 32.4074 5.68071 32.4215C6.10799 32.4357 6.52623 32.2821 6.86295 31.9875L23.309 21.5317Z" fill="#979797"/>
<path d="M23.309 21.5317L18.5542 16.2109L4.52344 31.9101C4.84403 32.2265 5.25343 32.4074 5.68071 32.4215C6.10799 32.4357 6.52623 32.2821 6.86295 31.9875L23.309 21.5317Z" stroke="#979797"/>
<path d="M23.309 10.8908L6.86295 0.434977C6.52623 0.140331 6.10799 -0.0132313 5.68071 0.000894447C5.25343 0.0150202 4.84403 0.195944 4.52344 0.51232L18.5542 16.2116L23.309 10.8908Z" fill="#979797"/>
<path d="M23.309 10.8908L6.86295 0.434977C6.52623 0.140331 6.10799 -0.0132313 5.68071 0.000894447C5.25343 0.0150202 4.84403 0.195944 4.52344 0.51232L18.5542 16.2116L23.309 10.8908Z" stroke="#979797"/>
<g opacity="0.25" filter="url(#filter0_d_2059_9622)">
<path d="M6.86444 0.619786L28.8188 14.577C29.1156 14.7279 29.3769 14.9543 29.5817 15.2381C29.7866 15.5219 29.9295 15.8553 29.999 16.2118C29.9657 15.8182 29.8387 15.4418 29.6311 15.1218C29.4235 14.8019 29.143 14.5502 28.8188 14.3929L6.86444 0.435747C5.29103 -0.564558 4.00391 0.266321 4.00391 2.2828V2.46684C4.00391 0.450485 5.29103 -0.380394 6.86444 0.619786Z" fill="#979797"/>
</g>
<defs>
<filter id="filter0_d_2059_9622" x="0.00390625" y="0.0117188" width="33.9941" height="24.2002" filterUnits="userSpaceOnUse" color-interpolation-filters="sRGB">
<feFlood flood-opacity="0" result="BackgroundImageFix"/>
<feColorMatrix in="SourceAlpha" type="matrix" values="0 0 0 0 0 0 0 0 0 0 0 0 0 0 0 0 0 0 127 0" result="hardAlpha"/>
<feOffset dy="4"/>
<feGaussianBlur stdDeviation="2"/>
<feColorMatrix type="matrix" values="0 0 0 0 0 0 0 0 0 0 0 0 0 0 0 0 0 0 0.25 0"/>
<feBlend mode="normal" in2="BackgroundImageFix" result="effect1_dropShadow_2059_9622"/>
<feBlend mode="normal" in="SourceGraphic" in2="effect1_dropShadow_2059_9622" result="shape"/>
</filter>
</defs>
</svg>
