<svg width="24" height="22" viewBox="0 0 24 22" fill="none" xmlns="http://www.w3.org/2000/svg">
<path d="M23.9619 12.5676C23.8769 12.6112 23.8459 12.699 23.8002 12.7691C23.5571 13.1406 23.2911 13.4937 23.0035 13.8278C21.8869 15.1236 20.5431 16.1135 19.1061 16.9696C18.3469 17.4222 17.5695 17.3847 16.8121 16.9315C16.6024 16.8056 16.3956 16.6742 16.1911 16.5397C14.654 15.5264 13.2428 14.3645 12.2053 12.7721C12.0993 12.61 11.9862 12.5627 11.8064 12.5633C7.87091 12.5682 3.93545 12.567 0 12.567V20.6733C0.345626 21.6418 0.779124 21.9992 1.61917 21.9992C8.53756 22.0004 15.4559 22.0004 22.3743 21.9992C23.3667 21.9992 23.9935 21.3384 23.9941 20.295C23.9953 17.7901 23.9953 15.2851 23.9929 12.7801C23.9929 12.7132 24.0222 12.6376 23.9619 12.5676ZM3.82005 15.7119C4.77257 15.7094 5.72509 15.7094 6.67762 15.7119C7.15798 15.7131 7.49365 16.0361 7.49716 16.4906C7.50068 16.9555 7.16208 17.2803 6.6659 17.2828C6.18964 17.2852 5.71338 17.2834 5.23712 17.2834C4.76847 17.2834 4.30041 17.2852 3.83177 17.2828C3.33559 17.2803 2.99699 16.9555 3.00051 16.4906C3.00402 16.0361 3.3391 15.7131 3.82005 15.7119ZM10.8134 9.42275H0V6.03285C0.137665 5.54033 0.363786 5.11966 0.825988 4.88016C1.04742 4.76532 1.28057 4.70759 1.52427 4.70759C4.45917 4.70575 7.39406 4.7082 10.3284 4.70206C10.4854 4.70206 10.5006 4.75979 10.5006 4.89797C10.4988 5.92845 10.4731 6.95954 10.5879 7.98696C10.64 8.45798 10.7162 8.92471 10.8134 9.42275ZM23.9964 3.24784C23.9994 2.82103 23.8242 2.5367 23.4499 2.36966C21.7528 1.61123 20.0575 0.849729 18.3633 0.0857717C18.1196 -0.0241546 17.8876 -0.0309099 17.641 0.0808588C15.9398 0.848501 14.2375 1.61307 12.5333 2.37457C12.1678 2.53793 11.9932 2.81796 11.9962 3.23372C12.0008 3.85581 11.9973 4.47791 11.9973 5.10062C11.9967 6.17225 11.9827 7.24388 12.1338 8.30998C12.3769 10.0221 13.0196 11.5341 14.1373 12.8157C15.1279 13.9512 16.3224 14.8091 17.5801 15.5799C17.8724 15.7586 18.1548 15.7401 18.443 15.5627C19.3111 15.0265 20.1541 14.4523 20.9209 13.7633C21.8301 12.9465 22.5963 12.0094 23.123 10.8696C23.734 9.54742 23.9595 8.13741 23.9853 6.68626C24.0058 5.54033 23.9894 4.39378 23.9964 3.24784ZM20.8073 6.0089C20.4019 6.55853 19.9819 7.09711 19.5677 7.63998C19.0171 8.36157 18.4658 9.08315 17.9152 9.80412C17.4858 10.3666 16.9339 10.3464 16.5532 9.75069C16.0804 9.01068 15.6053 8.27252 15.1419 7.52637C14.835 7.03262 15.0511 6.44553 15.5772 6.30367C15.8789 6.22261 16.1853 6.34912 16.3856 6.65556C16.6504 7.06026 16.9046 7.4711 17.1647 7.87887C17.2069 7.9452 17.255 8.00784 17.3088 8.0846C18.0786 7.07438 18.839 6.08013 19.5958 5.0822C19.795 4.81997 20.0387 4.66399 20.365 4.72233C20.9479 4.82611 21.1822 5.50164 20.8073 6.0089Z" fill="#78818B"/>
</svg>
