<svg width="171" height="38" viewBox="0 0 171 38" fill="none" xmlns="http://www.w3.org/2000/svg">
<path d="M58.8735 14.3113C58.2619 12.9749 57.3784 11.9102 56.2458 11.1853C55.1132 10.4378 53.822 10.0527 52.3723 10.0527C51.1038 10.0527 49.9712 10.3472 48.9745 10.9135C48.1364 11.4119 47.4794 12.0688 47.0264 12.8842L46.7319 10.4831H41.8164L41.8391 10.6417C42.0203 12.0235 42.0882 13.6091 42.0882 15.3533V34.3811H47.2982V25.207C47.7739 25.8866 48.4082 26.4302 49.1783 26.838C50.1071 27.3137 51.1717 27.5628 52.3496 27.5628C53.7994 27.5628 55.1132 27.2004 56.2458 26.4982C57.3784 25.796 58.2619 24.7766 58.8735 23.4628C59.4851 22.149 59.8022 20.6086 59.8022 18.8871C59.8249 17.2108 59.5077 15.6478 58.8735 14.3113ZM54.6149 18.9097C54.6149 20.4274 54.2977 21.5827 53.6635 22.3755C53.0519 23.1457 52.1231 23.5308 50.9679 23.5308C49.8126 23.5308 48.8839 23.123 48.227 22.3528C47.5927 21.56 47.2756 20.3821 47.2756 18.8418C47.2756 17.3014 47.5927 16.1235 48.227 15.3307C48.8612 14.5152 49.79 14.1075 50.9679 14.1075C52.1231 14.1075 53.0066 14.5152 53.6408 15.3533C54.2977 16.2141 54.6149 17.4147 54.6149 18.9097Z" fill="black"/>
<path d="M76.7908 21.7631L76.6323 21.8764C75.998 22.3974 75.2731 22.8051 74.5256 23.0996C73.7554 23.3714 73.0079 23.5073 72.283 23.5073C70.9466 23.5073 69.9272 23.1222 69.225 22.3521C68.5228 21.5592 68.1604 20.3587 68.1604 18.8183C68.1604 17.3006 68.5228 16.1227 69.225 15.3525C69.9499 14.5597 70.9919 14.152 72.283 14.152C73.0079 14.152 73.7554 14.3105 74.5256 14.605C75.2958 14.8769 75.998 15.2846 76.6323 15.7829L76.7908 15.8962L78.1726 12.2945L78.1953 12.2039L78.1273 12.1359C77.4477 11.5017 76.519 10.9807 75.3637 10.5956C74.2311 10.2332 73.0306 10.0293 71.83 10.0293C70.0405 10.0293 68.4548 10.4144 67.0957 11.1619C65.7592 11.8868 64.6946 12.9514 63.9471 14.2879C63.1995 15.6017 62.8145 17.1647 62.8145 18.8863C62.8145 21.5366 63.6073 23.6885 65.1476 25.2289C66.7106 26.7692 68.8852 27.562 71.6035 27.562C72.872 27.562 74.1179 27.3808 75.2731 27.041C76.451 26.656 77.4024 26.1576 78.1273 25.5007L78.1953 25.4327L76.7908 21.7631Z" fill="black"/>
<path d="M97.9708 14.2198C97.3592 12.906 96.4757 11.864 95.3431 11.1618C94.2105 10.4369 92.8967 10.0518 91.447 10.0518C90.2917 10.0518 89.2271 10.301 88.2757 10.822C87.4828 11.2298 86.8712 11.7734 86.3955 12.453V2.98438H81.1855V27.3128H86.3729V25.1835C86.8486 25.863 87.4828 26.4293 88.253 26.8597C89.2044 27.3354 90.2691 27.5846 91.447 27.5846C92.8741 27.5846 94.1879 27.2222 95.3205 26.4746C96.4531 25.7271 97.3365 24.6625 97.9481 23.3486C98.5824 22.0122 98.8995 20.4492 98.8995 18.7503C98.8995 17.0287 98.5824 15.511 97.9708 14.2198ZM93.6895 18.7503C93.6895 20.2906 93.3724 21.5138 92.7381 22.3293C92.1265 23.1448 91.1978 23.5525 90.0425 23.5525C88.8646 23.5525 87.9585 23.1448 87.3016 22.3746C86.6674 21.5591 86.3502 20.3586 86.3502 18.8409C86.3502 17.3232 86.6674 16.1679 87.3016 15.3751C87.9585 14.5596 88.8646 14.1519 90.0425 14.1519C91.2204 14.1519 92.1265 14.5596 92.7381 15.3298C93.3724 16.1 93.6895 17.2552 93.6895 18.7503Z" fill="black"/>
<path d="M118.924 14.1075C118.313 12.7936 117.429 11.7969 116.319 11.1174C115.209 10.4152 113.918 10.0527 112.446 10.0527C111.087 10.0527 109.841 10.3925 108.776 11.0494C108.074 11.4798 107.53 12.0008 107.145 12.6124L106.873 10.3699H101.867L101.89 10.5284C101.98 11.2533 102.048 12.0008 102.094 12.703C102.139 13.4279 102.162 14.1301 102.162 14.8097V34.2452H107.372V25.275C107.757 25.7733 108.232 26.2264 108.821 26.5888C109.886 27.223 111.109 27.5628 112.446 27.5628C113.895 27.5628 115.209 27.2004 116.319 26.4982C117.429 25.796 118.29 24.7766 118.924 23.4628C119.559 22.1716 119.876 20.586 119.876 18.7738C119.876 16.9843 119.559 15.4213 118.924 14.1075ZM114.643 18.7738C114.643 20.4048 114.303 21.628 113.624 22.3981C112.967 23.1683 112.061 23.5534 110.951 23.5534C109.863 23.5534 108.957 23.1683 108.278 22.3981C107.598 21.628 107.258 20.4048 107.258 18.7738C107.258 17.1429 107.598 15.9196 108.278 15.1721C108.957 14.4246 109.863 14.0395 110.951 14.0395C112.061 14.0395 112.967 14.4246 113.624 15.1721C114.303 15.9423 114.643 17.1429 114.643 18.7738Z" fill="#E11045"/>
<path d="M128.075 3.25586H122.865V27.5843H128.075V3.25586Z" fill="#3DB2FF"/>
<path d="M144.001 10.3699L143.729 12.6124C143.344 12.0008 142.778 11.4572 142.075 11.0494C141.011 10.3925 139.787 10.0527 138.451 10.0527C137.001 10.0527 135.687 10.4152 134.6 11.1174C133.49 11.7969 132.607 12.8163 131.995 14.1075C131.384 15.3986 131.066 16.9843 131.066 18.7738C131.066 20.586 131.384 22.1716 131.995 23.4628C132.607 24.7766 133.49 25.796 134.6 26.4982C135.71 27.2004 137.001 27.5628 138.474 27.5628C139.81 27.5628 141.011 27.2457 142.075 26.5888C142.687 26.2264 143.185 25.7733 143.57 25.2523L143.593 27.2004H148.758V14.8097C148.758 14.1301 148.78 13.4279 148.826 12.703C148.894 11.9555 148.962 11.2306 149.03 10.5058L149.052 10.3472H144.001V10.3699ZM143.593 18.7738C143.593 20.4048 143.253 21.628 142.574 22.3981C141.917 23.1683 141.011 23.5534 139.923 23.5534C138.813 23.5534 137.907 23.1683 137.25 22.3981C136.594 21.628 136.276 20.4048 136.276 18.7738C136.276 17.1429 136.616 15.9196 137.296 15.1721C137.953 14.4246 138.859 14.0395 139.946 14.0395C141.033 14.0395 141.917 14.4246 142.596 15.1721C143.253 15.9423 143.593 17.1429 143.593 18.7738Z" fill="#3DB320"/>
<path d="M165.813 10.0519L161.622 20.5399L157.477 10.0519H151.973L158.882 26.135L158.564 26.9051C158.293 27.562 157.93 28.083 157.477 28.4908C157.024 28.9212 156.458 29.261 155.756 29.5101C155.076 29.7593 154.215 29.9858 153.196 30.1897L153.037 30.2123L154.261 34.335L154.374 34.3124C155.393 34.1538 156.345 33.9499 157.205 33.6781C158.089 33.4063 158.904 33.0439 159.629 32.5455C160.354 32.0698 161.033 31.3903 161.645 30.5521C162.279 29.7367 162.868 28.6947 163.435 27.4488L170.91 10.2332L171 10.0293H165.813V10.0519Z" fill="#6772E5"/>
<path d="M0 18.6818V3.45959C0 0.741338 2.85417 -0.912268 5.05143 0.537468L16.3095 7.94472L28.1793 15.7597C30.2406 17.1188 30.2406 20.2675 28.1793 21.6266L16.3095 29.4189L5.05143 36.8262C2.85417 38.2759 0 36.6223 0 33.9041V18.6818Z" fill="#E11045"/>
</svg>
