<svg width="168" height="37" viewBox="0 0 168 37" fill="none" xmlns="http://www.w3.org/2000/svg">
<path d="M57.7568 14.0382C57.1568 12.7271 56.2901 11.6826 55.179 10.9715C54.0679 10.2381 52.8012 9.86035 51.379 9.86035C50.1346 9.86035 49.0234 10.1492 48.0457 10.7048C47.2234 11.1937 46.579 11.8382 46.1345 12.6382L45.8457 10.2826H41.0234L41.0457 10.4381C41.2234 11.7937 41.2901 13.3493 41.2901 15.0605V33.7277H46.4012V24.7274C46.8679 25.3941 47.4901 25.9275 48.2457 26.3275C49.1568 26.7942 50.2012 27.0386 51.3568 27.0386C52.779 27.0386 54.0679 26.683 55.179 25.9941C56.2901 25.3052 57.1568 24.3052 57.7568 23.0163C58.3568 21.7273 58.6679 20.2162 58.6679 18.5273C58.6901 16.8828 58.379 15.3494 57.7568 14.0382ZM53.579 18.5495C53.579 20.0384 53.2679 21.1718 52.6457 21.9496C52.0457 22.7052 51.1345 23.0829 50.0012 23.0829C48.8679 23.0829 47.9568 22.6829 47.3123 21.9274C46.6901 21.1496 46.379 19.994 46.379 18.4828C46.379 16.9717 46.6901 15.8161 47.3123 15.0383C47.9345 14.2383 48.8457 13.8382 50.0012 13.8382C51.1345 13.8382 52.0012 14.2383 52.6234 15.0605C53.2679 15.905 53.579 17.0828 53.579 18.5495Z" fill="black"/>
<path d="M75.3342 21.3493L75.1786 21.4604C74.5564 21.9716 73.8453 22.3716 73.1119 22.6605C72.3564 22.9271 71.6231 23.0605 70.9119 23.0605C69.6008 23.0605 68.6008 22.6827 67.9119 21.9271C67.2231 21.1493 66.8675 19.9715 66.8675 18.4604C66.8675 16.9714 67.2231 15.8158 67.9119 15.0603C68.6231 14.2825 69.6453 13.8824 70.9119 13.8824C71.6231 13.8824 72.3564 14.038 73.1119 14.3269C73.8675 14.5936 74.5564 14.9936 75.1786 15.4825L75.3342 15.5936L76.6897 12.0602L76.7119 11.9713L76.6453 11.9046C75.9786 11.2824 75.0675 10.7712 73.9342 10.3935C72.8231 10.0379 71.6453 9.83789 70.4675 9.83789C68.7119 9.83789 67.1564 10.2157 65.8231 10.949C64.5119 11.6602 63.4675 12.7046 62.7342 14.0158C62.0008 15.3047 61.623 16.8381 61.623 18.527C61.623 21.1271 62.4008 23.2383 63.9119 24.7494C65.4453 26.2606 67.5786 27.0384 70.2453 27.0384C71.4897 27.0384 72.7119 26.8606 73.8453 26.5272C75.0008 26.1495 75.9342 25.6606 76.6453 25.0161L76.7119 24.9494L75.3342 21.3493Z" fill="black"/>
<path d="M96.1132 13.9493C95.5132 12.6604 94.6465 11.6381 93.5354 10.9492C92.4243 10.2381 91.1354 9.86028 89.7132 9.86028C88.5798 9.86028 87.5354 10.1047 86.602 10.6159C85.8243 11.0159 85.2243 11.5492 84.7576 12.2159V2.92676H79.6465V26.7941H84.7354V24.7051C85.202 25.3718 85.8243 25.9274 86.5798 26.3496C87.5132 26.8163 88.5576 27.0608 89.7132 27.0608C91.1132 27.0608 92.402 26.7052 93.5132 25.9718C94.6243 25.2385 95.4909 24.194 96.0909 22.9051C96.7132 21.5939 97.0243 20.0606 97.0243 18.3939C97.0243 16.7049 96.7132 15.216 96.1132 13.9493ZM91.9132 18.3939C91.9132 19.905 91.602 21.105 90.9798 21.9051C90.3798 22.7051 89.4687 23.1051 88.3354 23.1051C87.1798 23.1051 86.2909 22.7051 85.6465 21.9495C85.0243 21.1495 84.7132 19.9717 84.7132 18.4827C84.7132 16.9938 85.0243 15.8604 85.6465 15.0827C86.2909 14.2826 87.1798 13.8826 88.3354 13.8826C89.4909 13.8826 90.3798 14.2826 90.9798 15.0382C91.602 15.7938 91.9132 16.9271 91.9132 18.3939Z" fill="black"/>
<path d="M116.667 13.8382C116.067 12.5493 115.2 11.5715 114.111 10.9048C113.022 10.2159 111.756 9.86035 110.311 9.86035C108.978 9.86035 107.756 10.1937 106.711 10.8382C106.022 11.2604 105.489 11.7715 105.111 12.3715L104.845 10.1715H99.9336L99.9558 10.327C100.045 11.0382 100.111 11.7715 100.156 12.4604C100.2 13.1716 100.222 13.8605 100.222 14.5271V33.5943H105.334V24.7941C105.711 25.283 106.178 25.7275 106.756 26.083C107.8 26.7053 109 27.0386 110.311 27.0386C111.734 27.0386 113.022 26.683 114.111 25.9941C115.2 25.3052 116.045 24.3052 116.667 23.0163C117.289 21.7496 117.6 20.194 117.6 18.4161C117.6 16.6605 117.289 15.1272 116.667 13.8382ZM112.467 18.4161C112.467 20.0162 112.134 21.2162 111.467 21.9718C110.822 22.7274 109.934 23.1052 108.845 23.1052C107.778 23.1052 106.889 22.7274 106.222 21.9718C105.556 21.2162 105.222 20.0162 105.222 18.4161C105.222 16.8161 105.556 15.6161 106.222 14.8827C106.889 14.1494 107.778 13.7716 108.845 13.7716C109.934 13.7716 110.822 14.1494 111.467 14.8827C112.134 15.6383 112.467 16.8161 112.467 18.4161Z" fill="#FF2E63"/>
<path d="M125.646 3.19336H120.535V27.0607H125.646V3.19336Z" fill="#3DB2FF"/>
<path d="M141.267 10.1715L141 12.3715C140.623 11.7715 140.067 11.2382 139.378 10.8382C138.334 10.1937 137.134 9.86035 135.823 9.86035C134.4 9.86035 133.111 10.2159 132.045 10.9048C130.956 11.5715 130.089 12.5715 129.489 13.8382C128.889 15.1049 128.578 16.6605 128.578 18.4161C128.578 20.194 128.889 21.7496 129.489 23.0163C130.089 24.3052 130.956 25.3052 132.045 25.9941C133.134 26.683 134.4 27.0386 135.845 27.0386C137.156 27.0386 138.334 26.7275 139.378 26.083C139.978 25.7275 140.467 25.283 140.845 24.7719L140.867 26.683H145.934V14.5271C145.934 13.8605 145.956 13.1716 146 12.4604C146.067 11.7271 146.134 11.0159 146.2 10.3048L146.223 10.1492H141.267V10.1715ZM140.867 18.4161C140.867 20.0162 140.534 21.2162 139.867 21.9718C139.223 22.7274 138.334 23.1052 137.267 23.1052C136.178 23.1052 135.289 22.7274 134.645 21.9718C134 21.2162 133.689 20.0162 133.689 18.4161C133.689 16.8161 134.023 15.6161 134.689 14.8827C135.334 14.1494 136.223 13.7716 137.289 13.7716C138.356 13.7716 139.223 14.1494 139.889 14.8827C140.534 15.6383 140.867 16.8161 140.867 18.4161Z" fill="#3DB320"/>
<path d="M162.668 9.86011L158.557 20.1493L154.49 9.86011H149.09L155.868 25.6383L155.557 26.3939C155.29 27.0384 154.934 27.5495 154.49 27.9495C154.045 28.3717 153.49 28.7051 152.801 28.9495C152.134 29.194 151.29 29.4162 150.29 29.6162L150.134 29.6384L151.334 33.683L151.445 33.6608C152.445 33.5052 153.379 33.3052 154.223 33.0385C155.09 32.7719 155.89 32.4163 156.601 31.9274C157.312 31.4607 157.979 30.794 158.579 29.9718C159.201 29.1718 159.779 28.1495 160.334 26.9273L167.668 10.0379L167.757 9.83789H162.668V9.86011Z" fill="#6772E5"/>
<path d="M0 18.3278V3.39403C0 0.727288 2.8 -0.894979 4.95556 0.527282L16 7.79415L27.6444 15.461C29.6667 16.7944 29.6667 19.8834 27.6444 21.2167L16 28.8614L4.95556 36.1283C2.8 37.5505 0 35.9283 0 33.2615V18.3278Z" fill="#FF2E63"/>
</svg>
