<svg width="22" height="22" viewBox="0 0 22 22" fill="none" xmlns="http://www.w3.org/2000/svg">
<path fill-rule="evenodd" clip-rule="evenodd" d="M14.0226 10.8719C13.0453 11.5231 11.8968 11.87 10.7223 11.8686C9.1496 11.866 7.64211 11.2399 6.53054 10.1277C5.41898 9.01544 4.7941 7.50791 4.79297 5.93573C4.79269 4.76167 5.1408 3.61391 5.79325 2.63768C6.4457 1.66145 7.37318 0.900615 8.45832 0.451453C9.54346 0.00228994 10.7375 -0.115017 11.8893 0.114376C13.0412 0.343768 14.0991 0.90955 14.9292 1.74013C15.7593 2.57072 16.3243 3.62877 16.5526 4.78042C16.781 5.93207 16.6625 7.12556 16.2121 8.20987C15.7618 9.29418 14.9998 10.2206 14.0226 10.8719ZM12.7593 2.88791C12.1561 2.48618 11.4472 2.27235 10.7223 2.27347C9.7518 2.27535 8.82163 2.66198 8.13588 3.34854C7.45013 4.03511 7.0648 4.96554 7.06443 5.93573C7.06443 6.6603 7.27944 7.36859 7.68226 7.97097C8.08507 8.57335 8.65758 9.04274 9.32735 9.31976C9.99711 9.59678 10.734 9.66897 11.4449 9.5272C12.1557 9.38544 12.8085 9.03607 13.3206 8.52333C13.8327 8.01058 14.1812 7.3575 14.3219 6.64672C14.4626 5.93593 14.3893 5.1994 14.1111 4.5303C13.833 3.86121 13.3625 3.28964 12.7593 2.88791ZM16.6595 15.965C18.4869 16.9366 20.0443 18.3465 21.192 20.0682C21.3462 20.32 21.3962 20.622 21.3314 20.9101C21.2667 21.1983 21.0923 21.4499 20.8451 21.6116C20.598 21.7733 20.2975 21.8325 20.0075 21.7766C19.7174 21.7207 19.4605 21.5541 19.2913 21.3121C18.3491 19.9071 17.0734 18.7573 15.5781 17.9656C14.0828 17.1738 12.4146 16.7648 10.7225 16.7751C9.03045 16.7648 7.3622 17.1738 5.86691 17.9656C4.37162 18.7573 3.09588 19.9071 2.15375 21.3121C1.98448 21.5541 1.7276 21.7207 1.43754 21.7766C1.14748 21.8325 0.847036 21.7733 0.599891 21.6116C0.352746 21.4499 0.178317 21.1983 0.113573 20.9101C0.0488281 20.622 0.0988556 20.32 0.253053 20.0682C1.40077 18.3465 2.95817 16.9366 4.78548 15.965C6.61279 14.9934 8.65283 14.4906 10.7225 14.5016C12.7922 14.4906 14.8322 14.9934 16.6595 15.965Z" />
</svg>
