<svg width="26" height="28" viewBox="0 0 26 28" fill="none" xmlns="http://www.w3.org/2000/svg">
<path d="M12.905 0.648438C7.85748 0.648438 3.76562 5.08827 3.76562 10.5651C3.76562 16.4815 10.6861 24.1157 12.4829 25.9981C12.7196 26.2461 13.0903 26.2461 13.3271 25.9981C15.1239 24.1157 22.0443 16.4815 22.0443 10.5651C22.0443 5.08827 17.9525 0.648438 12.905 0.648438Z" fill="#78818B"/>
<path d="M12.9053 14C14.6868 14 16.131 12.433 16.131 10.5C16.131 8.567 14.6868 7 12.9053 7C11.1239 7 9.67969 8.567 9.67969 10.5C9.67969 12.433 11.1239 14 12.9053 14Z" fill="white"/>
</svg>
