<svg width="18" height="18" viewBox="0 0 18 18" fill="none" xmlns="http://www.w3.org/2000/svg">
<path fill-rule="evenodd" clip-rule="evenodd" d="M13.0753 7.23669C13.0753 8.73082 12.5048 10.2249 11.3647 11.3651L11.3653 11.3657C10.2245 12.5059 8.73035 13.0756 7.23685 13.0756C5.74201 13.0756 4.24851 12.5052 3.10835 11.3651C1.96819 10.2249 1.39844 8.73148 1.39844 7.23736C1.39844 5.74323 1.96819 4.2491 3.10835 3.10897L3.10768 3.1083C4.24784 1.96817 5.74201 1.39844 7.23685 1.39844C8.73102 1.39844 10.2245 1.96884 11.3647 3.10897C12.5048 4.2491 13.0753 5.74256 13.0753 7.23669ZM12.3521 2.1193C10.9395 0.706657 9.08794 0.000667918 7.23642 0C5.38356 0 3.53271 0.706657 2.11936 2.11997C0.706008 3.53329 0 5.38409 0 7.23622C0 9.08769 0.706008 10.9398 2.11936 12.3525C3.53204 13.7645 5.3829 14.4711 7.23508 14.4711C8.67916 14.4711 10.1219 14.0403 11.3576 13.1807L15.7907 17.6143C16.301 18.124 17.1225 18.1293 17.6255 17.6257C18.1291 17.1221 18.1244 16.3005 17.6141 15.7909L13.181 11.3573C14.0393 10.1216 14.4715 8.67959 14.4715 7.23556C14.4715 5.38409 13.7648 3.53195 12.3521 2.1193Z" fill="#343A40"/>
</svg>
