<svg width="7" height="6" viewBox="0 0 7 6" fill="none" xmlns="http://www.w3.org/2000/svg">
<path d="M6.77375 2.11277L4.67529 1.83903L3.73722 0.132051C3.7116 0.0853147 3.66945 0.0474807 3.61738 0.0244836C3.48679 -0.0333802 3.32811 0.0148396 3.26281 0.132051L2.32474 1.83903L0.226281 2.11277C0.168426 2.12019 0.115531 2.14467 0.0750326 2.18176C0.0260726 2.22693 -0.000906586 2.2877 2.32624e-05 2.35071C0.000953111 2.41372 0.0297159 2.47383 0.0799915 2.51782L1.59826 3.84646L1.23956 5.72258C1.23115 5.76622 1.23653 5.8111 1.25509 5.85214C1.27365 5.89318 1.30466 5.92873 1.34458 5.95476C1.38451 5.98078 1.43176 5.99625 1.48098 5.9994C1.5302 6.00255 1.57942 5.99326 1.62305 5.97258L3.50002 5.08682L5.37698 5.97258C5.42822 5.99706 5.48773 6.00522 5.54476 5.99632C5.68857 5.97406 5.78527 5.85166 5.76047 5.72258L5.40178 3.84646L6.92004 2.51782C6.96137 2.48147 6.98864 2.43399 6.99691 2.38206C7.01922 2.25224 6.91839 2.13206 6.77375 2.11277Z" fill="white"/>
</svg>
