<svg width="2719" height="699" viewBox="0 0 2719 699" fill="none" xmlns="http://www.w3.org/2000/svg">
<g clip-path="url(#clip0_2355_19032)">
<path d="M1302.27 8.32097e-05H350.067C315.903 -0.0331227 282.466 9.87279 253.827 28.5118C225.188 47.1507 202.583 73.7186 188.765 104.981L0.790604 558.033C0.155359 559.539 -0.0954627 561.179 0.0607497 562.805C0.216962 564.432 0.775298 565.994 1.68543 567.351C2.59555 568.708 3.82886 569.817 5.27417 570.578C6.71948 571.339 8.33136 571.728 9.96451 571.71H439.923C470.3 571.71 483.788 542.289 459.972 518.764L302.071 370.806C219.081 289.411 254.683 100.665 427.043 100.665H1268.79C1270.86 100.671 1272.87 100.037 1274.56 98.8504C1276.24 97.6636 1277.52 95.9826 1278.21 94.039L1311.5 13.495C1312 12.3001 1312.25 11.0186 1312.23 9.72615C1312.17 7.12452 1311.09 4.65084 1309.23 2.83351C1307.37 1.01619 1304.87 -0.000690968 1302.27 8.32097e-05Z" fill="#03234B"/>
<path d="M1207.37 230.629H1045.71C1040.53 230.584 1035.45 232.08 1031.13 234.926C1026.8 237.773 1023.41 241.842 1021.4 246.617L840.295 684.289C839.539 685.69 839.142 687.257 839.141 688.849C839.149 690.142 839.411 691.421 839.913 692.612C840.415 693.804 841.147 694.885 842.066 695.794C842.986 696.703 844.075 697.422 845.273 697.909C846.47 698.397 847.751 698.643 849.044 698.635H909.373C944.077 698.773 978.05 688.652 1007.03 669.543C1036 650.434 1058.7 623.188 1072.26 591.223L1216.18 243.577C1216.64 242.414 1216.89 241.179 1216.91 239.93C1216.8 237.456 1215.76 235.117 1213.98 233.388C1212.21 231.66 1209.85 230.673 1207.37 230.629Z" fill="#03234B"/>
<path d="M889.626 240.416C889.618 239.115 889.354 237.828 888.849 236.629C888.344 235.43 887.608 234.342 886.682 233.428C885.757 232.513 884.661 231.79 883.456 231.299C882.252 230.809 880.962 230.561 879.662 230.569H421.331C396.483 230.569 374.733 260.962 401.039 285.278L552.439 426.366C552.439 426.366 613.74 482.899 600.617 563.808C589.317 635.051 540.714 678.636 505.294 694.319C504.755 694.536 504.311 694.938 504.043 695.454C503.775 695.969 503.701 696.564 503.833 697.129C503.965 697.695 504.295 698.195 504.764 698.538C505.232 698.881 505.808 699.045 506.387 699H682.879C688.059 699.053 693.137 697.561 697.466 694.713C701.794 691.866 705.176 687.792 707.18 683.013L888.836 243.881C889.369 242.805 889.64 241.617 889.626 240.416Z" fill="#03234B"/>
<path d="M1741.83 556.452C1731.44 556.452 1721.47 552.322 1714.12 544.969C1706.77 537.616 1702.64 527.643 1702.64 517.244C1702.64 506.846 1706.77 496.873 1714.12 489.52C1721.47 482.167 1731.44 478.036 1741.83 478.036C1752.12 478.196 1761.93 482.432 1769.1 489.816C1776.28 497.2 1780.23 507.129 1780.1 517.427C1780.21 522.519 1779.3 527.581 1777.42 532.316C1775.54 537.05 1772.74 541.362 1769.17 544.997C1765.61 548.633 1761.35 551.519 1756.66 553.486C1751.96 555.453 1746.92 556.462 1741.83 556.452ZM1779.38 483.872C1775.03 478.036 1769.34 473.332 1762.8 470.158C1756.25 466.984 1749.04 465.432 1741.77 465.635C1728.02 465.635 1714.84 471.098 1705.12 480.822C1695.41 490.547 1689.95 503.735 1689.95 517.487C1689.95 531.239 1695.41 544.428 1705.12 554.152C1714.84 563.876 1728.02 569.339 1741.77 569.339C1749.03 569.502 1756.23 567.933 1762.77 564.762C1769.31 561.591 1775 556.909 1779.38 551.103V567.273H1793.29V468.067H1779.38V483.872Z" fill="#03234B"/>
<path d="M1893.23 520.284C1893.23 537.608 1888.55 543.748 1883.26 548.976C1880.6 551.566 1877.44 553.583 1873.97 554.9C1870.5 556.218 1866.8 556.808 1863.09 556.635C1858.95 556.872 1854.81 556.188 1850.97 554.633C1847.12 553.077 1843.67 550.688 1840.86 547.638C1835.79 540.245 1833.4 531.349 1834.05 522.411V468.067H1820.14V522.776C1819.34 534.053 1822.41 545.265 1828.83 554.568C1832.98 559.507 1838.22 563.42 1844.13 566.003C1850.04 568.587 1856.47 569.77 1862.91 569.461C1869.07 569.864 1875.23 568.556 1880.7 565.681C1886.16 562.806 1890.73 558.477 1893.9 553.17V566.847H1907.08V468.067H1893.17V520.344L1893.23 520.284Z" fill="#03234B"/>
<path d="M1974.52 556.452C1966.71 556.707 1959 554.621 1952.39 550.462C1945.78 546.303 1940.56 540.261 1937.4 533.112C1934.24 525.963 1933.29 518.033 1934.67 510.34C1936.05 502.647 1939.7 495.542 1945.14 489.938C1950.59 484.333 1957.58 480.484 1965.23 478.886C1972.87 477.287 1980.82 478.012 1988.05 480.966C1995.29 483.921 2001.47 488.97 2005.81 495.467C2010.16 501.964 2012.46 509.611 2012.43 517.427C2012.43 533.171 2000.28 556.452 1974.52 556.452ZM2011.7 484.236C2007.47 478.328 2001.87 473.53 1995.39 470.249C1988.9 466.969 1981.72 465.302 1974.46 465.392C1961.01 465.853 1948.27 471.521 1938.92 481.2C1929.57 490.88 1924.35 503.814 1924.35 517.275C1924.35 530.735 1929.57 543.67 1938.92 553.349C1948.27 563.029 1961.01 568.697 1974.46 569.157C1986.61 569.157 2003.62 564.112 2011.7 550.313V556.817C2011.7 583.138 1993.11 592.439 1977.13 592.439C1969.37 592.64 1961.73 590.403 1955.3 586.042C1948.88 581.681 1943.97 575.415 1941.28 568.124V567.637H1926.7V568.549C1936.55 602.286 1967.9 605.022 1977.25 605.022C1979.92 605.022 2003.68 604.536 2016.5 586.786C2023.53 576.15 2026.72 563.435 2025.55 550.738V468.067H2011.58L2011.7 484.236Z" fill="#03234B"/>
<path d="M2151.8 465.514C2145.27 465.439 2138.83 467.043 2133.09 470.173C2127.36 473.302 2122.53 477.851 2119.05 483.385C2115.57 477.846 2110.72 473.295 2104.98 470.165C2099.24 467.036 2092.79 465.435 2086.25 465.514C2081.3 465.446 2076.41 466.505 2071.93 468.612C2067.46 470.718 2063.52 473.817 2060.42 477.671V468.067H2046.51V566.969H2060.42V509.767C2059.98 502.842 2061.5 495.931 2064.8 489.829C2067.13 486.267 2070.31 483.342 2074.06 481.318C2077.8 479.293 2081.99 478.233 2086.25 478.233C2090.5 478.233 2094.69 479.293 2098.43 481.318C2102.18 483.342 2105.36 486.267 2107.69 489.829C2110.99 495.954 2112.51 502.883 2112.07 509.828V567.03H2125.98V509.767C2125.53 502.842 2127.05 495.931 2130.35 489.829C2132.68 486.267 2135.87 483.342 2139.61 481.318C2143.35 479.293 2147.54 478.233 2151.8 478.233C2156.05 478.233 2160.24 479.293 2163.99 481.318C2167.73 483.342 2170.91 486.267 2173.25 489.829C2176.55 495.954 2178.06 502.883 2177.62 509.828V567.03H2191.53V508.308C2191.53 474.51 2166.56 465.757 2151.8 465.757" fill="#03234B"/>
<path d="M2222.27 510.011C2223.66 501.152 2228.17 493.081 2234.98 487.253C2241.79 481.425 2250.46 478.223 2259.42 478.223C2268.39 478.223 2277.06 481.425 2283.87 487.253C2290.68 493.081 2295.19 501.152 2296.58 510.011H2222.27ZM2259.15 465.453C2245.52 465.738 2232.53 471.334 2222.95 481.052C2213.38 490.769 2207.97 503.841 2207.88 517.488C2207.86 529.66 2212.16 541.443 2220.01 550.745C2227.86 560.046 2238.74 566.266 2250.74 568.299C2262.73 570.332 2275.06 568.047 2285.53 561.85C2296 555.653 2303.94 545.944 2307.94 534.447L2308.3 533.475H2293.6V533.961C2290.85 540.75 2286.1 546.538 2279.97 550.556C2273.85 554.574 2266.65 556.631 2259.33 556.453C2250.11 556.294 2241.26 552.794 2234.42 546.601C2227.58 540.407 2223.22 531.942 2222.15 522.776H2310.79V522.107C2311.31 514.957 2310.36 507.777 2308 501.007C2305.65 494.237 2301.93 488.018 2297.1 482.732C2292.26 477.446 2286.39 473.204 2279.85 470.264C2273.32 467.324 2266.25 465.749 2259.09 465.635" fill="#03234B"/>
<path d="M2373 465.514C2367.32 465.326 2361.68 466.489 2356.53 468.909C2351.39 471.329 2346.9 474.937 2343.42 479.434V468.067H2329.5V566.969H2343.42V512.26C2343.07 507.559 2343.68 502.835 2345.2 498.375C2346.72 493.914 2349.14 489.808 2352.29 486.304C2357.91 481.063 2365.32 478.153 2373 478.158C2380.68 478.188 2388.07 481.094 2393.72 486.304C2396.89 489.855 2399.32 493.999 2400.87 498.496C2402.42 502.993 2403.07 507.754 2402.77 512.503V566.847H2416.69V512.564C2417.11 506.23 2416.25 499.876 2414.16 493.881C2412.07 487.887 2408.8 482.374 2404.54 477.672C2400.46 473.55 2395.56 470.337 2390.16 468.241C2384.76 466.146 2378.97 465.217 2373.19 465.514" fill="#03234B"/>
<path d="M2466.38 433.54H2452.47V468.006H2432V480.711H2452.47V566.969H2466.38V480.711H2489.71V468.006H2466.38V433.54Z" fill="#03234B"/>
<path d="M2512.07 509.95C2513.46 501.091 2517.97 493.02 2524.78 487.192C2531.59 481.364 2540.26 478.162 2549.22 478.162C2558.19 478.162 2566.85 481.364 2573.67 487.192C2580.48 493.02 2584.98 501.091 2586.37 509.95H2512.07ZM2549.01 465.392C2535.37 465.677 2522.39 471.273 2512.81 480.991C2503.24 490.708 2497.83 503.78 2497.73 517.427C2497.72 529.599 2502.02 541.382 2509.87 550.684C2517.72 559.985 2528.6 566.205 2540.6 568.238C2552.59 570.271 2564.92 567.986 2575.39 561.789C2585.86 555.592 2593.8 545.883 2597.8 534.386L2598.16 533.414H2583.46V533.9C2580.71 540.679 2575.97 546.461 2569.86 550.478C2563.75 554.495 2556.56 556.558 2549.25 556.392C2540.04 556.235 2531.2 552.743 2524.36 546.562C2517.52 540.382 2513.16 531.931 2512.07 522.776H2600.71V522.107C2601.23 514.952 2600.27 507.767 2597.92 500.993C2595.56 494.218 2591.84 487.997 2586.99 482.71C2582.15 477.423 2576.27 473.182 2569.73 470.246C2563.19 467.31 2556.12 465.741 2548.95 465.635" fill="#03234B"/>
<path d="M2667.54 556.513C2657.15 556.513 2647.18 552.383 2639.83 545.03C2632.48 537.677 2628.35 527.704 2628.35 517.305C2628.35 506.907 2632.48 496.934 2639.83 489.581C2647.18 482.228 2657.15 478.097 2667.54 478.097C2677.83 478.257 2687.64 482.493 2694.81 489.877C2701.99 497.261 2705.95 507.19 2705.82 517.488C2705.93 522.582 2705.02 527.648 2703.15 532.386C2701.27 537.125 2698.47 541.44 2694.9 545.077C2691.34 548.714 2687.08 551.6 2682.38 553.564C2677.68 555.528 2672.63 556.531 2667.54 556.513ZM2705.09 433.6V483.69C2700.63 477.972 2694.92 473.355 2688.4 470.193C2681.88 467.032 2674.73 465.41 2667.48 465.453C2653.74 465.453 2640.55 470.916 2630.84 480.64C2621.12 490.364 2615.66 503.553 2615.66 517.305C2615.66 531.057 2621.12 544.246 2630.84 553.97C2640.55 563.694 2653.74 569.157 2667.48 569.157C2674.73 569.243 2681.9 567.639 2688.43 564.474C2694.96 561.31 2700.66 556.67 2705.09 550.921V566.969H2719V433.54H2705.09V433.6Z" fill="#03234B"/>
<path d="M1400.63 430.135H1387.39V450.013H1400.63V430.135Z" fill="#03234B"/>
<path d="M1342.31 433.6H1313.45V446.062H1329.12V554.446H1312.36V566.908H1357.8V554.446H1342.31V433.6Z" fill="#03234B"/>
<path d="M1403.85 468.006H1374.93V480.528H1390.61V554.446H1374.57V566.908H1419.52V554.446H1403.85V468.006Z" fill="#03234B"/>
<path d="M1458.1 439.922C1449.48 447.642 1449.11 456.578 1448.75 467.398V468.067H1433.07V480.893H1448.93V554.446H1433.07V566.969H1478.15V554.446H1462.11V480.954H1478.15V468.067H1462.11V465.939C1462.11 458.827 1462.42 452.627 1468.19 448.128C1471.95 445.331 1476.5 443.799 1481.19 443.752H1481.86V431.594H1481.07C1472.67 431.536 1464.52 434.49 1458.1 439.922Z" fill="#03234B"/>
<path d="M1510.23 511.956C1511.62 503.312 1515.97 495.424 1522.55 489.653C1529.13 483.882 1537.51 480.59 1546.26 480.346C1555.35 480.173 1564.2 483.268 1571.2 489.069C1578.2 494.869 1582.89 502.99 1584.41 511.956H1510.23ZM1546.68 468.006C1537.65 468.149 1528.81 470.717 1521.11 475.441C1513.4 480.165 1507.1 486.873 1502.87 494.864C1498.64 502.854 1496.63 511.835 1497.05 520.869C1497.47 529.902 1500.31 538.657 1505.27 546.219C1510.22 553.78 1517.12 559.872 1525.23 563.858C1533.34 567.844 1542.38 569.577 1551.39 568.878C1560.4 568.178 1569.06 565.071 1576.46 559.881C1583.86 554.69 1589.73 547.607 1593.47 539.371L1593.95 538.337H1579.61V538.702C1575.59 545.427 1569.55 550.712 1562.36 553.805C1555.16 556.899 1547.17 557.644 1539.53 555.934C1531.89 554.224 1524.98 550.146 1519.78 544.28C1514.59 538.415 1511.37 531.06 1510.6 523.262H1597.72V518.885C1597.78 512.154 1596.49 505.48 1593.92 499.256C1591.36 493.033 1587.58 487.386 1582.8 482.649C1578.02 477.912 1572.34 474.181 1566.1 471.677C1559.85 469.172 1553.17 467.945 1546.44 468.067" fill="#03234B"/>
<path d="M1642.43 569.522C1645.82 569.522 1649.13 568.516 1651.95 566.633C1654.77 564.749 1656.97 562.072 1658.26 558.94C1659.56 555.807 1659.9 552.36 1659.24 549.035C1658.58 545.71 1656.94 542.656 1654.55 540.258C1652.15 537.861 1649.1 536.228 1645.78 535.567C1642.45 534.905 1639.01 535.245 1635.88 536.542C1632.75 537.84 1630.07 540.037 1628.19 542.856C1626.31 545.675 1625.3 548.989 1625.3 552.38C1625.3 556.926 1627.11 561.286 1630.32 564.501C1633.53 567.716 1637.89 569.522 1642.43 569.522Z" fill="#03234B"/>
</g>
<defs>
<clipPath id="clip0_2355_19032">
<rect width="2719" height="699" fill="white"/>
</clipPath>
</defs>
</svg>
