<svg width="2522" height="2522" viewBox="0 0 2522 2522" fill="none" xmlns="http://www.w3.org/2000/svg">
<path d="M850.595 1107.05V1490.38H983.271V1107.05H1203.37V1003.38H630.113V1107.05H850.595Z" fill="#0046AD"/>
<path d="M1356.54 1385.17V1107.05H1553.43C1606.03 1107.05 1679.14 1163.14 1679.14 1247.07C1679.14 1329.08 1605.26 1384.78 1553.43 1384.78H1356.54V1385.17ZM1229.67 1003.38V1490.38H1529.06C1720.92 1490.38 1802.92 1356.54 1802.92 1247.07C1802.92 1137.61 1720.92 1003.38 1529.06 1003.38H1229.67Z" fill="#0046AD"/>
<path d="M1958.42 1003.38H1825.36V1490.77H1958.42V1003.38Z" fill="#0046AD"/>
<path d="M1962.29 1236.24L2212.55 1003.38H2388.55L2126.29 1236.24L2402.86 1490.38H2218.74L1962.29 1236.24Z" fill="#0046AD"/>
<path d="M363.215 1387.49L184.895 1490.38H541.534L363.215 1387.49ZM82.0039 1312.06L260.323 1003.38V1209.17L82.0039 1312.06ZM644.425 1312.06L466.106 1003.38V1209.17L644.425 1312.06Z" fill="#0046AD"/>
<path d="M259.936 1003.38L362.827 1106.28L465.718 1003.38H259.936ZM466.105 1209.17L363.214 1106.28L260.322 1209.17H466.105Z" fill="#0046AD"/>
<path d="M363.215 1387.49L504.014 1349.97L466.493 1209.17L363.215 1387.49ZM644.426 1312.06L503.627 1349.58L541.147 1490.38L644.426 1312.06Z" fill="#0046AD"/>
<path d="M259.936 1209.17L222.416 1349.97L363.215 1387.49L259.936 1209.17ZM184.895 1490.38L222.416 1349.58L82.0039 1312.06L184.895 1490.38Z" fill="#0046AD"/>
</svg>
