<svg width="1419" height="765" viewBox="0 0 1419 765" fill="none" xmlns="http://www.w3.org/2000/svg">
<path d="M22.1543 21.6509H1396.84V743.349H22.1543V21.6509Z" fill="#E98300"/>
<path d="M608.634 285.11H332.344C309.939 285.11 291.773 266.943 291.773 244.536C291.773 222.179 309.939 204.011 332.344 204.011H608.634C631.039 204.011 649.204 222.179 649.204 244.536C649.204 266.943 631.039 285.11 608.634 285.11ZM594.994 447.545C594.994 425.088 576.828 406.921 554.423 406.921H278.084C255.679 406.921 237.563 425.088 237.563 447.495C237.563 469.852 255.679 488.02 278.084 488.02H554.423C576.778 488.02 594.944 469.902 594.994 447.545ZM156.135 345.697C156.135 356.471 160.374 366.845 168.017 374.439C175.622 382.082 185.946 386.372 196.755 386.372H473.045C495.45 386.372 513.616 368.204 513.616 345.847C513.616 323.44 495.45 305.273 473.045 305.273H196.755C185.995 305.273 175.66 309.512 168.067 317.106C160.474 324.662 156.185 334.937 156.135 345.697ZM728.438 206.256L711.207 269.86H796.675L738.525 485.588H812.11L869.924 269.86H955.404L972.199 206.256H728.538H728.438ZM993.531 206.256L918.724 485.588H1143.15L1159.52 423.779H1007.27L1021 372.98H1156.99L1172.42 316.62H1036.15L1049.54 267.865H1201.3L1218.05 206.343H993.631L993.531 206.253V206.256ZM669.078 589.68C675.212 589.68 681.06 587.186 685.336 582.76L679.152 574.917C676.671 577.398 673.317 578.907 669.801 579.106C667.42 579.106 665.126 578.134 663.518 576.326C661.909 574.53 661.186 572.136 661.473 569.754C661.087 562.348 666.398 555.926 673.754 554.904C677.694 554.754 681.347 556.949 683.105 560.502L692.456 553.969C688.852 547.734 682.082 544.13 674.963 544.617C668.056 544.379 661.336 546.961 656.411 551.786C651.498 556.599 648.718 563.233 648.768 570.141C648.568 575.503 650.713 580.665 654.615 584.368C658.505 588.071 663.817 589.867 669.128 589.381L669.078 589.68ZM713.103 589.68C726.593 589.381 737.502 578.52 737.789 564.979C738.088 559.53 735.994 554.268 732.054 550.465C728.101 546.712 722.74 544.816 717.292 545.352C703.801 545.64 692.942 556.55 692.593 570.041C692.405 575.453 694.55 580.715 698.49 584.418C702.43 588.121 707.791 589.967 713.202 589.381L713.103 589.68ZM713.639 579.306C711.158 579.443 708.664 578.521 706.869 576.725C705.061 574.966 704.139 572.485 704.288 569.954C704.188 562.834 709.5 556.799 716.557 555.926C719.088 555.777 721.581 556.699 723.327 558.457C725.135 560.253 726.057 562.747 725.908 565.278C725.908 572.286 720.696 578.233 713.739 579.106L713.639 579.306ZM739.448 588.658H751.629L758.05 564.056C758.499 559.23 762.588 555.527 767.401 555.527C768.922 555.29 770.48 555.727 771.64 556.749C772.762 557.772 773.398 559.23 773.298 560.789C773.298 562.061 773.099 563.37 772.762 564.642L766.478 588.071H778.659L784.843 565.178C785.616 562.547 786.065 559.817 786.202 557.048C786.252 553.732 784.893 550.564 782.449 548.37C780.068 546.125 776.801 545.016 773.497 545.352C769.109 545.602 764.969 547.447 761.902 550.614L763.024 545.352H750.893L739.447 588.658H739.448ZM788.833 588.658H800.915L807.735 564.056C808.171 559.23 812.211 555.527 817.086 555.527C818.594 555.29 820.153 555.727 821.275 556.749C822.447 557.772 823.02 559.23 822.97 560.789C822.931 562.061 822.733 563.37 822.397 564.642L816.163 588.071H828.182L834.379 565.178C835.152 562.647 835.588 560.066 835.787 557.435C835.937 554.018 834.616 550.714 832.085 548.37C829.603 546.038 826.187 544.916 822.783 545.352C818.345 545.602 814.206 547.447 811.089 550.614L812.41 545.352H800.229L788.833 588.658ZM852.245 571.562H881.52C882.779 568.582 883.515 565.415 883.664 562.211C883.902 557.572 882.106 553.046 878.789 549.829C875.436 546.624 870.897 544.966 866.272 545.352C852.245 545.502 840.999 556.899 840.949 570.877C840.65 576.089 842.657 581.201 846.448 584.805C850.25 588.408 855.462 590.166 860.674 589.58C866.608 589.73 872.406 587.722 877.031 583.982L871.483 576.475C868.803 578.57 865.548 579.792 862.132 579.842C859.701 580.228 857.17 579.543 855.262 577.884C853.367 576.238 852.295 573.844 852.345 571.363L852.245 571.562ZM853.367 564.056C854.876 558.644 859.751 554.904 865.349 554.704C867.144 554.417 868.952 554.954 870.311 556.163C871.683 557.385 872.406 559.131 872.356 560.989C872.506 561.911 872.506 562.834 872.356 563.769H853.654L853.367 564.056L853.367 564.056ZM909.473 589.68C915.557 589.63 921.355 587.149 925.544 582.76L919.36 574.917C916.879 577.448 913.562 578.907 910.009 579.106C907.628 579.106 905.334 578.134 903.725 576.326C902.167 574.53 901.394 572.136 901.73 569.754C901.295 562.348 906.643 555.926 913.949 554.904C917.901 554.804 921.554 556.999 923.3 560.502L932.651 553.969C929.098 547.734 922.328 544.13 915.171 544.617C901.344 544.716 890.135 555.926 890.036 569.754C889.748 574.966 891.694 580.079 895.347 583.782C899 587.535 904.062 589.58 909.273 589.381L909.473 589.68ZM946.141 589.68C949.171 589.73 952.138 589.093 954.906 587.922L957.736 577.597C955.791 578.47 953.697 578.957 951.552 579.006C950.63 579.393 949.557 579.256 948.822 578.571C948.049 577.935 947.75 576.912 947.999 575.94C947.949 575.304 947.949 574.68 947.999 574.044L952.774 556.114H962.749L965.579 545.739H955.841L958.759 534.779H946.677L943.81 545.353H938.648L935.818 555.727H940.979L935.818 575.453C935.382 577.211 935.095 579.007 935.095 580.815C935.332 583.396 936.603 585.778 938.698 587.386C940.743 588.995 943.373 589.631 945.954 589.194L946.142 589.681L946.141 589.68ZM964.17 588.944H976.052L987.547 545.352H975.366L964.17 588.944ZM976.052 541.063H988.757L991.737 530.302H979.019L976.052 541.063ZM999.429 588.744H1010.39L1038.44 545.738H1025.44L1008.48 573.794L1006.54 545.738H994.754L999.429 588.744ZM1034.89 588.744H1047.01L1058.7 545.352H1046.67L1034.89 588.744ZM1047.31 541.312H1060.21L1063.08 530.589H1050.86L1047.31 541.312ZM1073.94 589.48C1076.97 589.53 1079.98 588.943 1082.75 587.722L1085.53 577.447C1083.59 578.333 1081.44 578.769 1079.3 578.819C1078.53 579.055 1077.64 578.869 1077 578.37C1076.38 577.884 1075.98 577.111 1075.98 576.325C1075.94 575.702 1075.94 575.066 1075.98 574.43L1080.76 556.462H1090.79L1093.57 546.088H1083.59L1086.46 535.177H1074.42L1072.19 545.352H1067.03L1064.2 555.726H1069.56L1064.4 575.116C1063.91 576.811 1063.61 578.619 1063.56 580.415C1063.71 583.046 1064.94 585.49 1066.98 587.186C1068.97 588.844 1071.61 589.58 1074.24 589.193L1073.94 589.48L1073.94 589.48ZM1098.82 601.463C1106.48 601.175 1113.3 596.537 1116.32 589.48L1142.86 545.352H1129.76L1113.79 574.33L1111.83 545.352H1099.46L1104.72 588.358C1103.75 590.066 1101.94 591.039 1100.05 590.989C1098.34 590.889 1096.74 590.303 1095.37 589.28L1088.9 598.096C1091.77 600.291 1095.22 601.463 1098.82 601.463Z" fill="white"/>
</svg>
