<svg width="2403" height="813" viewBox="0 0 2403 813" fill="none" xmlns="http://www.w3.org/2000/svg">
<path fill-rule="evenodd" clip-rule="evenodd" d="M406.917 99.8952C447.584 99.8952 495.639 103.605 510.426 111.012V162.808C510.426 214.604 540 222.011 540 222.011V270.11C540 303.409 532.613 325.616 532.613 325.616C517.826 329.313 480.865 340.417 440.197 370.019C410.623 392.213 384.743 425.512 384.743 458.823C384.743 481.018 388.436 495.819 395.836 510.606C395.836 510.606 381.049 518 355.169 518C321.901 514.303 284.94 488.399 262.753 447.706C233.179 395.91 218.405 332.997 185.125 332.997C151.857 332.997 151.857 366.296 125.99 366.296C96.4156 366.296 77.922 318.197 70.535 296.002C52.0545 262.703 7.70654 251.6 4 199.804H144.47V0H277.553V85.0945C281.26 88.7914 292.34 92.5014 307.127 96.1984L292.34 162.795H251.673L236.886 221.998H277.553L262.766 296.002C262.766 307.106 259.073 332.997 262.766 344.114C270.153 373.716 288.647 384.806 314.527 384.806C351.501 384.806 384.756 366.296 384.756 366.296L399.543 318.196H373.662C366.275 318.196 358.875 318.196 362.569 299.699L381.049 221.998H421.717L436.504 162.795H395.849L406.917 99.8952Z" fill="#A64938"/>
<path fill-rule="evenodd" clip-rule="evenodd" d="M325.583 122.115H377.239L336.643 314H285L325.583 122.115ZM362.478 52C377.226 52 392 63.0735 392 81.5207C392 96.2811 377.226 107.355 362.478 107.355C347.717 107.355 332.957 96.2811 332.957 81.5207C332.957 63.0735 347.717 52 362.478 52Z" fill="#A64938"/>
<path fill-rule="evenodd" clip-rule="evenodd" d="M1648.9 288C1678.48 288 1696.96 291.707 1700.65 295.413C1708.04 295.413 1704.35 291.707 1708.04 288H1711.73L1730.21 339.933L1722.83 343.653C1711.73 328.8 1689.56 313.96 1652.6 313.96C1637.81 313.96 1608.22 317.667 1608.22 339.933C1608.22 384.453 1745 358.48 1745 447.52C1745 488.32 1711.73 518 1648.9 518C1626.73 518 1608.22 514.293 1589.74 506.867C1586.05 506.867 1582.36 510.574 1582.36 514.28L1574.97 517.987L1552.8 451.214L1560.18 447.507C1578.66 469.773 1604.56 488.307 1648.92 488.307C1685.88 488.307 1696.97 473.48 1696.97 458.64C1696.97 406.694 1563.89 440.08 1563.89 351.054C1563.86 310.253 1604.54 288 1648.9 288ZM880 514.293V506.88C894.787 503.173 902.174 499.466 902.174 477.213V325.093C902.174 302.84 894.787 299.133 880 295.413V288H1053.74L1072.22 336.227L1064.83 339.947C1050.04 321.387 1035.26 317.68 1009.38 317.68H968.721C953.934 317.68 950.241 321.387 950.241 332.52V380.76H1009.38C1031.56 380.76 1035.26 377.04 1038.95 365.92H1046.34V425.28H1038.95C1035.26 414.146 1031.56 410.44 1009.38 410.44H950.241V469.8C950.241 484.627 953.934 484.626 968.721 484.626H1020.47C1042.64 484.626 1061.14 484.626 1079.62 462.373L1083.31 466.093L1068.52 514.306H880V514.293Z" fill="#0C0E0F"/>
<path fill-rule="evenodd" clip-rule="evenodd" d="M824.424 476.689C824.424 498.857 831.812 502.55 842.906 506.242V513.628H746.79V506.242C757.884 502.55 768.966 498.857 768.966 476.689V262.337C768.966 251.246 761.578 251.246 746.79 251.246C698.732 251.246 680.25 251.246 661.756 269.735H658.049L676.544 218H916.846L935.328 269.735H927.94C913.152 251.246 890.964 251.246 842.906 251.246C828.118 251.246 824.424 251.246 824.424 262.337V476.689ZM1179.31 402.772L1116.47 321.47C1105.37 302.994 1097.98 299.302 1083.2 295.609V288.224H1186.71V295.609C1175.62 295.609 1168.23 306.7 1179.32 321.47L1208.91 365.82L1245.88 317.778C1253.26 306.687 1253.26 295.609 1238.49 295.609V288.224H1323.51V295.609C1308.72 299.302 1297.64 302.994 1282.85 317.778L1231.1 391.694L1293.94 480.395C1301.32 491.472 1308.72 498.87 1308.72 498.87C1308.72 498.87 1319.82 495.178 1334.59 458.226L1404.83 288.224H1449.2L1530.52 480.408C1534.21 491.485 1545.31 502.576 1556.39 506.269V513.654H1460.28V506.269C1467.67 506.269 1482.46 502.576 1471.38 480.408L1460.28 450.841H1367.85L1356.75 480.408C1345.66 502.576 1364.14 506.269 1367.85 506.269V513.654H1223.69V506.269C1231.08 506.269 1249.56 498.883 1234.76 480.408L1197.79 432.365L1160.83 484.1C1149.74 498.883 1160.83 506.269 1168.22 506.269V513.654H1083.18V506.269C1097.97 502.576 1112.76 495.178 1123.85 476.715L1179.31 402.772ZM1415.91 332.561L1378.94 421.261H1449.2L1415.91 332.561ZM22.1886 546.9C22.1886 524.758 11.0943 521.039 0 517.333V513.641H96.1289V517.333C88.7283 521.026 77.634 524.745 77.634 546.9V772.356C77.634 794.524 88.7283 798.217 96.1289 801.922V809.307H0V801.922C11.0943 798.23 22.1886 794.537 22.1886 772.356V546.9ZM329.031 809.307H321.643L170.069 650.383V772.356C170.069 794.524 181.163 798.217 188.551 801.922V809.307H122.011V801.922C133.106 798.23 140.493 794.537 140.493 772.356V620.83C140.493 598.661 133.106 594.969 122.011 591.263V583.878H184.844L299.455 709.517V620.83C299.455 598.661 292.067 594.969 280.973 591.263V583.878H351.206V591.263C340.112 594.956 329.018 598.648 329.018 620.83V809.307H329.031ZM1205.18 731.711C1205.18 798.23 1146.04 813 1109.06 813C1068.41 813 1009.26 798.217 1009.26 735.404V620.83C1009.26 598.661 998.161 591.263 987.08 591.263V583.878H1079.5V591.263C1068.41 591.263 1057.33 598.648 1057.33 620.83V731.711C1057.33 768.663 1079.5 783.446 1116.47 783.446C1149.75 783.446 1175.62 768.663 1175.62 731.711V620.83C1175.62 598.661 1164.52 594.969 1153.43 591.263V583.878H1223.69V591.263C1212.57 594.956 1205.18 598.648 1205.18 620.83V731.711ZM628.473 628.215C628.473 613.431 628.473 613.431 617.378 613.431C580.415 613.431 573.027 613.431 550.839 639.292L547.145 635.6L561.933 583.865H746.777L765.259 635.6L757.871 639.292C739.377 613.431 731.989 613.431 695.025 613.431C683.931 613.431 680.237 613.431 680.237 628.215V772.356C680.237 794.524 687.625 798.217 702.413 801.922V809.307H609.991V801.922C624.779 798.23 628.473 794.537 628.473 772.356V628.215ZM458.43 580.185C484.299 580.185 502.794 587.57 506.488 587.57C513.875 591.263 513.875 583.878 513.875 583.878L521.263 580.185L536.051 635.613H528.663C517.569 624.522 499.087 609.752 462.11 609.752C443.629 609.752 414.052 613.444 414.052 635.613C414.052 676.257 554.532 654.089 554.532 742.802C554.532 783.446 521.263 809.32 458.417 809.32C432.534 809.32 414.052 805.628 395.571 801.935C391.877 801.935 391.877 805.628 388.17 805.628C388.17 809.32 380.783 809.32 380.783 809.32L358.594 746.508L365.995 742.815C384.476 764.984 410.359 783.459 454.71 783.459C491.686 783.459 502.781 768.676 502.781 753.893C502.781 702.132 369.688 735.417 369.688 646.704C369.701 606.046 414.066 580.185 458.43 580.185ZM1504.65 772.356C1504.65 794.524 1515.74 798.217 1526.82 801.922V809.307H1434.42V801.922C1445.51 798.23 1456.59 794.537 1456.59 772.356V665.167L1375.25 813H1367.86L1286.55 661.474V772.356C1286.55 794.524 1297.64 798.217 1308.72 801.922V809.307H1238.49V801.922C1245.88 798.23 1256.97 794.537 1256.97 772.356V620.83C1256.97 598.661 1245.88 594.969 1238.49 591.263V583.878H1308.72L1382.65 731.711L1463.99 583.878H1526.82V591.263C1515.73 594.956 1504.65 598.648 1504.65 620.83V772.356ZM1970.44 809.307H1963.05L1811.5 650.383V772.356C1811.5 794.524 1822.6 798.217 1829.99 801.922V809.307H1759.73V801.922C1770.82 798.23 1781.9 794.537 1781.9 772.356V620.83C1781.9 598.661 1774.51 594.969 1759.73 591.263V583.878H1826.29L1940.88 709.517V620.83C1940.88 598.661 1929.78 594.969 1918.7 591.263V583.878H1988.96V591.263C1981.57 594.956 1970.45 598.648 1970.45 620.83V809.307H1970.44ZM1552.69 809.307V801.922C1563.79 798.23 1571.18 790.832 1571.18 772.356V620.83C1571.18 598.661 1563.79 594.969 1552.69 591.263V583.878H1726.44L1741.23 631.92L1737.54 635.613C1722.75 617.137 1704.27 613.445 1682.09 613.445H1637.74C1626.65 613.445 1622.95 617.137 1622.95 628.228V676.27H1678.4C1700.57 676.27 1707.97 668.885 1707.97 661.487H1715.36V720.607H1707.97C1707.97 709.517 1700.59 705.824 1678.4 705.824H1622.95V764.97C1622.95 776.061 1626.65 779.754 1637.74 779.754H1689.49C1711.67 779.754 1733.84 779.754 1748.63 757.585L1756.02 761.278L1737.54 809.32H1552.69V809.307ZM2073.97 628.215C2073.97 613.431 2070.28 613.431 2062.87 613.431C2022.22 613.431 2018.52 613.431 1996.34 639.292L1992.64 635.6L2007.43 583.865H2192.27L2210.76 635.6L2203.37 639.292C2184.89 613.431 2177.5 613.431 2140.51 613.431C2129.41 613.431 2125.72 613.431 2125.72 628.215V772.356C2125.72 794.524 2133.11 798.217 2147.9 801.922V809.307H2055.49V801.922C2066.58 798.23 2073.97 794.537 2073.97 772.356V628.215ZM2306.87 580.185C2332.74 580.185 2351.22 587.57 2358.62 587.57C2362.34 591.263 2362.34 583.878 2362.34 583.878C2366.04 583.878 2369.73 580.185 2369.73 580.185L2384.52 635.613H2380.82C2369.73 624.522 2347.53 609.752 2310.56 609.752C2292.08 609.752 2266.21 613.444 2266.21 635.613C2266.21 676.257 2403 654.089 2403 742.802C2403 783.446 2369.73 809.32 2306.87 809.32C2281 809.32 2262.52 805.628 2244.04 801.935C2240.34 801.935 2240.34 805.628 2240.34 805.628C2236.65 809.32 2232.96 809.32 2232.96 809.32L2207.09 746.508L2214.48 742.815C2232.96 764.984 2262.53 783.459 2303.19 783.459C2340.15 783.459 2351.25 768.676 2351.25 753.893C2351.25 702.132 2218.18 735.417 2218.18 646.704C2218.16 606.046 2262.51 580.185 2306.87 580.185Z" fill="#0C0E0F"/>
<path fill-rule="evenodd" clip-rule="evenodd" d="M887 584.013C935.059 584.013 972.036 602.536 972.036 643.283C972.036 687.732 931.365 695.149 909.189 698.851C968.342 721.076 972.036 798.894 1009 798.894V802.596C1001.61 806.298 994.212 810 975.73 810C894.401 810 912.883 709.957 861.13 709.957H835.248V772.955C835.248 795.179 842.635 798.881 853.73 802.596V810H765V802.596C776.094 798.894 783.495 795.192 783.495 772.955V621.045C783.495 598.821 776.108 595.119 765 591.404V584H887V584.013ZM835.248 684.03H864.824C890.694 684.03 920.27 672.911 920.27 646.985C920.27 632.164 909.189 609.939 875.919 609.939H850.036C838.954 609.939 835.261 613.641 835.261 628.462V684.03H835.248Z" fill="#0C0E0F"/>
</svg>
