<svg width="421" height="232" viewBox="0 0 421 232" fill="none" xmlns="http://www.w3.org/2000/svg">
<path d="M20.2614 54.8895C16.5816 54.8895 13.2697 54.0846 10.3258 52.4746C7.38195 50.8187 5.05906 48.4958 3.35713 45.5059C1.7012 42.5161 0.873241 39.0662 0.873241 35.1564C0.873241 31.2466 1.7242 27.7967 3.42613 24.8069C5.17405 21.817 7.54295 19.5171 10.5328 17.9072C13.5227 16.2512 16.8575 15.4233 20.5374 15.4233C24.2172 15.4233 27.5521 16.2512 30.5419 17.9072C33.5318 19.5171 35.8777 21.817 37.5796 24.8069C39.3276 27.7967 40.2015 31.2466 40.2015 35.1564C40.2015 39.0662 39.3046 42.5161 37.5106 45.5059C35.7627 48.4958 33.3708 50.8187 30.3349 52.4746C27.3451 54.0846 23.9872 54.8895 20.2614 54.8895ZM20.2614 46.4719C22.0093 46.4719 23.6422 46.0579 25.1602 45.23C26.7241 44.356 27.966 43.068 28.886 41.3661C29.806 39.6642 30.2659 37.5943 30.2659 35.1564C30.2659 31.5226 29.3 28.7397 27.3681 26.8078C25.4822 24.8298 23.1593 23.8409 20.3994 23.8409C17.6395 23.8409 15.3166 24.8298 13.4307 26.8078C11.5908 28.7397 10.6708 31.5226 10.6708 35.1564C10.6708 38.7902 11.5678 41.5961 13.3617 43.574C15.2016 45.5059 17.5015 46.4719 20.2614 46.4719ZM68.4692 15.4923C73.023 15.4923 76.7029 16.9412 79.5088 19.8391C82.3146 22.6909 83.7176 26.6928 83.7176 31.8445V54.2686H74.058V33.1555C74.058 30.1196 73.299 27.7967 71.7811 26.1868C70.2632 24.5309 68.1933 23.7029 65.5714 23.7029C62.9035 23.7029 60.7876 24.5309 59.2236 26.1868C57.7057 27.7967 56.9467 30.1196 56.9467 33.1555V54.2686H47.2872V16.0442H56.9467V20.805C58.2347 19.1491 59.8676 17.8612 61.8455 16.9412C63.8694 15.9752 66.0773 15.4923 68.4692 15.4923ZM20.2614 143.89C16.5816 143.89 13.2697 143.085 10.3258 141.475C7.38195 139.819 5.05906 137.496 3.35713 134.506C1.7012 131.516 0.873241 128.066 0.873241 124.156C0.873241 120.247 1.7242 116.797 3.42613 113.807C5.17405 110.817 7.54295 108.517 10.5328 106.907C13.5227 105.251 16.8575 104.423 20.5374 104.423C24.2172 104.423 27.5521 105.251 30.5419 106.907C33.5318 108.517 35.8777 110.817 37.5796 113.807C39.3276 116.797 40.2015 120.247 40.2015 124.156C40.2015 128.066 39.3046 131.516 37.5106 134.506C35.7627 137.496 33.3708 139.819 30.3349 141.475C27.3451 143.085 23.9872 143.89 20.2614 143.89ZM20.2614 135.472C22.0093 135.472 23.6422 135.058 25.1602 134.23C26.7241 133.356 27.966 132.068 28.886 130.366C29.806 128.664 30.2659 126.594 30.2659 124.156C30.2659 120.523 29.3 117.74 27.3681 115.808C25.4822 113.83 23.1593 112.841 20.3994 112.841C17.6395 112.841 15.3166 113.83 13.4307 115.808C11.5908 117.74 10.6708 120.523 10.6708 124.156C10.6708 127.79 11.5678 130.596 13.3617 132.574C15.2016 134.506 17.5015 135.472 20.2614 135.472ZM68.4692 104.492C73.023 104.492 76.7029 105.941 79.5088 108.839C82.3146 111.691 83.7176 115.693 83.7176 120.845V143.269H74.058V122.155C74.058 119.12 73.299 116.797 71.7811 115.187C70.2632 113.531 68.1933 112.703 65.5714 112.703C62.9035 112.703 60.7876 113.531 59.2236 115.187C57.7057 116.797 56.9467 119.12 56.9467 122.155V143.269H47.2872V105.044H56.9467V109.805C58.2347 108.149 59.8676 106.861 61.8455 105.941C63.8694 104.975 66.0773 104.492 68.4692 104.492ZM20.2614 231.89C16.5816 231.89 13.2697 231.085 10.3258 229.475C7.38195 227.819 5.05906 225.496 3.35713 222.506C1.7012 219.516 0.873241 216.066 0.873241 212.156C0.873241 208.247 1.7242 204.797 3.42613 201.807C5.17405 198.817 7.54295 196.517 10.5328 194.907C13.5227 193.251 16.8575 192.423 20.5374 192.423C24.2172 192.423 27.5521 193.251 30.5419 194.907C33.5318 196.517 35.8777 198.817 37.5796 201.807C39.3276 204.797 40.2015 208.247 40.2015 212.156C40.2015 216.066 39.3046 219.516 37.5106 222.506C35.7627 225.496 33.3708 227.819 30.3349 229.475C27.3451 231.085 23.9872 231.89 20.2614 231.89ZM20.2614 223.472C22.0093 223.472 23.6422 223.058 25.1602 222.23C26.7241 221.356 27.966 220.068 28.886 218.366C29.806 216.664 30.2659 214.594 30.2659 212.156C30.2659 208.523 29.3 205.74 27.3681 203.808C25.4822 201.83 23.1593 200.841 20.3994 200.841C17.6395 200.841 15.3166 201.83 13.4307 203.808C11.5908 205.74 10.6708 208.523 10.6708 212.156C10.6708 215.79 11.5678 218.596 13.3617 220.574C15.2016 222.506 17.5015 223.472 20.2614 223.472ZM68.4692 192.492C73.023 192.492 76.7029 193.941 79.5088 196.839C82.3146 199.691 83.7176 203.693 83.7176 208.845V231.269H74.058V210.155C74.058 207.12 73.299 204.797 71.7811 203.187C70.2632 201.531 68.1933 200.703 65.5714 200.703C62.9035 200.703 60.7876 201.531 59.2236 203.187C57.7057 204.797 56.9467 207.12 56.9467 210.155V231.269H47.2872V193.044H56.9467V197.805C58.2347 196.149 59.8676 194.861 61.8455 193.941C63.8694 192.975 66.0773 192.492 68.4692 192.492Z" fill="#E11045"/>
<path d="M102.563 3.2108V54.2686H92.9033V3.2108H102.563ZM117.005 11.4904C115.303 11.4904 113.878 10.9615 112.728 9.90351C111.624 8.79955 111.072 7.44261 111.072 5.83268C111.072 4.22275 111.624 2.88881 112.728 1.83086C113.878 0.726908 115.303 0.174933 117.005 0.174933C118.707 0.174933 120.11 0.726908 121.214 1.83086C122.364 2.88881 122.939 4.22275 122.939 5.83268C122.939 7.44261 122.364 8.79955 121.214 9.90351C120.11 10.9615 118.707 11.4904 117.005 11.4904ZM121.766 16.0442V54.2686H112.107V16.0442H121.766ZM152.492 15.4923C157.046 15.4923 160.726 16.9412 163.531 19.8391C166.337 22.6909 167.74 26.6928 167.74 31.8445V54.2686H158.081V33.1555C158.081 30.1196 157.322 27.7967 155.804 26.1868C154.286 24.5309 152.216 23.7029 149.594 23.7029C146.926 23.7029 144.81 24.5309 143.246 26.1868C141.728 27.7967 140.969 30.1196 140.969 33.1555V54.2686H131.31V16.0442H140.969V20.805C142.257 19.1491 143.89 17.8612 145.868 16.9412C147.892 15.9752 150.1 15.4923 152.492 15.4923ZM212.459 34.3284C212.459 35.7084 212.367 36.9503 212.183 38.0543H184.24C184.47 40.8141 185.436 42.9761 187.138 44.54C188.839 46.1039 190.932 46.8859 193.416 46.8859C197.004 46.8859 199.557 45.3449 201.075 42.2631H211.493C210.39 45.9429 208.274 48.9788 205.146 51.3707C202.018 53.7166 198.177 54.8895 193.623 54.8895C189.943 54.8895 186.632 54.0846 183.688 52.4746C180.79 50.8187 178.513 48.4958 176.857 45.5059C175.247 42.5161 174.442 39.0662 174.442 35.1564C174.442 31.2006 175.247 27.7277 176.857 24.7379C178.467 21.748 180.721 19.4481 183.619 17.8382C186.517 16.2282 189.851 15.4233 193.623 15.4233C197.257 15.4233 200.5 16.2052 203.352 17.7692C206.25 19.3331 208.481 21.564 210.045 24.4619C211.654 27.3137 212.459 30.6026 212.459 34.3284ZM202.455 31.5686C202.409 29.0847 201.512 27.1067 199.764 25.6348C198.016 24.1169 195.877 23.3579 193.347 23.3579C190.955 23.3579 188.931 24.0939 187.276 25.5658C185.666 26.9918 184.677 28.9927 184.309 31.5686H202.455ZM230.067 44.126L221.994 63.5141H215.784L220.269 44.126H230.067ZM106.86 124.018C106.86 120.155 107.619 116.728 109.137 113.738C110.701 110.748 112.817 108.448 115.485 106.838C118.153 105.228 121.119 104.423 124.385 104.423C126.869 104.423 129.238 104.975 131.492 106.079C133.746 107.137 135.54 108.563 136.874 110.357V92.2108H146.671V143.269H136.874V137.611C135.678 139.497 133.999 141.015 131.837 142.165C129.675 143.315 127.168 143.89 124.316 143.89C121.096 143.89 118.153 143.062 115.485 141.406C112.817 139.75 110.701 137.427 109.137 134.437C107.619 131.401 106.86 127.928 106.86 124.018ZM136.943 124.156C136.943 121.81 136.483 119.81 135.563 118.154C134.643 116.452 133.401 115.164 131.837 114.29C130.273 113.37 128.594 112.91 126.8 112.91C125.006 112.91 123.35 113.347 121.832 114.221C120.315 115.095 119.073 116.383 118.107 118.085C117.187 119.741 116.727 121.719 116.727 124.018C116.727 126.318 117.187 128.342 118.107 130.09C119.073 131.792 120.315 133.103 121.832 134.023C123.396 134.943 125.052 135.403 126.8 135.403C128.594 135.403 130.273 134.966 131.837 134.092C133.401 133.172 134.643 131.884 135.563 130.228C136.483 128.526 136.943 126.502 136.943 124.156ZM191.639 123.328C191.639 124.708 191.547 125.95 191.363 127.054H163.419C163.649 129.814 164.615 131.976 166.317 133.54C168.019 135.104 170.112 135.886 172.596 135.886C176.184 135.886 178.737 134.345 180.255 131.263H190.673C189.569 134.943 187.453 137.979 184.325 140.371C181.198 142.717 177.357 143.89 172.803 143.89C169.123 143.89 165.811 143.085 162.867 141.475C159.969 139.819 157.693 137.496 156.037 134.506C154.427 131.516 153.622 128.066 153.622 124.156C153.622 120.201 154.427 116.728 156.037 113.738C157.647 110.748 159.9 108.448 162.798 106.838C165.696 105.228 169.031 104.423 172.803 104.423C176.437 104.423 179.68 105.205 182.531 106.769C185.429 108.333 187.66 110.564 189.224 113.462C190.834 116.314 191.639 119.603 191.639 123.328ZM181.635 120.569C181.589 118.085 180.692 116.107 178.944 114.635C177.196 113.117 175.057 112.358 172.527 112.358C170.135 112.358 168.111 113.094 166.455 114.566C164.845 115.992 163.856 117.993 163.488 120.569H181.635ZM246.16 104.492C250.851 104.492 254.623 105.941 257.475 108.839C260.373 111.691 261.822 115.693 261.822 120.845V143.269H252.162V122.155C252.162 119.166 251.403 116.889 249.885 115.325C248.368 113.715 246.298 112.91 243.676 112.91C241.054 112.91 238.961 113.715 237.397 115.325C235.879 116.889 235.12 119.166 235.12 122.155V143.269H225.461V122.155C225.461 119.166 224.702 116.889 223.184 115.325C221.666 113.715 219.596 112.91 216.974 112.91C214.306 112.91 212.19 113.715 210.626 115.325C209.108 116.889 208.349 119.166 208.349 122.155V143.269H198.69V105.044H208.349V109.667C209.591 108.057 211.178 106.792 213.11 105.872C215.088 104.952 217.25 104.492 219.596 104.492C222.586 104.492 225.254 105.136 227.599 106.424C229.945 107.666 231.762 109.46 233.05 111.806C234.292 109.598 236.086 107.827 238.432 106.493C240.824 105.159 243.4 104.492 246.16 104.492ZM268.504 124.018C268.504 120.155 269.263 116.728 270.781 113.738C272.345 110.748 274.438 108.448 277.06 106.838C279.728 105.228 282.695 104.423 285.961 104.423C288.812 104.423 291.296 104.998 293.412 106.148C295.574 107.298 297.299 108.747 298.587 110.495V105.044H308.316V143.269H298.587V137.68C297.345 139.474 295.62 140.969 293.412 142.165C291.25 143.315 288.743 143.89 285.892 143.89C282.672 143.89 279.728 143.062 277.06 141.406C274.438 139.75 272.345 137.427 270.781 134.437C269.263 131.401 268.504 127.928 268.504 124.018ZM298.587 124.156C298.587 121.81 298.127 119.81 297.207 118.154C296.287 116.452 295.045 115.164 293.481 114.29C291.917 113.37 290.238 112.91 288.445 112.91C286.651 112.91 284.995 113.347 283.477 114.221C281.959 115.095 280.717 116.383 279.751 118.085C278.831 119.741 278.371 121.719 278.371 124.018C278.371 126.318 278.831 128.342 279.751 130.09C280.717 131.792 281.959 133.103 283.477 134.023C285.041 134.943 286.697 135.403 288.445 135.403C290.238 135.403 291.917 134.966 293.481 134.092C295.045 133.172 296.287 131.884 297.207 130.228C298.127 128.526 298.587 126.502 298.587 124.156ZM338.932 104.492C343.486 104.492 347.166 105.941 349.971 108.839C352.777 111.691 354.18 115.693 354.18 120.845V143.269H344.521V122.155C344.521 119.12 343.762 116.797 342.244 115.187C340.726 113.531 338.656 112.703 336.034 112.703C333.366 112.703 331.25 113.531 329.686 115.187C328.168 116.797 327.409 119.12 327.409 122.155V143.269H317.75V105.044H327.409V109.805C328.697 108.149 330.33 106.861 332.308 105.941C334.332 104.975 336.54 104.492 338.932 104.492ZM360.882 124.018C360.882 120.155 361.641 116.728 363.159 113.738C364.723 110.748 366.839 108.448 369.507 106.838C372.175 105.228 375.142 104.423 378.407 104.423C380.891 104.423 383.26 104.975 385.514 106.079C387.768 107.137 389.562 108.563 390.896 110.357V92.2108H400.693V143.269H390.896V137.611C389.7 139.497 388.021 141.015 385.859 142.165C383.697 143.315 381.19 143.89 378.338 143.89C375.119 143.89 372.175 143.062 369.507 141.406C366.839 139.75 364.723 137.427 363.159 134.437C361.641 131.401 360.882 127.928 360.882 124.018ZM390.965 124.156C390.965 121.81 390.505 119.81 389.585 118.154C388.665 116.452 387.423 115.164 385.859 114.29C384.295 113.37 382.616 112.91 380.822 112.91C379.028 112.91 377.372 113.347 375.854 114.221C374.337 115.095 373.095 116.383 372.129 118.085C371.209 119.741 370.749 121.719 370.749 124.018C370.749 126.318 371.209 128.342 372.129 130.09C373.095 131.792 374.337 133.103 375.854 134.023C377.418 134.943 379.074 135.403 380.822 135.403C382.616 135.403 384.295 134.966 385.859 134.092C387.423 133.172 388.665 131.884 389.585 130.228C390.505 128.526 390.965 126.502 390.965 124.156ZM420.684 133.126L412.612 152.514H406.402L410.887 133.126H420.684ZM120.591 200.979V219.47C120.591 220.758 120.89 221.701 121.487 222.299C122.131 222.851 123.189 223.127 124.661 223.127H129.146V231.269H123.074C114.933 231.269 110.862 227.313 110.862 219.401V200.979H106.308V193.044H110.862V183.592H120.591V193.044H129.146V200.979H120.591ZM140.993 188.49C139.291 188.49 137.865 187.961 136.715 186.904C135.611 185.8 135.059 184.443 135.059 182.833C135.059 181.223 135.611 179.889 136.715 178.831C137.865 177.727 139.291 177.175 140.993 177.175C142.695 177.175 144.097 177.727 145.201 178.831C146.351 179.889 146.926 181.223 146.926 182.833C146.926 184.443 146.351 185.8 145.201 186.904C144.097 187.961 142.695 188.49 140.993 188.49ZM145.753 193.044V231.269H136.094V193.044H145.753ZM202.767 192.492C207.459 192.492 211.231 193.941 214.082 196.839C216.98 199.691 218.429 203.693 218.429 208.845V231.269H208.77V210.155C208.77 207.166 208.011 204.889 206.493 203.325C204.975 201.715 202.905 200.91 200.283 200.91C197.661 200.91 195.568 201.715 194.004 203.325C192.486 204.889 191.727 207.166 191.727 210.155V231.269H182.068V210.155C182.068 207.166 181.309 204.889 179.791 203.325C178.273 201.715 176.203 200.91 173.581 200.91C170.913 200.91 168.797 201.715 167.234 203.325C165.716 204.889 164.957 207.166 164.957 210.155V231.269H155.297V193.044H164.957V197.667C166.199 196.057 167.786 194.792 169.717 193.872C171.695 192.952 173.857 192.492 176.203 192.492C179.193 192.492 181.861 193.136 184.207 194.424C186.553 195.666 188.37 197.46 189.658 199.806C190.9 197.598 192.693 195.827 195.039 194.493C197.431 193.159 200.007 192.492 202.767 192.492ZM263.129 211.328C263.129 212.708 263.037 213.95 262.853 215.054H234.909C235.139 217.814 236.105 219.976 237.807 221.54C239.509 223.104 241.602 223.886 244.086 223.886C247.674 223.886 250.227 222.345 251.745 219.263H262.163C261.059 222.943 258.943 225.979 255.815 228.371C252.688 230.717 248.847 231.89 244.293 231.89C240.613 231.89 237.301 231.085 234.357 229.475C231.459 227.819 229.183 225.496 227.527 222.506C225.917 219.516 225.112 216.066 225.112 212.156C225.112 208.201 225.917 204.728 227.527 201.738C229.137 198.748 231.39 196.448 234.288 194.838C237.186 193.228 240.521 192.423 244.293 192.423C247.927 192.423 251.17 193.205 254.021 194.769C256.919 196.333 259.15 198.564 260.714 201.462C262.324 204.314 263.129 207.603 263.129 211.328ZM253.125 208.569C253.079 206.085 252.182 204.107 250.434 202.635C248.686 201.117 246.547 200.358 244.017 200.358C241.625 200.358 239.601 201.094 237.945 202.566C236.335 203.992 235.346 205.993 234.978 208.569H253.125ZM274.458 231.752C272.71 231.752 271.261 231.223 270.111 230.165C269.007 229.061 268.455 227.704 268.455 226.094C268.455 224.484 269.007 223.15 270.111 222.092C271.261 220.988 272.71 220.436 274.458 220.436C276.159 220.436 277.562 220.988 278.666 222.092C279.77 223.15 280.322 224.484 280.322 226.094C280.322 227.704 279.77 229.061 278.666 230.165C277.562 231.223 276.159 231.752 274.458 231.752Z" fill="#22621A"/>
</svg>
