<svg width="35" height="29" viewBox="0 0 35 29" fill="none" xmlns="http://www.w3.org/2000/svg">
<path d="M34.141 3.3827C32.8847 3.95642 31.5348 4.34416 30.118 4.5186C31.5643 3.62581 32.6748 2.21205 33.1977 0.527568C31.8228 1.36787 30.3185 1.95991 28.7499 2.27812C27.4722 0.876167 25.6519 0 23.6372 0C19.7688 0 16.6325 3.22996 16.6325 7.21371C16.6325 7.77919 16.6945 8.3297 16.8139 8.85781C10.9926 8.55688 5.83144 5.68499 2.37667 1.3205C1.77386 2.38594 1.42845 3.62526 1.42845 4.94713C1.42845 7.44996 2.66513 9.65789 4.54449 10.9516C3.43217 10.9157 2.34432 10.6063 1.37177 10.0492C1.37137 10.0794 1.37137 10.1096 1.37137 10.14C1.37137 13.6352 3.78578 16.5509 6.98997 17.2136C5.95852 17.5025 4.8766 17.5448 3.82686 17.3372C4.71813 20.2032 7.30497 22.2888 10.3699 22.3471C7.97272 24.2819 4.95244 25.4352 1.67091 25.4352C1.10545 25.4352 0.54799 25.401 0 25.3344C3.09976 27.3812 6.78152 28.5755 10.7371 28.5755C23.6209 28.5755 30.6661 17.5831 30.6661 8.05032C30.6661 7.73744 30.6594 7.42633 30.6458 7.11702C32.0171 6.09606 33.2007 4.83151 34.141 3.3827Z" fill="#979797"/>
</svg>
