<svg width="24" height="25" viewBox="0 0 24 25" fill="none" xmlns="http://www.w3.org/2000/svg">
<path d="M12.3 12.5091C12.8336 12.0472 13.2616 11.4759 13.5549 10.8341C13.8482 10.1922 14 9.49477 14 8.78906C14 7.46298 13.4732 6.19121 12.5355 5.25353C11.5979 4.31585 10.3261 3.78906 9 3.78906C7.67392 3.78906 6.40215 4.31585 5.46447 5.25353C4.52678 6.19121 4 7.46298 4 8.78906C3.99999 9.49477 4.1518 10.1922 4.44513 10.8341C4.73845 11.4759 5.16642 12.0472 5.7 12.5091C4.30014 13.1429 3.11247 14.1666 2.27898 15.4576C1.4455 16.7486 1.00147 18.2524 1 19.7891C1 20.0543 1.10536 20.3086 1.29289 20.4962C1.48043 20.6837 1.73478 20.7891 2 20.7891C2.26522 20.7891 2.51957 20.6837 2.70711 20.4962C2.89464 20.3086 3 20.0543 3 19.7891C3 18.1978 3.63214 16.6716 4.75736 15.5464C5.88258 14.4212 7.4087 13.7891 9 13.7891C10.5913 13.7891 12.1174 14.4212 13.2426 15.5464C14.3679 16.6716 15 18.1978 15 19.7891C15 20.0543 15.1054 20.3086 15.2929 20.4962C15.4804 20.6837 15.7348 20.7891 16 20.7891C16.2652 20.7891 16.5196 20.6837 16.7071 20.4962C16.8946 20.3086 17 20.0543 17 19.7891C16.9985 18.2524 16.5545 16.7486 15.721 15.4576C14.8875 14.1666 13.6999 13.1429 12.3 12.5091ZM9 11.7891C8.40666 11.7891 7.82664 11.6131 7.33329 11.2835C6.83994 10.9538 6.45542 10.4853 6.22836 9.93711C6.0013 9.38893 5.94189 8.78573 6.05764 8.20379C6.1734 7.62185 6.45912 7.0873 6.87868 6.66774C7.29824 6.24818 7.83279 5.96246 8.41473 5.84671C8.99667 5.73095 9.59987 5.79036 10.1481 6.01742C10.6962 6.24449 11.1648 6.629 11.4944 7.12235C11.8241 7.6157 12 8.19572 12 8.78906C12 9.58471 11.6839 10.3478 11.1213 10.9104C10.5587 11.473 9.79565 11.7891 9 11.7891ZM18.74 12.1091C19.38 11.3884 19.798 10.4981 19.9438 9.5454C20.0896 8.59269 19.9569 7.61814 19.5618 6.73906C19.1666 5.85999 18.5258 5.11386 17.7165 4.59049C16.9071 4.06711 15.9638 3.7888 15 3.78906C14.7348 3.78906 14.4804 3.89442 14.2929 4.08196C14.1054 4.26949 14 4.52385 14 4.78906C14 5.05428 14.1054 5.30863 14.2929 5.49617C14.4804 5.68371 14.7348 5.78906 15 5.78906C15.7956 5.78906 16.5587 6.10513 17.1213 6.66774C17.6839 7.23035 18 7.99341 18 8.78906C17.9986 9.3143 17.8593 9.82997 17.5961 10.2845C17.3328 10.739 16.9549 11.1164 16.5 11.3791C16.3517 11.4646 16.2279 11.5867 16.1404 11.7338C16.0528 11.8809 16.0045 12.048 16 12.2191C15.9958 12.3888 16.0349 12.5569 16.1137 12.7073C16.1924 12.8578 16.3081 12.9857 16.45 13.0791L16.84 13.3391L16.97 13.4091C18.1754 13.9808 19.1923 14.8851 19.901 16.0154C20.6096 17.1457 20.9805 18.455 20.97 19.7891C20.97 20.0543 21.0754 20.3086 21.2629 20.4962C21.4504 20.6837 21.7048 20.7891 21.97 20.7891C22.2352 20.7891 22.4896 20.6837 22.6771 20.4962C22.8646 20.3086 22.97 20.0543 22.97 19.7891C22.9782 18.2545 22.5938 16.7433 21.8535 15.3991C21.1131 14.0549 20.0413 12.9224 18.74 12.1091Z" />
</svg>
