<svg width="16" height="16" viewBox="0 0 16 16" fill="none" xmlns="http://www.w3.org/2000/svg">
<path fill-rule="evenodd" clip-rule="evenodd" d="M7.20387 2.38962L7.20387 11.4972C7.20387 11.6816 7.2769 11.8582 7.40724 11.9886C7.53759 12.1189 7.71481 12.1924 7.89908 12.1924C8.08335 12.1924 8.26058 12.1189 8.39091 11.9886C8.52126 11.8582 8.59429 11.6816 8.59429 11.4972L8.59429 2.38962C8.59429 2.38962 9.92082 3.71584 10.6647 4.45968C10.7952 4.59002 10.9718 4.66335 11.1562 4.66335C11.3405 4.66335 11.5176 4.59003 11.6479 4.45968C11.9195 4.18812 11.9195 3.748 11.6479 3.47643L8.36444 0.193006C8.241 0.0695705 8.07347 6.10352e-05 7.89905 6.10352e-05C7.72462 6.10352e-05 7.5571 0.0695705 7.43366 0.193006L4.15021 3.47643C3.87864 3.748 3.87864 4.18811 4.15021 4.45968C4.28055 4.59002 4.45763 4.66335 4.64189 4.66335C4.82631 4.66335 5.00295 4.59003 5.13343 4.45968C5.87727 3.71584 7.20381 2.38962 7.20381 2.38962H7.20387Z" />
<path fill-rule="evenodd" clip-rule="evenodd" d="M0 14.4823C0 14.8316 0.138574 15.1664 0.385747 15.4132C0.632623 15.6604 0.967377 15.7989 1.31667 15.7989H14.4834C14.8327 15.7989 15.1674 15.6604 15.4143 15.4132C15.6615 15.1663 15.8 14.8316 15.8 14.4823V10.497C15.8 10.1131 15.4887 9.80176 15.1048 9.80176H15.1046C14.9201 9.80176 14.7435 9.87523 14.6132 10.0056C14.4828 10.1359 14.4093 10.3127 14.4093 10.497V13.7498C14.4093 14.1135 14.1147 14.4081 13.751 14.4081H2.0492C1.6855 14.4081 1.39086 14.1135 1.39086 13.7498V10.497C1.39086 10.3127 1.31739 10.1359 1.18704 10.0056C1.0567 9.87523 0.880062 9.80176 0.695661 9.80176H0.695367C0.311538 9.80176 0.000164745 10.1131 0.000164745 10.497V14.4823H0Z" />
</svg>
