<svg width="15" height="16" viewBox="0 0 15 16" fill="none" xmlns="http://www.w3.org/2000/svg">
<g clip-path="url(#clip0_2355_11659)">
<path d="M7.63628 12.4839C7.63628 12.7375 7.48966 12.9678 7.26021 13.0753C7.1715 13.1173 7.07643 13.1375 6.98199 13.1375C6.83243 13.1375 6.68427 13.0862 6.56459 12.987L2.98846 10.026H1.08382C0.722614 10.0263 0.429688 9.73345 0.429688 9.37253V6.76841C0.429688 6.40733 0.722614 6.11464 1.08382 6.11464H2.98862L6.56474 3.15362C6.76013 2.9918 7.03107 2.9573 7.26037 3.06559C7.48966 3.17311 7.63643 3.40362 7.63643 3.65702L7.63628 12.4839ZM10.1502 11.4626C10.1342 11.4636 10.1189 11.4643 10.1031 11.4643C9.9303 11.4643 9.76371 11.396 9.64063 11.2729L9.55315 11.1852C9.3237 10.9564 9.29677 10.5939 9.48999 10.3337C9.97985 9.67373 10.2384 8.8914 10.2384 8.0707C10.2384 7.18797 9.94486 6.36 9.38935 5.67621C9.17786 5.41631 9.19737 5.03883 9.4344 4.80214L9.52172 4.71473C9.6524 4.58416 9.8275 4.513 10.017 4.52429C10.2016 4.53357 10.3739 4.62036 10.4909 4.76331C11.2615 5.70545 11.6685 6.84932 11.6685 8.07086C11.6685 9.20854 11.3085 10.2915 10.6273 11.202C10.5135 11.3538 10.3395 11.4491 10.1502 11.4626ZM12.8546 13.4825C12.7363 13.6222 12.5653 13.7061 12.3821 13.7138C12.3731 13.7141 12.364 13.7144 12.3547 13.7144C12.1814 13.7144 12.0152 13.646 11.8921 13.5231L11.8062 13.4372C11.566 13.1974 11.5498 12.8139 11.7681 12.5543C12.823 11.3006 13.4042 9.70839 13.4042 8.0707C13.4042 6.36727 12.782 4.72741 11.6526 3.45328C11.4236 3.19462 11.4352 2.80306 11.6789 2.55863L11.7647 2.47277C11.8919 2.34499 12.0573 2.2746 12.2469 2.28063C12.427 2.28574 12.5973 2.36525 12.717 2.49985C14.0822 4.03574 14.8342 6.01439 14.8342 8.0707C14.8345 10.0492 14.1315 11.9712 12.8546 13.4825Z" fill="black"/>
</g>
<defs>
<clipPath id="clip0_2355_11659">
<rect width="14.4045" height="14.3933" fill="white" transform="translate(0.427734 0.800781)"/>
</clipPath>
</defs>
</svg>
