<svg width="35" height="25" viewBox="0 0 35 25" fill="none" xmlns="http://www.w3.org/2000/svg">
<path d="M34.1818 3.89248C33.9851 3.14129 33.6019 2.4612 33.0731 1.92451C32.5292 1.37132 31.8627 0.975606 31.1364 0.774725C28.4181 0.00768401 17.5275 0.00768419 17.5275 0.00768419C12.9874 -0.0476162 8.44835 0.195608 3.93605 0.735986C3.20971 0.951707 2.54442 1.35626 1.99937 1.91367C1.46382 2.46531 1.0759 3.14558 0.873261 3.89093C0.386476 6.69836 0.149962 9.54897 0.166909 12.4043C0.14954 15.2571 0.385473 18.1068 0.873261 20.9177C1.07156 21.6599 1.45803 22.3371 1.99503 22.8841C2.53203 23.4311 3.20075 23.8262 3.93605 24.0354C6.69053 24.8009 17.5275 24.8009 17.5275 24.8009C22.0735 24.8563 26.6183 24.6131 31.1364 24.0726C31.8627 23.8717 32.5292 23.476 33.0731 22.9228C33.6086 22.3758 33.9893 21.6956 34.1804 20.9549C34.6798 18.1485 34.9227 15.2967 34.9055 12.4399C34.9431 9.57107 34.7005 6.70583 34.1818 3.89093V3.89248ZM14.0652 17.7101V7.1001L23.1262 12.4059L14.0652 17.7101Z" fill="#979797"/>
</svg>
